<svg xmlns="http://www.w3.org/2000/svg" xmlns:xlink="http://www.w3.org/1999/xlink" viewBox="0 0 329.33 56"><defs><style>.cls-1{fill:#0068b7;}.cls-1,.cls-10,.cls-12,.cls-13,.cls-14,.cls-2,.cls-3,.cls-4,.cls-5,.cls-6,.cls-7,.cls-8,.cls-9{fill-rule:evenodd;}.cls-2{fill:#00b9ef;}.cls-3{fill:#7f1084;}.cls-4{fill:#d7000f;}.cls-5{fill:#fff;}.cls-6{fill:url(#新增漸層_1);}.cls-7{fill:url(#新增漸層_5);}.cls-8{fill:url(#新增漸層_4);}.cls-9{fill:url(#新增漸層_3);}.cls-10{fill:url(#新增漸層_1-2);}.cls-11,.cls-12{fill:#231815;}.cls-13{fill:#007c36;}.cls-14{fill:url(#新增漸層);}</style><linearGradient id="新增漸層_1" x1="-214.05" y1="1022.65" x2="-217.39" y2="1010.15" gradientTransform="translate(1218.62 -304.46) rotate(62.56) scale(1.15)" gradientUnits="userSpaceOnUse"><stop offset="0.36" stop-color="#fdd000"/><stop offset="0.64" stop-color="#fff"/></linearGradient><linearGradient id="新增漸層_5" x1="320.53" y1="87.26" x2="316.85" y2="75.22" gradientTransform="translate(-136.97 280.13) rotate(-68.4) scale(0.99)" gradientUnits="userSpaceOnUse"><stop offset="0.37" stop-color="#fdd000"/><stop offset="0.63" stop-color="#fff"/></linearGradient><linearGradient id="新增漸層_4" x1="797.96" y1="797.1" x2="796.9" y2="781.98" gradientTransform="matrix(-1.04, -0.4, 0.4, -1.04, 577.9, 1163.67)" gradientUnits="userSpaceOnUse"><stop offset="0.38" stop-color="#fdd000"/><stop offset="0.62" stop-color="#fff"/></linearGradient><linearGradient id="新增漸層_3" x1="399.53" y1="1279.17" x2="397.46" y2="1264.44" gradientTransform="matrix(-0.82, 0.69, -0.75, -0.74, 1354.33, 683.5)" gradientUnits="userSpaceOnUse"><stop offset="0.39" stop-color="#fdd000"/><stop offset="0.61" stop-color="#fff"/></linearGradient><linearGradient id="新增漸層_1-2" x1="-229.34" y1="395.17" x2="-231.56" y2="382.62" gradientTransform="translate(270.54 -441.7) rotate(-5.64) scale(1.11)" xlink:href="#新增漸層_1"/><linearGradient id="新增漸層" x1="130.97" y1="367.26" x2="130.97" y2="339.64" gradientTransform="translate(95.18 -396.36) scale(1.22)" gradientUnits="userSpaceOnUse"><stop offset="0.25" stop-color="#002063"/><stop offset="0.75" stop-color="#005bac"/></linearGradient></defs><title>資產 1100</title><g id="圖層_2" data-name="圖層 2"><g id="圖層_1-2" data-name="圖層 1"><path class="cls-1" d="M158.56,24.49C163.47,28,170,32.73,170,39.14a14.87,14.87,0,0,1-1.56,6.52,16.72,16.72,0,0,1-4.34,5.56A21.32,21.32,0,0,1,149.92,56a20.86,20.86,0,0,1-13.65-4.59,15.06,15.06,0,0,1-6-12.11c0-6,5.41-10.16,11.5-14.81q-7.9-3.75-7.91-11.08A12.1,12.1,0,0,1,138.33,4a17.25,17.25,0,0,1,11.72-4,17.67,17.67,0,0,1,11.19,3.49,12,12,0,0,1,5,9.89q0,7.39-7.64,11.11Zm-8.6-.55c-7.08,7.87-12.07,9.78-12.07,14.77a9.76,9.76,0,0,0,3.55,7.67,13.76,13.76,0,0,0,17.38,0,9.76,9.76,0,0,0,3.55-7.67c0-5-5.54-7.37-12.41-14.77Zm0-18.2a8.92,8.92,0,0,0-6.69,2.69,7.92,7.92,0,0,0-2.3,5.7,7.86,7.86,0,0,0,2.3,5.66,8.74,8.74,0,0,0,2.72,1.9c1.86-.75,4.16-5.73,4.1-5.73s1.83,4.72,4,5.75a8.69,8.69,0,0,0,2.76-1.92,7.87,7.87,0,0,0,2.31-5.66,7.83,7.83,0,0,0-2.31-5.7,9.37,9.37,0,0,0-6.93-2.69Z"/><path class="cls-2" d="M146.5,30.54a1.1,1.1,0,1,1-1.1,1.1,1.1,1.1,0,0,1,1.1-1.1Z"/><path class="cls-2" d="M146.1,46.59a7.54,7.54,0,0,1-5.81-6,7.28,7.28,0,0,1,2.05-6.37c2.24-2.23,4.11-.86,2.11,1a5.6,5.6,0,0,0-2,5,5.5,5.5,0,0,0,4.54,4.4c1.77.31,1.71,2.59-.92,2Z"/><path class="cls-3" d="M124.44,48.72c0,3.36-1.35,6.17-4.79,6.21H94c-4.36,0-6.53-1.4-6.53-4.23,0-1.48,1-3.1,3-4.87L109,29.68a35.06,35.06,0,0,0,5.21-5.29,11.46,11.46,0,0,0,2.42-7.12,10.36,10.36,0,0,0-3.45-7.92,11.48,11.48,0,0,0-15.44.19,10.44,10.44,0,0,0-3.24,7.75,10.53,10.53,0,0,0,1.62,5.85c1.94,2.81,0,4.71-2.93,6.6-.23-.18-.45-.38-.66-.57a15.47,15.47,0,0,1-5.19-11.92,16,16,0,0,1,5.78-12.7A19.1,19.1,0,0,1,106.06,0a17.55,17.55,0,0,1,12.66,4.82,16.38,16.38,0,0,1,5.11,12.27q0,9.22-10.46,17.54l-15,12c-.8.64-1.19,1.11-1.19,1.42s.28.56.84.64l1.33,0Z"/><path class="cls-4" d="M62.41,36.84c-1,.11-1.85.16-2.38.16a17.59,17.59,0,0,1-10.87-3.67A16.45,16.45,0,0,1,44,26.87,18.88,18.88,0,0,1,42.31,19,18.14,18.14,0,0,1,48.09,5.34,19,19,0,0,1,61.74,0,19.57,19.57,0,0,1,75.66,5.27a17.62,17.62,0,0,1,5.67,13.46,19.65,19.65,0,0,1-1.54,7.59,41.15,41.15,0,0,1-3,5.23Q70.19,41.83,63.61,52.13c-2.36,3.59-6,2.84-10,2.8q6.09-9.33,12.19-18.67a29.51,29.51,0,0,1-3.4.58Z"/><path class="cls-5" d="M75,8.36c-2.73.59-6.09.31-8.5,1.73-2.07,1.21-3.75,4.17-4.74,6.36-.4.88.7,1.19.9,2.14l2.5-.23c2.57-.22,5.51-.71,7.23-2.53S74.72,10.35,75,8.36Z"/><path class="cls-5" d="M45.51,17.59a19.68,19.68,0,0,0,5.93,3.15c2,.66,5.36-.36,7.34-.95a3.47,3.47,0,0,0,1.88-1.28A8.72,8.72,0,0,0,59.11,17c-1.87-1.08-4.46-3.4-6.61-3.49s-5,3.32-7,4.06Z"/><path class="cls-5" d="M56.92,33.88c1.6-2.2,4.65-4,5.48-6.54.71-2.22.24-6.11-.46-8.33a4,4,0,0,0-1.48-2.11c-.56.6-1.66.49-2.06,1.2-1.18,2.13-3.28,5.67-3.35,8.1s1,5.41,1.87,7.68Z"/><path class="cls-5" d="M74.58,28.09c-1.25-2.17-1.45-5.36-3.39-7.06A16.27,16.27,0,0,0,63.88,18a5.41,5.41,0,0,0-2.88.52,9.23,9.23,0,0,0,1.1,2c1.38,1.81,2.65,5.08,4.79,6.1s5.28,1.34,7.69,1.53Z"/><path class="cls-5" d="M57.09,3.9c-.44,2.65-1.75,5.3-1.34,8a11.77,11.77,0,0,0,3.47,6c.65.67,1.84.32,2.76.48A10.43,10.43,0,0,0,62.67,16c.11-2.41.75-5-.25-7.23S58.87,5.53,57.09,3.9Z"/><path class="cls-6" d="M75,8.36c-2.73.59-6.09.31-8.5,1.73-2.07,1.21-3.75,4.17-4.74,6.36-.4.88.7,1.19.9,2.14l2.5-.23c2.57-.22,5.51-.71,7.23-2.53S74.72,10.35,75,8.36Z"/><path class="cls-7" d="M45.51,17.59a19.68,19.68,0,0,0,5.93,3.15c2,.66,5.36-.36,7.34-.95a3.47,3.47,0,0,0,1.88-1.28A8.72,8.72,0,0,0,59.11,17c-1.87-1.08-4.46-3.4-6.61-3.49s-5,3.32-7,4.06Z"/><path class="cls-8" d="M56.92,33.88c1.6-2.2,4.65-4,5.48-6.54.71-2.22.24-6.11-.46-8.33a4,4,0,0,0-1.48-2.11c-.56.6-1.66.49-2.06,1.2-1.18,2.13-3.28,5.67-3.35,8.1s1,5.41,1.87,7.68Z"/><path class="cls-9" d="M74.58,28.09c-1.25-2.17-1.45-5.36-3.39-7.06A16.27,16.27,0,0,0,63.88,18a5.41,5.41,0,0,0-2.88.52,9.23,9.23,0,0,0,1.1,2c1.38,1.81,2.65,5.08,4.79,6.1s5.28,1.34,7.69,1.53Z"/><path class="cls-10" d="M57.09,3.9c-.44,2.65-1.75,5.3-1.34,8a11.77,11.77,0,0,0,3.47,6c.65.67,1.84.32,2.76.48A10.28,10.28,0,0,0,62.67,16c.11-2.41.75-5-.25-7.23S58.87,5.53,57.09,3.9Z"/><path class="cls-11" d="M58.33,13.69c.43,0,.77.23.76.49a.31.31,0,0,1-.12.22,8.33,8.33,0,0,1,2.71,3.16,9.84,9.84,0,0,0-.54-4.2c-.4,0-.7-.23-.7-.47s.36-.46.79-.45.77.23.76.49-.17.32-.42.39a9.07,9.07,0,0,1,.53,3.77,17.09,17.09,0,0,1,2-2.36c-.18-.28-.23-.58-.07-.73s.58-.06.87.26.37.71.18.88-.37.1-.6,0a25.29,25.29,0,0,0-2.17,2.44,6.87,6.87,0,0,1,3.57-1.28c.12-.38.4-.63.63-.57s.36.46.25.88-.41.69-.66.62-.27-.26-.28-.51A9,9,0,0,0,63,17.86,4.74,4.74,0,0,1,65.46,19c.38-.15.75-.1.85.13s-.13.57-.53.74-.79.11-.89-.12,0-.33.17-.49a3,3,0,0,0-2.55-.95,2.26,2.26,0,0,1,1.63,2.55c.36.16.58.44.5.66s-.48.33-.89.18-.66-.45-.57-.69a.42.42,0,0,1,.42-.24,1.85,1.85,0,0,0-1.89-2.08,7.37,7.37,0,0,0-1.28,2.46c.37.16.59.44.51.67s-.48.32-.88.18-.66-.46-.58-.7.3-.27.59-.24a6.35,6.35,0,0,1,1-2.34,3.05,3.05,0,0,0-2.51,1.39.53.53,0,0,1,0,.62c-.18.18-.57.09-.88-.21s-.4-.7-.22-.88.52-.09.81.16a4.66,4.66,0,0,1,2.53-1.6A3,3,0,0,0,58,17.26c0,.26-.36.46-.79.45s-.77-.23-.77-.48.36-.46.79-.45a1,1,0,0,1,.51.13c1.72-.65,3.38.94,3.38.94C60.85,16.39,59,15,58.52,14.6a.75.75,0,0,1-.21,0c-.43,0-.78-.22-.77-.48s.36-.46.79-.45Z"/><path class="cls-12" d="M62.32,16.32c1.51.51,2.5,1.7,2.21,2.64s-1.76,1.3-3.27.79S58.76,18,59.05,17.1s1.76-1.3,3.27-.78Z"/><path class="cls-11" d="M58.33,13.69c.43,0,.77.23.76.49a.31.31,0,0,1-.12.22,8.33,8.33,0,0,1,2.71,3.16,9.84,9.84,0,0,0-.54-4.2c-.4,0-.7-.23-.7-.47s.36-.46.79-.45.77.23.76.49-.17.32-.42.39a9.07,9.07,0,0,1,.53,3.77,17.09,17.09,0,0,1,2-2.36c-.18-.28-.23-.58-.07-.73s.58-.06.87.26.37.71.18.88-.37.1-.6,0a25.29,25.29,0,0,0-2.17,2.44,7,7,0,0,1,3.57-1.28c.12-.38.4-.63.63-.57s.36.46.25.88-.41.69-.66.62-.27-.26-.28-.51A9,9,0,0,0,63,17.86,4.74,4.74,0,0,1,65.46,19c.38-.15.75-.1.85.13s-.13.57-.53.74-.79.11-.89-.12,0-.33.17-.49a3,3,0,0,0-2.55-.95,2.26,2.26,0,0,1,1.63,2.55c.36.16.58.44.5.66s-.48.33-.89.18-.66-.45-.57-.69a.42.42,0,0,1,.42-.24,1.85,1.85,0,0,0-1.89-2.08,7.37,7.37,0,0,0-1.28,2.46c.37.16.59.44.51.67s-.48.32-.88.18-.66-.46-.58-.7.3-.27.59-.24a6.35,6.35,0,0,1,1-2.34,3.05,3.05,0,0,0-2.51,1.39.53.53,0,0,1,0,.62c-.18.18-.57.09-.88-.21s-.4-.7-.22-.88.52-.09.81.16a4.66,4.66,0,0,1,2.53-1.6A3,3,0,0,0,58,17.26c0,.26-.36.46-.79.45s-.77-.23-.77-.48.36-.46.79-.45a1,1,0,0,1,.51.13c1.72-.65,3.38.94,3.38.94C60.85,16.39,59,15,58.52,14.6a.78.78,0,0,1-.22,0c-.42,0-.77-.22-.76-.48s.36-.46.79-.45Z"/><path class="cls-12" d="M62.32,16.32c1.51.51,2.5,1.7,2.21,2.64s-1.76,1.3-3.27.79S58.76,18,59.05,17.1s1.76-1.3,3.27-.78Z"/><path class="cls-13" d="M25.14,54.93V41.27H5.55c-6.77,0-6.06-6.62-4.51-12.13L7.16,3.81C7.8,1.42,10.61.74,14.06.74L7.37,29.81c-.44,2.29-1.45,5.53,1,5.53H25.19V5.2c0-3,4.32-4.08,6.57-4.13v34h8.62c-.11,4.19-2.65,6.22-4.7,6.21H31.76V51.2c0,1.78-1.55,3.73-6.62,3.73Z"/><path class="cls-14" d="M196,25.51V23.38c0-2.65-1.17-4.36-4.39-4.36H182a.35.35,0,0,0-.39.39v9.22c0,.29.13.43.39.43h10.21c2.28,0,3.83-1.31,3.83-3.55Zm92-6.88a2.11,2.11,0,1,0,2,2.11,2.06,2.06,0,0,0-2-2.11Zm-97.49,3.05c2.67,0,2.55.38,2.55,3v.1c0,1.25-1.1,1.58-2.5,1.58h-5.94a.1.1,0,0,1-.11-.14V21.79c0-.07,0-.11.11-.11ZM189.73,42v5.67c1.39,0,2.53-.61,2.52-2.25V42h2v4.52c0,1.9-.94,2-4,1.92.39,1.52.17,2.49,2.11,2.55a11.68,11.68,0,0,0,1.8-.12c1.77-.19,2.93-2.16,2.93-4.08V35.19c0-2.73-1.57-4.18-3.81-4.18H181.19a.59.59,0,0,0-.67.67v19c1.72,0,2.78-.81,2.8-3.08V42h2V50a2.36,2.36,0,0,0,2.52-2.24V42Zm0-2.8h-1.87V33.81h1.87v5.43Zm2.52-5.43h.92c1.11,0,1.1,1.08,1.1,2v3.44h-2V33.81Zm-6.91,5.43h-2V34a.19.19,0,0,1,.21-.22h1.81v5.43ZM197.68,19c0,1.3-.14,2.67,1.73,2.8H207c1.09,0,2.58.05,2.58,3V45.15c0,2.77-.27,3.1-.82,3.48-.73.52-3.9.06-7-.35.3,1.17,1.65,2.82,2.32,2.9,3.48.37,5.78.49,7-.53.85-.71,1.28-1.45,1.28-4.5V24.58c0-4.45-1.82-5.62-5.46-5.63Zm.63,5.25c0,1.53.29,2.74,1.59,2.81H208c0-1-.31-2.81-2.27-2.81Zm9.34,17.66V33.64c0-3.14-2.2-3.84-4-3.84h-4.45a.32.32,0,0,0-.36.36v15.2a.34.34,0,0,0,.36.39h5.09c2.8,0,3.31-1.88,3.31-3.89Zm-4.3-9.4c1.47,0,1.64.11,1.64,1.82v6.95c0,1-.05,1.86-1,1.86h-2.38c-.07,0-.11-.05-.11-.14V32.57a.1.1,0,0,1,.11-.11Zm35.38,4.76a42.75,42.75,0,0,0,10.15,13.3c1.41.93,2.34.36,3.59-1.58-5.63-3.47-8.56-9.62-11.68-15.48a70.39,70.39,0,0,0,2.45-8.8c.4-2-.42-4.7-5.8-4.72-4.27,0-7.24,0-8,0a1.78,1.78,0,0,0,.1-1,4.51,4.51,0,0,0-3.19-.93,38.78,38.78,0,0,1-2.91,9.48,19.46,19.46,0,0,1-4,5.28c.65.48,2.75,2,4.19.52a20.07,20.07,0,0,0,2.75-3.81,27.57,27.57,0,0,0,2.31-6.18h7.6c1.05,0,3.88-.35,3.12,2.28-1.82,9.14-7.53,16.08-11.84,18.92a29.59,29.59,0,0,1-8.19,4.09c.74,1,2.29,2.92,4.4,2.14a31.32,31.32,0,0,0,15-13.56Zm20.29-13c.2,1.56.72,2,1.45,2.13h16c-.24-1.2-.56-2-1.52-2.13Zm-1.56,3.43c.12,1.44.53,2.15,1.35,2.21h19.25c-.35-1.42-.85-2.13-1.57-2.21ZM271.3,46.05c.8,1.28,1.6,2.79,2.4,4.06,1.06,1.37,3,.76,4.14.47-.62-.9-1.73-2.93-2.81-4.61,2.3-.51,2.38-3.09,2.38-5.26V35.9c0-2-.8-4.42-4.35-4.42h-14a.35.35,0,0,0-.39.38V45.63q0,.42.39.42h2.43c-1,1.49-2.27,3.27-3.3,4.76,1.86.11,3.57.12,4.18-.57L265,46.05Zm3-4.41v.75c.07,1.34-1.33,1.3-2.15,1.29H261.86c-.1,0-.14-.08-.11-.14V37.89h9.46c.82,0,1.17-1,1.37-2.23H261.75V34c0-.09,0-.14.11-.14h10.4c2,.08,2.1,1.18,2.06,2.39v3.17c-3.77,0-7.9.18-11.67.18.3,1.34.72,2.07,1.43,2Zm9.85-21.55H281.6l0-.79c-.65-1.67-2.84-1.42-3.13-1.34,0,.66.06,1.37.11,2.13H257c.36,1.5.84,2.42,1.49,2.52h20.21q1.17,16.06,5,25.46a11.07,11.07,0,0,0,.81,1.73,3.47,3.47,0,0,0,2.2,1.57,3.11,3.11,0,0,0,1.1-.14,2.75,2.75,0,0,0,1.1-1,17.88,17.88,0,0,0,1.46-6.31,2.61,2.61,0,0,0-2.57-1.61c0,.83-.42,3.09-.63,4.3-.1.52-.17,1-.46.93a5,5,0,0,1-.74-1.6q-3.2-9.3-4.19-23.3h4c-.31-1.08-.53-2.25-1.64-2.52Zm16.55,15.64c-1.09.59-3,1.57-4.66,2.38.8,1.3,1.95,2.5,3.35,1.74.44-.24.88-.49,1.31-.75v8.33c0,.46-.11.75-.57.78a9.81,9.81,0,0,1-3-.57c-.08,1.44.05,3,.91,3.33,1.77.5,3,.61,3.77.29a3.09,3.09,0,0,0,1.21-1,3.54,3.54,0,0,0,.6-2.13V37.22a2,2,0,0,1,.39-.25,32.3,32.3,0,0,0,3.73-2.78c-1.48-1.61-2.37-1.56-3-1.17l-1.13.82v-6.2h2.63c.06-1.37,0-2.9-1.44-2.94h-1.19V19.8c0-1.14-1.11-1.83-2.94-1.66V24.7h-3.55c0,1.93.75,2.92,1.57,2.94h2v8.09Zm18.12-8.65v-4.8c0-1.31-1.23-3.26-4.09-3.26H308a.38.38,0,0,0-.42.43V30.76a.37.37,0,0,0,.42.43h6.71a3.8,3.8,0,0,0,4.18-4.11Zm-6-5.29c2.73,0,3,.4,3,2,0,.81,0,2,0,2.76,0,1.88-.77,1.86-2.06,1.86h-3.43c-.07,0-.11-.05-.11-.14V21.9a.1.1,0,0,1,.11-.11Zm-1.41,15.27c1.13,0,2.05-.1,3.18-.1.71,0,1.54.21,1.53,1.7,0,.86,0,3.11-.11,4.66a7.2,7.2,0,0,1-.75,3.4,2.15,2.15,0,0,1-1,.92c-.72.25-2.3-.25-4.21-1.12.1,1.32.5,3.19,1,3.46a6.52,6.52,0,0,0,4.56.32,4.46,4.46,0,0,0,2.31-1.95c.57-1,.94-4.47,1.06-9,.09-3.34-1.74-5.33-4.5-5.32l-2.62.1a8,8,0,0,0,.1-1.19c-.32-.75-1.57-1.13-2.82-1.29a43.53,43.53,0,0,1-4.73,18.24c1.41,0,3.53-.09,4-1.29a49.12,49.12,0,0,0,3-11.53ZM321,21.15v20.5c0,1.49,1.51,1.68,2.94,2V23.41c0-1.41-1.19-2-2.94-2.26Zm5.39-3V47.32a1.2,1.2,0,0,1-.32,1c-.55.43-3.46-.18-6.18-.94.2,2.11.62,3.28,1.26,3.49q4.82,1.38,6.62.21a3.32,3.32,0,0,0,1.56-3V20.23c0-1.47-1.2-2-2.94-2.05Z"/></g></g></svg>