<svg xmlns="http://www.w3.org/2000/svg" xmlns:xlink="http://www.w3.org/1999/xlink" viewBox="0 0 362.42 123.44"><defs><style>.cls-1{fill:#0068b7;}.cls-1,.cls-10,.cls-12,.cls-13,.cls-14,.cls-15,.cls-16,.cls-2,.cls-3,.cls-4,.cls-5,.cls-6,.cls-7,.cls-8,.cls-9{fill-rule:evenodd;}.cls-2{fill:#00b9ef;}.cls-3{fill:#7f1084;}.cls-4{fill:#d7000f;}.cls-5{fill:#fff;}.cls-6{fill:url(#新增漸層_1);}.cls-7{fill:url(#新增漸層_5);}.cls-8{fill:url(#新增漸層_4);}.cls-9{fill:url(#新增漸層_3);}.cls-10{fill:url(#新增漸層_1-2);}.cls-11,.cls-12{fill:#231815;}.cls-13{fill:#007c36;}.cls-14{fill:url(#新增漸層);}.cls-15{fill:#356507;}.cls-16{fill:#898989;}</style><linearGradient id="新增漸層_1" x1="-394.92" y1="322.97" x2="-399.14" y2="307.23" gradientTransform="translate(691.94 254.86) rotate(62.56) scale(1.15)" gradientUnits="userSpaceOnUse"><stop offset="0.36" stop-color="#fdd000"/><stop offset="0.64" stop-color="#fff"/></linearGradient><linearGradient id="新增漸層_5" x1="-261.69" y1="649.21" x2="-266.32" y2="634.04" gradientTransform="translate(-351.38 -453.42) rotate(-68.4) scale(0.99)" gradientUnits="userSpaceOnUse"><stop offset="0.37" stop-color="#fdd000"/><stop offset="0.63" stop-color="#fff"/></linearGradient><linearGradient id="新增漸層_4" x1="-541.66" y1="629.74" x2="-542.99" y2="610.69" gradientTransform="matrix(-1.04, -0.4, 0.4, -1.04, -661.97, 464.09)" gradientUnits="userSpaceOnUse"><stop offset="0.38" stop-color="#fdd000"/><stop offset="0.62" stop-color="#fff"/></linearGradient><linearGradient id="新增漸層_3" x1="-584.43" y1="446.38" x2="-587.03" y2="427.82" gradientTransform="matrix(-0.82, 0.69, -0.75, -0.74, 9.19, 756.16)" gradientUnits="userSpaceOnUse"><stop offset="0.39" stop-color="#fdd000"/><stop offset="0.61" stop-color="#fff"/></linearGradient><linearGradient id="新增漸層_1-2" x1="-232.7" y1="443.5" x2="-235.48" y2="427.68" gradientTransform="translate(359.03 -490.57) rotate(-5.64) scale(1.11)" xlink:href="#新增漸層_1"/><linearGradient id="新增漸層" x1="-124.47" y1="387.11" x2="-124.47" y2="355.2" gradientTransform="translate(237.79 -348.71) scale(1.22)" gradientUnits="userSpaceOnUse"><stop offset="0.25" stop-color="#002063"/><stop offset="0.75" stop-color="#005bac"/></linearGradient></defs><title>資產 5123</title><g id="圖層_2" data-name="圖層 2"><g id="圖層_1-2" data-name="圖層 1"><path class="cls-1" d="M273.89,30.85c6.19,4.43,14.37,10.38,14.37,18.45a18.72,18.72,0,0,1-2,8.22,21.2,21.2,0,0,1-5.46,7q-7.23,6-17.83,6a26.23,26.23,0,0,1-17.19-5.78q-7.53-6.14-7.54-15.25c0-7.54,6.82-12.8,14.49-18.66-6.64-3.14-10-7.81-10-14A15.25,15.25,0,0,1,248.41,5q5.76-5,14.76-5,8.44,0,14.1,4.39a15.12,15.12,0,0,1,6.25,12.46c0,6.21-3.22,10.89-9.63,14Zm-10.83-.69c-8.92,9.91-15.2,12.32-15.2,18.6a12.26,12.26,0,0,0,4.47,9.66,17.31,17.31,0,0,0,21.89,0,12.26,12.26,0,0,0,4.47-9.66c0-6.31-7-9.28-15.63-18.6ZM263,7.23a11.23,11.23,0,0,0-8.42,3.39,10,10,0,0,0-2.91,7.18,9.9,9.9,0,0,0,2.91,7.13A10.81,10.81,0,0,0,258,27.32c2.35-.94,5.24-7.22,5.17-7.22s2.31,5.95,5.09,7.24a10.73,10.73,0,0,0,3.48-2.41,9.89,9.89,0,0,0,2.9-7.13,9.86,9.86,0,0,0-2.9-7.18A11.85,11.85,0,0,0,263,7.23Z"/><path class="cls-2" d="M258.7,38.47a1.38,1.38,0,1,1-1.38,1.38,1.38,1.38,0,0,1,1.38-1.38Z"/><path class="cls-2" d="M258.2,58.69a9.52,9.52,0,0,1-7.33-7.55,9.19,9.19,0,0,1,2.6-8c2.81-2.81,5.17-1.09,2.65,1.2a7,7,0,0,0-2.48,6.36,6.9,6.9,0,0,0,5.72,5.55c2.22.4,2.15,3.26-1.16,2.47Z"/><path class="cls-3" d="M230.91,61.37c0,4.24-1.7,7.78-6,7.83H192.5q-8.22,0-8.22-5.33c0-1.87,1.27-3.91,3.84-6.14l23.39-20.34a44.12,44.12,0,0,0,6.57-6.67,14.47,14.47,0,0,0,3-9,13,13,0,0,0-4.34-10,14.45,14.45,0,0,0-19.45.23,13.19,13.19,0,0,0-4.08,9.77,13.26,13.26,0,0,0,2,7.37c2.44,3.54,0,5.93-3.69,8.32-.29-.24-.57-.48-.84-.73a19.45,19.45,0,0,1-6.53-15,20.21,20.21,0,0,1,7.28-16A24.08,24.08,0,0,1,207.76,0q9.63,0,16,6.08a20.62,20.62,0,0,1,6.43,15.45q0,11.61-13.17,22.09L198.08,58.73c-1,.8-1.5,1.4-1.5,1.79s.36.7,1.06.8l1.68,0Z"/><path class="cls-4" d="M152.77,46.41c-1.32.14-2.33.2-3,.2A22.2,22.2,0,0,1,136.08,42a20.77,20.77,0,0,1-6.49-8.13,23.85,23.85,0,0,1-2.14-10,22.88,22.88,0,0,1,7.28-17.16A23.92,23.92,0,0,1,151.92,0a24.69,24.69,0,0,1,17.55,6.64,22.23,22.23,0,0,1,7.13,17,24.53,24.53,0,0,1-1.94,9.56,51.94,51.94,0,0,1-3.79,6.59q-8.31,12.94-16.59,25.93c-3,4.52-7.59,3.58-12.59,3.53q7.68-11.76,15.37-23.52a37.39,37.39,0,0,1-4.29.73Z"/><path class="cls-5" d="M168.64,10.53c-3.45.75-7.68.39-10.72,2.18-2.6,1.53-4.72,5.26-6,8-.5,1.11.89,1.5,1.14,2.7l3.15-.29c3.23-.28,6.93-.9,9.11-3.19s2.93-6.9,3.29-9.41Z"/><path class="cls-5" d="M131.48,22.16a25.16,25.16,0,0,0,7.48,4c2.46.83,6.75-.45,9.23-1.2a4.34,4.34,0,0,0,2.38-1.61,10.94,10.94,0,0,0-2-1.89c-2.35-1.35-5.61-4.27-8.32-4.39s-6.27,4.18-8.81,5.12Z"/><path class="cls-5" d="M145.86,42.67c2-2.76,5.86-5,6.9-8.23.9-2.8.3-7.69-.58-10.49a4.91,4.91,0,0,0-1.87-2.66c-.7.75-2.09.62-2.59,1.51-1.48,2.68-4.13,7.14-4.22,10.21s1.26,6.81,2.36,9.66Z"/><path class="cls-5" d="M168.11,35.38c-1.58-2.73-1.83-6.75-4.27-8.89a20.57,20.57,0,0,0-9.21-3.88,6.92,6.92,0,0,0-3.64.65,11,11,0,0,0,1.4,2.51c1.72,2.28,3.32,6.4,6,7.69s6.65,1.68,9.7,1.92Z"/><path class="cls-5" d="M146.08,4.91c-.57,3.35-2.21,6.68-1.7,10,.44,2.87,2.36,5.45,4.38,7.55.81.84,2.31.4,3.47.6a13,13,0,0,0,.87-2.92c.14-3,1-6.35-.32-9.11s-4.47-4.11-6.7-6.16Z"/><path class="cls-6" d="M168.64,10.53c-3.45.75-7.68.39-10.72,2.18-2.6,1.53-4.72,5.26-6,8-.5,1.11.89,1.5,1.14,2.7l3.15-.29c3.23-.28,6.93-.9,9.11-3.19s2.93-6.9,3.29-9.41Z"/><path class="cls-7" d="M131.48,22.16a25,25,0,0,0,7.48,4c2.45.83,6.75-.45,9.23-1.2a4.34,4.34,0,0,0,2.38-1.61,11.3,11.3,0,0,0-2-1.89c-2.35-1.35-5.61-4.27-8.32-4.39s-6.27,4.18-8.81,5.12Z"/><path class="cls-8" d="M145.86,42.67c2-2.76,5.86-5,6.9-8.23.9-2.8.3-7.69-.58-10.49a4.91,4.91,0,0,0-1.87-2.66c-.7.75-2.09.62-2.59,1.51-1.48,2.68-4.13,7.14-4.22,10.21s1.26,6.81,2.36,9.66Z"/><path class="cls-9" d="M168.11,35.38c-1.58-2.73-1.83-6.75-4.27-8.89a20.57,20.57,0,0,0-9.21-3.88,6.92,6.92,0,0,0-3.64.65,11,11,0,0,0,1.4,2.51c1.72,2.28,3.32,6.4,6,7.69s6.65,1.68,9.7,1.92Z"/><path class="cls-10" d="M146.08,4.91c-.57,3.35-2.21,6.68-1.7,10,.44,2.87,2.36,5.45,4.38,7.55.81.84,2.31.4,3.47.6a13,13,0,0,0,.87-2.92c.14-3,1-6.35-.32-9.11s-4.47-4.11-6.7-6.16Z"/><path class="cls-11" d="M147.63,17.25c.54,0,1,.28,1,.61a.38.38,0,0,1-.15.28,10.58,10.58,0,0,1,3.42,4,12.52,12.52,0,0,0-.69-5.29c-.5,0-.88-.29-.88-.59s.46-.58,1-.57,1,.29,1,.62-.23.4-.53.49a11.45,11.45,0,0,1,.67,4.75,20.35,20.35,0,0,1,2.55-3c-.23-.36-.29-.74-.09-.92s.73-.08,1.1.32.47.9.23,1.12a.66.66,0,0,1-.76-.06,33.24,33.24,0,0,0-2.73,3.08,8.61,8.61,0,0,1,4.49-1.61c.16-.48.5-.8.8-.72s.45.58.31,1.1-.52.87-.83.78-.34-.32-.35-.64a11.4,11.4,0,0,0-3.61,1.49,5.94,5.94,0,0,1,3.11,1.39c.48-.18.95-.11,1.08.17s-.17.71-.67.93-1,.14-1.13-.15a.6.6,0,0,1,.22-.62A3.78,3.78,0,0,0,152.9,23,2.87,2.87,0,0,1,155,26.25c.44.19.72.54.62.83s-.61.4-1.11.22-.84-.57-.73-.88a.56.56,0,0,1,.53-.3,2.33,2.33,0,0,0-2.38-2.61,9.44,9.44,0,0,0-1.61,3.1c.46.19.75.55.65.84s-.61.4-1.12.22-.84-.57-.73-.87.38-.34.74-.31a8.17,8.17,0,0,1,1.25-2.95,3.88,3.88,0,0,0-3.16,1.75c.18.31.21.62,0,.79s-.72.11-1.11-.27-.51-.88-.28-1.11.65-.11,1,.21a5.91,5.91,0,0,1,3.19-2,3.68,3.68,0,0,0-3.57-1.14c0,.32-.45.57-1,.56s-1-.29-1-.61.45-.58,1-.56a1.36,1.36,0,0,1,.63.16c2.17-.82,4.26,1.19,4.26,1.19-.33-1.84-2.66-3.65-3.26-4.09l-.27,0c-.54,0-1-.29-1-.61s.45-.57,1-.56Z"/><path class="cls-12" d="M152.66,20.55c1.9.65,3.15,2.15,2.78,3.34s-2.21,1.63-4.12,1-3.15-2.14-2.78-3.33,2.22-1.63,4.12-1Z"/><path class="cls-11" d="M147.63,17.25c.54,0,1,.28,1,.61a.38.38,0,0,1-.15.28,10.58,10.58,0,0,1,3.42,4,12.52,12.52,0,0,0-.69-5.29c-.5,0-.88-.29-.88-.59s.46-.58,1-.57,1,.29,1,.62-.23.4-.53.49a11.45,11.45,0,0,1,.67,4.75,20.35,20.35,0,0,1,2.55-3c-.23-.36-.29-.74-.09-.92s.73-.08,1.1.32.47.9.23,1.12a.66.66,0,0,1-.76-.06,33.24,33.24,0,0,0-2.73,3.08,8.61,8.61,0,0,1,4.49-1.61c.16-.48.5-.8.8-.72s.45.58.31,1.1-.52.87-.83.78-.34-.32-.35-.64a11.4,11.4,0,0,0-3.61,1.49,5.94,5.94,0,0,1,3.11,1.39c.48-.18.95-.11,1.08.17s-.17.71-.67.93-1,.14-1.13-.15a.6.6,0,0,1,.22-.62A3.78,3.78,0,0,0,152.9,23,2.87,2.87,0,0,1,155,26.25c.44.19.72.54.62.83s-.61.4-1.11.22-.84-.57-.73-.88a.56.56,0,0,1,.53-.3,2.33,2.33,0,0,0-2.38-2.61,9.44,9.44,0,0,0-1.61,3.1c.46.19.75.55.65.84s-.61.4-1.12.22-.84-.57-.73-.87.38-.34.74-.31a8.17,8.17,0,0,1,1.25-2.95,3.88,3.88,0,0,0-3.16,1.75c.18.31.21.62,0,.79s-.72.11-1.11-.27-.51-.88-.28-1.11.65-.11,1,.21a5.91,5.91,0,0,1,3.19-2,3.68,3.68,0,0,0-3.57-1.14c0,.32-.45.57-1,.56s-1-.29-1-.61.46-.58,1-.56a1.36,1.36,0,0,1,.63.16c2.17-.82,4.26,1.19,4.26,1.19-.33-1.84-2.66-3.65-3.26-4.09l-.27,0c-.54,0-1-.29-1-.61s.45-.57,1-.56Z"/><path class="cls-12" d="M152.66,20.55c1.9.65,3.15,2.15,2.78,3.34s-2.21,1.63-4.12,1-3.15-2.14-2.78-3.33,2.22-1.63,4.12-1Z"/><path class="cls-13" d="M105.82,69.2V52H81.14c-8.52,0-7.63-8.34-5.67-15.28q3.84-15.95,7.7-31.9C84,1.79,87.52.93,91.86.93q-4.22,18.32-8.42,36.63c-.56,2.87-1.82,7,1.19,7h21.26v-38c0-3.78,5.44-5.13,8.27-5.21V44.16H125c-.14,5.29-3.33,7.84-5.92,7.83h-4.94v12.5c0,2.25-2,4.71-8.34,4.71Z"/><path class="cls-14" d="M17.9,93.31V90.85c0-3.06-1.35-5-5.07-5H1.68a.41.41,0,0,0-.45.45V96.93c0,.33.15.49.45.49H13.47c2.64,0,4.43-1.51,4.43-4.11Zm106.31-7.94a2.44,2.44,0,1,0,2.29,2.43,2.37,2.37,0,0,0-2.29-2.43ZM11.55,88.89c3.1,0,2.95.44,2.95,3.51v.12c0,1.44-1.27,1.83-2.88,1.83H4.76c-.12,0-.16-.09-.13-.16V89c0-.09,0-.13.13-.13Zm-.9,23.53V119c1.6,0,2.92-.71,2.91-2.6v-4H15.9v5.22c0,2.2-1.09,2.32-4.68,2.22.45,1.76.2,2.87,2.45,2.94a13.78,13.78,0,0,0,2.07-.13c2-.22,3.39-2.49,3.39-4.71V104.51c0-3.17-1.82-4.83-4.4-4.83H.78a.68.68,0,0,0-.78.77v21.92c2,0,3.22-.93,3.24-3.55v-6.4H5.57v9.17A2.71,2.71,0,0,0,8.48,119v-6.59Zm0-3.24H8.48v-6.27h2.17v6.27Zm2.91-6.27h1.06c1.28,0,1.28,1.25,1.28,2.29v4H13.56v-6.27Zm-8,6.27H3.24v-6a.22.22,0,0,1,.24-.25H5.57v6.27ZM19.83,85.74c0,1.5-.16,3.08,2,3.24h8.8c1.25,0,3,0,3,3.41V116c0,3.19-.31,3.57-.94,4-.85.6-4.51.07-8-.4.34,1.35,1.9,3.25,2.68,3.34,4,.43,6.67.57,8.07-.6,1-.82,1.48-1.68,1.48-5.21V92.25c0-5.15-2.1-6.5-6.31-6.51Zm.74,6.07c0,1.77.32,3.16,1.83,3.24h9.36c0-1.2-.36-3.24-2.63-3.24ZM31.35,112.2v-9.49c0-3.63-2.54-4.43-4.56-4.43H21.65a.37.37,0,0,0-.42.41v17.56a.4.4,0,0,0,.42.45h5.88c3.24,0,3.82-2.16,3.82-4.5Zm-5-10.85c1.7,0,1.9.12,1.9,2.1v8c0,1.12-.06,2.15-1.1,2.15H24.43c-.08,0-.13-.06-.13-.16v-12c0-.08,0-.12.13-.12Zm40.88,5.49A49.17,49.17,0,0,0,79,122.21c1.63,1.08,2.7.42,4.15-1.82-6.51-4-9.9-11.12-13.51-17.89a79.29,79.29,0,0,0,2.84-10.16c.46-2.36-.48-5.43-6.71-5.45-4.93,0-8.36,0-9.2,0a2,2,0,0,0,.12-1.11c-.47-.69-2.74-1.25-3.69-1.07-.72,4-2.31,9.19-3.36,11a22.42,22.42,0,0,1-4.67,6.1c.75.56,3.17,2.26,4.84.6A23.29,23.29,0,0,0,53,98a32.33,32.33,0,0,0,2.67-7.15h8.78c1.2,0,4.48-.4,3.6,2.64C65.94,104,59.34,112,54.36,115.31A33.5,33.5,0,0,1,44.89,120c.86,1.2,2.65,3.38,5.09,2.48a36.12,36.12,0,0,0,17.28-15.68Zm23.45-15c.24,1.8.84,2.32,1.68,2.45h18.52c-.27-1.37-.65-2.3-1.76-2.45Zm-1.8,4c.14,1.66.61,2.48,1.56,2.56h22.24c-.4-1.65-1-2.47-1.82-2.56Zm16,21.28c.93,1.48,1.85,3.21,2.77,4.69,1.24,1.58,3.52.87,4.79.54-.72-1.05-2-3.39-3.24-5.33,2.65-.58,2.74-3.57,2.74-6.08v-5.56c0-2.33-.92-5.11-5-5.11H90.75a.41.41,0,0,0-.45.45v15.91c0,.32.14.49.45.49h2.81c-1.2,1.71-2.62,3.77-3.82,5.49,2.15.13,4.13.14,4.83-.65l3.09-4.84Zm3.5-5.11v.87c.07,1.55-1.54,1.51-2.49,1.49H94c-.11,0-.15-.08-.13-.16v-6.53H104.8c.94,0,1.35-1.09,1.58-2.58H93.86v-1.92c0-.11,0-.16.13-.16h12c2.26.09,2.42,1.35,2.38,2.76v3.65c-4.37,0-9.13.22-13.5.22.35,1.55.84,2.39,1.66,2.36Zm11.38-24.9h-3c0-.31,0-.61,0-.9-.76-1.94-3.28-1.64-3.61-1.56q0,1.16.12,2.46H88.41c.42,1.73,1,2.8,1.73,2.91h23.35q1.35,18.57,5.74,29.42a13.38,13.38,0,0,0,.93,2,4,4,0,0,0,2.55,1.8A3.22,3.22,0,0,0,124,123a3.08,3.08,0,0,0,1.27-1.19,20.61,20.61,0,0,0,1.68-7.29,3,3,0,0,0-3-1.86c0,1-.48,3.58-.73,5-.11.6-.19,1.15-.53,1.08a5.57,5.57,0,0,1-.86-1.85Q118.16,106.14,117,90h4.66c-.36-1.24-.61-2.59-1.89-2.91Zm19.12,18.07c-1.26.69-3.5,1.82-5.39,2.76.93,1.49,2.26,2.89,3.88,2,.51-.27,1-.56,1.51-.86v9.63c0,.52-.12.86-.66.89a11,11,0,0,1-3.44-.65c-.09,1.66,0,3.51,1,3.84,2,.59,3.52.71,4.37.34a3.53,3.53,0,0,0,1.39-1.19,4.08,4.08,0,0,0,.7-2.46V106.84a2.06,2.06,0,0,1,.45-.28,35.92,35.92,0,0,0,4.3-3.22c-1.7-1.85-2.73-1.8-3.45-1.35l-1.3,1V95.78h3c.07-1.58,0-3.35-1.66-3.4H142.3V86.72c-.05-1.32-1.29-2.12-3.4-1.92v7.58h-4.1c0,2.23.86,3.37,1.81,3.4h2.29v9.34Zm20.94-10V89.58c0-1.51-1.43-3.76-4.73-3.76h-7.85a.43.43,0,0,0-.49.49V99.39a.43.43,0,0,0,.49.49H155c3.89,0,4.83-2.72,4.83-4.75ZM152.91,89c3.16,0,3.53.47,3.53,2.32,0,.93,0,2.26,0,3.19-.05,2.17-.89,2.15-2.38,2.15h-4c-.08,0-.12-.06-.12-.16V89.15c0-.09,0-.13.12-.13Zm-1.63,17.65c1.31,0,2.37-.12,3.68-.12.82,0,1.78.24,1.77,2,0,1,0,3.59-.13,5.38a8.33,8.33,0,0,1-.86,3.93,2.49,2.49,0,0,1-1.19,1.07c-.83.29-2.65-.29-4.86-1.3.12,1.53.58,3.69,1.14,4,2.29.82,3.9.88,5.28.37a5.13,5.13,0,0,0,2.66-2.25c.66-1.1,1.09-5.16,1.23-10.41.1-3.86-2-6.16-5.2-6.15l-3,.12a8,8,0,0,0,.1-1.38c-.37-.87-1.81-1.3-3.25-1.49a50.55,50.55,0,0,1-5.46,21.07c1.62,0,4.07-.1,4.66-1.48,1.55-3.36,2.68-8.52,3.45-13.32Zm11.05-18.39V112c0,1.73,1.75,2,3.4,2.26V90.9c0-1.64-1.38-2.36-3.4-2.62Zm6.23-3.44v33.68a1.35,1.35,0,0,1-.37,1.11c-.63.5-4-.21-7.14-1.08.23,2.44.71,3.78,1.45,4,3.71,1.06,6.27,1.14,7.66.24a3.86,3.86,0,0,0,1.8-3.44V87.22c0-1.7-1.39-2.34-3.4-2.38Z"/><path class="cls-15" d="M196.81,99.55V93.49c0-.16-.09-.25-.27-.25h-7.41a.22.22,0,0,0-.25.25v6.06a.23.23,0,0,0,.25.26h7.41c.17,0,.25-.08.27-.26Zm-2-4.59c.06,0,.09,0,.09.08v3s0,.07-.09.09h-3.93c-.06,0-.09,0-.07-.09V95c0-.05,0-.08.07-.08Zm-7.11,12.32h17.19v1H207V86.87c0-.45-.24-.69-.73-.71h-20a.65.65,0,0,0-.71.71v21.45h2.11v-1ZM200.9,89.76h-1.64c-.07-.59-.11-1.15-.15-1.68h1.19a14.24,14.24,0,0,1,.6,1.68Zm1.49-1.68h2.18c.21,0,.31.09.31.29h0v17H187.69v-17c0-.2.09-.29.29-.29h9.24c0,.53.06,1.09.12,1.68h-8.51v1.91h8.73a53.22,53.22,0,0,0,1.65,8.22c-.49.69-1.08,1.46-1.77,2.3l-.37-1.67a48.45,48.45,0,0,1-8.48,1.23l.41,2a42.16,42.16,0,0,0,8-1.11L195.65,104l1.62,1.23a25.59,25.59,0,0,0,2.64-3.17,13.33,13.33,0,0,0,1.07,2.23,2.18,2.18,0,0,0,1.38.92,1.67,1.67,0,0,0,.7-.12,1.69,1.69,0,0,0,.66-.63,12.77,12.77,0,0,0,.68-4.32l-1.87-.48a18.51,18.51,0,0,1,0,2.59q-.08.47-.27.51c-.06,0-.21-.26-.43-.82s-.43-1.13-.66-1.77a.53.53,0,0,1,.12-.2,25.11,25.11,0,0,0,2.62-6.64l-1.86-.51a26.75,26.75,0,0,1-1.58,4.8q-.47-1.89-1-5.94h4.61V89.76h-1.14c-.19-.61-.38-1.16-.55-1.68Zm25.42,7.37V97h7.11V95.33a23,23,0,0,0,2.42,2.13l1.6-1.3a20.48,20.48,0,0,1-3.78-3.28,29.56,29.56,0,0,0,3.76-5.09l-.75-1.29h-4.78v1.82h3c-.7,1-1.48,2.05-2.35,3.1a23.24,23.24,0,0,1-1.9-4c0-.19.11-.38.17-.55l-1.4-.71h-3.71c.07-.25.14-.5.22-.75l-1.82.1a16.12,16.12,0,0,1-1.48,3.3,11.94,11.94,0,0,1-1.67,1.79l1.14-3.78-1.41-.9h-5.33a.42.42,0,0,0-.22,0,.33.33,0,0,0-.07.24v22.09h2v-5.48a6.29,6.29,0,0,0,3,.27,2.68,2.68,0,0,0,1.4-.92c.7-.93.86-2.35.49-4.27a11.85,11.85,0,0,0-1.75-3.73,1.19,1.19,0,0,1,0-.88l.56-2,1,1c.22-.19.42-.39.61-.58,1.45,1.31,2.34,2.12,2.64,2.43a19.62,19.62,0,0,1-3.22,2.25l1.45,1.38a19.73,19.73,0,0,0,3.1-2.4Zm.37-.36a.91.91,0,0,1,.17-.17,16.43,16.43,0,0,0,2.93-4.73,21.34,21.34,0,0,0,3.4,4.9Zm-2.09-3.69c-.4-.35-.75-.65-1.06-.9a8.58,8.58,0,0,1,.53-.7,21.17,21.17,0,0,1,3.1,1.75c-.06.1-.12.19-.17.29a9.77,9.77,0,0,1-.8,1.11,18.44,18.44,0,0,0-1.6-1.55ZM228,89.07l-1.52-.82a.61.61,0,0,1,.1-.22h3.29c.19,0,.24.26.15.77s-.32.79-.49,1.15c-.48-.29-1-.59-1.53-.88Zm-7.24-1.18c.41,0,.54.15.41.51l-1.62,5.48v.17q2.33,4.07,2.11,6a2,2,0,0,1-.3.87.93.93,0,0,1-.65.39,3.37,3.37,0,0,1-2.11-.58V88.06a.12.12,0,0,1,0-.12.28.28,0,0,1,.12,0Zm9.79,13v4.68a.8.8,0,0,1-.22.65c-.34.29-1.36.18-3.07-.34l-.05,2.09c2.15.58,3.58.63,4.29.14a2.35,2.35,0,0,0,1.06-2v-5.19h5.87V99h-13.5v1.91Zm3.37,2.4a28,28,0,0,1,3.39,4.41l1.65-1.21a25.68,25.68,0,0,0-3.46-4.48l-1.58,1.28ZM226.48,102a14.7,14.7,0,0,1-4.7,4l1.31,1.58a15.77,15.77,0,0,0,5-4.41l-1.6-1.22Zm27.74,1.72h11.27V105a1.13,1.13,0,0,1-.56,1c-.55.38-1.95.25-4.21-.41v2.34c2.8.65,4.77.62,5.89-.09a2.33,2.33,0,0,0,1-2v-13a.47.47,0,0,0-.53-.53H255a25.48,25.48,0,0,0,2.59-3h11.91V87.23H259c.14-.26.31-.52.48-.78l-1.89-1.16c-.4.7-.8,1.34-1.18,1.94h-9.34v2.11h7.83a25,25,0,0,1-8.26,6.38l1.38,1.86a25.56,25.56,0,0,0,3.46-2.18,5.32,5.32,0,0,1,.59-.44v13.36h2.11v-4.63Zm0-2.11V99.13h11.27v2.45Zm0-4.56V94.65a.15.15,0,0,1,.17-.17H265.3a.18.18,0,0,1,.19.17V97Zm26.67,5.9a6.4,6.4,0,0,0,3.49.29,3.06,3.06,0,0,0,1.67-1.17c.74-1,.85-2.47.31-4.31a9.83,9.83,0,0,0-1.84-3.39.82.82,0,0,1,0-.8l2.08-6.36-1.47-1h-6a.29.29,0,0,0-.22.08.27.27,0,0,0-.07.21v21.75h2.11v-5.33Zm2.68-14.7c.36,0,.49.15.39.49L282.22,94a.64.64,0,0,0,0,.15.33.33,0,0,0,0,.15q2.32,3.48,2.37,5.25a2.17,2.17,0,0,1-.31,1.14,1.2,1.2,0,0,1-.85.51,3.44,3.44,0,0,1-2.54-.63V88.39a.15.15,0,0,1,.05-.12l.11,0ZM296,102.89a27.6,27.6,0,0,0,4.19-3.15L299,98.05a35.18,35.18,0,0,1-4,3,15.29,15.29,0,0,1-1.38-4h5.19a.6.6,0,0,0,.67-.68V86.79c0-.4-.21-.61-.65-.63H288.13a.57.57,0,0,0-.63.63V106c-.89.1-1.82.21-2.79.34l.37,2.11a41.5,41.5,0,0,0,8.63-1.7l-.49-2.06c-1,.31-2.24.61-3.61.92V97.1h1.82q1.41,6.33,5.5,9.57,1,.83,2.43,1.77l1.65-1.57a15.39,15.39,0,0,1-5-4Zm1.25-10.15v1.91A.31.31,0,0,1,297,95h-7.35V92.74Zm-7.68-2.11V88.78a.45.45,0,0,1,.51-.51h6.64c.36,0,.53.17.53.51v1.85Zm24.07-1.82a19.25,19.25,0,0,1-4.75,7.66l2,1.26a22.36,22.36,0,0,0,4.85-8.19l-2.09-.73Zm2.84-2.74v2.11h8.1c.11,0,.18.1.22.31a29.57,29.57,0,0,0,1.91,5,19.69,19.69,0,0,0,3.32,4.22l2-1.24A16.19,16.19,0,0,1,328.18,92a18.32,18.32,0,0,1-1.82-5.53.44.44,0,0,0-.53-.41Zm11.73,19.85c.51.79,1,1.56,1.41,2.3l1.89-1.06a102.64,102.64,0,0,0-6.81-10l-1.82,1.22A60.73,60.73,0,0,1,327,104l-12.17.93a76.57,76.57,0,0,0,5.06-10.31l-2-.89a76.29,76.29,0,0,1-5.67,11.37l-2.79.19c.21.79.4,1.52.58,2.18l18.3-1.53Zm13-19.85v2.11h18.2c.24,0,.36.11.36.34v16a1.77,1.77,0,0,1-.62,1.43q-1.25.8-6.33-.39l.31,2.3a21,21,0,0,0,4.75.54,4.61,4.61,0,0,0,3.08-.85,2.77,2.77,0,0,0,1-2.28V86.82a.63.63,0,0,0-.68-.75Zm.62,4.26v2.11H357.3V90.33Zm14.67,13.24V94.89c0-.19-.1-.29-.31-.29H342.87a.26.26,0,0,0-.29.29v8.68c0,.22.1.32.29.32h13.34c.21,0,.31-.1.31-.32Zm-2.23-6.86a.11.11,0,0,1,.12.1v4.85q0,.09-.12.12h-9.5c-.06,0-.1,0-.1-.12V96.81a.09.09,0,0,1,.1-.1Z"/><polygon class="cls-16" points="185.26 110.65 362.42 110.65 362.42 123.26 185.26 123.26 185.26 110.65 185.26 110.65"/><path class="cls-5" d="M198,118.87h-1.27V121h-1.11v-2.17H191v-.61l4.38-5.4h1.36v5.25H198v.76Zm-2.38-.76v-3.53c0-.26,0-.54,0-.85h0a4.47,4.47,0,0,1-.38.63l-3,3.75Zm4.81,2.8V120a4.17,4.17,0,0,0,1.75.38,2.54,2.54,0,0,0,2.08-.89A3.88,3.88,0,0,0,205,117h0a2.34,2.34,0,0,1-2.2,1.06,3,3,0,0,1-2.07-.71,2.35,2.35,0,0,1-.81-1.84,2.44,2.44,0,0,1,.89-2,3.31,3.31,0,0,1,2.27-.77,2.86,2.86,0,0,1,2.28,1,4.21,4.21,0,0,1,.81,2.78A5.15,5.15,0,0,1,205.1,120a3.67,3.67,0,0,1-2.94,1.23,5,5,0,0,1-1.72-.27Zm2.53-7.39a1.91,1.91,0,0,0-1.36.51,1.68,1.68,0,0,0-.55,1.3,1.74,1.74,0,0,0,.54,1.35,2.28,2.28,0,0,0,2.8,0,1.34,1.34,0,0,0,.55-1.09,2.1,2.1,0,0,0-.55-1.52,1.84,1.84,0,0,0-1.43-.59ZM214.22,121h-5.94v-.83l2.87-2.39a10.51,10.51,0,0,0,1.57-1.52,2,2,0,0,0,.47-1.3,1.3,1.3,0,0,0-.49-1.09,2.14,2.14,0,0,0-1.38-.39,4.08,4.08,0,0,0-2.53.93v-1a4.81,4.81,0,0,1,2.69-.74,3.25,3.25,0,0,1,2.07.59,1.93,1.93,0,0,1,.76,1.59,2.66,2.66,0,0,1-.53,1.54,10.09,10.09,0,0,1-1.87,1.86l-2.28,1.87v0h4.59V121Zm4.57-4.29v0c-1.18-.45-1.77-1.12-1.77-2a1.72,1.72,0,0,1,.81-1.46,3.63,3.63,0,0,1,2.09-.56,3.16,3.16,0,0,1,1.9.53,1.62,1.62,0,0,1,.74,1.36c0,.91-.61,1.61-1.83,2.11v0q2.16.65,2.16,2.22a1.85,1.85,0,0,1-.88,1.61,4.31,4.31,0,0,1-2.45.6,3.5,3.5,0,0,1-2.08-.59,1.84,1.84,0,0,1-.82-1.54c0-1,.71-1.82,2.13-2.3Zm2.61-2a1.05,1.05,0,0,0-.42-.89,1.84,1.84,0,0,0-1.16-.33,2,2,0,0,0-1.17.34,1,1,0,0,0-.47.86c0,.71.53,1.25,1.6,1.61q1.62-.56,1.62-1.59Zm-1.7,2.46c-1.25.41-1.88,1-1.88,1.8a1.18,1.18,0,0,0,.54,1,2.45,2.45,0,0,0,1.44.39,2.41,2.41,0,0,0,1.4-.38,1.18,1.18,0,0,0,.54-1c0-.83-.68-1.44-2-1.84Zm15.72,3.5a6.79,6.79,0,0,1-2.72.48,4.86,4.86,0,0,1-3.37-1.12,3.76,3.76,0,0,1-1.26-3,3.94,3.94,0,0,1,1.42-3.17,5.36,5.36,0,0,1,3.61-1.21,7,7,0,0,1,2.32.33v1a5.63,5.63,0,0,0-2.34-.49,4,4,0,0,0-2.75,1,3.19,3.19,0,0,0-1.05,2.51,3,3,0,0,0,1,2.38,3.74,3.74,0,0,0,2.59.89,5.57,5.57,0,0,0,2.57-.55v.93Zm6.37.48a4.75,4.75,0,0,1-3.35-1.15,3.85,3.85,0,0,1-1.27-3,4,4,0,0,1,1.29-3.15,5,5,0,0,1,3.5-1.17,4.7,4.7,0,0,1,3.29,1.14,3.84,3.84,0,0,1,1.24,3,4.08,4.08,0,0,1-1.27,3.17,5,5,0,0,1-3.43,1.16Zm.08-7.59a3.5,3.5,0,0,0-2.52.93,3.58,3.58,0,0,0,0,4.88,3.39,3.39,0,0,0,2.46.92,3.57,3.57,0,0,0,2.56-.88,3.22,3.22,0,0,0,.93-2.46,3.34,3.34,0,0,0-.9-2.5,3.45,3.45,0,0,0-2.51-.89ZM259.25,121H258.1v-5.48a14.66,14.66,0,0,1,.1-1.6h0a4.29,4.29,0,0,1-.3.8L254.51,121h-.57l-3.36-6.24a4.6,4.6,0,0,1-.29-.84h0a15.83,15.83,0,0,1,.05,1.61V121H249.2v-8.18h1.53l3,5.71a5.86,5.86,0,0,1,.46,1h0c.19-.45.35-.78.47-1l3.09-5.69h1.44V121Zm4.52-3.09V121h-1.16v-8.18h2.71a4.13,4.13,0,0,1,2.45.64,2.12,2.12,0,0,1,.87,1.81,2.3,2.3,0,0,1-1,1.9,4.23,4.23,0,0,1-2.61.74Zm0-4.22v3.36H265a3.11,3.11,0,0,0,1.82-.46,1.48,1.48,0,0,0,.63-1.28q0-1.62-2.31-1.62Zm14,7.31h-1.28l-1-2.29h-4.18l-1,2.29H269l3.78-8.18H274l3.79,8.18Zm-2.7-3.15-1.55-3.49a2.71,2.71,0,0,1-.15-.54h0a2.75,2.75,0,0,1-.16.54l-1.53,3.49ZM288,121h-1.41l-5.07-6.52a2.29,2.29,0,0,1-.32-.51h0a6.83,6.83,0,0,1,.05,1.12V121H280v-8.18h1.5l4.93,6.42a6.79,6.79,0,0,1,.4.55h0a6.77,6.77,0,0,1-.07-1.2v-5.77H288V121Zm9.76-8.18L294.48,118v3h-1.15v-3l-3.17-5.18h1.31l2.21,3.7s.11.21.24.5h0a3.05,3.05,0,0,1,.26-.5l2.31-3.7ZM308.08,121H303v-8.18h1.16v7.32h4V121Zm4.4-8.18v.83h-1v6.53h1V121H309.4v-.82h1v-6.53h-1v-.83ZM324.93,121h-1.15v-5.48c0-.44,0-1,.09-1.6h0a4.29,4.29,0,0,1-.3.8L320.18,121h-.56l-3.36-6.24a4.48,4.48,0,0,1-.3-.84h0c0,.33.05.87.05,1.61V121h-1.11v-8.18h1.52l3,5.71a6.51,6.51,0,0,1,.45,1h0c.2-.45.36-.78.48-1l3.08-5.69h1.45V121Zm5.47-8.18v.83h-1v6.53h1V121h-3.07v-.82h1v-6.53h-1v-.83Zm8.23.87h-2.84V121h-1.16v-7.31H331.8v-.87h6.83v.87Zm7.54,7.31H341v-8.18h5v.87h-3.85v2.72h3.56v.86h-3.56v2.87h4.06V121Zm2.67,0v-8.18h2.73q5.21,0,5.21,4a3.7,3.7,0,0,1-1.45,3,6,6,0,0,1-3.87,1.15Zm1.16-7.31v6.45h1.47a4.7,4.7,0,0,0,3-.87,2.93,2.93,0,0,0,1.08-2.44c0-2.09-1.35-3.14-4-3.14Z"/></g></g></svg>