<svg id="圖層_1" data-name="圖層 1" xmlns="http://www.w3.org/2000/svg" viewBox="0 0 175 180"><defs><style>.cls-1{fill:none;stroke:#56889c;stroke-linecap:round;stroke-linejoin:round;stroke-width:0.46px;}.cls-2{fill:#56889c;}.cls-3{fill:#fff;}</style></defs><title>工作區域 11</title><circle class="cls-1" cx="87.12" cy="79.45" r="76.95"/><path class="cls-2" d="M58.92,55H47.38v2.39H57.5V73a3.11,3.11,0,0,1-.59,2c-.4.49-1.36.73-2.89.73-.48,0-1.11,0-1.88,0l-1-2.55c.68,0,1.29.06,1.82.06a6.21,6.21,0,0,0,1.63-.11.5.5,0,0,0,.21-.48V59.88H49.51l2.13,1a10.48,10.48,0,0,1-1.27,2.45h2.9v2.46H47.41v2h6.45v2.43H47.41V75H44.75V70.29h-6.5V67.86h6.5v-2H38.93V63.38h2.69a15.18,15.18,0,0,0-1.36-2.54l2.18-1H37.21V75.72H34.56V57.36H44.69V55H33.21V52.51H44.69V49.94h2.69v2.57H58.92Zm-9.74,4.91H42.8a27.87,27.87,0,0,1,1.78,3.5h3A17.5,17.5,0,0,0,49.18,59.88Z"/><path class="cls-2" d="M88.49,54.88H67.15v7.71q0,8.75-2.43,13.34L62.5,74.1a32.13,32.13,0,0,0,2-11.6V52.35h11a9.4,9.4,0,0,0-.88-2l2.68-.7a18.6,18.6,0,0,1,1.28,2.71h10Zm0,20.37h-21V72.64h9.51V64.73H68.76V62.14h8.16V56h2.7v6.15h7.6v2.59h-7.6v7.91h8.84Z"/><path class="cls-2" d="M102.63,62.92l-2,1.87A16.86,16.86,0,0,0,99,61.62V75.69H96.5v-13a21.06,21.06,0,0,1-3.22,5.48L92,65.61a31.31,31.31,0,0,0,4.32-8H92.4V55.17h4.1V50H99v5.2h3v2.48H99v.28A44,44,0,0,1,102.63,62.92ZM118,75H102V72.61h6.75V68.09h-5.65V65.67h5.65v-3.2h2.6v3.2h5.59v2.42h-5.59v4.52H118Zm-.42-13.58H102.48V59h6.18V55.43h-5.24V53h5.24V50h2.63V53h5.33v2.39h-5.33V59h6.32Z"/><path class="cls-2" d="M134.68,57.15h-4.35V75.77h-2.68V57.15h-.78a34.21,34.21,0,0,1-3.37,4.73l-1.89-2a32.75,32.75,0,0,0,5.88-10.15l2.76.48a34.44,34.44,0,0,1-1.95,4.29h6.38Zm12.84,0h-3.64V72.89a2.8,2.8,0,0,1-.55,1.82,2.6,2.6,0,0,1-1.19.88,9.6,9.6,0,0,1-2.39.2c-.83,0-1.57,0-2.22-.1l-1-2.69c1.4.06,2.71.09,4,.09.49,0,.73-.26.73-.77V57.15h-2.54a26.31,26.31,0,0,1-3.52,4.91l-1.95-1.81a34.69,34.69,0,0,0,5.93-10.47l2.65.51A42.07,42.07,0,0,1,140,54.55h7.48Z"/><path class="cls-2" d="M73.7,93.16H52.59V97q0,7.69-3,11.29l-1.89-1.92A15,15,0,0,0,50,97.59V90.73H73.7ZM72.37,88.7H49.69V83.4h2.63v2.87h7.46V82.52h2.66v3.75H69.8V83.4h2.57ZM74,106l-1.09,2.48q-7.75-1.52-9.82-6.34-2,4.13-9.71,6.28l-1.3-2.37A23.08,23.08,0,0,0,57.93,104a6.79,6.79,0,0,0,2.78-2.71A12.5,12.5,0,0,0,61.5,96c0-.55,0-1.21,0-2H64a16.8,16.8,0,0,0,.78,6.37,29.58,29.58,0,0,0,5.73-5.47l1.89,1.73a25.47,25.47,0,0,1-6.3,5.75C67.83,104.3,70.45,105.52,74,106Zm-14-5.36-2,1.5a29.54,29.54,0,0,0-4.09-5.82L56,95A32.41,32.41,0,0,1,60,100.67Z"/><path class="cls-2" d="M82.64,98.47a49.79,49.79,0,0,1-3.08,10.27L77.34,107a48.25,48.25,0,0,0,3.1-9.82Zm.56-5-1.77,1.92a16.44,16.44,0,0,0-4.06-3.63l1.69-2A20.59,20.59,0,0,1,83.2,93.45Zm.2-7.37-1.83,1.81a23.83,23.83,0,0,0-3.75-3.64l1.77-1.89A17.34,17.34,0,0,1,83.4,86.08Zm19.7,0a22,22,0,0,1-1.44,4.86l-2.43-.57c.43-1.25.69-2,.77-2.32H92.86v1.11L98.73,89l0,1.57-5.89.14v.42c0,.37.21.55.62.55h8.41v1.72H92.72q-2.34,0-2.34-1.89v-.71l-3.08,0V89.29l3.08,0v-1.2H86.54v8.19q0,7.45-2.79,12.27L81.46,107Q84,102.78,84,95.17V86.08h7V82.52h2.54v.91h8.38v1.72H93.54v.93ZM89.76,103.21a22.3,22.3,0,0,1-2.46,5.18l-1.83-1.48a21.13,21.13,0,0,0,2.11-4.64Zm11.85-1.59h-14V94.4h14Zm-8.3-4.45V96.09H90.09v1.08Zm0,2.73V98.81H90.09V99.9Zm6,5.2a4.08,4.08,0,0,1-.61,1.94,2.07,2.07,0,0,1-1.19.88,15.87,15.87,0,0,1-3.07.18,7.56,7.56,0,0,1-3.4-.46,1.69,1.69,0,0,1-.7-1.53v-3.52H92.8v3c0,.36.2.53.6.53l2.6,0a.79.79,0,0,0,.73-.34,3.92,3.92,0,0,0,.33-1.52ZM96.78,104l-1.84,1.13a11.3,11.3,0,0,0-1.66-1.95l1.84-1.3A13.86,13.86,0,0,1,96.78,104Zm2.45-6.8V96.09H95.74v1.08Zm0,2.73V98.81H95.74V99.9Zm4.26,7.12-2.17,1.13a30.4,30.4,0,0,0-2.59-5l2.2-1A26,26,0,0,1,103.49,107Z"/><path class="cls-2" d="M113.15,93.75l-1.83,2.1a25.57,25.57,0,0,0-4.38-3.73l1.78-2A25.09,25.09,0,0,1,113.15,93.75ZM113,99.09a43.05,43.05,0,0,1-3.7,9.51l-2.4-1.45a51.3,51.3,0,0,0,3.79-9.36Zm.67-12.41-1.95,1.92a27.66,27.66,0,0,0-4.7-4.32l2-1.86A27.08,27.08,0,0,1,113.71,86.68Zm19.11,11.45h-2.07v4.66h-7v2.79a3.21,3.21,0,0,1-.42,1.67,1.89,1.89,0,0,1-1.17.92,12.66,12.66,0,0,1-2.86.21c-.57,0-1.09,0-1.58-.06l-1.09-2.51q.93.06,3.9.06a.54.54,0,0,0,.36-.19.59.59,0,0,0,.17-.36v-2.53h-6.6v-2.35h6.6V98.13h-7.87V95.79h7.87V93.67h-6.63V91.3h16.33v4.49h2.07Zm-1.56-13.69q-6.42,1.92-16.56,1.73l-1-2.41q10.14.18,16.05-1.4Zm-12.52,5.5-2.34.88a23.07,23.07,0,0,0-1.82-3l2.38-.94A12.5,12.5,0,0,1,118.74,89.94Zm5.59-.13-2.36.9a13.43,13.43,0,0,0-1.74-3.2l2.45-1A14.42,14.42,0,0,1,124.33,89.81Zm3.75,6V93.67h-4.34v2.12Zm0,4.65V98.13h-4.34v2.31Zm3.18-13.79a21,21,0,0,1-2.46,4.06l-2.55-.87a20.51,20.51,0,0,0,2.58-4Z"/><path class="cls-2" d="M44.81,140.51l.65-.33a18.64,18.64,0,0,1,1.87-.85c.41-.15.87-.35,1.38-.52l1.67-.5,1.93-.43c.69-.12,1.42-.21,2.19-.32a30.06,30.06,0,0,1,5-.09,31.31,31.31,0,0,1,5.51.8,36.21,36.21,0,0,1,5.67,1.88,38.08,38.08,0,0,1,5.42,3A41.72,41.72,0,0,1,80.86,147a38.07,38.07,0,0,1,3.92,4.49,35,35,0,0,1,3,4.7,35.89,35.89,0,0,1,2,4.54c.24.72.48,1.42.68,2.09s.34,1.31.49,1.91c.27,1.22.43-.35.53.53s.14,1.58.18,2.05.05.72.05.72-.06-.24-.16-.7-.24-1.14-.49-2-.52.76-.89-.39c-.22-.57-.45-1.17-.69-1.81s-.54-1.28-.84-2A46.34,46.34,0,0,0,86.35,157a41.54,41.54,0,0,0-3.06-4.34,42.55,42.55,0,0,0-3.85-4.14,37.76,37.76,0,0,0-4.56-3.62A37.18,37.18,0,0,0,69.82,142a40.42,40.42,0,0,0-5.3-1.94,35.68,35.68,0,0,0-9.95-1.31l-2.12.11-1.91.22-1.67.29c-.52.1-1,.23-1.4.33-.86.19-1.52.43-2,.56Z"/><path class="cls-2" d="M90.62,176.19l-.07-.76a20.3,20.3,0,0,1-.12-2.15,23,23,0,0,1,.23-3.37,26.84,26.84,0,0,1,.92-4.29c.89-3.09,2.48-3.94,4.65-7.33.57-.9,1.14-1.66,1.72-2.52s1.27-1.67,1.93-2.5,1.39-1.6,2.1-2.4,1.49-1.56,2.27-2.3a57.75,57.75,0,0,1,4.9-4.12c.84-.64,1.68-1.26,2.57-1.81s1.72-1.12,2.6-1.61,1.72-1,2.59-1.42,1.71-.86,2.56-1.22,1.65-.74,2.47-1,1.58-.61,2.35-.84,1.49-.49,2.19-.68l2-.5c1.26-.31,2.38-.48,3.29-.66,1.84-.25,2.89-.36,2.89-.36l-2.8.78c-.87.29-2,.6-3.15,1s-2.55.94-4,1.55c-.73.28-1.46.65-2.22,1s-1.55.72-2.34,1.15-1.61.84-2.41,1.32l-1.23.71-1.22.77c-.84.51-1.65,1.07-2.46,1.65s-1.63,1.19-2.44,1.81a55.61,55.61,0,0,0-4.68,4c-.76.7-1.47,1.46-2.21,2.18s-1.39,1.52-2.05,2.29-1.29,1.53-1.9,2.34-1.25,1.64-1.77,2.4c-2.21,3.19-3.93,3.78-5.06,6.68a32.29,32.29,0,0,0-1.88,7.29c-.1.91-.18,1.63-.19,2.13Z"/><path class="cls-3" d="M71.24,138a20.56,20.56,0,0,0,2.37,3.26c1.28,1.35,3.72,3.15,5.6,3.41C80,140,76,134.87,73,131.76a27.78,27.78,0,0,0-5.86-4.61c-1.67-1-4.47-1.52-6.23-2.64C65.13,128.29,68.2,133.16,71.24,138Z"/><path class="cls-2" d="M71.28,137.93a23.82,23.82,0,0,0,1.53,2.19,11.68,11.68,0,0,0,1.9,1.82,14.61,14.61,0,0,0,2.21,1.39,7.82,7.82,0,0,0,2.35.84l-.53.38.08-.84v-.86l-.1-.85-.16-.85a17.23,17.23,0,0,0-.51-1.69c-.22-.54-.45-1.09-.72-1.62a19.22,19.22,0,0,0-1.92-3A25.59,25.59,0,0,0,73,132.09a26.92,26.92,0,0,0-5.72-4.31,9,9,0,0,0-1.57-.75c-.54-.22-1.11-.41-1.69-.6A17.89,17.89,0,0,1,60.58,125l.69-.91a33.54,33.54,0,0,1,5.61,6.53C68.44,133,69.77,135.53,71.28,137.93Zm-.09.06a69.22,69.22,0,0,0-5-6.86c-.89-1.1-1.79-2.18-2.72-3.23-.47-.52-1-1-1.44-1.52s-1-1-1.51-1.45l.68-.9a17.16,17.16,0,0,0,3.19,1.43c.57.21,1.15.43,1.72.67a9.45,9.45,0,0,1,1.66.9,28.53,28.53,0,0,1,5.54,4.79c.84.89,1.61,1.82,2.38,2.77a32.12,32.12,0,0,1,2.15,3,18.06,18.06,0,0,1,.89,1.62,14.65,14.65,0,0,1,.69,1.74,9.79,9.79,0,0,1,.35,1.87l0,1c0,.32-.07.64-.11,1l-.06.47-.47-.08a6.89,6.89,0,0,1-2.6-1.1,14.71,14.71,0,0,1-2.13-1.7A20.36,20.36,0,0,1,71.19,138Z"/><path class="cls-2" d="M79,144.76a29.73,29.73,0,0,1-3.73-2.86A30.46,30.46,0,0,1,72,138.38a45.87,45.87,0,0,1-2.53-4.06,22,22,0,0,0-2.34-3.39c-.42-.47-.89-.86-1.33-1.31s-.93-1.35-1.49-1.87a39.06,39.06,0,0,1,3.78,3.48c1,1.16,1.93,2.36,2.9,3.53,1.25,1.51,2.1,3.22,3.48,4.65s2.95,2.69,4.33,4.13c.33.34.66.8.5,1.24C79.23,144.84,79.14,144.83,79,144.76Z"/><path class="cls-2" d="M64.56,127.23l2.61,2.3,2.68,2.35,1.47,1.38a17.23,17.23,0,0,1,1.46,1.5A33.09,33.09,0,0,1,75.37,138c.73,1.08,1.42,2.08,2,2.94l2,2.86-.9.59-1.82-3-1.87-3a31.48,31.48,0,0,0-2.39-3.26A15.43,15.43,0,0,0,71,133.57l-1.39-1.44c-.94-.9-1.81-1.75-2.56-2.48Z"/><polygon class="cls-2" points="72.19 135.52 78.09 142.32 77.25 142.97 72.19 135.52"/><path class="cls-2" d="M71.81,132.05a18.42,18.42,0,0,1,1.62,1.52c.46.49,1,1.07,1.51,1.73a23.57,23.57,0,0,1,1.51,2.16,26.53,26.53,0,0,1,2.11,4.46,8.3,8.3,0,0,1,.47,2.19s-.06-.22-.17-.59a14.89,14.89,0,0,0-.58-1.49c-.26-.61-.64-1.28-1-2s-.79-1.51-1.26-2.26a42.8,42.8,0,0,0-2.79-4C72.39,132.73,71.81,132.05,71.81,132.05Z"/><path class="cls-3" d="M83.26,131.23c-.56,3.36-1.44,6.69-1.5,10.09A21.3,21.3,0,0,0,87,155.65c.35.38.82.79,1.31.64a1.39,1.39,0,0,0,.73-.93c2.44-6.63,1.51-15,.35-21.86A66.3,66.3,0,0,0,87.08,124a41.12,41.12,0,0,0-1.66-4.33c-.42-.92-1.59-2.38-1.69-3.36A55.08,55.08,0,0,1,83.26,131.23Z"/><path class="cls-2" d="M83.32,131.23l-.75,4.25a38.5,38.5,0,0,0-.46,4.26,23,23,0,0,0,1.16,8.34,21.6,21.6,0,0,0,1.66,3.86,20.28,20.28,0,0,0,2.35,3.51A1.76,1.76,0,0,0,88,156a.52.52,0,0,0,.63-.26,9.76,9.76,0,0,0,.75-1.95,22.71,22.71,0,0,0,.84-4.19,38.2,38.2,0,0,0-.11-8.55c-.32-2.84-.8-5.67-1.33-8.48a73.17,73.17,0,0,0-2.16-8.26,41.26,41.26,0,0,0-1.47-4,13.1,13.1,0,0,0-1-1.83,5.85,5.85,0,0,1-.91-2.18l1-.1a48.67,48.67,0,0,1,0,7.54c-.08,1.26-.23,2.51-.37,3.75S83.54,130,83.32,131.23Zm-.11,0a41.52,41.52,0,0,0,.56-7.46c0-1.25-.06-2.49-.16-3.73s-.2-2.47-.37-3.7l1-.1a5.65,5.65,0,0,0,.84,1.72,13,13,0,0,1,1.07,2A42.75,42.75,0,0,1,87.68,124a63.17,63.17,0,0,1,2.06,8.43c.25,1.43.44,2.86.62,4.29s.31,2.87.38,4.31.13,2.89.08,4.33a36.58,36.58,0,0,1-.28,4.32,30,30,0,0,1-.79,4.27c-.08.36-.21.69-.31,1A4.59,4.59,0,0,1,89,156a1.16,1.16,0,0,1-.49.46,1,1,0,0,1-.7.06,2.18,2.18,0,0,1-1-.68,20.52,20.52,0,0,1-2.65-3.5,21.54,21.54,0,0,1-1.82-4,19.47,19.47,0,0,1-.78-8.67,43.17,43.17,0,0,1,.78-4.26C82.66,134,83,132.63,83.21,131.22Z"/><path class="cls-2" d="M89.53,133.74A81.46,81.46,0,0,0,87,123.81c-.53-1.71-1.44-5.09-3.28-5.86a5,5,0,0,0,.79,2,27.63,27.63,0,0,1,1.23,3,37.87,37.87,0,0,1,1.43,7.24,28.13,28.13,0,0,0,.35,2.89c.07.61.5,2,.08,2.49-.35-1.28-.53-2.63-.78-3.93a39.56,39.56,0,0,0,.62,6.32c.5,3.85.65,7.7,1.12,11.54a8.52,8.52,0,0,1-.08,2.52,11.21,11.21,0,0,0-.15,2.59c0,.29.22,1.51,0,1.71a6.51,6.51,0,0,0,1.17-2.56c1.32-4.94,1.15-10.12.63-15.16C90.05,137,89.82,135.34,89.53,133.74Z"/><path class="cls-2" d="M84.32,120.61s.14.53.4,1.46.57,2.27.86,3.9.59,3.53.82,5.58.46,4.24.69,6.43.41,4.38.61,6.44.33,4,.47,5.61l.4,5.49-.7-5.46c-.18-1.64-.4-3.55-.63-5.6s-.45-4.24-.68-6.43-.42-4.37-.62-6.43-.41-4-.66-5.59C84.83,122.75,84.32,120.61,84.32,120.61Z"/><path class="cls-2" d="M85.41,128.88s0,1.74.09,4.34.19,6.08.51,9.53a66.22,66.22,0,0,0,1.32,9.4,21.6,21.6,0,0,0,.89,3c.25.7.43,1.08.43,1.08l-1,.41s-.17-.41-.41-1.15a26.35,26.35,0,0,1-.8-3.1,65.88,65.88,0,0,1-1-9.56c-.19-3.48-.18-7-.14-9.57S85.41,128.88,85.41,128.88Z"/><path class="cls-2" d="M84.35,137.51s0,1.21.18,3a59.32,59.32,0,0,0,.88,6.54,37,37,0,0,0,1.82,6.3c.33.82.65,1.49.88,1.95l.37.72-1,.49-.35-.78c-.21-.49-.5-1.2-.79-2.07a36.17,36.17,0,0,1-1.51-6.52,60.43,60.43,0,0,1-.52-6.63C84.32,138.71,84.35,137.51,84.35,137.51Z"/><path class="cls-2" d="M84.34,135.31a1.14,1.14,0,0,1,.07.19,1.8,1.8,0,0,1,0,.42,1.3,1.3,0,0,1-.08.41,1.28,1.28,0,0,1-.08.18,1.14,1.14,0,0,1-.07-.19,1.84,1.84,0,0,1,0-.42,2.13,2.13,0,0,1,.08-.41A1.28,1.28,0,0,1,84.34,135.31Z"/><path class="cls-2" d="M83.18,137.86s0,.31,0,.83a18.54,18.54,0,0,0,0,2.19,29.56,29.56,0,0,0,1.29,6.49,37.16,37.16,0,0,0,2.48,6.1c.82,1.6,1.46,2.61,1.46,2.61l-.93.53s-.6-1.07-1.35-2.75A37.74,37.74,0,0,1,84,147.51a29.35,29.35,0,0,1-.94-6.62,21.55,21.55,0,0,1,.08-2.2C83.14,138.16,83.18,137.86,83.18,137.86Z"/><path class="cls-3" d="M59,136.72c-.24-.15-.44-.29-.58-.39-5.79-4.06-13-5.5-18.36-10.39-4.65-4.28-8.52-9.08-13.58-13l-7.82-6c3.18,1.27,6.61,1.75,9.72,3.1,3.3,1.42,6.58,2.9,9.76,4.57a60.2,60.2,0,0,1,15.37,11.58,57.89,57.89,0,0,1,6,7.35c.37.53,2.66,3.34,2.36,3.92C61.41,138.42,59.53,137.06,59,136.72Z"/><path class="cls-2" d="M59,136.76c-.88-.58-1.76-1.16-2.67-1.67s-1.85-1-2.8-1.44c-1.92-.87-3.87-1.65-5.8-2.51-1-.43-1.93-.87-2.87-1.36a30.72,30.72,0,0,1-2.74-1.66,21.09,21.09,0,0,1-2.53-2c-.76-.72-1.52-1.47-2.27-2.22-1.49-1.49-2.9-3.06-4.34-4.58s-2.91-3-4.47-4.44c-.78-.7-1.59-1.36-2.42-2s-1.65-1.3-2.49-1.93c-1.69-1.26-3.35-2.55-5-3.8l-1.34-1,1.56.6c2.23.85,4.59,1.3,6.93,2a25.21,25.21,0,0,1,3.45,1.21l3.32,1.42c2.21,1,4.4,2,6.54,3.14a51.81,51.81,0,0,1,6.19,3.83,60.77,60.77,0,0,1,5.66,4.57,56.78,56.78,0,0,1,5,5.3c.76.93,1.5,1.89,2.2,2.88s1.37,2,2,3c.35.49.69,1,1,1.49a6.64,6.64,0,0,1,.87,1.62.58.58,0,0,1-.53.74,1.91,1.91,0,0,1-.92-.2A9,9,0,0,1,59,136.76Zm.05-.09a10.1,10.1,0,0,0,1.56.89,1.91,1.91,0,0,0,.84.16.39.39,0,0,0,.36-.52,12.12,12.12,0,0,0-2-3c-.75-1-1.44-1.93-2.21-2.85s-1.54-1.83-2.36-2.71a69,69,0,0,0-5.12-5,63.14,63.14,0,0,0-5.59-4.46,68.89,68.89,0,0,0-6.06-3.78c-2.09-1.15-4.25-2.21-6.42-3.22l-3.28-1.5a26.67,26.67,0,0,0-3.31-1.29c-2.27-.74-4.64-1.3-6.89-2.25l.23-.38c1.64,1.32,3.31,2.59,5,3.89s3.39,2.5,5,3.88,3.17,2.8,4.68,4.27l4.5,4.43c.75.73,1.49,1.45,2.27,2.16l1.16,1c.41.32.81.65,1.23,1a30.64,30.64,0,0,0,2.62,1.67c.89.54,1.82,1,2.74,1.52,1.87,1,3.78,1.85,5.65,2.83.93.49,1.87,1,2.77,1.52S58.17,136.08,59,136.67Z"/><path class="cls-2" d="M61.14,137.79l.14,0c-.49-.07-1.23-.83-1.61-1.13a15.93,15.93,0,0,1-1.68-1.5,43.63,43.63,0,0,0-4.24-3.58c-2.29-1.91-4.6-3.75-6.76-5.76s-4.93-3.36-7.08-5.38q1.83,1.71,3.72,3.34A20.05,20.05,0,0,1,47,126.88a76.5,76.5,0,0,1-6.65-4.62c-1.94-1.52-3.6-3.39-5.91-4.33a19.63,19.63,0,0,1-3.82-2.68,34.82,34.82,0,0,0-3.52-2.68q4.65,2.54,9.2,5.22a63.05,63.05,0,0,0-7.45-4.86c-2.53-1.44-5.32-2.56-7.76-4.11,1.38.52,2.85,2.2,4,3.16,1.35,1.14,2.67,2.29,4,3.48,2.53,2.3,5,4.71,7.31,7.21a31.4,31.4,0,0,0,6.17,5.64,32.76,32.76,0,0,0,4.14,2,75.53,75.53,0,0,1,12.4,6.44A6.26,6.26,0,0,0,61.14,137.79Z"/><path class="cls-2" d="M19.48,107.53s2.94,1.39,7.29,3.58a97.89,97.89,0,0,1,15.28,9.28c2.58,2,5,4.2,7.27,6.21l6.3,5.43,6.15,5.3-.7.8-6-5.42-6.19-5.57c-2.25-2.06-4.59-4.3-7.11-6.33a97.49,97.49,0,0,0-15-9.55C22.39,109,19.48,107.53,19.48,107.53Z"/><path class="cls-2" d="M42.55,119.85l.88.57c.55.38,1.35.9,2.26,1.59s2,1.49,3.07,2.4,2.25,1.92,3.37,3,2.19,2.12,3.17,3.16,1.86,2,2.61,2.91,1.32,1.62,1.73,2.14l.63.84-2.7-2.68c-.79-.81-1.76-1.72-2.77-2.72s-2.11-2-3.22-3.06-2.22-2-3.27-3-2-1.84-2.91-2.58Z"/><path class="cls-2" d="M22.67,108.9a12,12,0,0,1,1.29.32,34.89,34.89,0,0,1,3.3,1.22c1.33.59,2.88,1.24,4.52,2l2.53,1.17c.87.39,1.75.83,2.6,1.29,1.7.93,3.36,1.94,4.88,2.92s2.89,2,4.05,2.86,2.08,1.67,2.73,2.21,1,.89,1,.89L48.47,123c-.68-.5-1.69-1.16-2.89-2s-2.62-1.7-4.16-2.64-3.19-1.91-4.89-2.81c-.84-.47-1.68-.91-2.54-1.31l-2.51-1.22c-1.63-.79-3.13-1.58-4.41-2.22s-2.37-1.18-3.16-1.48S22.67,108.9,22.67,108.9Z"/><path class="cls-2" d="M50.88,125l.57.43c.35.28.87.67,1.44,1.19s1.26,1.11,1.94,1.79,1.4,1.43,2.09,2.2,1.35,1.56,1.94,2.33,1.1,1.5,1.55,2.13.77,1.2,1,1.58.35.61.35.61-.7-.76-1.72-1.91l-3.73-4.21L52.58,127C51.55,125.81,50.88,125,50.88,125Z"/><path class="cls-3" d="M55.16,176.4c3.25-9.85,4.2-20.21,4.83-30.5.11-1.92,2.1-8.57-1.76-7.19-2.8,1-4,5.42-4.69,8a31.77,31.77,0,0,0-.66,11.21C53.49,164.07,55.14,170.17,55.16,176.4Z"/><path class="cls-2" d="M55.23,175.91c0-.11.06-.24.1-.4.15-.56.36-1.39.6-2.45s.55-2.34.84-3.82.6-3.16.89-5,.54-3.83.83-5.94.57-4.35.82-6.67c.12-1.16.25-2.33.34-3.53a32.53,32.53,0,0,1,.37-3.64,21.31,21.31,0,0,0,.38-3.64,3.07,3.07,0,0,0-.42-1.65,1.16,1.16,0,0,0-1.4-.26,4.68,4.68,0,0,0-2.53,2.27,15.35,15.35,0,0,0-1.39,3.31,28.91,28.91,0,0,0-1.35,6.92A62.11,62.11,0,0,0,54.2,164c.26,1.85.52,3.55.68,5.06s.29,2.84.33,3.93,0,1.95,0,2.54C55.23,175.66,55.23,175.8,55.23,175.91Zm-.12.49s0-.31-.06-.89-.12-1.44-.26-2.51-.33-2.38-.6-3.87-.58-3.17-.91-5-.7-3.84-.93-6a34.2,34.2,0,0,1-.14-6.82,29.12,29.12,0,0,1,1.56-7.13,16.23,16.23,0,0,1,1.6-3.44,7.48,7.48,0,0,1,1.29-1.47,4.63,4.63,0,0,1,.84-.58,2.86,2.86,0,0,1,.44-.2,3.86,3.86,0,0,1,.48-.16,2.62,2.62,0,0,1,1-.06,1.4,1.4,0,0,1,.92.61,3.54,3.54,0,0,1,.41,1.93,22.54,22.54,0,0,1-.45,3.7,27.18,27.18,0,0,0-.31,3.6c0,1.21-.11,2.39-.16,3.56-.13,2.33-.23,4.59-.49,6.72s-.52,4.15-.87,6-.68,3.53-1.07,5-.74,2.75-1.08,3.79-.63,1.85-.84,2.4l-.41,1.06Z"/><path class="cls-2" d="M56.05,164.17c.12,3.37.43,7.07-.36,10.38.26-1.21.94-2.34,1.14-3.56s.36-2.34.55-3.51a52,52,0,0,0,.67-6.09c.08-1.6.15-3.21.23-4.81,0-1.22.11-2.43.25-3.64.54-4.53,2.47-9.06,1.87-13.68a.91.91,0,0,0-.2-.56.67.67,0,0,0-.88,0,1.92,1.92,0,0,0-.47.82,50,50,0,0,0-2.5,8.81,54,54,0,0,0-.52,9.43C55.87,159.92,56,162.05,56.05,164.17Z"/><path class="cls-2" d="M59.43,138.53a6.83,6.83,0,0,0-.82.9,12.68,12.68,0,0,0-1.56,2.78,24.31,24.31,0,0,0-1.54,9.49c0,1.77.07,3.54.17,5.2s.2,3.21.31,4.54l.32,4.43s-.28-1.76-.62-4.4c-.16-1.33-.35-2.87-.47-4.54S55,153.49,55,151.7a31.87,31.87,0,0,1,.42-5.24,17.64,17.64,0,0,1,1.37-4.38,15,15,0,0,1,.91-1.59,10.06,10.06,0,0,1,.86-1.12A6.64,6.64,0,0,1,59.43,138.53Z"/><path class="cls-2" d="M55.05,145.37s-.11.45-.26,1.26a28.63,28.63,0,0,0-.41,3.37,57.84,57.84,0,0,0,.48,10.26c.19,1.87.38,3.73.57,5.49s.22,3.4.22,4.82a28.52,28.52,0,0,1-.19,3.4c-.09.82-.16,1.29-.16,1.29s0-.47.07-1.29,0-2,0-3.4c-.11-2.8-.58-6.52-1-10.25-.2-1.88-.36-3.75-.41-5.52a34.93,34.93,0,0,1,.17-4.83,22.78,22.78,0,0,1,.61-3.36C54.91,145.81,55.05,145.37,55.05,145.37Z"/><path class="cls-2" d="M55.48,147.29l-.18,1.18c-.07.37-.12.83-.17,1.35s-.11,1.12-.13,1.77a63.06,63.06,0,0,0,.36,9.51c.29,3.46.56,6.92.5,9.53,0,.65,0,1.25-.07,1.78s-.07,1-.13,1.36L55.52,175s0-.43.1-1.19.1-1.84.1-3.14c0-2.6-.29-6-.62-9.51a63.39,63.39,0,0,1-.25-9.54,16.58,16.58,0,0,1,.19-1.77q.09-.8.21-1.35C55.4,147.71,55.48,147.29,55.48,147.29Z"/><path class="cls-2" d="M59.49,138.82s-.37.22-.86.59A10,10,0,0,0,57,141a9.69,9.69,0,0,0-1.24,1.93,9.26,9.26,0,0,0-.42,1,10.06,10.06,0,0,1,1.45-3.07,10,10,0,0,1,1.57-1.77c.5-.44.84-.68.84-.68Z"/><path class="cls-3" d="M56.79,168.67c0-5.26-.63-10.58.3-15.76.76-4.27,3.31-10.39,7.64-12.08a1.4,1.4,0,0,1,1.48.06,1.44,1.44,0,0,1,.34.75c1,4.82-1.22,9.55-4.12,13.12A27.44,27.44,0,0,0,56.79,168.67Z"/><path class="cls-2" d="M56.74,168.67s-.08-1-.2-2.68c-.07-.85-.14-1.89-.23-3.07s-.14-2.54-.15-4a29.6,29.6,0,0,1,.27-4.77A21.35,21.35,0,0,1,57.86,149a24.06,24.06,0,0,1,2.74-5,11.38,11.38,0,0,1,2-2.15,6.7,6.7,0,0,1,2.65-1.48,1.5,1.5,0,0,1,.9.08,1.24,1.24,0,0,1,.63.73A5.72,5.72,0,0,1,67,142c0,.24.11.46.13.72a12.66,12.66,0,0,1,0,3,16.24,16.24,0,0,1-1.72,5.53,23.23,23.23,0,0,1-3,4.45,26.14,26.14,0,0,0-2.5,3.88,31.38,31.38,0,0,0-2.47,6.52c-.23.82-.37,1.47-.47,1.92l-.22,1Zm0,0s0-1,.3-2.68a25.69,25.69,0,0,1,2.06-6.84A21.6,21.6,0,0,1,61.55,155c.51-.67,1-1.33,1.53-2a26.22,26.22,0,0,0,1.37-2.24,15.51,15.51,0,0,0,1.76-5.14,11.19,11.19,0,0,0,.11-2.77,10.46,10.46,0,0,0-.19-1.38c-.09-.38-.34-.5-.78-.46a6.34,6.34,0,0,0-2.49,1.21,10.93,10.93,0,0,0-2,2,16.68,16.68,0,0,0-2.47,5,26.12,26.12,0,0,0-1,5.08c-.18,1.64-.28,3.2-.32,4.66,0,2.9,0,5.35-.05,7.06s-.14,2.69-.14,2.69Z"/><path class="cls-2" d="M66.25,140.87c-5,6.3-6.87,14.52-8.1,22.49a28.31,28.31,0,0,1,2.93-6.81c1.22-2.07,2.71-4,3.74-6.15A16.64,16.64,0,0,0,66.25,140.87Z"/><path class="cls-2" d="M66.08,141.05a5.25,5.25,0,0,0-.88.53,8.41,8.41,0,0,0-1.85,1.93A21.71,21.71,0,0,0,60.21,151c-.36,1.45-.63,2.92-.84,4.3s-.43,2.69-.6,3.8c-.36,2.23-.64,3.7-.64,3.7s.11-1.5.34-3.74c.13-1.12.24-2.43.44-3.82s.44-2.89.78-4.36a25.2,25.2,0,0,1,1.42-4.22,16.76,16.76,0,0,1,2-3.33,7.88,7.88,0,0,1,2-1.84,6,6,0,0,1,.69-.34Z"/><path class="cls-2" d="M65.8,141a15.12,15.12,0,0,0-1.74,2.2,17,17,0,0,0-1.39,2.51,21.92,21.92,0,0,0-1,3.12c-.31,1.08-.5,2.18-.74,3.21s-.44,2-.62,2.81c-.38,1.65-.65,2.74-.65,2.74s.19-1.11.51-2.77c.16-.82.35-1.79.56-2.82s.4-2.15.69-3.24a19.87,19.87,0,0,1,1.08-3.13,17.37,17.37,0,0,1,1.45-2.51,13.36,13.36,0,0,1,1.31-1.57C65.59,141.21,65.8,141,65.8,141Z"/><path class="cls-2" d="M61.68,144.37s-.18.29-.46.82-.65,1.29-1,2.23a32,32,0,0,0-2,7.2,66.05,66.05,0,0,0-.78,7.44c-.13,2-.21,3.41-.21,3.41s0-1.37.06-3.42a66.78,66.78,0,0,1,.67-7.47,31.81,31.81,0,0,1,2.1-7.21,20.1,20.1,0,0,1,1.14-2.2C61.49,144.65,61.68,144.37,61.68,144.37Z"/><path class="cls-2" d="M60.08,149.26s-.31,1-.68,2.59a54.22,54.22,0,0,0-1.09,5.78,55.78,55.78,0,0,0-.49,5.86c0,1.6,0,2.67,0,2.67h-.53s0-1.08.11-2.69a58,58,0,0,1,.67-5.88,57.29,57.29,0,0,1,1.28-5.76C59.74,150.27,60.08,149.26,60.08,149.26Z"/><path class="cls-3" d="M103.33,160.32c-2.06.05-11.85,1-10.62,4.81.64,2,5.82,2.71,7.5,3a45.72,45.72,0,0,0,10.77.68c6.7-.31,13.31-1.66,20-2.37C122.1,163.05,112.82,160.09,103.33,160.32Z"/><path class="cls-2" d="M105.11,160.25l1.78,0,1.79.07,1.78.13c1.19.11,2.38.25,3.56.42s2.36.42,3.53.67l1.74.41,1.73.48c1.15.33,2.29.69,3.42,1.06s2.27.76,3.38,1.18l3.33,1.3,2,.78L131,167c-4.31.43-8.61,1.05-13,1.46-2.17.21-4.34.42-6.52.52s-4.36.15-6.54.08c-1.1,0-2.19-.12-3.28-.26s-2.16-.3-3.24-.5a23.39,23.39,0,0,1-3.23-.79,9,9,0,0,1-1.56-.7,4.89,4.89,0,0,1-.74-.55,2.39,2.39,0,0,1-.57-.79,2.25,2.25,0,0,1,0-1.93,3.32,3.32,0,0,1,1.27-1.28,10.81,10.81,0,0,1,3.13-1.17c1.07-.25,2.15-.4,3.23-.55s2.16-.24,3.25-.27Zm-8.17,1.22a10,10,0,0,0-2.87,1.33,1.83,1.83,0,0,0-.89,2.3,4.31,4.31,0,0,0,2.4,1.51,22.1,22.1,0,0,0,3.08.81c1.06.19,2.14.47,3.18.65s2.13.35,3.21.45a41.23,41.23,0,0,0,6.48.13q3.25-.19,6.47-.71c4.29-.66,8.56-1.49,12.91-2l-.13,1-3.34-1.22-3.35-1.18c-1.12-.37-2.24-.73-3.37-1.08l-3.41-1c-1.13-.31-2.28-.58-3.43-.87s-2.31-.51-3.47-.71-2.35-.35-3.53-.45l-1.77-.1h-1.78A25.09,25.09,0,0,0,96.94,161.47Z"/><path class="cls-2" d="M96.44,167.38a11.24,11.24,0,0,0,4.76.88c1.86-.14,3.82.14,5.69.16,3.86,0,7.73-.1,11.57-.4,1.23-.1,2.5-.24,3.73-.3,2.54-.11,4.94-1,7.45-1.17a36.37,36.37,0,0,1-4.43-.15c-2-.2-4,.19-6,.17-2.22,0-4.44,0-6.66-.08-1.91,0-3.77-.33-5.67-.32-1,0-1.93.06-2.9,0s-1.86-.35-2.71-.31a49.51,49.51,0,0,1,5.31,0,48.44,48.44,0,0,0-7.1-.75c-1.09,0-2.18.14-3.25.11-.62,0-1.24-.06-1.86-.06-.24,0-1.43.17-1.57,0A9.54,9.54,0,0,0,96.44,167.38Z"/><path class="cls-2" d="M126.11,166s-2.08-.24-5.21-.3l-5.35-.1c-2,0-4-.21-6.08-.45s-4.15-.45-6.12-.54a44.18,44.18,0,0,0-5.37.1c-1.56.12-2.85.35-3.75.5s-1.41.29-1.41.29A41.36,41.36,0,0,1,98,165a48.29,48.29,0,0,1,5.32.07c1.94.11,4,.38,6.09.6s4.17.37,6.14.39,3.78-.06,5.35-.08,2.86,0,3.78,0Z"/><path class="cls-2" d="M121.8,165.05l-1.24-.28c-.78-.17-1.9-.45-3.25-.72s-2.94-.58-4.65-.82-3.55-.44-5.39-.53a42.31,42.31,0,0,0-5.43.12,30.64,30.64,0,0,0-4.66.79A16.06,16.06,0,0,0,94,164.7a5.36,5.36,0,0,0-1.07.67,5.55,5.55,0,0,1,1.11-.59,19.22,19.22,0,0,1,3.19-.87,40.16,40.16,0,0,1,10-.68c1.83.07,3.65.24,5.36.46s3.3.44,4.65.66Z"/><path class="cls-2" d="M109.43,162.05s-1.07-.14-2.68-.21c-.8,0-1.74-.06-2.75,0s-2.09.11-3.16.24a23.12,23.12,0,0,0-3.11.65,23.57,23.57,0,0,0-2.59,1,5.47,5.47,0,0,0-1.67,1,2.54,2.54,0,0,0-.35.42l-.11.16a2.74,2.74,0,0,1,.53-.5,6,6,0,0,1,1.71-.84c.75-.27,1.65-.52,2.61-.78a22.26,22.26,0,0,1,3-.57c1-.15,2.11-.24,3.11-.3s1.93-.12,2.73-.14Z"/><path class="cls-2" d="M116.66,164.89s-1.46-.33-3.69-.65c-1.11-.15-2.41-.33-3.81-.45s-2.89-.22-4.4-.24-3,.08-4.41.2-2.7.33-3.81.52c-2.21.41-3.65.84-3.65.84l1-.16c.65-.11,1.57-.23,2.68-.38s2.41-.26,3.8-.36,2.88-.15,4.37-.12,3,.07,4.37.16,2.69.18,3.81.28Z"/><path class="cls-2" d="M130.67,166.37l-.82-.16c-.53-.09-1.26-.28-2.14-.51-1.75-.47-4-1.27-6.39-1.95-1.18-.32-2.38-.58-3.5-.8s-2.18-.36-3.09-.48a27.41,27.41,0,0,0-3-.2s1.21.16,3,.5c.89.16,1.93.39,3,.63s2.29.52,3.45.86,2.33.67,3.42,1,2.14.56,3,.74A18.65,18.65,0,0,0,130.67,166.37Z"/><path class="cls-3" d="M74.5,154.79c.5-1.48,3.34-8.42,5.86-6.67,1.31.91.69,4.85.55,6.14a34,34,0,0,1-1.89,8c-1.71,4.82-4.16,9.34-6.16,14C72.33,169.09,72.22,161.67,74.5,154.79Z"/><path class="cls-2" d="M74.46,154.78c.27-.79.6-1.55.93-2.31a24.52,24.52,0,0,1,1.11-2.24,8.31,8.31,0,0,1,1.55-2,2.52,2.52,0,0,1,1.22-.64,1.7,1.7,0,0,1,1.41.39,1.66,1.66,0,0,1,.45.6,3.91,3.91,0,0,1,.24.65,7.36,7.36,0,0,1,.17,1.3A19.22,19.22,0,0,1,81.4,153c-.1.83-.22,1.63-.36,2.47s-.32,1.64-.54,2.45A48.56,48.56,0,0,1,79,162.71c-.56,1.57-1.19,3.11-1.82,4.64-1.27,3.07-2.67,6.08-3.94,9.12L72.59,178l-.12-1.65-.21-2.72c-.06-.91-.08-1.82-.11-2.72s0-1.82,0-2.74l0-1.36.09-1.37c.08-.91.16-1.81.3-2.71s.3-1.8.48-2.69l.31-1.33.34-1.32.37-1.31Zm.08,0-.39,1.3-.32,1.31c-.19.89-.33,1.78-.45,2.67s-.2,1.8-.26,2.7-.1,1.79-.13,2.69l0,2.7c0,.9,0,1.8,0,2.7l.11,2.7.15,2.71-.76-.13c1.32-3.06,2.87-6,4.3-9q1.1-2.24,2-4.56a33,33,0,0,0,1.34-4.76c.16-.81.29-1.62.38-2.44s.14-1.65.24-2.46a19.89,19.89,0,0,0,.09-2.43,3.32,3.32,0,0,0-.57-2.09,1.42,1.42,0,0,0-1.88.14,7.91,7.91,0,0,0-1.6,1.8A19.48,19.48,0,0,0,74.54,154.81Z"/><path class="cls-2" d="M81.18,151.34a8.57,8.57,0,0,1-.42,3.67c-.51,1.32-.74,2.81-1.15,4.18-.82,2.83-1.78,5.61-2.85,8.35-.34.88-.73,1.77-1.05,2.66-.65,1.82-1.8,3.39-2.51,5.17a26.28,26.28,0,0,0,.88-3.27c.31-1.53,1-2.84,1.45-4.34s1-3.24,1.42-4.88c.41-1.39.6-2.82,1-4.2.22-.71.47-1.4.67-2.11s.16-1.43.38-2a36.8,36.8,0,0,0-1.15,3.88,35.84,35.84,0,0,1,1-5.35c.23-.79.59-1.56.8-2.34.12-.46.23-.92.37-1.37,0-.17.44-1,.37-1.14A7.3,7.3,0,0,1,81.18,151.34Z"/><path class="cls-2" d="M73.6,172.68s.28-1.57.94-3.87c.32-1.15.71-2.49,1.12-3.92s.73-3,1-4.54.59-3.13,1-4.58a34.36,34.36,0,0,1,1.26-3.89c.44-1.12.89-2,1.2-2.63s.52-1,.52-1a33.14,33.14,0,0,0-1.5,3.68A34.88,34.88,0,0,0,78,155.85c-.36,1.44-.62,3-.91,4.58S76.42,163.55,76,165s-.87,2.75-1.23,3.88-.68,2.08-.87,2.75S73.6,172.68,73.6,172.68Z"/><path class="cls-2" d="M73.86,169.32s0-.35.06-1,.1-1.48.2-2.53.23-2.27.43-3.57.47-2.69.81-4.05a31.74,31.74,0,0,1,1.29-3.93A23.1,23.1,0,0,1,78.27,151,12.32,12.32,0,0,1,79.76,149a4.61,4.61,0,0,1,.73-.63,4.24,4.24,0,0,0-.68.68,15.91,15.91,0,0,0-1.35,2.13,31.56,31.56,0,0,0-2.71,7.15c-.35,1.35-.63,2.71-.85,4s-.41,2.5-.55,3.54C74.05,167.93,73.86,169.32,73.86,169.32Z"/><path class="cls-2" d="M74.41,159.63s.14-.81.44-2c.16-.59.34-1.29.59-2s.54-1.5.87-2.25a16.19,16.19,0,0,1,2.44-3.81,4,4,0,0,1,1.12-1,2.18,2.18,0,0,1,.39-.17l.14,0a2,2,0,0,0-.48.28,4.23,4.23,0,0,0-1,1c-.37.49-.75,1.09-1.15,1.73a16.09,16.09,0,0,0-1.09,2.11c-.35.73-.65,1.48-.92,2.2s-.51,1.38-.7,2Z"/><path class="cls-2" d="M74.87,165.53s.09-1.14.35-2.83c.13-.85.29-1.83.52-2.88s.48-2.16.8-3.26.72-2.18,1.12-3.17.84-1.9,1.23-2.66c.79-1.53,1.42-2.48,1.42-2.48L80,149c-.23.45-.52,1.1-.87,1.87s-.73,1.7-1.11,2.7-.75,2.06-1.06,3.15-.61,2.19-.85,3.23-.47,2-.64,2.84Z"/><path class="cls-2" d="M72.85,176.08s0-.23.07-.64.07-1,.09-1.67c0-1.38,0-3.23,0-5.09,0-.94.11-1.86.19-2.73s.22-1.67.34-2.36a22.51,22.51,0,0,1,.52-2.26s-.14.91-.29,2.29c-.09.69-.15,1.5-.22,2.36s-.12,1.79-.13,2.71,0,1.85,0,2.72-.07,1.68-.13,2.38A13.67,13.67,0,0,1,72.85,176.08Z"/><path class="cls-3" d="M40.71,153.52c-5.4,4.57-11,9.06-16.7,13.21a24,24,0,0,0-5,4.33c.62-7.77,6.36-15.69,11.15-21.52,4.64-5.65,11.48-12,19.22-12.45a6.13,6.13,0,0,1,3.47.75A.35.35,0,0,1,53,138a.45.45,0,0,1,0,.42,24.38,24.38,0,0,1-2.15,4.49c-1,1.47-2.29,2.73-3.42,4.1A53.61,53.61,0,0,1,40.71,153.52Z"/><path class="cls-2" d="M40.75,153.56c-3.57,3-7,6.11-10.65,9.08-.89.74-1.82,1.45-2.74,2.17s-1.84,1.43-2.8,2.1a27.77,27.77,0,0,0-5.27,4.38l-.81,1,.14-1.23a23.19,23.19,0,0,1,1-4.46,39.36,39.36,0,0,1,1.72-4.2A61.31,61.31,0,0,1,26,154.62c.84-1.24,1.73-2.46,2.64-3.65s1.83-2.39,2.82-3.54A42.48,42.48,0,0,1,38,141.15a28.85,28.85,0,0,1,3.87-2.47A19.72,19.72,0,0,1,46.17,137a15.87,15.87,0,0,1,2.29-.39,9,9,0,0,1,2.38,0,7.06,7.06,0,0,1,1.19.27l.58.23.28.14.13.08.07,0s-.08-.07.11.08h0l0,0,.06.05,0,0h0l.1.13a.67.67,0,0,1,.09.19,1.5,1.5,0,0,1,0,.2,1.3,1.3,0,0,1-.1.49l-.23.51-.45,1a14.46,14.46,0,0,1-2.37,3.95c-1,1.16-2.09,2.18-3.07,3.32s-2.1,2.17-3.19,3.2S41.9,152.6,40.75,153.56Zm-.07-.09c1.13-1,2.24-2,3.31-3a36.1,36.1,0,0,0,3-3.34c.92-1.2,1.94-2.32,2.82-3.5a14.89,14.89,0,0,0,2.07-3.85l.41-1.05.2-.52c0-.06,0-.11,0-.06a.15.15,0,0,0,0,.06s0,.12,0,.06.17.22.08.11h0l0,0-.05,0,0,0h0l.08.06-.06,0-.1-.06-.23-.11a3.8,3.8,0,0,0-.47-.18,5.59,5.59,0,0,0-1-.23,7.89,7.89,0,0,0-2.11,0,14.13,14.13,0,0,0-2.14.39,20.42,20.42,0,0,0-4.08,1.56A25.89,25.89,0,0,0,38.61,142a38.63,38.63,0,0,0-3.43,2.82c-1.1,1-2.14,2.07-3.15,3.16s-2,2.24-3,3.38-1.89,2.33-2.78,3.53-1.72,2.45-2.51,3.72a36.61,36.61,0,0,0-2.13,3.95,28.34,28.34,0,0,0-1.55,4.18,23.35,23.35,0,0,0-.74,4.37l-.67-.26a24,24,0,0,1,5.3-4.69L29.64,162c1.88-1.36,3.75-2.76,5.6-4.17S38.89,155,40.68,153.47Z"/><path class="cls-2" d="M50.82,142.86a8.19,8.19,0,0,0,.82-1.87c.13-.4,1.32-3.23,1.64-3.21-3.48-.27-7.21,3.15-9.82,5.15-1.55,1.18-3,2.44-4.47,3.76a35.39,35.39,0,0,0-4.58,4.66A21,21,0,0,1,38,148c1.28-1,2.49-2.25,3.86-3.16.69-.46,1.43-.83,2.14-1.26,2.28-1.39,4.27-3.38,6.85-4A9.2,9.2,0,0,0,48.48,141c-.73.51-1.4,1.1-2.1,1.62-1.47,1.09-3.05,2-4.5,3.16a49,49,0,0,0-10,10.65,63.82,63.82,0,0,1-4.43,5.83c-1.55,1.82-3.17,4.56-5.2,5.86q8.47-6.11,16.51-12.79c1.88-1.57,3.74-3.16,5.5-4.86a60.47,60.47,0,0,0,5.9-6.59A10.91,10.91,0,0,0,50.82,142.86Z"/><path class="cls-2" d="M33.71,152.26a20.71,20.71,0,0,1-2.16,2.43,9.35,9.35,0,0,0-1.2,1.32c-.66,1-1,2.06-1.71,3-.81,1.11-1.68,2.2-2.51,3.31L21,169.14a22.45,22.45,0,0,0,4.23-4.48c.61-.87,1.13-1.79,1.68-2.7A112.58,112.58,0,0,1,33.71,152.26Z"/><path class="cls-2" d="M52.33,137.92l-.52.13c-.35.08-.85.23-1.48.42a28.68,28.68,0,0,0-5,2.22,36.49,36.49,0,0,0-6.23,4.52c-1,.94-2.11,2-3.12,3s-2,2.2-3,3.35c-2,2.3-3.78,4.71-5.42,7s-3.15,4.49-4.42,6.37l-4.27,6.25,4-6.41c1.23-1.91,2.65-4.15,4.29-6.48s3.43-4.77,5.39-7.09c1-1.15,2-2.29,3.05-3.36s2.1-2.09,3.17-3a34.12,34.12,0,0,1,6.4-4.43,25.42,25.42,0,0,1,5.1-2c.65-.17,1.15-.3,1.5-.36Z"/><path class="cls-2" d="M53.42,138.37a3,3,0,0,0-1.6-.2,19.43,19.43,0,0,0-4.21.8,21.19,21.19,0,0,0-5.44,2.62,32.31,32.31,0,0,0-5.31,4.46,63.28,63.28,0,0,0-4.67,5.16c-1.4,1.73-2.64,3.41-3.62,4.9s-1.75,2.76-2.25,3.68-.77,1.44-.77,1.44.24-.55.69-1.48,1.14-2.27,2.08-3.8a52.48,52.48,0,0,1,3.5-5,62.36,62.36,0,0,1,4.67-5.25,32.39,32.39,0,0,1,5.43-4.47,20.52,20.52,0,0,1,5.6-2.52,17.77,17.77,0,0,1,4.3-.6,4.1,4.1,0,0,1,1.2.13A1.82,1.82,0,0,1,53.42,138.37Z"/><path class="cls-2" d="M33.87,147.27s-.3.31-.81.87a28.54,28.54,0,0,0-1.93,2.42,73.28,73.28,0,0,0-4.83,8.08c-.84,1.51-1.67,3-2.46,4.41l-2.19,3.83c-1.3,2.22-2.2,3.69-2.2,3.69s.76-1.54,1.94-3.84c.6-1.14,1.3-2.47,2-3.9s1.59-2.93,2.4-4.44,1.68-3,2.53-4.39a37.41,37.41,0,0,1,2.53-3.62A22.11,22.11,0,0,1,33,148.07C33.55,147.55,33.87,147.27,33.87,147.27Z"/><path class="cls-2" d="M35.1,145.75l.46-.47a17.22,17.22,0,0,1,1.29-1.19,23.19,23.19,0,0,1,9.39-4.86,16.77,16.77,0,0,1,1.71-.36l.66-.11s-1,.19-2.33.61a28.28,28.28,0,0,0-4.89,2,28.65,28.65,0,0,0-4.45,2.84C35.8,145.09,35.1,145.75,35.1,145.75Z"/><path class="cls-2" d="M26.42,155.63s-2,3.38-3.64,6.9-3.14,7.15-3.14,7.15.29-.94.79-2.32,1.26-3.18,2.11-5,1.79-3.47,2.56-4.73S26.42,155.63,26.42,155.63Z"/><path class="cls-3" d="M26.54,164.56s.9-1.08,2.28-2.67c.7-.79,1.5-1.73,2.39-2.69s1.87-2,2.86-3a35.76,35.76,0,0,1,3.09-2.76c1-.83,2.05-1.52,2.89-2.15,1.71-1.23,2.79-2.14,2.79-2.14a30.59,30.59,0,0,1-2.6,2.37l-2.79,2.28a36.69,36.69,0,0,0-3,2.78c-1,1-2,2-2.89,2.93L29,162.09C27.56,163.6,26.54,164.56,26.54,164.56Z"/><path class="cls-3" d="M45,147.56l1.27-1.39c.76-.82,1.76-1.93,2.74-3s2-2.25,2.67-3.12l1.21-1.43s-.35.67-1,1.61a28.32,28.32,0,0,1-2.51,3.29,29.68,29.68,0,0,1-2.94,2.92C45.58,147.13,45,147.56,45,147.56Z"/><path class="cls-3" d="M95.41,161.19a29.72,29.72,0,0,0,4.16-12.79,75.5,75.5,0,0,0,.55-8.34c0-3-.49-5.91-.66-8.87a21.26,21.26,0,0,1-1.14,8.48c-1,2.77-2.3,5.41-3.11,8.23A23,23,0,0,0,95.41,161.19Z"/><path class="cls-2" d="M95.43,161A29.49,29.49,0,0,0,97,157.67,30.55,30.55,0,0,0,98.09,154a36.21,36.21,0,0,0,.75-3.73c.18-1.25.32-2.52.48-3.79a54.53,54.53,0,0,0,.61-7.65c-.07-2.56-.52-5.09-.77-7.67l.59,0a20.39,20.39,0,0,1-.67,7.8c-.76,2.53-1.85,4.87-2.72,7.25-.22.6-.43,1.19-.61,1.8s-.34,1.22-.48,1.82a22.4,22.4,0,0,0-.51,3.75,24.14,24.14,0,0,0,.07,3.8A26.68,26.68,0,0,0,95.43,161Zm-.07.18c-.23-.6-.44-1.21-.62-1.84a17,17,0,0,1-.45-1.9,21.12,21.12,0,0,1-.37-3.9,24.6,24.6,0,0,1,.34-3.92c.11-.66.27-1.29.44-1.93s.37-1.26.59-1.87c.87-2.47,2-4.78,2.83-7.16a22.68,22.68,0,0,0,1-7.48l.59,0c0,2.56.39,5.11.52,7.69a64.46,64.46,0,0,1-.07,7.74,38.64,38.64,0,0,1-.44,3.86,38,38,0,0,1-.88,3.8,24.57,24.57,0,0,1-1.41,3.63,17.76,17.76,0,0,1-.93,1.72,17.39,17.39,0,0,1-1.08,1.61l-.06.08Z"/><path class="cls-2" d="M99.68,135.5c-.09,1.77-.11,3.56-.29,5.3-.21,2.13-.57,4.23-1,6.33s-.86,4.3-1.26,6.46q-.3,1.62-.54,3.24c-.2,1.35-.59,2.7-.89,4,2.26-3.74,3.31-8.25,3.87-12.55a57,57,0,0,0,.43-6.91c0-1.14,0-2.27-.08-3.41a32.35,32.35,0,0,1-.23-3.4C99.71,134.9,99.69,135.2,99.68,135.5Z"/><path class="cls-2" d="M99.69,135.76a26.45,26.45,0,0,1-.36,4c-.2,1.2-.49,2.58-.8,4.07-.16.75-.33,1.49-.44,2.28s-.25,1.59-.37,2.38c-.27,1.59-.49,3.2-.72,4.69s-.48,2.89-.67,4.09c-.41,2.39-.72,4-.72,4s.14-1.61.42-4c.15-1.2.3-2.61.51-4.11.1-.75.21-1.52.31-2.31s.2-1.59.34-2.39.28-1.59.41-2.38.31-1.56.48-2.29c.33-1.48.71-2.85,1-4A38.34,38.34,0,0,0,99.69,135.76Z"/><path class="cls-2" d="M97.09,145.57s-.27,1-.52,2.42a42.76,42.76,0,0,0-.55,5.42c-.09,2-.32,4-.44,5.45s-.17,2.48-.17,2.48,0-1,0-2.49.25-3.47.33-5.45a31.92,31.92,0,0,1,.67-5.44A20.37,20.37,0,0,1,97.09,145.57Z"/><path class="cls-3" d="M106,145.83a55,55,0,0,0,3.41-8.57q.9-3.21,1.5-6.5c.36-1.92.24-4.39.9-6.2-.86,2.37-2.52,4.34-3.83,6.49-3,4.89-4.8,11.66-3.51,17.31.24.13.48-.17.59-.42C105.33,147.23,105.64,146.52,106,145.83Z"/><path class="cls-2" d="M105.91,145.8c.39-.84.76-1.68,1.1-2.54s.64-1.74.92-2.61.53-1.76.77-2.64c.12-.46.23-.85.32-1.32l.31-1.35c.21-.9.45-1.79.7-2.68l.37-1.34.19-.65c0-.23.09-.45.13-.67.16-.9.25-1.82.35-2.74a13.84,13.84,0,0,1,.52-2.76l.35.12a29,29,0,0,1-3,5.69c-.28.47-.54.89-.79,1.37s-.5.93-.73,1.39a28.17,28.17,0,0,0-1.21,2.9,31.08,31.08,0,0,0-1.51,6.08c-.15,1-.24,2.07-.29,3.12a18.57,18.57,0,0,0,.2,3.16l-.07-.1c.08.1.32-.1.41-.31l.34-.7Zm.1,0-.61,1.43-.3.73a1,1,0,0,1-.23.36.44.44,0,0,1-.51.12l0,0,0-.07c-.13-.52-.28-1-.37-1.58s-.17-1.07-.24-1.61-.11-1.09-.1-1.63a15,15,0,0,1,.06-1.64,23.13,23.13,0,0,1,1.49-6.35,26.4,26.4,0,0,1,1.36-3c.26-.49.52-1,.81-1.42s.6-.92.9-1.35a25,25,0,0,0,3.39-5.35l.35.12a20,20,0,0,0-.7,5.45c0,.24,0,.47-.07.7l-.12.7-.25,1.37c-.16.91-.34,1.81-.54,2.72l-.32,1.35a13.2,13.2,0,0,1-.4,1.36c-.31.88-.69,1.74-1.08,2.58s-.81,1.68-1.24,2.5S106.4,145,106,145.85Z"/><path class="cls-2" d="M104.56,148.51a2.16,2.16,0,0,0,0,.36c1.4-3.14,2.77-6.3,4-9.49.46-1.13.73-2.38,1.08-3.56a44,44,0,0,0,1.59-9.95c-1.19,3.41-1.61,7-2.89,10.44-.44,1.18-.94,2.33-1.33,3.53-.28.86-.5,1.73-.72,2.61-.45,1.78-1.07,3.51-1.6,5.28A4.39,4.39,0,0,0,104.56,148.51Z"/><path class="cls-2" d="M109.91,130.14s-.39,1.19-1,3c-.32.88-.68,1.91-1.07,3s-.79,2.28-1.16,3.46-.73,2.38-1,3.51-.54,2.18-.7,3.1-.32,1.68-.39,2.22-.13.85-.13.85,0-.31,0-.86a21.91,21.91,0,0,1,.19-2.26c.12-.93.29-2,.55-3.16s.6-2.36,1-3.56.82-2.37,1.24-3.46.85-2.1,1.22-3C109.36,131.26,109.91,130.14,109.91,130.14Z"/><path class="cls-2" d="M111.08,126.63l-1.23,2.78c-.75,1.66-1.71,3.89-2.52,6.17a43.39,43.39,0,0,0-1.9,6.38c-.38,1.78-.53,3-.53,3l.08-.83a21.12,21.12,0,0,1,.31-2.18,43.89,43.89,0,0,1,1.79-6.44c.86-2.28,1.86-4.5,2.64-6.14S111.08,126.63,111.08,126.63Z"/><path class="cls-2" d="M107,134.47a49.31,49.31,0,0,0-2.63,13.38s0-.85,0-2.14A33.74,33.74,0,0,1,105,141a33.25,33.25,0,0,1,1.25-4.56C106.65,135.25,107,134.47,107,134.47Z"/><path class="cls-3" d="M105.47,157.88c-.73.22-1.47.41-2.23.6-1,.24-6.41.73-6.72,1.67,1.67-4.92,6.27-7.34,10.41-9.9a35.15,35.15,0,0,1,11.73-4.16c3.73-.74,8-.18,11.53-1.42-4.6,1.61-8.52,4.53-12.45,7.32A39.81,39.81,0,0,1,105.47,157.88Z"/><path class="cls-2" d="M105.48,157.94l-2.25.62c-.77.18-1.54.27-2.3.43s-1.52.3-2.26.5a9.85,9.85,0,0,0-1.09.34,4.3,4.3,0,0,0-.48.22.82.82,0,0,0-.26.21l-.65-.22a11.45,11.45,0,0,1,1-2.31,12.38,12.38,0,0,1,1.46-2.06,19.3,19.3,0,0,1,3.76-3.24c1.36-.93,2.76-1.76,4.14-2.59a26.94,26.94,0,0,1,4.46-2.15,37.24,37.24,0,0,1,4.71-1.37c.8-.19,1.6-.34,2.4-.48a22.29,22.29,0,0,1,2.44-.31c1.63-.12,3.26-.09,4.87-.2a16.1,16.1,0,0,0,4.72-.84l.12.36c-.54.21-1.09.42-1.62.66s-1,.51-1.56.79c-1,.55-2,1.16-3,1.81l-2.88,2c-1,.67-1.9,1.38-2.87,2a33,33,0,0,1-3,1.88c-1,.57-2.11,1.09-3.19,1.56s-2.19.89-3.3,1.28S106.61,157.61,105.48,157.94Zm0-.11a31.79,31.79,0,0,0,3.32-1.16c1.09-.44,2.14-1,3.17-1.5a49.27,49.27,0,0,0,5.86-3.79c.94-.7,1.91-1.37,2.89-2s2-1.31,3-1.9a36.18,36.18,0,0,1,6.45-3l.12.36a21.46,21.46,0,0,1-4.82.84c-1.62.12-3.24.21-4.83.41a20.7,20.7,0,0,0-2.35.44l-2.34.59a43.43,43.43,0,0,0-4.56,1.5,25.57,25.57,0,0,0-4.24,2.15c-1.37.88-2.77,1.69-4.08,2.59a21.56,21.56,0,0,0-3.66,3,12.35,12.35,0,0,0-2.53,3.91l-.65-.22a1.18,1.18,0,0,1,.61-.55,4.76,4.76,0,0,1,.6-.21c.39-.11.78-.19,1.16-.26.78-.14,1.55-.23,2.33-.32s1.55-.17,2.31-.29Z"/><path class="cls-2" d="M109.74,156.37a64.92,64.92,0,0,1-13.08,3.35c6.34-3.28,13.67-4.24,19.82-8,2.67-1.64,5.15-3.78,8.2-4.48L117,152.55c-.51.35-1,.71-1.55,1a32.09,32.09,0,0,1-2.85,1.48C111.66,155.51,110.71,156,109.74,156.37Z"/><path class="cls-2" d="M96.87,159.86l1.06-.72a29.47,29.47,0,0,1,2.94-1.69c1.25-.64,2.74-1.33,4.37-2s3.39-1.29,5.13-1.95,3.49-1.3,5.08-2c.8-.36,1.56-.7,2.27-1.07l2-1,4.19-2.06-1.11.65c-.72.4-1.71,1-2.94,1.68l-2,1.08c-.7.39-1.46.78-2.26,1.14-1.6.73-3.34,1.42-5.08,2.08s-3.52,1.26-5.15,1.88-3.14,1.22-4.41,1.81-2.31,1.1-3,1.49Z"/><path class="cls-2" d="M97.25,159.71s.36-.4,1-1.06a22.49,22.49,0,0,1,3-2.43,31.91,31.91,0,0,1,4.85-2.65c1.84-.83,3.87-1.57,5.9-2.28s4.09-1.33,6-2l5.15-1.94,5-1.88-1.35.6c-.86.38-2.08,1-3.57,1.56l-5.09,2.09c-1.89.73-3.93,1.4-6,2.11a51.68,51.68,0,0,0-10.76,4.67,25.81,25.81,0,0,0-3.15,2.25C97.63,159.33,97.25,159.71,97.25,159.71Z"/><path class="cls-2" d="M125.17,147s-.9.5-2.29,1.17c-.69.32-1.5.71-2.39,1.09l-2.78,1.15-2.82,1c-.91.33-1.77.59-2.5.82-1.47.45-2.47.7-2.47.7s1-.41,2.37-1l5.23-2.08,5.25-2Z"/><path class="cls-2" d="M96.68,159.88s.19-.27.56-.71a19.49,19.49,0,0,1,1.65-1.76,25.16,25.16,0,0,1,2.63-2.15,34.83,34.83,0,0,1,3.34-2c1.18-.59,2.41-1.13,3.57-1.57s2.27-.78,3.22-1.06c1.92-.54,3.22-.78,3.22-.78l-3.12,1.06c-.94.33-2,.75-3.15,1.21s-2.33,1-3.5,1.62a31.94,31.94,0,0,0-3.31,1.93,31.15,31.15,0,0,0-2.7,2,23.68,23.68,0,0,0-1.77,1.6Z"/><path class="cls-2" d="M115.83,149.48s.73-.34,1.84-.79,2.61-1,4.12-1.56,3-1,4.19-1.34,1.94-.52,1.94-.52-.73.35-1.84.8-2.6,1-4.12,1.56-3,1-4.19,1.34S115.83,149.48,115.83,149.48Z"/><path class="cls-2" d="M127.32,145.55l-2.78.74-2.83.74c-1,.27-2.15.56-3.25.87s-2.21.6-3.24.89l-2.82.79-2.77.77s1.06-.46,2.68-1c.81-.29,1.75-.63,2.78-1s2.13-.65,3.23-1,2.23-.56,3.28-.81,2-.42,2.88-.59C126.17,145.68,127.32,145.55,127.32,145.55Z"/><path class="cls-3" d="M116.06,135.83a12.56,12.56,0,0,0,.13,2.21,1.87,1.87,0,0,0,.48,1.16,1.66,1.66,0,0,0,1.31.29,8.58,8.58,0,0,0,3-1.21c3.83-2.13,6.56-5.89,9-9.48a135.1,135.1,0,0,0,12.58-23.28c-4.22,5.52-10.45,9-15.93,13.31-4.16,3.24-7.14,5.94-9.18,11A17.37,17.37,0,0,0,116.06,135.83Z"/><path class="cls-2" d="M116.12,135.83a8.63,8.63,0,0,0,.33,2.92,1.13,1.13,0,0,0,1.13.65,4.07,4.07,0,0,0,1.41-.32,15.16,15.16,0,0,0,2.57-1.44,17.45,17.45,0,0,0,2.26-1.86,35.59,35.59,0,0,0,3.81-4.49c1.19-1.57,2.28-3.24,3.42-4.87s2.21-3.3,3.27-5,2-3.43,3-5.18,1.81-3.54,2.62-5.37,1.57-3.65,2.3-5.5l.64.37c-.52.71-1.08,1.39-1.66,2s-1.2,1.28-1.83,1.89c-1.27,1.21-2.63,2.31-4,3.38s-2.78,2.1-4.19,3.1-2.81,2-4.17,3-2.71,2.13-4,3.27a24.05,24.05,0,0,0-3.41,3.79,21.32,21.32,0,0,0-2.42,4.52A15.2,15.2,0,0,0,116.12,135.83Zm-.11,0a18.5,18.5,0,0,1,.93-5.11,22.29,22.29,0,0,1,2.15-4.78,20.43,20.43,0,0,1,3.27-4.14,41.52,41.52,0,0,1,4-3.43c1.37-1.07,2.78-2.09,4.18-3.11s2.83-2,4.21-3c.69-.52,1.37-1,2-1.58s1.31-1.1,2-1.66,1.25-1.17,1.84-1.78,1.15-1.27,1.69-1.92l1.78-2.15-1.14,2.52q-1.23,2.73-2.57,5.41c-.9,1.78-1.79,3.57-2.74,5.32s-1.88,3.52-2.84,5.27-2,3.48-3,5.19-2.16,3.36-3.33,5a25.8,25.8,0,0,1-4.09,4.46,18.3,18.3,0,0,1-2.49,1.76,15.18,15.18,0,0,1-2.73,1.29,4.55,4.55,0,0,1-1.51.24,1.3,1.3,0,0,1-1.27-.8A9.45,9.45,0,0,1,116,135.82Z"/><path class="cls-2" d="M142.35,106a29.22,29.22,0,0,0-2.91,4.24c-.78,1.34-1.26,2.74-2.07,4.09-1.86,3.09-3.8,6.12-5.87,9.07-3.92,5.6-8.27,10.89-12.61,16.17a29,29,0,0,0,9.64-8.23c1.78-2.29,3-4.79,4.57-7.19a54.25,54.25,0,0,0,2.75-4.95c1.1-2.19,2.44-4.18,3.46-6.43q1.63-3.61,3.4-7.17Z"/><path class="cls-2" d="M141.61,107.2s-.38.41-1,1.17-1.43,1.87-2.39,3.24-2,3-3.12,4.75-2.44,3.56-3.62,5.43-2.33,3.78-3.37,5.58-2.09,3.46-3,4.85-1.74,2.51-2.3,3.31l-.88,1.25,2.93-4.73c1.77-2.81,3.78-6.78,6.18-10.54,1.21-1.89,2.54-3.67,3.68-5.41s2.28-3.32,3.27-4.67,1.91-2.4,2.56-3.12S141.61,107.2,141.61,107.2Z"/><path class="cls-2" d="M135.92,113.37l-.79,1.09c-.51.68-1.2,1.68-2,2.88s-1.77,2.62-2.77,4.14-2,3.17-3,4.83l-3.07,4.83c-1,1.54-2,3-2.75,4.17-1.63,2.43-2.77,4-2.77,4s.92-1.72,2.39-4.26c.74-1.25,1.58-2.74,2.53-4.3l3-4.88c1-1.66,2.11-3.29,3.15-4.8s2.09-2.86,3-4C134.55,114.77,135.92,113.37,135.92,113.37Z"/><path class="cls-2" d="M138.58,109.79l-.5.52-1.34,1.34c-.56.54-1.18,1.21-1.87,1.9l-2.11,2.19L130.68,118c-.65.72-1.28,1.38-1.79,2l-1.27,1.41-.49.53.37-.63c.24-.38.57-1,1-1.59s1-1.39,1.61-2.15,1.31-1.56,2-2.33,1.47-1.49,2.2-2.15,1.45-1.24,2.07-1.73,1.16-.86,1.53-1.12Z"/><path class="cls-2" d="M126.15,123.69s-.5,1-1.27,2.5L122,131.64l-2.83,5.47c-.77,1.49-1.32,2.48-1.32,2.48l.23-.74c.16-.47.37-1.14.68-1.93s.66-1.7,1.1-2.67.92-2,1.43-3,1.07-2,1.62-2.89,1.09-1.73,1.55-2.43.9-1.26,1.19-1.66Z"/><path class="cls-2" d="M131.19,115.66l-.88.85c-.57.53-1.34,1.32-2.25,2.3-.46.48-.93,1-1.41,1.6s-1,1.23-1.5,1.86-1,1.34-1.48,2.07-.93,1.48-1.39,2.23-.88,1.52-1.25,2.31-.72,1.56-1,2.31-.6,1.51-.83,2.23-.46,1.41-.61,2.05-.31,1.23-.42,1.76-.21,1-.26,1.38c-.12.76-.2,1.2-.2,1.2l0-1.22a11.64,11.64,0,0,1,.12-1.41,15.62,15.62,0,0,1,.27-1.81c.12-.66.3-1.37.5-2.12a21.2,21.2,0,0,1,.74-2.31c.31-.78.63-1.59,1-2.39s.81-1.59,1.23-2.38,1-1.53,1.47-2.25,1-1.41,1.55-2.08,1.06-1.27,1.6-1.81,1-1.08,1.54-1.54a17.26,17.26,0,0,1,1.36-1.21c.42-.36.78-.66,1.1-.89Z"/><path class="cls-2" d="M118.94,129.19a4.75,4.75,0,0,1-.09.47c-.07.29-.16.72-.27,1.22-.24,1-.55,2.33-.78,3.67a23.21,23.21,0,0,0-.38,3.69c0,.51,0,.94,0,1.25a4.36,4.36,0,0,1,0,.48l-.16-.46a8,8,0,0,1-.31-1.23,11.76,11.76,0,0,1,.05-3.87,15.78,15.78,0,0,1,1.13-3.67A16.35,16.35,0,0,1,118.94,129.19Z"/><path class="cls-3" d="M162.84,129.29a86.84,86.84,0,0,1-36.68,7.36,29.15,29.15,0,0,1,16-7.44,55.65,55.65,0,0,1,8.17-.26Q156.58,129.07,162.84,129.29Z"/><path class="cls-2" d="M162.86,129.34q-2.1,1.08-4.28,2c-1.47.59-2.93,1.17-4.43,1.68s-3,.94-4.54,1.36c-.76.2-1.53.39-2.3.56l-2.32.47c-1.56.28-3.12.49-4.69.67s-3.14.3-4.71.44l-4.71.28c-1.58.06-3.15.12-4.73.14h-.69l.51-.49a27.92,27.92,0,0,1,3.77-3.09c.68-.46,1.37-.9,2.09-1.29s1.44-.77,2.19-1.11a30.2,30.2,0,0,1,4.62-1.64c.8-.21,1.6-.38,2.41-.52s1.62-.24,2.44-.3a80.52,80.52,0,0,1,9.71.12l4.82.28c1.61.09,3.22.23,4.82.34l.19,0Zm-.34,0c-1.5,0-3,.07-4.51.08l-4.83,0c-1.62,0-3.22,0-4.82,0s-3.2,0-4.78.19a30.69,30.69,0,0,0-4.67.75,28.47,28.47,0,0,0-4.49,1.49A30,30,0,0,0,130.2,134a29.39,29.39,0,0,0-3.85,2.81l-.19-.48,2.35.07h2.35l2.35-.09,2.35-.21c.78-.1,1.56-.17,2.33-.28l2.32-.38,2.31-.45c.76-.16,1.53-.34,2.29-.49l2.29-.51c.76-.2,1.52-.39,2.28-.56,1.52-.37,3-.79,4.52-1.23.75-.24,1.5-.46,2.25-.68l2.23-.74,2.22-.77Z"/><path class="cls-2" d="M143.29,133.67c2.48-.42,5-.81,7.45-1.2l2.56-.4,4.66-.73a27.32,27.32,0,0,0-3.67,1.24c-1.23.39-2.47.74-3.72,1.07q-3.85,1-7.79,1.64c-5.14.84-10.26,1.59-15.5,1.19Q135.26,135,143.29,133.67Z"/><path class="cls-2" d="M126,136.84l1.51-.47c1-.28,2.33-.72,4-1.17s3.59-1,5.7-1.49,4.37-.91,6.63-1.31,4.54-.73,6.67-1,4.11-.58,5.8-.87l4.11-.66,1.55-.27-1.51.47c-1,.27-2.35.68-4,1.05s-3.65.82-5.77,1.21-4.38.77-6.64,1.16c-4.52.73-9,1.63-12.37,2.33-1.68.36-3.1.6-4.09.79Z"/><path class="cls-2" d="M126.65,136.55l.31-.23a9.62,9.62,0,0,1,.9-.63,18.43,18.43,0,0,1,3.52-1.7,34.93,34.93,0,0,1,5.35-1.42c2-.36,4.11-.68,6.24-1l6.26-.69,5.46-.55,3.86-.42,1.47-.17s-2.09.52-5.27,1c-1.59.24-3.44.54-5.44.79l-6.24.8c-2.12.25-4.25.54-6.22.86a40.86,40.86,0,0,0-5.33,1.16,21.52,21.52,0,0,0-3.58,1.42c-.41.21-.74.39-1,.52Z"/><path class="cls-2" d="M129.72,134.73l1.3-.6c.41-.2.92-.41,1.51-.65s1.25-.51,2-.74,1.55-.51,2.41-.76,1.78-.47,2.73-.69c1.92-.41,4-.75,6-1a111.34,111.34,0,0,1,11.43-.65c1.56,0,2.86,0,3.77,0l1.43,0-5.19.27c-1.55.06-3.37.19-5.31.3s-4,.32-6.06.57-4.11.56-6,.94c-1,.22-1.87.39-2.73.62s-1.68.42-2.42.66-1.43.43-2,.64-1.13.38-1.55.55Z"/></svg>