<svg id="圖層_1" data-name="圖層 1" xmlns="http://www.w3.org/2000/svg" viewBox="0 0 175 175"><defs><style>.cls-1{fill:none;stroke:#56889c;stroke-linecap:round;stroke-linejoin:round;stroke-width:0.46px;}.cls-2{fill:#55849d;}.cls-3{fill:#fff;}.cls-4{fill:#56889c;fill-rule:evenodd;}</style></defs><title>工作區域 11</title><circle class="cls-1" cx="83.75" cy="80.45" r="76.95"/><path class="cls-2" d="M52.37,70.3H49.24v4.43H28.89V72.57H46.61V70.3h-20V68.11h20V66.19H28.89V64.05H49.24v4.06h3.13ZM51.69,61H49.18V55.6H40.75v7.48H38.18V55.6H29.83v5.29H27.29V53.47H38.18V52.05H28.36V49.8H50.84v2.25H40.75v1.42H51.69Zm-14.22.72A35.25,35.25,0,0,1,31,63l-.67-2.08a35,35,0,0,0,6.39-1Zm-.06-4.34-.73,1.86a52.91,52.91,0,0,0-6.28-1.07l.77-2A43.78,43.78,0,0,1,37.41,57.38Zm11.24.55a32.54,32.54,0,0,1-6.47,1.31l-.93-1.93a40.27,40.27,0,0,0,6.27-1.14Zm-.09,3.29-.8,1.89a31.89,31.89,0,0,0-6.33-1.39l.8-2A36.15,36.15,0,0,1,48.56,61.22Z"/><path class="cls-2" d="M70.12,62.69H68V65H64.53v1h4.55v4.32H64.53v.91h4.69V73H64.53v2.1h-2.4V73h-6v-1.8h6v-.91H57.48V66h4.65V65H59V62.69H56.69V61.07H59v-1h2.39v1h4.13v-1H68v1h2.17Zm11.26-3.81H78.87V54.79H70.35V59.5H67.89V54.79H59.23v4.09H56.77V52.82H67.89V51.66h-10v-2H80.31v2h-10v1.16h11ZM67.07,59a54.59,54.59,0,0,1-6.69.65l-.44-1.56a45.14,45.14,0,0,0,6.65-.44Zm-4.94,9.71v-1.1H59.94v1.1Zm5-12.9-.54,1.48a40.57,40.57,0,0,0-6.35-.5l.56-1.45A52.09,52.09,0,0,1,67.13,55.83Zm-1.58,7.73v-.87H61.42v.87Zm1.1,5.17v-1.1H64.53v1.1Zm14,3.78c0,1.79-.81,2.69-2.42,2.69-1.06,0-1.8,0-2.23-.06l-.79-2.36,2.37.12c.41,0,.62-.2.62-.59V70.2H73.67a10.34,10.34,0,0,1-2.37,5.27l-2-1.72q2-2.11,2-6.65V60.92h9.34ZM78.07,58.59l-.62,1.53a42.43,42.43,0,0,0-6.37-.82l.62-1.49A49.14,49.14,0,0,1,78.07,58.59Zm0-1.8c-2,.28-4.13.46-6.32.56l-.54-1.52a39.79,39.79,0,0,0,6.18-.5Zm.12,7.71V63.11H73.81V64.5Zm0,3.63v-1.5H73.81v1.5Z"/><path class="cls-2" d="M111.69,72.78l-1.33,2.6a47.68,47.68,0,0,1-11.65-3.81,47.8,47.8,0,0,1-11.63,3.78l-1.41-2.7a37.37,37.37,0,0,0,10.18-2.83,34,34,0,0,1-6.72-7.72h-1.3V59.5h9.49v-4H85.78V52.87H97.32V49.36h2.74v3.51h11.48v2.65H100.06v4h8.12v2.6a32.53,32.53,0,0,1-6.72,7.64A45.64,45.64,0,0,0,111.69,72.78Zm-7-10.68H92.58a23.68,23.68,0,0,0,6.1,6.12A22.66,22.66,0,0,0,104.65,62.1Z"/><path class="cls-2" d="M124.07,72.81c0,1.49-1,2.23-2.94,2.23-.4,0-.92,0-1.57-.08l-.65-2.45,2.31,0c.29,0,.44-.17.44-.5V65.12a20,20,0,0,1-2.16,2.31L118.76,66q-.29,6.22-1.72,9.1l-2-1.78a19.74,19.74,0,0,0,1.25-7.2V49.77h7.76Zm-2.41-14.38V52.19h-2.87v3.38l1.39-1A39.31,39.31,0,0,1,121.66,58.43Zm0,2.85V59.14l-1.74,1.21c-.27-1-.65-2.2-1.13-3.59v7.88A22.41,22.41,0,0,0,121.66,61.28Zm18.18-10.15A43.22,43.22,0,0,1,128.7,54V64.05q0,6.93-2.1,11.19l-2-1.81a24.13,24.13,0,0,0,1.66-9.67v-12A38.15,38.15,0,0,0,138.15,49Zm.23,4.73a26.49,26.49,0,0,1-7.56,2.63V71.6a22.26,22.26,0,0,0,2.7-1.4l.55,2.37a28,28,0,0,1-5.56,2.6L129.46,73a1.13,1.13,0,0,0,.71-1.1V56.48a26.3,26.3,0,0,0,8.46-2.74Zm1.16,17.72-1.89,1.66Q134.45,69.6,134,59.62l2.33-.57c.22,2,.41,3.32.56,4a18.76,18.76,0,0,0,2.34-3.22l1.92,1.5a22.62,22.62,0,0,1-3.69,4.58A18.06,18.06,0,0,0,141.23,73.58Z"/><path class="cls-2" d="M52.65,105.62l-1.52,2.28a31.72,31.72,0,0,1-7.26-5.4,25,25,0,0,1-4.34-6.7q-2.33,7.47-11.79,12l-1.5-2.31q9.32-4.35,11.2-12H26.89V91H38q.18-2.79.18-5.73h-10V82.59H50.84v2.63H40.92c-.1,3.22-.17,5.13-.23,5.73H51.92v2.6H41.48Q43.7,100.81,52.65,105.62Z"/><path class="cls-2" d="M62,101.92a25.57,25.57,0,0,1-3.58,6.1L56,106.41a20.38,20.38,0,0,0,3.55-5.7Zm7.65-17.86A21.14,21.14,0,0,1,66,94.21a18.33,18.33,0,0,1-8.32,5.94l-1.37-2.1q5.81-2.37,8.2-6a28.25,28.25,0,0,0-3.78-2.73,40.29,40.29,0,0,1-2.85,3l-1.71-1.92a22.65,22.65,0,0,0,6.17-8.74l2.49.59a9,9,0,0,1-.74,1.8Zm-7.33,9.62a41.45,41.45,0,0,1-4.64,2.09l-.72-2.25a51.7,51.7,0,0,0,4.76-2.09Zm4.28-7.25H62.75a4.62,4.62,0,0,1-.53.91c.82.5,1.94,1.28,3.38,2.34A14.79,14.79,0,0,0,66.56,86.43Zm1.55,20.66-2.73.87a33.05,33.05,0,0,0-1.56-5.62l2.63-.86A33.49,33.49,0,0,1,68.11,107.09ZM81.55,90.47H75.26q-.83,5.94-7.6,9.88l-1.63-2q5.82-3.51,6.57-7.84H69.41V88H73a35.63,35.63,0,0,0,.17-3.57c0-.73,0-1.54-.06-2.42h2.72q0,3.75-.2,6h5.93ZM75.26,107l-2.75.92a31.24,31.24,0,0,0-2.25-5.53l2.69-.84A32.36,32.36,0,0,1,75.26,107Zm6.85-8.55L80,100.2a37.66,37.66,0,0,0-5-6L77,92.55A39.08,39.08,0,0,1,82.11,98.43Zm0,8.46L79.34,108a27.64,27.64,0,0,0-2.81-5.56l2.61-1A28.27,28.27,0,0,1,82.06,106.89ZM81.15,86,79,87.31a21.19,21.19,0,0,0-2.24-3.61l2.07-1.39A21.46,21.46,0,0,1,81.15,86Z"/><path class="cls-2" d="M92.09,98.14a52,52,0,0,1-4.29,9.6l-2.28-1.56a49.82,49.82,0,0,0,4.18-9.4Zm.35-5.36-1.69,2.11a34,34,0,0,0-4.94-3.46l1.49-2.2A29.68,29.68,0,0,1,92.44,92.78Zm.17-6.88-1.89,2a22.38,22.38,0,0,0-4.61-4.17l1.84-2A26.53,26.53,0,0,1,92.61,85.9Zm18.48,14.33a26.94,26.94,0,0,1-.31,4.7,3.09,3.09,0,0,1-1.28,2.24,7.63,7.63,0,0,1-3.59.59c-.51,0-1.16,0-2-.05l-.84-2.38c.69,0,1.36.06,2,.06a11.84,11.84,0,0,0,2.45-.15c.35-.09.58-.4.69-.91a9.14,9.14,0,0,0,.17-1.9h-6.3Q100.72,107,92.74,108l-1.31-2.37q6.21-.47,7.84-3.22H92.58v-2.2h7.48a4.56,4.56,0,0,0,.31-1.27l2.51,0a5.32,5.32,0,0,1-.15,1.24Zm-.26-3.45a2.74,2.74,0,0,1-.46,1.77,2,2,0,0,1-1.28.68,24.34,24.34,0,0,1-3,.12l-.8-2.13c.45,0,.94,0,1.48,0a4,4,0,0,0,1.33-.12.45.45,0,0,0,.21-.43v-.47h-5v2h-2.52v-2H95.72v3H93.15v-12H99c-.94-.48-2-.94-3-1.39l2.25-1.21c.87.39,1.87.88,3,1.49,1.41-.64,2.64-1.24,3.69-1.81H93.09V82.31h16.59v2.11a51.57,51.57,0,0,1-5.79,2.92h6.94Zm-10-5.92V89.45H95.72v1.41Zm0,3.44V92.84H95.72V94.3Zm7.54-3.44V89.45h-5v1.41Zm0,3.44V92.84h-5V94.3Z"/><path class="cls-2" d="M125.48,99.11a24.77,24.77,0,0,1-8.55,8.08l-1.75-1.9a24.79,24.79,0,0,0,7.39-6.18H116V96.72h9.51Zm16,5.92-1.54,2.06q-7.26-3.47-10.3-8.1v5.62a3.19,3.19,0,0,1-.55,2,2.49,2.49,0,0,1-1.39.88,13.69,13.69,0,0,1-2.92.21,10.75,10.75,0,0,1-1.16,0l-.81-2.62c1.18.07,2.3.11,3.38.11a.76.76,0,0,0,.61-.3,1.08,1.08,0,0,0,.24-.7V94.89h-9.4V84.15h8.44a13.8,13.8,0,0,0,1.24-2.57l2.89.42a8.28,8.28,0,0,1-1.06,2.15h9.79V94.89h-9.3a12.8,12.8,0,0,0,3.64,5A24.13,24.13,0,0,0,138,95.83l2,1.6a29.15,29.15,0,0,1-4.58,4A33.85,33.85,0,0,0,141.47,105Zm-5.18-16.65v-2h-16v2Zm0,4.23v-2h-16v2Z"/><path class="cls-3" d="M159.48,167c-.87,0-1.73-.1-2.59-.18a1.26,1.26,0,0,0-.7-.38,1.23,1.23,0,0,0-1.39-.92l-1.42.11c-5-5.88-7.95-4.89-7.95-4.89-1,0-2-6.09-2-6.09-3-3-4.06-1-4.06-1-2-1-2-5.07-2-5.07,0-1-3-1-3-1,0-1-5.07-10.14-5.07-10.14-1,1-3,0-3,0-1-2-4.06-4-4.06-4a14.27,14.27,0,0,0-3-2c0-1-2,0-2,0l-1,1c0-1-7.1,5.07-7.1,5.07-1-3-3.12-2.06-3.12-2.06-1.09-4.1-5-7.06-5-7.06-1-1-4.06,1-4.06,1-2-7.1-5.07-4-5.07-4,1-2-4.05-7.1-4.05-7.1l-11.15,9.12a3.77,3.77,0,0,1-2,3.05,18.82,18.82,0,0,0-4.06,3c-2,1-5.07-5.07-5.07-5.07-1,3-6.08,4-6.08,4-1,2-4.06,3.05-4.06,3.05-2,1-3,0-4-1a3.13,3.13,0,0,1-1-2c0-4-2-4-2-4-2,2-6.08,6.08-6.08,6.08a3.61,3.61,0,0,0-2,3c-5.07,1-4,7.1-4,7.1-2,0-10.14,12.17-10.14,12.17-6.39,7.66-12,10.09-15.22,10.85a6.63,6.63,0,0,1-.78.62c-.15,0-.29,0-.44-.06a1.46,1.46,0,0,0-1.41,1,1.4,1.4,0,0,0-.83.94,1.54,1.54,0,0,0,1.07,1.87,5.77,5.77,0,0,0,3-.26c6.08,1.27,27.79.21,38.28-.4h0l1.19-.07h.1l1-.06h.13l2.84-.18h.44c1,0,7.1,1,9.13,0a10,10,0,0,1,4-1,13.62,13.62,0,0,1,5.07-1c0,2,6.09,1,6.09,1,3,1,22.3,0,22.3,0,2-1,15.21,0,15.21,0h16.23l2.23-.45.95.05c2.66.23,5.53.75,8.08.25,3.2,0,6.39,0,9.59-.18a43.39,43.39,0,0,0,5.37.51C161.43,170.12,161.43,167.08,159.48,167Z"/><path class="cls-4" d="M62.84,153.61c-.65.64-.71,1.9-1.91,2,.47-.8.81-2.17,1.3-3.15.37-.74,1-1.88,1.9-1.36,0,.75-.81.78-.77,1.63.73-.36,1.14-2.16,2.42-2.37,0,.25,0,.39.25.38-2.38,2.9-3.61,6.3-5.78,9.28-2.37.93-3.71,2.92-5.84,4.1-.49,2.35-2.87,2.77-4.71,3.74-3.57.09-7.07,1.86-10.75,2a17.67,17.67,0,0,0-2.52,0,29.51,29.51,0,0,1-3.42.47c-.81.07-1.59.51-2.4.61s-1.61-.1-2.4,0c-1.41.14-3,1.1-4.42.59,1.94-1.54,4.49-.83,6.82-1.07a26.9,26.9,0,0,1,2.66-.6,38.29,38.29,0,0,0,4-.71c.7-.08,1.41.08,2.14,0,2-.16,3.88-.92,5.82-1.2,2.22-.33,4.5-.37,6.2-1.71-.23-.67-.85.46-1.26,0a9.58,9.58,0,0,1,1.28-1.88c1,.51.79-.29,1.65-.49.32.4-.1.84-.14,1.26.46-.24.57-.85.64-1.5,1.28-1.08,3-1.72,3.82-3.24,1.75-.69,3.3-1.57,3.58-3.75A8,8,0,0,0,62.84,153.61Z"/><path class="cls-4" d="M27.34,158.16a9.65,9.65,0,0,1,2.8-2.75c-.42,1.36-1.43,2.12-2.18,3.13C27.7,158.47,27.56,158.27,27.34,158.16Z"/><path class="cls-4" d="M28,156.65c.62-2.26,2.67-3.06,3.34-5.26a18,18,0,0,0,4.58-4,1.19,1.19,0,0,1,.75.52,1.71,1.71,0,0,1-1.39,1,4.54,4.54,0,0,1-2.93,2.5C30.76,153,30.11,155.59,28,156.65Z"/><path class="cls-4" d="M35.06,155.59c.66-1,1.09-2.21,2.17-2.76A2.86,2.86,0,0,1,35.06,155.59Z"/><path class="cls-4" d="M36.27,160.78c.31,0,.61,0,.75.13a1.93,1.93,0,0,1-1.27,1.5C35.45,161.84,36.34,161.52,36.27,160.78Z"/><path class="cls-4" d="M41.07,147.57c0,1.05-1,1.7-1.29,2.77-.14.51.06,1.13-.14,1.64-.36.93-1.44,1.6-1.92,2.37-.67-.76,1.07-2.46,1.56-4C39.71,149,39.76,147.25,41.07,147.57Z"/><path class="cls-4" d="M44.84,137c.2.1.19.41.51.39-.31.82-.37,2.12-1.42,2.51C43.35,139.43,44.09,137.37,44.84,137Z"/><path class="cls-4" d="M45,134.24a4.38,4.38,0,0,1,.9-2c.49,0,.64.38.88.64C46.21,133.35,46,134.22,45,134.24Z"/><path class="cls-4" d="M47.69,166.57a3.81,3.81,0,0,1,2.16-1.49c0,.17.22.2.25.38A2.34,2.34,0,0,1,47.69,166.57Z"/><path class="cls-4" d="M49.43,144.76c.07-.19.19-.32.26-.5.51,0,.88.05.88.51C50.31,145.13,49.73,145,49.43,144.76Z"/><path class="cls-4" d="M55,170.69c.13-.33,1-.25,1,.26C55.54,171,55.07,171,55,170.69Z"/><path class="cls-4" d="M58.79,155.2a13.07,13.07,0,0,1,1-1.88c1,.07,1.39-2,2.28-.86A11.92,11.92,0,0,0,60.43,155C59.5,154.93,59.5,155.16,58.79,155.2Z"/><path class="cls-4" d="M74.69,143.38a4.21,4.21,0,0,1,1.39-.62C75.88,143.2,75.19,143.66,74.69,143.38Z"/><path class="cls-4" d="M76.54,135.58c2.16-1.87,1.42-7.39,5.12-7.27-.23.4-.43.84-1.14.75-1.88.95-1.78,4.39-3,6.15-.22.32-.71.38-.77.87-.4,0-.53.22-1,.12.08.63.8.64.87,1.27a3.3,3.3,0,0,1-1.88-1.15C75,135.67,75.89,135.77,76.54,135.58Z"/><path class="cls-4" d="M77.23,153.63c0-.28.32-.27.64-.25.11.78.67.26.74,1-.21-.05-.24.1-.25.25C77.7,154.74,77.37,154.34,77.23,153.63Z"/><path class="cls-4" d="M80.31,136.75c.4-.05,1.39.82,1.63.9.19.95-1.69.16-1.76-.52-.69.57.51,1.73,1.24,1.65-.15.27-.35.49-.51.75-.59-.27-.48-.46-1-.76-.4.8-.83,2.39-1.8,3-.19-.7,1.08-1.33,1.29-2.64.07-.41,0-.84,0-1.39.52-.53.49-1.62,1.15-2-.08-.12-.29-.13-.25-.38a6.85,6.85,0,0,1,1-.49,3.84,3.84,0,0,1,.52-2c.87.2.2,1.49.23,2.14.11.28.56.21.76.39-.08.11-.16.22,0,.25-.22.48-.93-.1-1.65.24.38.38,1.15.37,1,1.27C81.47,137.21,80.65,136.28,80.31,136.75Z"/><path class="cls-4" d="M82.53,129.58c.39-.09.37.22.76.14-.37.91-.19,2.11-.54,2.77C81.81,132.2,82.09,130.22,82.53,129.58Z"/><path class="cls-4" d="M83.25,145.36c1,.22.18,1.62-.39,1.26C82.58,146.21,83,145.59,83.25,145.36Z"/><path class="cls-4" d="M84.84,125.94c.46-.24.61.23,1,.39-.19.29-.42,1.19-.27,1.39-.69.19-.34,1.44-1.15,1.5A8.53,8.53,0,0,1,84.84,125.94Z"/><path class="cls-4" d="M85.41,131.38c1.44,1.12,1.14,3.77,2,5.19.19,1.39.71,2.93.08,4.42-.48-.11-.86-.33-.88-.89s.79-.31.52-1.13c-.51.32-.55,1.14-1.52,1a3.46,3.46,0,0,1,.64-1.51c.35-.34.31.33.76.26a2.88,2.88,0,0,0-.36-1.89C87.34,134.47,84.71,133.28,85.41,131.38Z"/><path class="cls-4" d="M99.33,140.23c1,.06,1.94.18,2.26.91C100.79,141.79,98.09,141.21,99.33,140.23Z"/><path class="cls-4" d="M101.33,166.75a2.17,2.17,0,0,1-2.13-2C100.62,164.22,100.79,166,101.33,166.75Z"/><path class="cls-4" d="M101.34,165.74a6.25,6.25,0,0,1,1-.11c.28.22.39.61.75.76,1-1.18,2.72.35,3,1.42a3.39,3.39,0,0,1-1.76-.52C103.17,168,101.17,166.8,101.34,165.74Z"/><path class="cls-4" d="M101.49,150.48c.41,0,.54-.22,1-.12.91,2,.82,4.72,2.19,7-2.43-.3-1.19-5-3.21-6.34Z"/><path class="cls-4" d="M103.5,152.26a1.19,1.19,0,0,1,1.13,0,5.41,5.41,0,0,0,.36,1.77c.15-.41.33-.77,1-.62a26.06,26.06,0,0,1,.72,3.66c-.71.17-.91-1.17-1.37-1.65-.3.22.34.56.24,1C104.19,156.78,104,153.57,103.5,152.26Zm1.86,3.05c-.17-.34,0-1-.37-1.14C105,154.63,105,155.15,105.36,155.31Z"/><path class="cls-4" d="M116.09,143.06c.62-.16.6.32.75.63a4.13,4.13,0,0,0-1,2.77C114.79,145.5,116,144.08,116.09,143.06Z"/><path class="cls-4" d="M124.07,164.21c.76.18,2,0,2.64.66-.63.7-1.75.46-2.53.48A1,1,0,0,1,124.07,164.21Z"/><path class="cls-4" d="M132.37,166.82c1.67.4,3.07.13,4,.93C135.52,168.39,132.54,168.5,132.37,166.82Z"/><path class="cls-4" d="M133.73,157.12c.23-.11.37-.3.64-.37.58.09.71.63.87,1.14.39.15.31-.19.51-.24a6,6,0,0,1,2.11,3.55c-.82.05-.87-.65-1.26-1-.36,0,.1.87-.26.88C134.9,160.3,134.53,158.5,133.73,157.12Z"/><path class="cls-4" d="M139.79,157.56c-.25,0,.14.43,0,.76a4,4,0,0,1-1.27.24c.11.4.49.45.25.89-1,.33-1.49-.95-1.88-1.67,1.47-.28,1.56-1.59,3.3-1.35.09.57.86,1,.36,1.77C140.16,158.12,140.11,157.7,139.79,157.56Z"/><path class="cls-4" d="M41.43,161.84c0-.29.76-.92.78-1.63,1,.46-.06,1.8-.16,2.65.68-.46.56-1.73,1.29-2.14.41,1.15-.45,1.57-.41,2.9.77-.65.73-2.14,1.54-2.76.41.68-.29,1.2-.15,2,.58-.56.68-1.61,1.54-1.88a6.44,6.44,0,0,1-.52,1.64c1-.59,1.34-1.86,2.29-2.5a5.36,5.36,0,0,0,1.13.39c1.32-3.12.48-7.51-.77-10.36-.27-.16-.36-.48-.75-.51-.33.65.6,1.15.61,1.9-.45.1-1-.7-1.38-1,.17.63.63,1,.74,1.65-.77.29-1-.47-1.38-.9-.61.67,1.07,1.49.74,2.28-.54-.1-.73-.53-1.13-.77-.07.7.71.55.49,1.4-.35.09-.25-.26-.5-.26-.24.19.17.49-.14.76-.28.06-.18-.25-.37-.26a.82.82,0,0,0,.11.88c-.66.19-1.3-.71-1.88-1-.31,1.47,2.08,1.37,2.37,2.67a12.92,12.92,0,0,1-1.76-.52c0,1.17,1.67.61,2,1.41-.24.22-.83.08-1.26.11.82.61,2.06.82,2.25,2-1.42-.7-2-1.45-3.64-1.93.56-1.26-.64-2.72-1-3.92-.74.72.58,2.92.09,4-.59.24-.85-.81-1.25-1.15-.5.27,1,1.7.1,2.4-.55-.34-.5-1.27-.87-1.78-.49.83.28,1.68-.28,2.65-.55,0-.43-.58-.62-.89-.4.26-.07,1.06-.39,1.64-.41.1-.39-.21-.63-.26-.33.34-.24,1.12-1.15.87,0-.52.29-1.26.27-1.64.27-.3.56.12.76-.12.18-1.73,1.34-2.45,2.43-3.25,0-3.53,2.25-5,4.86-5.63a17.93,17.93,0,0,1,.65-1.89c.35-.1.32.18.63.13s-.32-.51-.25-.88c.37-2.07,2.75-2.69,4.58-2.86.41-.13.57-.52.76-.87-.39-.85-1.17-1.61-.85-2.79-.61.86-.77,2.2-2.17,2.25,0-1.07,1.49-1.68,1.42-3.26-1.85.5-2.4-1.19-3.64-1.68.44-1.49.07-2.23-1.11-2.66.07-1.81,1.24-2.48,1.93-3.64a1.52,1.52,0,0,0-.62-1.15c-.35-1.32,2.62-1.57,1.39,0,0,.29.39.28.5.51.61-1.07-.06-1.7-.22-3-1.71,1.24-3.29,3.57-5.35,4.86.09.52-.41.43-.26,1a4.19,4.19,0,0,0-2.3,2.37,13.48,13.48,0,0,0-4.08,4.38c.08.45.66.43,1,.64-.39.44.29.63.49.89-.37,1.46.95,2.59-.53,3.15a5.79,5.79,0,0,0-.37-1.65c-.16.38-.54.23-.75,0-.28.1-.21.55-.39.75-.41.34-1,.55-1.15,1.12-2.16,1.07-3.35,3.43-5,5.38-1.36,1.62-2,3.68-3.58,4.5-1,1.53-2.38,2.67-3.33,4.26-2.22,1.59-4,3.59-6.36,5.11-1,.63-2.19.86-3.05,1.73-1.73.54-3.9,1.52-5.94,1-.1-.36.18-.33.13-.63.51-.3.76-.07,1.39-.24a15.12,15.12,0,0,0,6.34-2.58A37.2,37.2,0,0,0,23.8,158c.87-1,1.35-2.25,2.68-2.88a40.28,40.28,0,0,1,8.7-10.64,6.83,6.83,0,0,1,2.08-5.91,23.49,23.49,0,0,0,2.16-1.74c.35-.38.52-1,.9-1.38s1.21-.82,1.65-1.37.37-1,.65-1.25,1.14-.69,1.65-1.25c1.16-1.27,2.51-4.36,4.84-4.37a23.64,23.64,0,0,0,2.12,3c.11,1-.28,1.09.36,1.65-.18.16,0,.66-.51.5,0,.43.83.1.87.51,2-.53,3.17.55,4.28,1.81.82-.69,2.35-.65,2.42-2.12,2.5-.88,4.82-2,6.1-4.1,1.37-.39,1.57.27,2.26.78,1.45,1.08,3.71,1.23,5.41,1.83.41-.18,1-.81,1.39-.62,0-.24.39-.56.89-.62,1-.71.7-2.16,1.55-3,.44-.45,1.48-1,2.29-1.62,2-1.52,4.55-3.56,6.49-5.11a12.48,12.48,0,0,0,2.42-2.24,3.51,3.51,0,0,1,1.13.39c.08.49,0,.44.12.75,2.06,1.09,2.7,2.86,3.73,4.84,3-.16,3.34,2.48,4.5,4.46,1.08-.36,2.24,0,2.91-.85,2,0,2.91,1.86,4.26,2.82.05,1.6,1.9,2,1.61,3.55,2.36-.8,3,1.92,4.26,2.95a8.85,8.85,0,0,0,.09,2.78c.8-.08.94-.83,1.53-1.12.27.15.7.14.88.38a11.65,11.65,0,0,0,1.53-2c.41-.94,1.63-3.7,2.55-1.87-.26.38-.52,0-.89.25-.62,1.62-1.76,2.7-2.56,4.13-.65.1-.92-.18-1.52-.14-.36.49-.64,1.05-1.27,1.25.3,1.68,1.79,3.42.58,4.8.15.31.15.77.37,1,2.41-.25,2.71,1.58,3.75,2.69a3,3,0,0,0,.78-1.38c.66.78-.2,2.05-.79,2.38a5.1,5.1,0,0,0,2.73,4.7c.27-1.51-.19-3.23.55-4.53.83.44.51,1,.49,2a.87.87,0,0,1-.64.12,3.28,3.28,0,0,1,.61,2.66,44.31,44.31,0,0,1,5,2.07c-.15.38.1.78-.51.87.29.39.78.57,1,1,2-.75,3.7.55,5.54,1.32a12.35,12.35,0,0,1,3,1.79,33.24,33.24,0,0,0-3.5-3.57c-.22.28-.76.24-1.14.37-1.82-2.5-4-4.68-5.34-7.63-.63,0-.75-.43-1.26-.52,0-.78,0-1.47.52-1.76a2,2,0,0,1-.36-1.52,1.5,1.5,0,0,1,1.52-.48c.06-.89-.77-1.32-.36-2.15-.35-.65-1.26-.77-1.88-1.16a1.54,1.54,0,0,1,1.4-1c0-.15,0-.23.13-.25-.43-1.83-1.77-2.77-2.1-4.7a1.66,1.66,0,0,0-1-.76,3.92,3.92,0,0,1-.47-3.16c-.08-.39-.56-.37-.37-1,1.91-.35,2.22,2.75,4.51,2.83.05-.35-.85-.83-1.5-.9a10.28,10.28,0,0,0-3-3.19c-3.52.87-5,3.78-7.75,5.47-.4-.15-.83-.27-1-.64.43-.65,1.19-.65,1.77-1.12C113.05,134,114,132.05,116,132c0-.32.58-.84,1-1.13a6.52,6.52,0,0,0,2.27-.1c2.29,1.05,3.43,3.22,5.89,4.1.78,1.48,3.05,2.18,4.77,2.32,2.26,2.79,3.5,6.57,5.45,9.65,1.06.41,1.84.23,2.4.66,1.06.82.39,4.19,1.58,5.31,2.67-.44,3.86.86,5.28,2.2a10.5,10.5,0,0,0,1.46,4.94c2.58.49,4.06,2.06,5.9,3.47.84.65,1.93,1.89,3.64,1.93a4.74,4.74,0,0,1,3.52,1.17c.39.07.34-.43.63-.12.35,0,.53.29.88.39,1.73.52,4.71-.3,5.92.95-.23.46-.87.39-1.52.23.12.68,1.32.3,1.51.9-.11.57-.71.64-1.15.87.21.34,1.17-.06,1.39.27.06.4-.23.44-.14.88-2-.24-3.86.26-5.67-.06-.27,0-.51-.35-.76-.38-2.78-.39-5.66,0-8.45-.09a47.71,47.71,0,0,0-6.31.31c-6.05.64-12.19-.13-18.18.19a7.7,7.7,0,0,1-1.51,0c-4.41-.46-9.58.48-13.63-.26-2.23-.41-4.68.91-7.2.3-1.19-.29-2.92.06-4.41-.05.09-.33-.26-.24-.38-.38,1.21-2.09-1.12-2.14-1.73-3.68,0-.06.21-.23.13-.37a21.86,21.86,0,0,0-1.61-2.29c-.74.15-1.35-.49-2.14-.66a6.81,6.81,0,0,1-.22-3.41c.77.5.69,1.83,1.11,2.67,1.91-.34,3,2,3.75,3.57.84,1.13,2.3,1.17,3.51,1.68.17.07.23.43.38.5,1.37.72,3.19.06,4.79.05a32.9,32.9,0,0,0,4.54.18c2-.28,4.93,1,6.69.7-.38-1.3-2.68-.71-3-2.05.67-.36,1.42.16,2.27,0-.28-.43-1.19-.25-1.51-.64-1.16.06-5.33.25-6.93-1a13.24,13.24,0,0,1-7.8-2c.18-.44-.14-.6.13-.89-.25-.75-1-1-1.5-1.53.27-.51,0-1,0-1.38-1.83-1-3-3.15-3.74-4.84-.07-1.43,1-1.75.79-3.27-2.54-1.3-4.35-3.32-7.4-4.12-.73-.53-.94-1.57-1.75-2-.17,0-.1.31-.13.5,1.19,1.21,1.9,2.88,3.5,3.69a3,3,0,0,1-2.89-1.41c-.77.87,1.35,2.33,2,3-.89.8-1.74-.53-2.26-.91A5.17,5.17,0,0,0,90.74,153c-1.27.21-1.45-.66-2.13-1,.32.92.13,1.05.36,1.77-.49,0-.5-.51-.88-.64.08.43-.22.46-.51.5,0,.33.17.42.5.39-.08.41-.48.17-.76.11s.19.48-.13.63c-1-.09-1.17-1-1.88-1.4.51,1,1.61,1.42,2.12,2.42-1.63.36-2.11-1.41-3.26-1.93.42,1.13,2.38,1.83,3.25,2.94,0,.18-.38,0-.38.24.34.3.56.7.87,1-.41.7.07,1.15.11,1.64.94-.09,1.42.59,2,1.16A6.94,6.94,0,0,0,91.31,159c.86.1,1.57-.91,1.79-1.87,1.42.16,2.05-1.44,2.92-2.24,1.42.46.57,2.4,1.23,3.16-1-.13-1.18-1.09-2-1.41.33,1.17,1.69,1.35,1.86,2.67-1.26-.34-1.79-1.4-2.75-2-.23.94,1.15,1.35,1.75,1.91-.43,1.09-1.8-.68-2.53-.41-.08.76.81.54.75,1.27-.44.3-1.27-.5-1.64-.27,0,.4.74,0,.88.52-.15.83-1.13.56-1.9.48.14.45.91.28,1.26.52,0,.3-.24.27-.14.63a1.43,1.43,0,0,1-1.13,0c-.41.2.44.47,0,.75a2.61,2.61,0,0,1-1.13-.13,6.42,6.42,0,0,0,1.75.9,1,1,0,0,1-.26.88,17,17,0,0,1,1.63.9c.11.54-.3.53-.76.5.16,1,2.11.26,2.39,1.16-.07.69-1.17.34-1.65.61.47.17,1.7,0,2.27.4,0,.31-.24.27-.13.63-.71.33-1.71-.32-2,.49,1.15.48,2.08,0,3.41,0a.84.84,0,0,1-.77.88c0,.28.62,0,.88.13-.69,1.63-4.23,1.35-4.54-.42.18-.16,0-.67.51-.5-.15-1.77-.47-3.37-1.72-4.06,0-.17,0-.34,0-.5a13.05,13.05,0,0,1-4.12-4.46A3.07,3.07,0,0,0,85.65,157c-.42,0-.13.71-.39.88-.43.2-.89-.06-1.38-.14.23.55,1.09.61,1.63.52.18,1.54-1.52.44-2.15.73.42.51,1.45.41,1.63,1.16-.41.56-1.27,0-2-.15-.18.8,1.58.79,2.26,1.16-.39,1.16-2.29.41-2.9,0-.24.16.28.42,0,.76.8.42,1.81.08,2.27.65,0,.53-.61.4-.9.62,0,.3.58-.06.38.38.08.51-.48.36-.89.37.44.47,1,.37,1.64.27.14.4,0,.29,0,.76-1.14.57-2.2-.19-3-.66a18.18,18.18,0,0,0,2.5,1.92c.49,0,.72-.71,1.14-.37-.27,1.4-1.71.71-2.78.86.2.29.81.2.88.64-1.09.81-2.9-.57-4.29-.68.19,1,2,.94,2.89,1.42a2,2,0,0,1,.62.64,8.24,8.24,0,0,1-5.15-1.57,7.59,7.59,0,0,1-3.28-.54c.06,1.14,2,.42,1.87,1.79-1.3,0-1.89-.65-3-.79.34,1.08,2.18.18,2.51,1.41A4.5,4.5,0,0,1,74,169c.61.36,1.57.39,2,.91.2-.09-.32-.51-.11-1,1,.09,1.6.59,2.64.66-.62-.52-1.67-.62-1.62-1.79,1.68.52,3,1.39,5,1.57.05.26-.09.33-.13.5,1.1.35,3.47-.33,4.66.43-1.67.89-3.68.45-5.55.45-2.58,0-5.18.43-7.7-.21a2,2,0,0,0-1.13-.9,4.13,4.13,0,0,1-2.78.35c-.13.43.39.21.63.26-.64,1.06-1.66.37-2.65.48-1.4.15-2.7,1-4.18,1.09s-2.54-.24-4.16.09c0-.36-.38-.3-.38-.64-.74-.06-1.8.18-1.88-.52,2.11-.29,4.19.46,5.92.31.33-.05.22-.54.52-.63.57-.06.78.24,1.38.15.18,0,0-.38.26-.38.37-.13.47,0,1,0s.57-.35.89-.5c3.15-.18,4.37-2.33,6.84-3.21,0-1,.81-1.31.53-2,.38-.25.63-.63,1-.87-.32-.44-.43-1.08-.74-1.52.22-.63.28-1.41,1.15-1.38.16-1.66,1.83-1.72,2.92-2.37a5,5,0,0,0,2.31-3.51c.41,0,.53.23,1,.14a2.37,2.37,0,0,1,.5,1c.27-.59-.19-1.49-.48-2.65.37-.47,1.11,0,1.52-.24a5.4,5.4,0,0,0-.87-1.9c.55-1.62,3.07-2.3,4.2-3.74-.12-.5-.83-.43-.87-1a2,2,0,0,1,1.77-.49c.41-.19-.43-.47,0-.75s.61,0,1-.12c0-.92-.08-1-.1-1.89.31-.11.5-.34.88-.37.63-1.53,2.24-2.06,2.82-3.63-.47-4-4.67-5.4-5-10,0-.33.3-.6.51-.37,0-.32-.49-.18-.5-.51s.18-.41.51-.37c-.1-.28-.59-.17-.62-.51.21-.72.8-.69,1.26-.37,0,.36,0,.69-.38.63.18.32.76.25.87.64s0,.45-.38.37A10.15,10.15,0,0,1,89.84,130a.62.62,0,0,1-.63.24c1.07.53,1.33,1.86,2.76,2.05,0,.25,0,.5,0,.76a2.6,2.6,0,0,1-1.51-.27c-.1.35.79.8,1.12,1.15,1-.55,1.73.12,2.91-.23.06-.13-.23-.65.13-1a1.22,1.22,0,0,1,1.39.52c.3-.34-.39-.46-.25-1,1-.26,1.51-1.42,2.79-1,1-.16.77-1.51,1.66-1.75-.17-.21-.56-.2-.75-.38a31.62,31.62,0,0,1-5.2,2.21c-.59-.34-.7-1.14-1-1.77-.45.22.21.55-.27,1a3.52,3.52,0,0,1-2.52.48c0-.6.39-.78.89-.87,0-.51.8-1.08,1.4-1.38-.17-.4,0-.42,0-.88-1.5,1.6-3.22.28-3.52-1.8-1.56-1-1.09-3.93-2.47-5.08,0-.33,0-.72.14-.88-3.26,2.25-6.73,5.37-10.18,7.85-.34,3.94-5,3.45-5.63,7.13-.57.26-1.14,0-1.64.11-1.41,1.11-.2,2.81-.42,4.16-.29,1.79-2.23,2.3-3.07,3.75-3.52,1.21-5.69,3.8-8.51,5.72-.89,1.56-1.35,3.55-2.58,4.77a28.42,28.42,0,0,1-3,8,4.56,4.56,0,0,0-1.4.74,32,32,0,0,0-4.93,1.21c-2.28.88-4.27,2.51-6.72,3a25.67,25.67,0,0,1-2.9,0c-1.47.09-3.21,1.3-5.07,2a23.62,23.62,0,0,1-4.18.72c-2.15.37-4.15.86-6.32,1.07-1.2.11-2.55.27-3.66.46-.7.13-1.33.59-2,.74a24,24,0,0,1-5,.71c-.68,0-1.59,0-1.76-.78,1.85-.29,3.81-.4,5.81-.82a27.93,27.93,0,0,1,3.8-.85c1.2-.13,2.6-.26,4.17-.46,1.9-.24,3.32-1,5.43-1.08.18,0,.11-.31.14-.5,1.71-.45,2.7-1.45,4.18-1.6.72-.74.76-2.18,2.17-2.5.56-.53,1.06-1.66,1.91-1.49-.24,1.69-3.57,2.31-1.68,3.89.28-.17,0-.88.13-1.26.68,0,.4,1,1.13.9.1-.48-.44-1.21-.11-1.77.82.53.79,1.37,1.25,1.9,0-.45-.4-1.53-.36-2.4,1.25.23.6,2.72,2.12,2.3a2.46,2.46,0,0,1-.86-2.29c.82.42.92,1.52,1.5,2.17.38-.74-1.24-1.5-.86-3,.74.15.59,1.17,1.12,1.52.23-.14.11-.65.27-.88.61.23.56,1.11.86,1.65a5.37,5.37,0,0,0,1.17-2.76c.48.29.41-.21.63-.5C41.71,161.7,41.47,161.66,41.43,161.84ZM36.31,144.5c-.07-.43.18-1.17-.11-1.39A1.51,1.51,0,0,0,36.31,144.5Zm3,14.79c0-.31,0-.61-.24-.63,0,.3-.44.23-.39.63ZM42.18,163c-.63.17-.6,1-.9,1.51C42,164.39,41.8,163.41,42.18,163Zm5.7-2.08c0,.51-.21.72-.77.62-.07.26-.27.4-.38.63C47.45,162.11,48.75,161.38,47.88,160.9Zm1-26.49c-.18-.45.35-1.22-.11-1.14-.21-.36-.11.64-.64.37.25.76,1.14.88,1.12,1.91-.72.75-1.42-1.24-1.89-.66.26.5,1.47,1.15,2.13,1.67,0,.42.24.67-.14.88-.81.13-1-.34-1.63-.4.47,1.21,2.54.85,3.13,1.93-.4-.12-.18.41-.51.37-.91-.19-1.69-.5-2.64-.66.21.51,1.29.16,1.25.9.83-.25,1.33.38,2-.1-.08.3.74.65,1.38.64-.07,1.12,1.37.74,1.63,1.53,0,.29-.37.14-.38.38.54.26,1.29.32,1.37,1-.12.28-.68-.28-.88.12.64.41,1.67.45,1.75,1.4-.36.1-.32-.18-.63-.13.1.53.89.38.88,1a1.32,1.32,0,0,1-1.14-.14c.1.74,1.33.36,1.25,1.28a2.93,2.93,0,0,1-1.64-.4c.71.73,1.87,1.37,2.77.91-.57-.23-.57-1-1-1.4.3,0,.15-.36.39-.37a.93.93,0,0,1,1,.39c0-.73-.92-.51-.87-1.27.5-.27.7.27,1,0a4.81,4.81,0,0,1-1.75-1.66,1.41,1.41,0,0,1,1.39-.24,21.55,21.55,0,0,0,2.88,2.93c-.68-1.35-2.71-2-2.62-3.68-1.24-.87-2.81-1.41-3.5-2.82-.06.49-.14.45.12.76-.27.11-.38.38-.76.37s-.34-.34-.38-.63c-.48-.07-.61.22-1.13.11.09-.46-.27-.48-.25-.88-.48-.11-.15.6-.63.5a2.57,2.57,0,0,1-.61-1.78c.24,0,.32-.27.63-.24s.61.15.5.63c.44,0,.48-.44.89-.49a.52.52,0,0,0,.75.26,2.78,2.78,0,0,0,.26-1.14A9.36,9.36,0,0,1,48.91,134.41Zm3.43,22.49c0-.09,0-.24.12-.25A11.19,11.19,0,0,0,50.34,155,5.81,5.81,0,0,0,52.34,156.9Zm.41-3.52c0,.18-.57.86,0,1-.32.24-.58-.14-.76.11.28.15.42.43.75.52.55-1.07,0-4.05,2.18-3.14.56-1.28-1.65-1.82-2-3,0,.54-.19,0-.37,0a2.84,2.84,0,0,0,.86,1.78c-.75.77-2.13-.44-2.52-.41.51.33-.3.36-.38.5C51.13,151.68,52.49,152.32,52.75,153.38Zm-1.2,6.42c0-.54-.74-.94-.88-.89C51,159.14,51,159.72,51.55,159.8Zm4-9.3a1.81,1.81,0,0,1,.14-1.38c-.82-.26-1.3-.73-1.89-.78A7.39,7.39,0,0,0,55.56,150.5Zm.77-1.5c.43-.3.22-1-.11-1.27-.42.38-1.51-.89-1.77-.27A8.79,8.79,0,0,1,56.33,149Zm3.32-16.12c-.45,1.36-2.11,1.5-2.8,2.62a3.35,3.35,0,0,0,1,1c.59-.29,1.45-1,2.15-.74-.09.93-1.13.89-1.53,1.5.45.57,1.19.83,1.5,1.53-.29.58-.61.4-.77,1,.95-.32,1,.58,1.89.65.42-.24.61-.73.89-1.12-.14-.7-.59-1.09-.73-1.78a11.74,11.74,0,0,1,1-2.13c-.1-.75.1-2.81,1.79-2.38.75-1,.3-2,1.41-2.13.69,1-.19,3.46,2.11,3.55.16.35.22.79.62.89.19-.1.19-.4.26-.63-.84-.13-1.57-1.23-1.49-2.66-.82-.69-1.2-1.82-2.5-2C63.35,131.47,61.44,132.11,59.65,132.88Zm7,7.89c0,.08,0,.15-.13.13-.63-.38-1.15-.87-1.75-1.28.09-.8.82-1,1.52-1.12.09-.58-.27-.73-.24-1.27-1.47-.55-2.1-1.93-2.1-3.93-.21.3-.35.66-.77.75.08,1,.09,1.44-.52,1.89.88.28,1,1.65.61,2.4.3.07.64.12.62.51-.26.46-.38.48-1,.37,0,.68-1,1.39-.52,1.76,1.17-1.1,2.8-.22,3.9.42C66.26,141.14,67,140.93,66.64,140.77Zm-3.76-2.31c-.12-.43-.47-.62-.75-.89C62.21,138,62.59,138.21,62.88,138.46Zm8.38,31c.19-.4-.72-.61-.63-.13A.8.8,0,0,1,71.26,169.47Zm2.28-.48c-.71,0-1.33-.91-1.76-.4C72.15,168.8,73.59,169.18,73.54,169Zm2.55-2.88c-.52-.11-.73-.53-1.25-.64-.22.25,0,.16,0,.5C75.4,165.8,75.82,166.41,76.09,166.11Zm2.29-1.36c-.86-1.12-1.93-2-2.36-3.56a1.88,1.88,0,0,0-.9,1C76.65,162.61,77,164.17,78.38,164.75Zm.49,1.64c-.41-.18-.32-.28-.25-.76-1.1-.45-1.81-1.28-2.76-1.54.45.26-.31.35-.38.5A7.42,7.42,0,0,0,78.87,166.39Zm.65-2.13c.07-.5.18.5.25,0-.24-.3-.68-.42-.49-1.14.15-.31.47.26.63-.12a40.88,40.88,0,0,1-3.5-3.19c0,.31-.2.38-.26.62C77.88,161.12,77.62,163.75,79.52,164.26Zm-1.59-4.56a6.49,6.49,0,0,0,4.63,3.2,11.85,11.85,0,0,1-4.75-3.84c-.33.1-.72.12-.89.37A2.33,2.33,0,0,1,77.93,159.7Zm2.76.91c-.78-.52-1.08-1.52-1.87-2C79.22,159.39,80,160.53,80.69,160.61Zm.9-1c-.67-.55-1-1.47-1.75-1.91C79.83,158.34,80.77,159.77,81.59,159.61Zm1.14-1c-1.28-.08-1.08-1.61-2.12-1.92,0,.24-.15.28-.13.51C81.45,157.32,81.68,159.38,82.73,158.61Zm1.8-3c-.37,0-.42-.42-.75-.51C83.78,155.43,84.26,155.94,84.53,155.6Zm.75.76c.06-.39-.31-.35-.5-.51C84.72,156.25,84.88,156.42,85.28,156.36Zm4-31.88c.3-.07.43.64.63.26-.15-.21-.42-1.42-.37-1S89.35,124.21,89.27,124.48Zm4.3,11.65c-.44-.07-.93-.75-1.26-.52C92.76,135.68,93.19,136.41,93.57,136.13Zm-.44,5.68a52,52,0,0,0,3.36,4.58c.79.8,1.88,1.18,2.76,1.92-3.45,1-4.63-3.91-6.77-5,1,1.28,1.77,2.77,2.74,4.07a10.69,10.69,0,0,1,3.75,3.2c-1.23.39-2.29-1.05-3.26-1.68a4.84,4.84,0,0,0,3.38,2.18c.4.2.14.46.12.89.29,0,.54.13.63.38.67,1.92,2,3.17,3.1,4.7a2.42,2.42,0,0,0-.51.38,4.51,4.51,0,0,1,1.12,1.9c.91-.24,1.09,1.13,1.37,1.91a10.47,10.47,0,0,0,5.53,1.82c1.43.85,4.13.46,5,1.82-1.9,0-3.83-.89-5.79-1.45s-4.37-.24-5.41-2c0-.23.42-.08.39-.37-1.48-.94-2.72-3.26-4.13-4.21a20.57,20.57,0,0,1,3.23,5.46,2.76,2.76,0,0,0,1.13.14c1.7,1.85,4.76,1.22,7,2.35.16.54-.61.15-.52.62,2.48.6,6.3.14,8.2,1.1-1.08-.74-1.6-2-2.62-2.81-1.23-1-3-1.22-3.89-2.56.28,0,.06-.62.14-.88-.19-.2-.53-.24-.63-.52-2.48.28-4.94-.8-4.51-3.32.91.92,1.83,2.08,3.26,2.18.49,0,.89-.33,1.39-.24s1.06.7,1.51.9c-.11.35.17.33.12.63a5.55,5.55,0,0,1,2.75,2.43c3.52.86,5.22,4.13,9.29,4.38.08-.61.52-1,.65-1.63,2,.23,2.84,1.63,4.9,1.82.39.65.73,1.37,1.5,1.65,2-.79,3.72.81,6.17.7,1.53-.07,2.77.22,4.54.3,1,0,1.82-.1.76-.12a31.33,31.33,0,0,1-5.28-1.57c-.44-.11-.49.18-.89.12a21,21,0,0,0-3-1.67c-1.13-.37-2.39-.1-3.65-.3-.89-.13-1.92-1.41-2.89-1.92a10,10,0,0,0-3-1.17c0,.5.53.4.49.89-.67.7-2.41,0-3.53-.29-2-.52-4.38-1.54-5.14-2.7-.38-2-3.34-2.38-4.89-3.58-1.36,1.29-3.83-.43-5.16-1.7-1-1-1.59-2.55-2.23-3.3-.84.28-1-.59-1.63-1.16-.1-.08-.39.07-.51,0-.45-.27-.79-1-1.24-1.4s-.86-.32-1.13-.9c-.1-.2.07-.47,0-.75-.2-.91-1.14-2.52.28-2.65.39,1.32,2.09,1.36,2.49,2.67-1,0-1.26-.59-2-.77,1.7,1.53,3.83,2.66,5.64,4.09.53,0,.71-.22,1.14,0,.32.9.35,2.07,1.1,2.54-.22-.94-1-2.48.41-2.65a5.45,5.45,0,0,0,.5.64c0-.29,0-.59,0-.88.18-.41,1-.17,1.14-.62-.38-.33-.63.3-1.14.24s-.75-.6-1.25-.77c-1.77.79-2.84-1.84-3.76-3.07-.22.32.14.44-.13.63-1.88.88-2.33-2.11-3.37-3.57-.58-.81-1.42-1-1.37-1.78.81-1.27,2.35-.11,3,.54-.14-.92.5-1,.78-1.51a1.85,1.85,0,0,0-1.12-1.4c0,.48-.69.32-.89.62-1.24-.91-3.41-.91-4.65-1.81,0-.52,0-.88.51-.88a4.09,4.09,0,0,1,1.38.64c-.12-.33-.28-1.13.27-1.13.65.15.43,1.16,1.25,1.15.5-1.66-1.72-1.24-2.89-1.8-1-.47-.81-1.23-1.49-1.78-.63.4-.73-.79-1.26-.9a18.85,18.85,0,0,1-2.66,1c1.24.31,2.29-.88,2.78.15-.37.35-1,.39-1.4.74.35.43,1.07-.27,1.39.15,0,.16.16.17.12.37-.26.42-1,.3-1.39.62.58.55,2.2.09,2.13,1.28-.51.08-1.34-.17-1.64.11,1.59,1.4,3.35,2.63,4.49,4.47-1.71-.11-2.26-1.37-3.38-2.06a6.26,6.26,0,0,0,1.49,2c.91-.4,1.63.48,2,1-.68.11-1,.48-1.52.11.27.82,1.1.47,1.63,1.4-1.11.76-2.44-.07-3-.91a3,3,0,0,0,.51-.75,16.19,16.19,0,0,1-2-2c-.59-.64-1.42-1.86-2-1.66,2.07,2.15,3.24,5.81,6.37,6.5-1,1.67-2.79-.23-3.27-.92-1.13-1.62-3.26-3.67-4.12-4.84C92.29,141.28,92.85,141.45,93.13,141.81Zm2-11.59c.1-.2.41-.19.39-.5s-1-.44-1.14-.27C94.62,129.73,94.5,130.35,95.14,130.22ZM102.31,169c0-.37-.13-1-.62-.64C102,168.51,101.82,169.1,102.31,169ZM111,149.69c.07-.19.19-.32.26-.5-.58.06-.16-.85-.63-.89C110.8,149,110.17,149.35,111,149.69Zm2.6,4.32c-.58-.34-.75-1.1-1.12-1.65C112.36,152.81,113,154.17,113.57,154Zm9.69,14.87a2.36,2.36,0,0,0-2-.4A20.42,20.42,0,0,1,123.26,168.88Zm1.33-6.55a4.8,4.8,0,0,0-1.62-1.41c-.08.43-.62.39-.77.75C123.06,161.79,124.12,162.59,124.59,162.33ZM124.43,142a1.29,1.29,0,0,0-.62-1A4,4,0,0,0,124.43,142Zm4.44,9.63c.07.33-.06.46-.38.38-.75-.1-.57-1.12-1.13-1.4a6.55,6.55,0,0,0,1.23,3.42.73.73,0,0,1,.76-.37c.17.2.45.31.37.76.46,0,.49-.17.89,0,0,.49.42.59.36,1.14.42,0,.57-.56.89-.25.36.11.31.62.49.89.32,0,.4-.23.64,0,.44,2.09,2.39,3.29,2.46,5.33,2.74.73,5.29,1.65,6.53,3.85-2.51-.92-4.3-2.54-7-3.23.05.82-1.08,0-1.26.37,1,.25,1.44,1.08,2.51,1.29.95,1.44,3.62,1.2,4.77,2.44-.21-.09-.55.25-.26.25a10.34,10.34,0,0,1,3.91.8c.72.36.9.94,1.88.9.64,0,1-.48,1.65-.61a6.7,6.7,0,0,1,2.14,0,79.62,79.62,0,0,0,8.19,1.1c.77,0,2.28.51.76,0a52.31,52.31,0,0,0-8.94-2.12c-2.14-.29-6.07-.71-7-3,.41,0,.48-.36,1-.25,1.95,2,5.71,2.57,9.06,2.75-1.65-.43-2.4-1.73-3.89-2.31-1.4.79-2.15-.58-3.27-1s-2.86-.43-3.39-1.42c0-.56.62-.56.89-.87-1.07-.79-.76-2.93-1.47-4.06-1.63.37-3-1.56-4.67-.8-1-.44-1.66-1.12-3.14-1.05.1-.38-.21-.37-.12-.75.38.28.28-.18.51-.25,1.32-.39,2.48,1.43,3.9.67-.28-.24-.23-.54-.62-.89-.75.24-1.29-.58-2.26-.53-1.31-.7-2.05-1.79-3.26-2.56-1.63-1-3.95-1.81-4-3.57-1.41-.87-1.79-2.74-2-4.82-.82-1.4-1-4.05-2.22-4.69.63,1.46,1.32,4,.82,5.81a1.49,1.49,0,0,1,.36,1.65c.36,1.15,2.43,2.19,1.61,3.3a28.9,28.9,0,0,0-3-3.06c0,.74.59,1.39.23,2.14.67-.15.68.34.62.89.36.1,1.42-.05,1.77.4a7.28,7.28,0,0,1,.11,1c.42,0,.44-.4.89-.37a1,1,0,0,1,.37.89c.71-.54,1,0,1.89-.23.3.29.36.82,1.13.64a1.68,1.68,0,0,1,.24,1.77,2,2,0,0,0-1.26-.39C130.34,152.23,129.14,152,128.87,151.64Zm.19,5.56c-.75-1.85-2.3-3.43-2.21-5.7-.07-.22-.6,0-.63-.26a4.69,4.69,0,0,0-.62-1.27,9.61,9.61,0,0,1,.11,2.4c.23.14.72-.09.88.39.15,1.43.88,2.29,1.09,3.67C128.6,156.24,128.65,156.89,129.06,157.2Zm-2.46-17.95c0-.37.29-.38.26-.75-.37.07-1-.7-.75-.39S126.4,138.9,126.6,139.25Zm1-.24c-.19.15-.44.9-.14,1.13C127.42,139.77,128.21,139.12,127.61,139Zm1.25,1.53c.14.73-.16,1.57,0,2.4C129,142.25,129.65,141,128.86,140.54Zm.45,5.43c0-.64.42-1.43.14-1.89C129.47,144.69,128.81,145.68,129.31,146Zm.41-3.4c.08.51-.4,1.11-.14,1.38C129.75,143.58,130.19,142.85,129.72,142.57Zm.87,1.52c-.12.64-.35,1.81-.15,1.77C130.5,145.28,131.05,144.42,130.59,144.09Zm1,2.91c-.15-.56.59-1,0-1.26C131.45,145.93,131.32,147.25,131.57,147Zm1.63,12.39c-.45-.35-.64-1-1.12-1.28C131.73,158.77,132.76,159.55,133.2,159.39Zm-.17,5c-.28-.11-.74-.68-1-.39C132.37,164.08,132.72,164.76,133,164.43Zm.55-16.52a5.84,5.84,0,0,1-.27,1.26C133.86,149.26,134,148,133.58,147.91Zm0,11.73c.28.65.49,1.36,1.25,1.53C134.6,160.48,133.92,160.23,133.58,159.64Zm1.36-9.45c0-.45.32-.6.39-1-.39.09-.24-.35-.63-.26,0,.45-.24.6-.26,1C134.62,150,134.75,150.13,134.94,150.19Zm6.77,4.24c.07-.37-.57-.68-.75-.39C141.41,154,141.26,154.49,141.71,154.43Zm7.92,14.85c-.71.07-1.81-.24-2.14.23C148.05,170.08,149.06,169.48,149.63,169.28Zm6.21-2.59a.13.13,0,0,0,.26,0C155.49,166.26,154.18,166.79,155.84,166.69Z"/><path class="cls-4" d="M67.05,149.74c-.17-.6,1.15-.78,1.65-1.12a21.5,21.5,0,0,0,2.61-8.05c.11-1-.09-2.47.54-3.15.31-.34,1.07-.43,1.52-.74s.69-1.05,1.27-.74c0,.44-.09.75-.39.87.19.57.79.73.87,1.4-.72.3-1-.57-1.5-.9-.19.07-.32.19-.51.25a3.57,3.57,0,0,1,.74,1.77,2.63,2.63,0,0,1-1.38-1.4c-.68.8.56,1.31.61,2.15-.61.06-.58-.51-1-.64-.45,1.87-.46,3.47-1.07,5.29a13.35,13.35,0,0,1,3.55-1.22,32,32,0,0,1-3.94,2.35A6.53,6.53,0,0,1,67.05,149.74Z"/><path class="cls-4" d="M86.25,123.44c0-.15.13-.07.13,0,.18,0,.05-.38.26-.38.66,0,.59.66.74,1.14a1.19,1.19,0,0,1-1.13,0C86.1,123.86,86.5,123.45,86.25,123.44Z"/><path class="cls-4" d="M94,155.19c-1,1.56-2.84,2.71-3.82,3.62.57-2.39,2.42-3.47,4.08-4.75-.08-.13-.28-.13-.24-.38.83-.13,1-1,1.27-1.63a2.35,2.35,0,0,1,1,.14c0,1.09-1.1,1.17-1.66,1.75.16.75-.38.8-.64,1.13.71.7,2-3.46,3.17-1.36C96.06,154,95.15,156.23,94,155.19Z"/><path class="cls-4" d="M11.31,169.85c.47-.56,1.27-.41,1.9-.61,1.47-.45,2.79-1.19,4.44-1.59a20.49,20.49,0,0,1,3.41-.85,15.76,15.76,0,0,0,2.78-.1,16.2,16.2,0,0,0,2-1.11,10.55,10.55,0,0,0,2.16-1c.65-.61.75-1.62,1.15-2.13.66-.83,1.75-.94,2.67-1.61.5-.37.81-1.38,1.66-1.5,0,1.88-2.19,2-3.44,3.12-.92.82-1.17,2.37-2.18,3-1.16.73-2.66.73-3.55,1.86a32.1,32.1,0,0,1-4,.21c-3.25.4-5.59,2.29-8.61,2.81C11.64,170.12,11.2,170.26,11.31,169.85Z"/><path class="cls-4" d="M45.28,143.33c-.2.4,1,1,.75,1.52a2.5,2.5,0,0,1-1.75-1.66c-.3,0-.55.12-.64.37-.09.47.44.32.63.51-.39.6.72.67.49,1.52-.72.07-.88-.79-1.51-1.15-.08.6,1.56,1.2,1,2.28-.58-.22-.79-.8-1.12-1.27-.25.35-.29.9-.77,1a1.57,1.57,0,0,1,.62,1.4c-.34.2-.76-.37-.88-.77-.17,0-.2.22-.38.25.62.13.86,1.13,0,1.13-.24-.3.12-1.28-.5-.88-.05-1.24,1.66-1.69,1.18-3.78.89-.66,1.19-1.93,2.54-2.12.53.07.58.61,1,.77-.87-.75-.19-3.3.91-2.64,0,1,1.4,2.15,1.23,3.29-.76-.42-1.05-1.3-1.49-2-.72.89,1.31,1.64,1,2.53-.73-.1-.94-.63-1.63-1,0,.73,1.06,1,.62,1.77C46,144.17,45.74,143.63,45.28,143.33Z"/><path class="cls-4" d="M48.4,171c0-.13,0-.25,0-.38,3-1.15,6.06-1.28,8.86-2.31,2.53-.92,4.69-2.7,7.35-3.2.23-.65,1.2-1.21,1.66-2-.26-.77.15-1.46-.1-2.15,1-.29,1.4-1.41,2.53-1.23.21-.2,0-.48.26-.76.52,0,.54.47.5,1a6.85,6.85,0,0,0-2.67,1.23c.19,2.19-.82,3.16-1.68,4.27a44.89,44.89,0,0,0-5.07,1.84,16.06,16.06,0,0,1-1.77.87c-2.91,1-6.36,2.14-9.37,3.06C48.56,171.34,48.65,171,48.4,171Z"/><path class="cls-4" d="M68.72,158.72c0-1.32.3-1.8,0-2.91,2-.7,3.76.45,5.18-.45.22,0,.24.1.25.26.51-.09,0-.59.26-.76.12.14.47,0,.38.39,1.07-.32.59-1.49,1.91-1.62.11.3.5.33.37.88-.17.13-.47.12-.64.25,0,.59.2.74-.14,1.13-.47.13-.4-.27-.62-.38-1,0-1,1.14-1.28,1.88-.55,0-.65-.87-.37-1.27-.83.08-.87,1-1.15,1.63-.22,0-.33-.22-.38,0-.45-.41.1-1.23-.11-1.65a8.79,8.79,0,0,0-.91,2.14c-.31,0-.38-.2-.62-.26.17-.45,0-.46.13-.88-.48.31-.26,1.34-1,1.38,0-.13-.16-.1-.25-.13-.1-.44.19-.49.13-.88-.53.05-.35.83-.52,1.25C69,158.63,69.11,158.63,68.72,158.72Z"/><path class="cls-4" d="M86.36,125.33a1,1,0,0,1,.89-.75c0,.34.47.65.12,1,0,.27.55,0,.63.26,0,.43-.38.47-.64.63s-.24-.35-.63-.26C87.11,125.69,86.81,125.61,86.36,125.33Z"/></svg>