<?xml version="1.0" encoding="utf-8"?>
<!-- Generator: Adobe Illustrator 22.1.0, SVG Export Plug-In . SVG Version: 6.00 Build 0)  -->
<svg version="1.1" id="圖層_1" xmlns="http://www.w3.org/2000/svg" xmlns:xlink="http://www.w3.org/1999/xlink" x="0px" y="0px"
	 viewBox="0 0 42 42" style="enable-background:new 0 0 42 42;" xml:space="preserve">
<style type="text/css">
	.st0{fill:#56889C;}
</style>
<title>工作區域 1101</title>
<g>
	<path class="st0" d="M35.2,38.1c0.7,0,1.5-0.2,2-0.8l-9.6-9.5l-0.7,0.5c-0.7,0.5-1.3,0.9-1.7,1.2c-0.6,0.4-1.2,0.7-1.8,0.9
		c-0.7,0.3-1.4,0.4-2.1,0.5l0,0c-0.7,0-1.4-0.2-2.1-0.5c-0.6-0.2-1.2-0.5-1.8-0.9c-0.5-0.3-1-0.7-1.7-1.2l-0.7-0.5l-9.5,9.5
		c0.5,0.5,1.3,0.8,2,0.8H35.2z"/>
	<path class="st0" d="M6.8,21.9c-0.7-0.5-1.3-1-1.9-1.6v14.5l8.4-8.4C11.6,25.2,9.5,23.7,6.8,21.9z"/>
	<path class="st0" d="M35.9,21.9c-2.5,1.7-4.7,3.2-6.5,4.5l8.4,8.4V20.2C37.2,20.8,36.6,21.4,35.9,21.9z"/>
	<path class="st0" d="M35.2,12.1H7.5c-0.9,0-1.7,0.3-2.2,1c-0.5,0.7-0.8,1.6-0.8,2.4c0.1,0.9,0.4,1.8,1,2.6c0.6,0.8,1.4,1.6,2.2,2.2
		l3.9,2.6l3,2.1l1.9,1.3l0.3,0.2l0.5,0.4l1,0.7c0.3,0.2,0.6,0.4,1,0.6c0.3,0.2,0.7,0.4,1.1,0.5c0.3,0.1,0.6,0.2,0.9,0.2l0,0
		c0.3,0,0.6-0.1,0.9-0.2c0.4-0.1,0.7-0.3,1.1-0.5c0.4-0.2,0.7-0.4,1-0.6l1-0.7l0.5-0.4l0.3-0.2L28,25l7-4.8c0.9-0.6,1.7-1.4,2.3-2.3
		c0.6-0.8,0.9-1.8,0.9-2.8C38.2,13.4,36.9,12.1,35.2,12.1L35.2,12.1z"/>
</g>
<title>工作區域 1100</title>
</svg>
