<?xml version="1.0" encoding="utf-8"?>
<!-- Generator: Adobe Illustrator 22.1.0, SVG Export Plug-In . SVG Version: 6.00 Build 0)  -->
<svg version="1.1" xmlns="http://www.w3.org/2000/svg" xmlns:xlink="http://www.w3.org/1999/xlink" x="0px" y="0px"
	 viewBox="0 0 252 180" style="enable-background:new 0 0 252 180;" xml:space="preserve">
<style type="text/css">
	.st0{display:none;}
	.st1{display:inline;fill:none;stroke:#56889C;stroke-width:0.7496;stroke-linecap:round;stroke-linejoin:round;}
	.st2{display:inline;fill:#56889C;}
	.st3{fill-rule:evenodd;clip-rule:evenodd;fill:#56889C;}
	.st4{fill:#56889C;}
	.st5{fill:#FFFFFF;stroke:#56889C;stroke-width:0.855;stroke-miterlimit:10;}
</style>
<g id="圖層_1" class="st0">
	<path class="st1" d="M157.5,139.1c-16,21.6-41.9,35.4-70.8,34.9C39,173.2,1,133.9,1.8,86.2C2.6,38.6,41.9,0.5,89.6,1.3
		c26.6,0.4,50.1,12.9,65.7,32"/>
	<path class="st2" d="M159.4,140.6c0,1.8-1.4,3.2-3.2,3.2s-3.2-1.4-3.2-3.2s1.4-3.2,3.2-3.2S159.4,138.8,159.4,140.6z"/>
</g>
<g id="圖層_2">
	<g>
		<g>
			<g>
				<path class="st3" d="M118.7,77.2c-0.6,0.6-0.7,1.9-1.9,2c0.5-0.8,0.8-2.1,1.3-3.1c0.4-0.7,1-1.8,1.9-1.3
					c-0.1,0.7-0.8,0.8-0.8,1.6c0.7-0.4,1.1-2.1,2.4-2.3c0,0.2,0,0.4,0.2,0.4c-2.3,2.8-3.5,6.2-5.7,9.1c-2.3,0.9-3.6,2.9-5.7,4
					c-0.5,2.3-2.8,2.7-4.6,3.7c-3.5,0.1-6.9,1.8-10.6,2c-0.8,0-1.6-0.2-2.5,0c-1,0.2-1.9,0.3-3.4,0.5c-0.8,0.1-1.6,0.5-2.4,0.6
					c-0.7,0.1-1.6-0.1-2.4,0c-1.4,0.1-2.9,1.1-4.3,0.6c1.9-1.5,4.4-0.8,6.7-1c0.9-0.1,1.7-0.6,2.6-0.6c1.4,0,2.6-0.5,4-0.7
					c0.7-0.1,1.4,0.1,2.1,0c1.9-0.2,3.8-0.9,5.7-1.2c2.2-0.3,4.4-0.4,6.1-1.7c-0.2-0.7-0.8,0.5-1.2,0c0.3-0.7,0.8-1.2,1.3-1.8
					c1,0.5,0.8-0.3,1.6-0.5c0.3,0.4-0.1,0.8-0.1,1.2c0.5-0.2,0.6-0.8,0.6-1.5c1.3-1.1,2.9-1.7,3.8-3.2c1.7-0.7,3.2-1.5,3.5-3.7
					C117.8,79.4,118.2,78.3,118.7,77.2z"/>
				<path class="st3" d="M83.8,81.7c0.8-1,1.6-2.1,2.8-2.7c-0.4,1.3-1.4,2.1-2.1,3.1C84.2,82,84,81.8,83.8,81.7z"/>
				<path class="st3" d="M84.5,80.2c0.6-2.2,2.6-3,3.3-5.2c1.7-1.1,3.3-2.4,4.5-3.9c0.3,0.1,0.6,0.2,0.7,0.5c-0.3,0.5-0.7,0.9-1.4,1
					c-0.5,1.3-1.6,2-2.9,2.4C87.2,76.6,86.6,79.1,84.5,80.2z"/>
				<path class="st3" d="M91.4,79.1c0.6-1,1.1-2.2,2.1-2.7C93.6,77.6,92.7,78.9,91.4,79.1z"/>
				<path class="st3" d="M92.6,84.2c0.3,0,0.6,0,0.7,0.1c-0.2,0.7-0.5,1.3-1.3,1.5C91.8,85.3,92.7,85,92.6,84.2z"/>
				<path class="st3" d="M97.3,71.3c0,1-1,1.7-1.3,2.7c-0.1,0.5,0.1,1.1-0.1,1.6c-0.4,0.9-1.4,1.6-1.9,2.3c-0.7-0.8,1-2.4,1.5-4
					C96,72.6,96,70.9,97.3,71.3z"/>
				<path class="st3" d="M101,60.9c0.2,0.1,0.2,0.4,0.5,0.4c-0.3,0.8-0.4,2.1-1.4,2.5C99.6,63.3,100.3,61.2,101,60.9z"/>
				<path class="st3" d="M101.2,58.2c0.1-0.9,0.6-1.3,0.9-2c0.5,0,0.6,0.4,0.9,0.6C102.4,57.3,102.2,58.2,101.2,58.2z"/>
				<path class="st3" d="M103.8,89.9c0.6-0.6,1.1-1.3,2.1-1.5c0,0.2,0.2,0.2,0.2,0.4C105.7,89.6,104.7,90.2,103.8,89.9z"/>
				<path class="st3" d="M105.5,68.5c0.1-0.2,0.2-0.3,0.3-0.5c0.5,0,0.9,0.1,0.9,0.5C106.4,68.9,105.8,68.8,105.5,68.5z"/>
				<path class="st3" d="M111,94c0.1-0.3,1-0.2,1,0.3C111.5,94.2,111.1,94.3,111,94z"/>
				<path class="st3" d="M114.7,78.8c0.3-0.6,0.6-1.3,1-1.8c1,0.1,1.4-2,2.2-0.8c-0.7,0.7-1.2,1.6-1.6,2.5
					C115.4,78.5,115.4,78.7,114.7,78.8z"/>
				<path class="st3" d="M130.3,67.1c0.4-0.2,0.8-0.5,1.4-0.6C131.5,67,130.8,67.4,130.3,67.1z"/>
				<path class="st3" d="M132.2,59.5c2.1-1.8,1.4-7.3,5-7.1c-0.2,0.4-0.4,0.8-1.1,0.7c-1.8,0.9-1.7,4.3-2.9,6
					c-0.2,0.3-0.7,0.4-0.8,0.9c-0.4,0-0.5,0.2-1,0.1c0.1,0.6,0.8,0.6,0.9,1.2c-0.7,0-1.3-0.6-1.8-1.1
					C130.6,59.6,131.5,59.7,132.2,59.5z"/>
				<path class="st3" d="M132.8,77.2c0-0.3,0.3-0.3,0.6-0.2c0.1,0.8,0.7,0.3,0.7,1c-0.2,0-0.2,0.1-0.3,0.2
					C133.3,78.3,133,77.9,132.8,77.2z"/>
				<path class="st3" d="M135.9,60.6c0.4-0.1,1.4,0.8,1.6,0.9c0.2,0.9-1.7,0.2-1.7-0.5c-0.7,0.6,0.5,1.7,1.2,1.6
					c-0.2,0.3-0.3,0.5-0.5,0.7c-0.6-0.3-0.5-0.5-1-0.8c-0.4,0.8-0.8,2.4-1.8,3c-0.2-0.7,1.1-1.3,1.3-2.6c0.1-0.4,0-0.8,0-1.4
					c0.5-0.5,0.5-1.6,1.1-2c-0.1-0.1-0.3-0.1-0.2-0.4c0.3-0.2,0.7-0.3,1-0.5c0-0.9,0.2-1.2,0.5-2c0.9,0.2,0.2,1.5,0.2,2.1
					c0.1,0.3,0.5,0.2,0.7,0.4c-0.1,0.1-0.2,0.2,0,0.2c-0.2,0.5-0.9-0.1-1.6,0.2c0.4,0.4,1.1,0.4,1,1.2
					C137,61.1,136.2,60.2,135.9,60.6z"/>
				<path class="st3" d="M138.1,53.6c0.4-0.1,0.4,0.2,0.7,0.1c-0.4,0.9-0.2,2.1-0.5,2.7C137.3,56.2,137.6,54.2,138.1,53.6z"/>
				<path class="st3" d="M138.8,69.1c0.9,0.2,0.2,1.6-0.4,1.2C138.1,69.9,138.5,69.3,138.8,69.1z"/>
				<path class="st3" d="M140.3,50c0.5-0.2,0.6,0.2,1,0.4c-0.2,0.3-0.4,1.2-0.3,1.4c-0.7,0.2-0.3,1.4-1.1,1.5
					C139.7,52.3,140.1,51.2,140.3,50z"/>
				<path class="st3" d="M140.9,55.4c1.4,1.1,1.1,3.7,1.9,5.1c0.2,1.4,0.7,2.9,0.1,4.3c-0.5-0.1-0.8-0.3-0.9-0.9
					c0-0.5,0.8-0.3,0.5-1.1c-0.5,0.3-0.5,1.1-1.5,1c0-0.7,0.4-1,0.6-1.5c0.3-0.3,0.3,0.3,0.7,0.3c0.2-0.5-0.1-1.4-0.4-1.9
					C142.8,58.4,140.2,57.2,140.9,55.4z"/>
				<path class="st3" d="M154.6,64.1c1,0.1,1.9,0.2,2.2,0.9C156,65.6,153.3,65,154.6,64.1z"/>
				<path class="st3" d="M156.5,90.1c-1.2,0.1-2-1-2.1-2C155.8,87.6,156,89.3,156.5,90.1z"/>
				<path class="st3" d="M156.5,89.1c0.5-0.1,0.5,0,1-0.1c0.3,0.2,0.4,0.6,0.7,0.8c1-1.2,2.7,0.3,3,1.4c-0.6-0.1-1.3-0.2-1.7-0.5
					C158.3,91.3,156.4,90.2,156.5,89.1z"/>
				<path class="st3" d="M156.7,74.1c0.4,0,0.5-0.2,1-0.1c0.9,1.9,0.8,4.6,2.2,6.8c-2.4-0.3-1.2-4.9-3.2-6.2
					C156.7,74.4,156.7,74.3,156.7,74.1z"/>
				<path class="st3" d="M158.6,75.9c0.2-0.2,0.9-0.2,1.1,0c0.1,0.4,0.1,1.3,0.4,1.7c0.1-0.4,0.3-0.8,1-0.6c0.2,1.3,0.7,2.2,0.7,3.6
					c-0.7,0.2-0.9-1.2-1.3-1.6c-0.3,0.2,0.3,0.6,0.2,1C159.3,80.3,159.1,77.2,158.6,75.9z M160.5,78.9c-0.2-0.3,0-1-0.4-1.1
					C160.2,78.2,160.1,78.7,160.5,78.9z"/>
				<path class="st3" d="M171,66.8c0.6-0.2,0.6,0.3,0.7,0.6c-0.6,0.7-1,1.7-1,2.7C169.7,69.2,170.9,67.8,171,66.8z"/>
				<path class="st3" d="M178.9,87.6c0.7,0.2,2,0,2.6,0.6c-0.6,0.7-1.7,0.4-2.5,0.5C178.7,88.5,178.6,87.9,178.9,87.6z"/>
				<path class="st3" d="M187,90.2c1.6,0.4,3,0.1,4,0.9C190.1,91.7,187.2,91.8,187,90.2z"/>
				<path class="st3" d="M188.3,80.6c0.2-0.1,0.4-0.3,0.6-0.4c0.6,0.1,0.7,0.6,0.9,1.1c0.4,0.1,0.3-0.2,0.5-0.2
					c0.9,0.9,1.9,1.9,2.1,3.5c-0.8,0.1-0.9-0.6-1.2-1c-0.4,0,0.1,0.9-0.3,0.9C189.5,83.8,189.1,82,188.3,80.6z"/>
				<path class="st3" d="M194.3,81.1c-0.2,0,0.1,0.4,0,0.7c-0.4,0.1-0.8,0.2-1.2,0.2c0.1,0.4,0.5,0.4,0.2,0.9
					c-1,0.3-1.5-0.9-1.8-1.6c1.4-0.3,1.5-1.6,3.2-1.3c0.1,0.6,0.8,1,0.4,1.7C194.7,81.6,194.6,81.2,194.3,81.1z"/>
				<g>
					<g>
						<path class="st3" d="M97.7,85.3c0-0.3,0.7-0.9,0.8-1.6c1,0.5-0.1,1.8-0.2,2.6c0.7-0.4,0.5-1.7,1.3-2.1
							c0.4,1.1-0.4,1.5-0.4,2.8c0.8-0.6,0.7-2.1,1.5-2.7c0.4,0.7-0.3,1.2-0.1,2c0.6-0.6,0.7-1.6,1.5-1.8c0,0.7-0.4,1-0.5,1.6
							c1-0.6,1.3-1.8,2.3-2.5c0.4,0.1,0.7,0.3,1.1,0.4c1.3-3.1,0.5-7.4-0.8-10.2c-0.3-0.2-0.4-0.5-0.7-0.5c-0.3,0.6,0.6,1.1,0.6,1.9
							c-0.4,0.1-0.9-0.7-1.4-1c0.2,0.6,0.6,1,0.7,1.6c-0.8,0.3-1-0.5-1.4-0.9c-0.6,0.7,1,1.5,0.7,2.2c-0.5-0.1-0.7-0.5-1.1-0.8
							c-0.1,0.7,0.7,0.5,0.5,1.4c-0.3,0.1-0.2-0.2-0.5-0.3c-0.2,0.2,0.2,0.5-0.1,0.7c-0.3,0.1-0.2-0.2-0.4-0.3
							c-0.1,0.1-0.2,0.6,0.1,0.9c-0.6,0.2-1.3-0.7-1.8-1c-0.3,1.4,2,1.4,2.3,2.6c-0.7-0.1-1.1-0.4-1.7-0.5c0,1.1,1.6,0.6,2,1.4
							c-0.2,0.2-0.8,0.1-1.2,0.1c0.8,0.6,2,0.8,2.2,2c-1.4-0.7-2-1.4-3.6-1.9c0.5-1.2-0.6-2.7-1-3.9c-0.7,0.7,0.6,2.9,0.1,4
							c-0.6,0.2-0.8-0.8-1.2-1.1c-0.5,0.3,1,1.7,0.1,2.4c-0.5-0.3-0.5-1.2-0.8-1.7c-0.5,0.8,0.3,1.6-0.3,2.6c-0.5,0-0.4-0.6-0.6-0.9
							c-0.4,0.3-0.1,1-0.4,1.6c-0.4,0.1-0.4-0.2-0.6-0.3c-0.3,0.3-0.2,1.1-1.1,0.9c0-0.5,0.3-1.2,0.3-1.6c0.3-0.3,0.5,0.1,0.7-0.1
							c0.2-1.7,1.3-2.4,2.4-3.2c0-3.5,2.2-4.9,4.8-5.5c0.2-0.6,0.3-1,0.6-1.9c0.4-0.1,0.3,0.2,0.6,0.1c0.2-0.1-0.3-0.5-0.2-0.9
							c0.4-2,2.7-2.6,4.5-2.8c0.4-0.1,0.6-0.5,0.8-0.9c-0.4-0.8-1.2-1.6-0.8-2.7c-0.6,0.8-0.8,2.2-2.1,2.2c0-1,1.5-1.7,1.4-3.2
							c-1.8,0.5-2.4-1.2-3.6-1.6c0.4-1.5,0.1-2.2-1.1-2.6c0.1-1.8,1.2-2.4,1.9-3.6c0-0.5-0.3-0.9-0.6-1.1c-0.3-1.3,2.6-1.5,1.4,0
							c0,0.3,0.4,0.3,0.5,0.5c0.6-1-0.1-1.7-0.2-3c-1.7,1.2-3.2,3.5-5.3,4.8c0.1,0.5-0.4,0.4-0.3,1c-1.1,0.5-1.8,1.3-2.3,2.3
							c-1.5,1.2-3.1,2.4-4,4.3c0.1,0.4,0.7,0.4,1,0.6c-0.4,0.4,0.3,0.6,0.5,0.9c-0.4,1.4,0.9,2.5-0.5,3.1c-0.1-0.3-0.1-1.1-0.4-1.6
							c-0.2,0.4-0.5,0.2-0.7,0c-0.3,0.1-0.2,0.5-0.4,0.7c-0.4,0.3-0.9,0.5-1.1,1.1c-2.1,1-3.3,3.4-4.9,5.3c-1.3,1.6-2,3.6-3.5,4.4
							c-1,1.5-2.3,2.6-3.3,4.2c-2.2,1.6-4,3.5-6.3,5c-1,0.6-2.1,0.8-3,1.7c-1.7,0.5-3.8,1.5-5.8,0.9c-0.1-0.4,0.2-0.3,0.1-0.6
							c0.5-0.3,0.7-0.1,1.4-0.2c2.3-0.3,4.1-1.2,6.2-2.5c3.1-2,6-4.4,8.3-7.1c0.9-1,1.3-2.2,2.6-2.8c2.3-4.1,5.2-7.5,8.5-10.4
							c-0.4-2.3,0.7-4.6,2-5.8c0.5-0.5,1.3-0.9,2.1-1.7c0.3-0.4,0.5-0.9,0.9-1.4c0.4-0.5,1.2-0.8,1.6-1.3c0.3-0.4,0.4-0.9,0.6-1.2
							c0.4-0.4,1.1-0.7,1.6-1.2c1.1-1.2,2.5-4.3,4.8-4.3c0.6,1,1.3,2.1,2.1,3c0.1,1-0.3,1.1,0.4,1.6c-0.2,0.2,0,0.7-0.5,0.5
							c0,0.4,0.8,0.1,0.9,0.5c2-0.5,3.1,0.5,4.2,1.8c0.8-0.7,2.3-0.6,2.4-2.1c2.5-0.9,4.7-1.9,6-4c1.3-0.4,1.5,0.3,2.2,0.8
							c1.4,1.1,3.6,1.2,5.3,1.8c0.4-0.2,1-0.8,1.4-0.6c0-0.2,0.4-0.5,0.9-0.6c1-0.7,0.7-2.1,1.5-3c0.4-0.4,1.5-1,2.2-1.6
							c2-1.5,4.5-3.5,6.4-5c0.9-0.7,1.7-1.3,2.4-2.2c0.4,0.1,0.8,0.2,1.1,0.4c0.1,0.5,0,0.4,0.1,0.7c2,1.1,2.7,2.8,3.7,4.7
							c2.9-0.2,3.3,2.4,4.4,4.4c1.1-0.4,2.2,0,2.9-0.8c1.9,0,2.9,1.8,4.2,2.8c0,1.6,1.9,2,1.6,3.5c2.3-0.8,2.9,1.9,4.2,2.9
							c-0.2,1.2,0,1.7,0.1,2.7c0.8-0.1,0.9-0.8,1.5-1.1c0.3,0.2,0.7,0.1,0.9,0.4c0.2-0.4,1.1-1,1.5-2c0.4-0.9,1.6-3.6,2.5-1.8
							c-0.3,0.4-0.5,0-0.9,0.2c-0.6,1.6-1.7,2.7-2.5,4.1c-0.6,0.1-0.9-0.2-1.5-0.1c-0.4,0.5-0.6,1-1.3,1.2c0.3,1.6,1.8,3.4,0.6,4.7
							c0.2,0.3,0.2,0.8,0.4,1c2.4-0.2,2.7,1.6,3.7,2.6c0.4-0.3,0.6-0.8,0.8-1.4c0.6,0.8-0.2,2-0.8,2.3c-0.1,2.1,1.1,3.8,2.7,4.6
							c0.3-1.5-0.2-3.2,0.5-4.5c0.8,0.4,0.5,1,0.5,2c-0.1,0.1-0.3,0.2-0.6,0.1c0.4,0.6,0.9,1.7,0.6,2.6c1.7,0.6,3.4,1.3,4.9,2
							c-0.1,0.4,0.1,0.8-0.5,0.9c0.3,0.4,0.8,0.6,1,1c2-0.7,3.6,0.5,5.4,1.3c1.1,0.5,2.2,1.1,3,1.8c-0.9-0.9-2.2-2.5-3.4-3.5
							c-0.2,0.3-0.7,0.2-1.1,0.4c-1.8-2.5-3.9-4.6-5.3-7.5c-0.6,0-0.7-0.4-1.2-0.5c0-0.8,0.1-1.4,0.5-1.7c-0.2-0.4-0.5-0.7-0.4-1.5
							c0.3-0.3,0.7-0.6,1.5-0.5c0.1-0.9-0.8-1.3-0.3-2.1c-0.4-0.6-1.2-0.8-1.8-1.1c0.2-0.6,0.7-0.9,1.4-1c0-0.1,0-0.2,0.1-0.2
							c-0.4-1.8-1.7-2.7-2.1-4.6c-0.2-0.4-0.5-0.6-1-0.8c-0.4-0.7-0.9-2-0.5-3.1c-0.1-0.4-0.6-0.4-0.4-1c1.9-0.3,2.2,2.7,4.4,2.8
							c0-0.3-0.8-0.8-1.5-0.9c-0.6-1.4-1.9-2.2-2.9-3.1c-3.5,0.8-5,3.7-7.6,5.4c-0.4-0.2-0.8-0.3-1-0.6c0.4-0.6,1.2-0.6,1.7-1.1
							c1.4-1.1,2.3-3.1,4.2-3.2c0-0.3,0.6-0.8,1-1.1c0.7,0.2,1.5,0,2.2-0.1c2.2,1,3.4,3.2,5.8,4c0.8,1.5,3,2.1,4.7,2.3
							c2.2,2.7,3.4,6.5,5.4,9.5c1,0.4,1.8,0.2,2.3,0.6c1,0.8,0.4,4.1,1.6,5.2c2.6-0.4,3.8,0.8,5.2,2.2c0.2,1.8,0.5,3.4,1.4,4.9
							c2.5,0.5,4,2,5.8,3.4c0.8,0.6,1.9,1.9,3.6,1.9c1.4,0,2.4,0.2,3.5,1.2c0.4,0.1,0.3-0.4,0.6-0.1c0.3,0,0.5,0.3,0.9,0.4
							c1.7,0.5,4.6-0.3,5.8,0.9c-0.2,0.5-0.9,0.4-1.5,0.2c0.1,0.7,1.3,0.3,1.5,0.9c-0.1,0.6-0.7,0.6-1.1,0.9
							c0.2,0.3,1.1-0.1,1.4,0.3c0.1,0.4-0.2,0.4-0.1,0.9c-1.9-0.2-3.8,0.3-5.6-0.1c-0.3,0-0.5-0.3-0.7-0.4c-2.7-0.4-5.6,0-8.3-0.1
							c-2.1,0-4.1,0.1-6.2,0.3c-5.9,0.6-12-0.1-17.9,0.2c-0.5,0-0.9,0.1-1.5,0c-4.3-0.5-9.4,0.5-13.4-0.3c-2.2-0.4-4.6,0.9-7.1,0.3
							c-1.2-0.3-2.9,0.1-4.3,0c0.1-0.3-0.3-0.2-0.4-0.4c1.2-2.1-1.1-2.1-1.7-3.6c0-0.1,0.2-0.2,0.1-0.4c-0.5-0.8-1-1.5-1.6-2.2
							c-0.7,0.1-1.3-0.5-2.1-0.6c-0.2-1-0.5-2.2-0.2-3.3c0.8,0.5,0.7,1.8,1.1,2.6c1.9-0.3,2.9,1.9,3.7,3.5c0.8,1.1,2.3,1.2,3.5,1.6
							c0.2,0.1,0.2,0.4,0.4,0.5c1.3,0.7,3.1,0.1,4.7,0c1.5,0,3,0.4,4.5,0.2c1.9-0.3,4.8,1,6.6,0.7c-0.4-1.3-2.6-0.7-3-2
							c0.7-0.4,1.4,0.2,2.2,0c-0.3-0.4-1.2-0.3-1.5-0.6c-1.1,0.1-5.2,0.3-6.8-0.9c-2.7,0.2-5.8-0.6-7.7-1.9c0.2-0.4-0.1-0.6,0.1-0.9
							c-0.2-0.7-1-1-1.5-1.5c0.3-0.5,0-1,0-1.4c-1.8-1-3-3.1-3.7-4.7c-0.1-1.4,0.9-1.7,0.8-3.2c-2.5-1.3-4.3-3.3-7.3-4
							c-0.7-0.5-0.9-1.5-1.7-2c-0.2,0-0.1,0.3-0.1,0.5c1.2,1.2,1.9,2.8,3.4,3.6c-1.2,0.3-2.3-0.6-2.8-1.4c-0.8,0.9,1.3,2.3,2,3
							c-0.9,0.8-1.7-0.5-2.2-0.9c0.1,0.7,0.9,1.8,1.6,2.4c-1.3,0.2-1.4-0.7-2.1-1c0.3,0.9,0.1,1,0.4,1.7c-0.5,0-0.5-0.5-0.9-0.6
							c0.1,0.4-0.2,0.5-0.5,0.5c0,0.3,0.2,0.4,0.5,0.4c-0.1,0.4-0.5,0.2-0.7,0.1c-0.2,0,0.2,0.5-0.1,0.6c-1-0.1-1.1-1-1.8-1.4
							c0.5,1,1.6,1.4,2.1,2.4c-1.6,0.4-2.1-1.4-3.2-1.9c0.4,1.1,2.3,1.8,3.2,2.9c0,0.2-0.4,0-0.4,0.2c0.3,0.3,0.5,0.7,0.9,1
							c-0.4,0.7,0.1,1.1,0.1,1.6c0.9-0.1,1.4,0.6,2,1.1c0.4-0.6,1-1.1,1.3-1.8c0.8,0.1,1.5-0.9,1.8-1.8c1.4,0.2,2-1.4,2.9-2.2
							c1.4,0.5,0.6,2.4,1.2,3.1c-1-0.1-1.2-1.1-2-1.4c0.3,1.1,1.7,1.3,1.8,2.6c-1.2-0.3-1.8-1.4-2.7-2c-0.2,0.9,1.1,1.3,1.7,1.9
							c-0.4,1.1-1.8-0.7-2.5-0.4c-0.1,0.7,0.8,0.5,0.7,1.2c-0.4,0.3-1.2-0.5-1.6-0.3c0,0.4,0.7,0,0.9,0.5c-0.1,0.8-1.1,0.6-1.9,0.5
							c0.1,0.4,0.9,0.3,1.2,0.5c0,0.3-0.2,0.3-0.1,0.6c-0.4,0.1-0.8,0.1-1.1,0c-0.4,0.2,0.4,0.5,0,0.7c-0.5,0-0.8,0-1.1-0.1
							c0.5,0.4,1.1,0.6,1.7,0.9c0.1,0.5-0.1,0.7-0.3,0.9c0.6,0.2,1,0.6,1.6,0.9c0.1,0.5-0.3,0.5-0.7,0.5c0.2,1,2.1,0.3,2.3,1.1
							c-0.1,0.7-1.1,0.3-1.6,0.6c0.5,0.2,1.7,0,2.2,0.4c0,0.3-0.2,0.3-0.1,0.6c-0.7,0.3-1.7-0.3-2,0.5c1.1,0.5,2,0,3.3,0
							c0,0.5-0.3,0.8-0.8,0.9c0.1,0.3,0.6,0.1,0.9,0.1c-0.7,1.6-4.2,1.3-4.5-0.4c0.2-0.2,0-0.7,0.5-0.5c-0.1-1.7-0.5-3.3-1.7-4
							c0-0.2,0-0.3,0-0.5c-1.6-1.2-3.1-2.5-4-4.4c0.1-1.6-0.6-2.3-1.7-3c-0.4,0-0.1,0.7-0.4,0.9c-0.4,0.2-0.9-0.1-1.4-0.1
							c0.2,0.5,1.1,0.6,1.6,0.5c0.2,1.5-1.5,0.4-2.1,0.7c0.4,0.5,1.4,0.4,1.6,1.1c-0.4,0.6-1.2,0-2-0.1c-0.2,0.8,1.5,0.8,2.2,1.1
							c-0.4,1.1-2.2,0.4-2.9,0c-0.2,0.2,0.3,0.4,0,0.7c0.8,0.4,1.8,0.1,2.2,0.6c0,0.5-0.6,0.4-0.9,0.6c-0.1,0.3,0.6-0.1,0.4,0.4
							c0.1,0.5-0.5,0.4-0.9,0.4c0.4,0.5,1,0.4,1.6,0.3c0.1,0.4,0,0.3,0,0.7c-1.1,0.6-2.2-0.2-3-0.7c0.6,0.6,1.6,1.3,2.5,1.9
							c0.5,0,0.7-0.7,1.1-0.4c-0.3,1.4-1.7,0.7-2.7,0.8c0.2,0.3,0.8,0.2,0.9,0.6c-1.1,0.8-2.8-0.6-4.2-0.7c0.2,0.9,2,0.9,2.8,1.4
							c0.2,0.1,0.5,0.4,0.6,0.6c-1.3,0.2-4.1-0.6-5.1-1.5c-1.1,0.2-2.2-0.3-3.2-0.5c0.1,1.1,2,0.4,1.8,1.8c-1.3,0-1.9-0.6-3-0.8
							c0.3,1.1,2.1,0.2,2.5,1.4c-0.6,0.1-0.7,0-1.6,0c0.6,0.4,1.5,0.4,2,0.9c0.2-0.1-0.3-0.5-0.1-1c1,0.1,1.6,0.6,2.6,0.6
							c-0.6-0.5-1.6-0.6-1.6-1.8c1.7,0.5,2.9,1.4,4.9,1.5c0.1,0.3-0.1,0.3-0.1,0.5c1.1,0.3,3.4-0.3,4.6,0.4
							c-1.6,0.9-3.6,0.4-5.5,0.4c-2.5,0-5.1,0.4-7.6-0.2c-0.2-0.4-0.6-0.7-1.1-0.9c-0.8,0.5-1.8,0.5-2.7,0.3
							c-0.1,0.4,0.4,0.2,0.6,0.3c-0.6,1-1.6,0.4-2.6,0.5c-1.4,0.1-2.6,1-4.1,1.1c-1.3,0.1-2.5-0.2-4.1,0.1c0-0.4-0.4-0.3-0.4-0.6
							c-0.7-0.1-1.8,0.2-1.9-0.5c2.1-0.3,4.1,0.5,5.8,0.3c0.3-0.1,0.2-0.5,0.5-0.6c0.6-0.1,0.8,0.2,1.4,0.1c0.2,0,0-0.4,0.3-0.4
							c0.4-0.1,0.5,0,1,0c0.5,0,0.6-0.3,0.9-0.5c3.1-0.2,4.3-2.3,6.7-3.2c0-1,0.8-1.3,0.5-2c0.4-0.2,0.6-0.6,1-0.9
							c-0.3-0.4-0.4-1.1-0.7-1.5c0.2-0.6,0.3-1.4,1.1-1.4c0.2-1.6,1.8-1.7,2.9-2.3c1.2-0.7,1.9-1.9,2.3-3.4c0.4,0,0.5,0.2,1,0.1
							c0.3,0.4,0.4,0.7,0.5,1c0.3-0.6-0.2-1.5-0.5-2.6c0.4-0.5,1.1,0,1.5-0.2c0-0.5-0.5-1.3-0.8-1.9c0.5-1.6,3-2.3,4.1-3.7
							c-0.1-0.5-0.8-0.4-0.9-1c0.4-0.3,0.9-0.6,1.7-0.5c0.4-0.2-0.4-0.5,0-0.7c0.4-0.2,0.6,0,1-0.1c0-0.9-0.1-1-0.1-1.9
							c0.3-0.1,0.5-0.3,0.9-0.4c0.6-1.5,2.2-2,2.8-3.6c-0.5-4-4.6-5.3-4.9-9.8c0-0.3,0.3-0.6,0.5-0.4c0-0.3-0.5-0.2-0.5-0.5
							c0-0.3,0.2-0.4,0.5-0.4c-0.1-0.3-0.6-0.2-0.6-0.5c0.2-0.7,0.8-0.7,1.2-0.4c0,0.4,0,0.7-0.4,0.6c0.2,0.3,0.7,0.2,0.9,0.6
							c0.1,0.3-0.1,0.4-0.4,0.4c0.5,0.5,1,0.8,1.3,1.4c-0.1,0.2-0.3,0.3-0.6,0.2c1.1,0.5,1.3,1.8,2.7,2c0,0.2,0,0.5,0,0.7
							c-0.6,0-1.1,0-1.5-0.3c-0.1,0.3,0.8,0.8,1.1,1.1c1-0.5,1.7,0.1,2.9-0.2c0.1-0.1-0.2-0.6,0.1-1c0.8-0.1,1.1,0.1,1.4,0.5
							c0.3-0.3-0.4-0.4-0.2-1c1-0.3,1.5-1.4,2.7-1c0.9-0.2,0.8-1.5,1.6-1.7c-0.2-0.2-0.5-0.2-0.7-0.4c-1.7,0.8-3.2,1.7-5.1,2.2
							c-0.6-0.3-0.7-1.1-1-1.7c-0.4,0.2,0.2,0.5-0.3,1c-0.7,0.4-1.6,0.7-2.5,0.5c0-0.6,0.4-0.8,0.9-0.9c0-0.5,0.8-1.1,1.4-1.3
							c-0.2-0.4,0-0.4,0-0.9c-1.5,1.6-3.2,0.3-3.5-1.8c-1.5-0.9-1.1-3.9-2.4-5c0-0.3,0-0.7,0.1-0.9c-3.2,2.2-6.6,5.3-10,7.7
							c-0.3,3.9-4.9,3.4-5.5,7c-0.6,0.3-1.1,0-1.6,0.1c-1.4,1.1-0.2,2.8-0.4,4.1c-0.3,1.8-2.2,2.3-3,3.7c-3.5,1.2-5.6,3.7-8.4,5.6
							c-0.9,1.5-1.3,3.5-2.5,4.7c-0.6,2.8-1.5,5.5-2.9,7.9c-0.5,0.2-1,0.4-1.4,0.7c-1.7,0.4-3.2,0.6-4.8,1.2
							c-2.2,0.9-4.2,2.5-6.6,2.9c-0.9,0.2-1.8-0.1-2.9,0c-1.4,0.1-3.1,1.3-5,1.9c-1.3,0.5-2.5,0.4-4.1,0.7c-2.1,0.4-4.1,0.9-6.2,1.1
							c-1.2,0.1-2.5,0.3-3.6,0.5c-0.7,0.1-1.3,0.6-2,0.7c-1.5,0.3-3.4,0.7-5,0.7c-0.7,0-1.6,0-1.7-0.8c1.8-0.3,3.7-0.4,5.7-0.8
							c1.2-0.3,2-0.6,3.7-0.8c1.2-0.1,2.6-0.3,4.1-0.5c1.9-0.2,3.3-0.9,5.3-1.1c0.2,0,0.1-0.3,0.1-0.5c1.7-0.4,2.7-1.4,4.1-1.6
							c0.7-0.7,0.8-2.1,2.1-2.5c0.6-0.5,1-1.6,1.9-1.5c-0.2,1.7-3.5,2.3-1.7,3.8c0.3-0.2,0.1-0.9,0.1-1.2c0.7,0,0.4,0.9,1.1,0.9
							c0.1-0.5-0.4-1.2-0.1-1.7c0.8,0.5,0.8,1.4,1.2,1.9c0-0.4-0.4-1.5-0.3-2.4c1.2,0.2,0.6,2.7,2.1,2.3c-0.5-0.6-1.1-1-0.8-2.2
							c0.8,0.4,0.9,1.5,1.5,2.1c0.4-0.7-1.2-1.5-0.8-3c0.7,0.1,0.6,1.2,1.1,1.5c0.2-0.1,0.1-0.6,0.3-0.9c0.6,0.2,0.6,1.1,0.9,1.6
							c0.5-0.7,1-1.5,1.1-2.7c0.5,0.3,0.4-0.2,0.6-0.5C98,85.1,97.7,85.1,97.7,85.3z M92.6,68.2c-0.1-0.4,0.2-1.1-0.1-1.4
							C92.3,67.3,92.4,67.9,92.6,68.2z M95.6,82.8c0-0.3,0-0.6-0.2-0.6c0,0.3-0.4,0.2-0.4,0.6C95.2,82.8,95.4,82.8,95.6,82.8z
							 M98.4,86.4c-0.6,0.2-0.6,1-0.9,1.5C98.2,87.8,98,86.8,98.4,86.4z M104,84.4c0,0.5-0.2,0.7-0.8,0.6c-0.1,0.3-0.3,0.4-0.4,0.6
							C103.6,85.5,104.9,84.8,104,84.4z M105,58.3c-0.2-0.4,0.3-1.2-0.1-1.1c-0.2-0.4-0.1,0.6-0.6,0.4c0.2,0.7,1.1,0.9,1.1,1.9
							c-0.7,0.7-1.4-1.2-1.9-0.6c0.3,0.5,1.4,1.1,2.1,1.6c0,0.4,0.2,0.7-0.1,0.9c-0.8,0.1-1-0.3-1.6-0.4c0.5,1.2,2.5,0.8,3.1,1.9
							c-0.4-0.1-0.2,0.4-0.5,0.4c-0.9-0.2-1.7-0.5-2.6-0.6c0.2,0.5,1.3,0.2,1.2,0.9c0.8-0.2,1.3,0.4,2-0.1c-0.1,0.3,0.7,0.6,1.4,0.6
							c-0.1,1.1,1.3,0.7,1.6,1.5c0,0.3-0.4,0.1-0.4,0.4c0.5,0.3,1.3,0.3,1.4,1c-0.1,0.3-0.7-0.3-0.9,0.1c0.6,0.4,1.6,0.4,1.7,1.4
							c-0.4,0.1-0.3-0.2-0.6-0.1c0.1,0.5,0.9,0.4,0.9,1c-0.5,0.1-0.7,0.1-1.1-0.1c0.1,0.7,1.3,0.4,1.2,1.3c-0.4,0-1.2-0.1-1.6-0.4
							c0.7,0.7,1.8,1.3,2.7,0.9c-0.6-0.2-0.6-1-1-1.4c0.3,0,0.1-0.4,0.4-0.4c0.5-0.1,0.8,0.1,1,0.4c0-0.7-0.9-0.5-0.9-1.2
							c0.5-0.3,0.7,0.3,1,0c-0.8-0.3-1.2-1-1.7-1.6c0.4-0.3,0.7-0.4,1.4-0.2c0.8,1.1,1.8,2,2.8,2.9c-0.7-1.3-2.7-2-2.6-3.6
							c-1.2-0.9-2.8-1.4-3.4-2.8c-0.1,0.5-0.1,0.4,0.1,0.7c-0.3,0.1-0.4,0.4-0.7,0.4c-0.2-0.1-0.3-0.3-0.4-0.6
							c-0.5-0.1-0.6,0.2-1.1,0.1c0.1-0.5-0.3-0.5-0.2-0.9c-0.5-0.1-0.2,0.6-0.6,0.5c-0.3-0.5-0.7-0.9-0.6-1.7
							c0.2-0.1,0.3-0.3,0.6-0.2c0.2,0.1,0.6,0.2,0.5,0.6c0.4,0,0.5-0.4,0.9-0.5c0.2,0.3,0.4,0.4,0.7,0.3c0.1-0.3,0.3-0.7,0.3-1.1
							C107.6,60.1,106.5,59.4,105,58.3z M108.4,80.4c0-0.1,0-0.2,0.1-0.2c-0.5-0.7-1.4-1.1-2.1-1.6C107,79.3,107.5,80,108.4,80.4z
							 M108.8,77c0,0.2-0.6,0.8,0,1c-0.3,0.2-0.6-0.1-0.7,0.1c0.3,0.1,0.4,0.4,0.7,0.5c0.5-1,0-4,2.1-3.1c0.6-1.3-1.6-1.8-2-3
							c0,0.5-0.2,0-0.4,0c0,0.8,0.5,1.2,0.9,1.7c-0.7,0.8-2.1-0.4-2.5-0.4c0.5,0.3-0.3,0.3-0.4,0.5C107.2,75.3,108.5,75.9,108.8,77z
							 M107.6,83.3c0-0.5-0.7-0.9-0.9-0.9C107.1,82.6,107.1,83.2,107.6,83.3z M111.6,74.1c-0.1-0.5-0.1-0.8,0.1-1.4
							c-0.8-0.2-1.3-0.7-1.9-0.8C110.4,72.8,110.8,73.6,111.6,74.1z M112.3,72.7c0.4-0.3,0.2-1-0.1-1.2c-0.4,0.4-1.5-0.9-1.7-0.3
							C111.1,71.6,111.8,72,112.3,72.7z M115.6,56.8c-0.4,1.3-2.1,1.5-2.8,2.6c0.3,0.4,0.6,0.7,1,1c0.6-0.3,1.4-1,2.1-0.7
							c-0.1,0.9-1.1,0.9-1.5,1.5c0.4,0.6,1.2,0.8,1.5,1.5c-0.3,0.6-0.6,0.4-0.8,1c0.9-0.3,1,0.6,1.9,0.6c0.4-0.2,0.6-0.7,0.9-1.1
							c-0.1-0.7-0.6-1.1-0.7-1.7c0.2-0.7,0.6-1.4,1-2.1c-0.1-0.7,0.1-2.8,1.8-2.3c0.7-1,0.3-2,1.4-2.1c0.7,1-0.2,3.4,2.1,3.5
							c0.2,0.3,0.2,0.8,0.6,0.9c0.2-0.1,0.2-0.4,0.3-0.6c-0.8-0.1-1.5-1.2-1.5-2.6c-0.8-0.7-1.2-1.8-2.5-2
							C119.2,55.4,117.3,56.1,115.6,56.8z M122.4,64.6c0,0.1,0,0.1-0.1,0.1c-0.6-0.4-1.1-0.9-1.7-1.3c0.1-0.8,0.8-0.9,1.5-1.1
							c0.1-0.6-0.3-0.7-0.2-1.2c-1.5-0.5-2.1-1.9-2.1-3.9c-0.2,0.3-0.3,0.6-0.8,0.7c0.1,1,0.1,1.4-0.5,1.9c0.9,0.3,0.9,1.6,0.6,2.4
							c0.3,0.1,0.6,0.1,0.6,0.5c-0.3,0.5-0.4,0.5-1,0.4c0,0.7-1,1.4-0.5,1.7c1.2-1.1,2.8-0.2,3.8,0.4
							C122.1,64.9,122.7,64.7,122.4,64.6z M118.7,62.3c-0.1-0.4-0.5-0.6-0.7-0.9C118.1,61.9,118.5,62.1,118.7,62.3z M127,92.8
							c0.2-0.4-0.7-0.6-0.6-0.1C126.7,92.6,126.8,92.7,127,92.8z M129.2,92.3c-0.7,0-1.3-0.9-1.7-0.4
							C127.9,92.1,129.3,92.5,129.2,92.3z M131.7,89.5c-0.5-0.1-0.7-0.5-1.2-0.6c-0.2,0.2,0,0.2,0,0.5
							C131,89.2,131.5,89.8,131.7,89.5z M134,88.1c-0.8-1.1-1.9-2-2.3-3.5c-0.4,0.2-0.7,0.5-0.9,1C132.3,86,132.6,87.6,134,88.1z
							 M134.5,89.8c-0.4-0.2-0.3-0.3-0.2-0.7c-1.1-0.4-1.8-1.3-2.7-1.5c0.4,0.3-0.3,0.3-0.4,0.5C131.9,88.8,133.4,89.6,134.5,89.8z
							 M135.1,87.7c0.1-0.5,0.2,0.5,0.2,0c-0.2-0.3-0.7-0.4-0.5-1.1c0.1-0.3,0.5,0.3,0.6-0.1c-1.3-0.9-2.3-2.1-3.4-3.1
							c0,0.3-0.2,0.4-0.3,0.6C133.5,84.6,133.2,87.2,135.1,87.7z M133.5,83.2c0.8,1.6,2.7,2.9,4.6,3.1c-1.9-1-3.6-2.1-4.7-3.8
							c-0.3,0.1-0.7,0.1-0.9,0.4C133.1,82.9,133,83,133.5,83.2z M136.2,84.1c-0.8-0.5-1.1-1.5-1.8-2C134.8,82.9,135.5,84,136.2,84.1
							z M137.1,83.1c-0.7-0.5-1-1.4-1.7-1.9C135.4,81.8,136.3,83.2,137.1,83.1z M138.2,82.1c-1.3-0.1-1.1-1.6-2.1-1.9
							c0,0.2-0.1,0.3-0.1,0.5C137,80.8,137.2,82.9,138.2,82.1z M140,79.1c-0.4-0.1-0.4-0.4-0.7-0.5C139.3,79,139.7,79.5,140,79.1z
							 M140.8,79.9c0.1-0.4-0.3-0.4-0.5-0.5C140.2,79.8,140.4,80,140.8,79.9z M144.7,48.6c0.3-0.1,0.4,0.6,0.6,0.3
							c-0.1-0.2-0.4-1.4-0.4-1C145,48.2,144.7,48.3,144.7,48.6z M148.9,60c-0.4-0.1-0.9-0.7-1.2-0.5C148.1,59.6,148.5,60.3,148.9,60
							z M148.5,65.6c1.1,1.5,2.1,3.3,3.3,4.5c0.8,0.8,1.8,1.2,2.7,1.9c-3.4,1-4.5-3.8-6.6-4.9c1,1.2,1.7,2.7,2.7,4
							c1.4,0.9,2.8,1.7,3.7,3.1c-1.2,0.4-2.2-1-3.2-1.6c0.8,1,1.9,2.1,3.3,2.1c0.4,0.2,0.1,0.4,0.1,0.9c0.3,0,0.5,0.1,0.6,0.4
							c0.7,1.9,2,3.1,3.1,4.6c-0.2,0.1-0.4,0.2-0.5,0.4c0.4,0.6,1,1,1.1,1.9c0.9-0.2,1.1,1.1,1.3,1.9c1.5,0.9,3,1.8,5.4,1.8
							c1.4,0.8,4.1,0.4,4.9,1.8c-1.9,0-3.8-0.9-5.7-1.4c-1.9-0.5-4.3-0.2-5.3-1.9c0-0.2,0.4-0.1,0.4-0.4c-1.5-0.9-2.7-3.2-4-4.1
							c1.3,1.5,2.3,3.4,3.2,5.4c0.3,0.1,0.7,0.2,1.1,0.1c1.7,1.8,4.7,1.2,6.9,2.3c0.2,0.5-0.6,0.1-0.5,0.6c2.4,0.6,6.2,0.1,8,1.1
							c-1.1-0.7-1.6-1.9-2.6-2.8c-1.2-1-2.9-1.2-3.8-2.5c0.3-0.1,0.1-0.6,0.1-0.9c-0.2-0.2-0.5-0.2-0.6-0.5
							c-2.4,0.3-4.8-0.8-4.4-3.3c0.9,0.9,1.8,2,3.2,2.1c0.5,0,0.9-0.3,1.4-0.2c0.5,0.1,1,0.7,1.5,0.9c-0.1,0.3,0.2,0.3,0.1,0.6
							c1.1,0.6,2.2,1.2,2.7,2.4c3.5,0.8,5.1,4.1,9.1,4.3c0.1-0.6,0.5-1,0.6-1.6c2,0.2,2.8,1.6,4.8,1.8c0.4,0.6,0.7,1.3,1.5,1.6
							c2-0.8,3.7,0.8,6.1,0.7c1.5-0.1,2.7,0.2,4.5,0.3c1,0,1.8-0.1,0.7-0.1c-1.8-0.4-3.6-0.9-5.2-1.5c-0.4-0.1-0.5,0.2-0.9,0.1
							c-1.1-0.5-1.8-1.3-3-1.6c-1.1-0.4-2.3-0.1-3.6-0.3c-0.9-0.1-1.9-1.4-2.8-1.9c-1.1-0.6-1.9-1-3-1.1c0,0.5,0.5,0.4,0.5,0.9
							c-0.7,0.7-2.4,0-3.5-0.3c-2-0.5-4.3-1.5-5.1-2.7c-0.4-1.9-3.3-2.3-4.8-3.5c-1.3,1.3-3.8-0.4-5.1-1.7c-1-1-1.6-2.5-2.2-3.2
							c-0.8,0.3-1-0.6-1.6-1.1c-0.1-0.1-0.4,0.1-0.5,0c-0.4-0.3-0.8-1-1.2-1.4c-0.5-0.4-0.8-0.3-1.1-0.9c-0.1-0.2,0.1-0.5,0-0.7
							c-0.2-0.9-1.1-2.5,0.3-2.6c0.4,1.3,2.1,1.3,2.5,2.6c-0.9,0-1.2-0.6-2-0.8c1.7,1.5,3.8,2.6,5.5,4c0.5,0,0.7-0.2,1.1,0
							c0.3,0.9,0.3,2,1.1,2.5c-0.2-0.9-1-2.4,0.4-2.6c0.1,0.2,0.3,0.4,0.5,0.6c0-0.3,0-0.6,0-0.9c0.2-0.4,1-0.2,1.1-0.6
							c-0.4-0.3-0.6,0.3-1.1,0.2c-0.5-0.2-0.7-0.6-1.2-0.8c-1.7,0.8-2.8-1.8-3.7-3c-0.2,0.3,0.1,0.4-0.1,0.6
							c-1.8,0.9-2.3-2.1-3.3-3.5c-0.6-0.8-1.4-1-1.3-1.8c0.8-1.2,2.3-0.1,3,0.5c-0.1-0.9,0.5-1,0.8-1.5c-0.2-0.7-0.5-1.1-1.1-1.4
							c0,0.5-0.7,0.3-0.9,0.6c-1.2-0.9-3.3-0.9-4.6-1.8c0-0.5,0.1-0.9,0.5-0.9c0.5,0.1,1,0.4,1.4,0.6c-0.1-0.3-0.3-1.1,0.3-1.1
							c0.6,0.1,0.4,1.1,1.2,1.1c0.5-1.6-1.7-1.2-2.8-1.8c-1-0.5-0.8-1.2-1.5-1.8c-0.6,0.4-0.7-0.8-1.2-0.9c-0.6,0.2-1.9,0.9-2.6,1
							c1.2,0.3,2.2-0.9,2.7,0.2c-0.4,0.3-1,0.4-1.4,0.7c0.3,0.4,1.1-0.3,1.4,0.1c0,0.2,0.2,0.2,0.1,0.4c-0.3,0.4-1,0.3-1.4,0.6
							c0.6,0.5,2.2,0.1,2.1,1.3c-0.5,0.1-1.3-0.2-1.6,0.1c1.6,1.4,3.3,2.6,4.4,4.4c-1.7-0.1-2.2-1.3-3.3-2c0.3,0.8,0.9,1.4,1.5,2
							c0.9-0.4,1.6,0.5,2,1c-0.7,0.1-1,0.5-1.5,0.1c0.3,0.8,1.1,0.5,1.6,1.4c-1.1,0.7-2.4-0.1-3-0.9c0.2-0.2,0.4-0.4,0.5-0.7
							c-0.7-0.5-1.3-1.3-2-2c-0.6-0.6-1.4-1.8-2-1.6c2,2.1,3.2,5.7,6.3,6.4c-1,1.6-2.7-0.2-3.2-0.9c-1.1-1.6-3.2-3.6-4-4.8
							C147.6,65.1,148.2,65.2,148.5,65.6z M150.4,54.2c0.1-0.2,0.4-0.2,0.4-0.5c-0.1-0.2-1-0.4-1.1-0.3
							C149.9,53.7,149.8,54.3,150.4,54.2z M157.5,92.3c0-0.4-0.1-0.9-0.6-0.6C157.2,91.8,157,92.4,157.5,92.3z M166,73.3
							c0.1-0.2,0.2-0.3,0.3-0.5c-0.6,0.1-0.2-0.8-0.6-0.9C165.8,72.6,165.2,73,166,73.3z M168.5,77.6c-0.6-0.3-0.7-1.1-1.1-1.6
							C167.4,76.4,168,77.7,168.5,77.6z M178.1,92.2c-0.3-0.4-1.5-0.6-2-0.4C176.8,91.9,177.4,92,178.1,92.2z M179.4,85.8
							c-0.5-0.5-0.9-1.1-1.6-1.4c-0.1,0.4-0.6,0.4-0.8,0.7C177.9,85.2,178.9,86,179.4,85.8z M179.2,65.8c0-0.5-0.3-0.8-0.6-1
							C178.7,65.2,179,65.5,179.2,65.8z M183.6,75.3c0.1,0.3-0.1,0.4-0.4,0.4c-0.7-0.1-0.6-1.1-1.1-1.4c0.2,1.2,0.4,2.5,1.2,3.4
							c0.1-0.3,0.4-0.4,0.7-0.4c0.2,0.2,0.4,0.3,0.4,0.7c0.5,0,0.5-0.2,0.9,0c0,0.5,0.4,0.6,0.4,1.1c0.4,0,0.6-0.5,0.9-0.2
							c0.4,0.1,0.3,0.6,0.5,0.9c0.3,0,0.4-0.2,0.6,0c0.4,2,2.4,3.2,2.4,5.2c2.7,0.7,5.2,1.6,6.4,3.8c-2.5-0.9-4.2-2.5-6.9-3.2
							c0,0.8-1.1,0-1.2,0.4c1,0.2,1.4,1.1,2.5,1.3c0.9,1.4,3.6,1.2,4.7,2.4c-0.2-0.1-0.5,0.2-0.3,0.2c1.5,0.1,2.7,0.2,3.8,0.8
							c0.7,0.4,0.9,0.9,1.9,0.9c0.6,0,1-0.5,1.6-0.6c0.6-0.1,1.5-0.1,2.1,0c2.7,0.5,5.4,0.9,8,1.1c0.8,0,2.2,0.5,0.7,0
							c-2.5-0.8-5.8-1.7-8.8-2.1c-2.1-0.3-6-0.7-6.9-2.9c0.4,0,0.5-0.3,1-0.2c1.9,1.9,5.6,2.5,8.9,2.7c-1.6-0.4-2.4-1.7-3.8-2.3
							c-1.4,0.8-2.1-0.6-3.2-1c-1.2-0.5-2.8-0.4-3.3-1.4c0-0.6,0.6-0.5,0.9-0.9c-1.1-0.8-0.7-2.9-1.4-4c-1.6,0.4-3-1.5-4.6-0.8
							c-0.9-0.4-1.6-1.1-3.1-1c0.1-0.4-0.2-0.4-0.1-0.7c0.4,0.3,0.3-0.2,0.5-0.2c1.3-0.4,2.4,1.4,3.8,0.7c-0.3-0.2-0.2-0.5-0.6-0.9
							c-0.7,0.2-1.3-0.6-2.2-0.5c-1.3-0.7-2-1.8-3.2-2.5c-1.6-1-3.9-1.8-3.9-3.5c-1.4-0.9-1.8-2.7-1.9-4.7c-0.8-1.4-1-4-2.2-4.6
							c0.6,1.4,1.3,4,0.8,5.7c0.4,0.4,0.6,1,0.4,1.6c0.3,1.1,2.4,2.1,1.6,3.2c-0.9-1-1.9-2.1-2.9-3c0,0.7,0.6,1.4,0.2,2.1
							c0.7-0.2,0.7,0.3,0.6,0.9c0.3,0.1,1.4,0,1.7,0.4c0.1,0.3,0.1,0.5,0.1,1c0.4,0,0.4-0.4,0.9-0.4c0.2,0.2,0.4,0.5,0.4,0.9
							c0.7-0.5,1,0,1.9-0.2c0.3,0.3,0.3,0.8,1.1,0.6c0.5,0.6,0.4,1,0.2,1.7c-0.5-0.3-1-0.5-1.2-0.4C185,75.8,183.8,75.6,183.6,75.3z
							 M183.8,80.7c-0.7-1.8-2.3-3.4-2.2-5.6c-0.1-0.2-0.6,0-0.6-0.3c-0.1-0.5-0.4-0.9-0.6-1.2c0.3,1.1,0,1.4,0.1,2.4
							c0.2,0.1,0.7-0.1,0.9,0.4c0.2,1.4,0.9,2.3,1.1,3.6C183.3,79.8,183.4,80.4,183.8,80.7z M181.3,63.1c0-0.4,0.3-0.4,0.3-0.7
							c-0.4,0.1-0.9-0.7-0.7-0.4C181.1,62.3,181.1,62.7,181.3,63.1z M182.3,62.9c-0.2,0.1-0.4,0.9-0.1,1.1
							C182.1,63.6,182.9,63,182.3,62.9z M183.6,64.4c0.1,0.7-0.2,1.5,0,2.4C183.7,66,184.3,64.8,183.6,64.4z M184,69.7
							c0-0.6,0.4-1.4,0.1-1.9C184.2,68.4,183.5,69.4,184,69.7z M184.4,66.3c0.1,0.5-0.4,1.1-0.1,1.4
							C184.4,67.3,184.9,66.6,184.4,66.3z M185.3,67.8c-0.1,0.6-0.3,1.8-0.1,1.7C185.2,69,185.7,68.2,185.3,67.8z M186.2,70.7
							c-0.1-0.6,0.6-1,0-1.2C186.1,69.7,186,70.9,186.2,70.7z M187.8,82.9c-0.4-0.3-0.6-0.9-1.1-1.3C186.4,82.3,187.4,83,187.8,82.9
							z M187.7,87.8c-0.3-0.1-0.7-0.7-1-0.4C187,87.5,187.4,88.1,187.7,87.8z M188.2,71.6c0,0.5-0.2,0.8-0.3,1.2
							C188.5,72.9,188.6,71.7,188.2,71.6z M188.2,83.1c0.3,0.6,0.5,1.3,1.2,1.5C189.2,83.9,188.5,83.7,188.2,83.1z M189.5,73.8
							c0-0.4,0.3-0.6,0.4-1c-0.4,0.1-0.2-0.3-0.6-0.3c0,0.4-0.2,0.6-0.3,1C189.2,73.7,189.4,73.8,189.5,73.8z M196.2,78
							c0.1-0.4-0.6-0.7-0.7-0.4C195.9,77.6,195.7,78.1,196.2,78z M204,92.6c-0.7,0.1-1.8-0.2-2.1,0.2
							C202.4,93.4,203.4,92.8,204,92.6z M210.1,90c0,0.1,0.2,0.2,0.2,0C209.7,89.6,208.4,90.1,210.1,90z"/>
					</g>
				</g>
				<path class="st3" d="M122.8,73.4c-0.2-0.6,1.1-0.8,1.6-1.1c1.1-1.9,2.2-5,2.6-7.9c0.1-1-0.1-2.4,0.5-3.1
					c0.3-0.3,1.1-0.4,1.5-0.7c0.4-0.3,0.7-1,1.2-0.7c0,0.4-0.1,0.7-0.4,0.9c0.2,0.6,0.8,0.7,0.9,1.4c-0.7,0.3-1-0.6-1.5-0.9
					c-0.2,0.1-0.3,0.2-0.5,0.2c0.4,0.4,0.6,1.1,0.7,1.7c-0.7-0.2-1-0.8-1.3-1.4c-0.7,0.8,0.5,1.3,0.6,2.1c-0.6,0.1-0.6-0.5-1-0.6
					c-0.4,1.8-0.5,3.4-1,5.2c1.2-0.5,2.2-1.1,3.5-1.2c-1.2,0.9-2.5,1.6-3.9,2.3C125.6,71.3,124.6,72.7,122.8,73.4z"/>
				<path class="st3" d="M141.7,47.6c0-0.1,0.1-0.1,0.1,0c0.2,0,0-0.4,0.3-0.4c0.7,0,0.6,0.7,0.7,1.1c-0.2,0.2-0.9,0.2-1.1,0
					C141.6,48,141.9,47.6,141.7,47.6z"/>
				<path class="st3" d="M149.3,78.8c-1,1.5-2.8,2.7-3.8,3.6c0.6-2.3,2.4-3.4,4-4.7c-0.1-0.1-0.3-0.1-0.2-0.4c0.8-0.1,0.9-1,1.3-1.6
					c0.4-0.1,0.7,0.1,1,0.1c0,1.1-1.1,1.1-1.6,1.7c0.1,0.7-0.4,0.8-0.6,1.1c0.7,0.7,1.9-3.4,3.1-1.3
					C151.3,77.5,150.4,79.8,149.3,78.8z"/>
				<path class="st3" d="M68.1,93.2c0.5-0.6,1.2-0.4,1.9-0.6c1.4-0.4,2.7-1.2,4.4-1.6c1.1-0.3,2.2-0.7,3.4-0.8
					c0.9-0.1,1.9,0.1,2.7-0.1c0.6-0.2,1.3-0.8,2-1.1c0.8-0.4,1.7-0.5,2.1-1c0.6-0.6,0.7-1.6,1.1-2.1c0.6-0.8,1.7-0.9,2.6-1.6
					c0.5-0.4,0.8-1.4,1.6-1.5c0,1.9-2.1,2-3.4,3.1c-0.9,0.8-1.1,2.3-2.1,3c-1.1,0.7-2.6,0.7-3.5,1.8c-1.4,0.3-2.7,0.1-4,0.2
					c-3.2,0.4-5.5,2.3-8.5,2.8C68.4,93.4,68,93.5,68.1,93.2z"/>
				<path class="st3" d="M101.5,67.1c-0.2,0.4,1,1,0.7,1.5c-0.9-0.2-1.4-0.8-1.7-1.6c-0.3,0-0.5,0.1-0.6,0.4
					c-0.1,0.5,0.4,0.3,0.6,0.5c-0.4,0.6,0.7,0.7,0.5,1.5c-0.7,0.1-0.9-0.8-1.5-1.1c-0.1,0.6,1.5,1.2,1,2.2c-0.6-0.2-0.8-0.8-1.1-1.3
					c-0.2,0.3-0.3,0.9-0.8,1c0.5,0.4,0.6,0.7,0.6,1.4c-0.3,0.2-0.7-0.4-0.9-0.8c-0.2,0-0.2,0.2-0.4,0.2c0.6,0.1,0.8,1.1,0,1.1
					c-0.2-0.3,0.1-1.3-0.5-0.9c-0.1-1.2,1.6-1.7,1.2-3.7c0.9-0.6,1.2-1.9,2.5-2.1c0.5,0.1,0.6,0.6,1,0.8c-0.9-0.7-0.2-3.2,0.9-2.6
					c0,0.9,1.4,2.1,1.2,3.2c-0.7-0.4-1-1.3-1.5-2c-0.7,0.9,1.3,1.6,1,2.5c-0.7-0.1-0.9-0.6-1.6-1c0,0.7,1,1,0.6,1.7
					C102.1,67.9,101.9,67.4,101.5,67.1z"/>
				<path class="st3" d="M104.5,94.3c0-0.1,0-0.2,0-0.4c2.9-1.1,6-1.3,8.7-2.3c2.5-0.9,4.6-2.7,7.2-3.1c0.2-0.6,1.2-1.2,1.6-2
					c-0.3-0.8,0.1-1.4-0.1-2.1c1-0.3,1.4-1.4,2.5-1.2c0.2-0.2-0.1-0.5,0.3-0.7c0.5,0,0.5,0.5,0.5,1c-1,0.2-1.9,0.6-2.6,1.2
					c0.2,2.2-0.8,3.1-1.7,4.2c-1.7,0.6-3.3,1-5,1.8c-0.6,0.3-1.1,0.6-1.7,0.8c-2.9,1-6.2,2.1-9.2,3
					C104.7,94.6,104.8,94.3,104.5,94.3z"/>
				<path class="st3" d="M124.5,82.2c0-1.3,0.3-1.8,0-2.9c2-0.7,3.7,0.4,5.1-0.4c0.2,0,0.2,0.1,0.2,0.3c0.5-0.1,0-0.6,0.3-0.7
					c0.1,0.1,0.5,0,0.4,0.4c1.1-0.3,0.6-1.5,1.9-1.6c0.1,0.3,0.5,0.3,0.4,0.9c-0.2,0.1-0.5,0.1-0.6,0.2c0,0.6,0.2,0.7-0.1,1.1
					c-0.5,0.1-0.4-0.3-0.6-0.4c-1,0-0.9,1.1-1.3,1.8c-0.5,0-0.6-0.9-0.4-1.2c-0.8,0.1-0.9,1-1.1,1.6c-0.2,0-0.3-0.2-0.4,0
					c-0.4-0.4,0.1-1.2-0.1-1.6c-0.5,0.5-0.6,1.4-0.9,2.1c-0.3,0-0.4-0.2-0.6-0.3c0.2-0.4,0-0.5,0.1-0.9c-0.5,0.3-0.3,1.3-1,1.4
					c0-0.1-0.2-0.1-0.2-0.1c-0.1-0.4,0.2-0.5,0.1-0.9c-0.5,0-0.3,0.8-0.5,1.2C124.7,82.1,124.9,82.1,124.5,82.2z"/>
				<path class="st3" d="M141.8,49.4c0.2-0.4,0.4-0.7,0.9-0.7c0.1,0.3,0.5,0.6,0.1,1c0,0.3,0.5,0,0.6,0.3c0,0.4-0.4,0.5-0.6,0.6
					c-0.4,0.1-0.2-0.3-0.6-0.3C142.5,49.8,142.3,49.7,141.8,49.4z"/>
			</g>
		</g>
		<g>
			<g>
				<path class="st4" d="M59,125h-2.9v4.1H37.3v-2h16.4V125H35.2v-2h18.5v-1.8H37.3v-2h18.8v3.7H59V125z M58.4,116.4H56v-5h-7.8v6.9
					h-2.4v-6.9h-7.7v4.9h-2.3v-6.9h10.1v-1.3h-9.1V106h20.8v2.1h-9.3v1.3h10.1V116.4z M45.2,117.1c-1.7,0.5-3.7,0.9-5.9,1.1
					l-0.6-1.9c2.3-0.2,4.3-0.5,5.9-0.9L45.2,117.1z M45.2,113l-0.7,1.7c-2.6-0.6-4.5-0.9-5.8-1l0.7-1.8
					C42,112.3,43.9,112.7,45.2,113z M55.5,113.6c-2.3,0.7-4.3,1.1-6,1.2l-0.9-1.8c1.8-0.2,3.8-0.5,5.8-1.1L55.5,113.6z M55.5,116.6
					l-0.7,1.7c-1.8-0.6-3.8-1-5.9-1.3l0.7-1.8C52.2,115.7,54.2,116.1,55.5,116.6z"/>
				<path class="st4" d="M75.4,118h-2v2.1h-3.2v1h4.2v4h-4.2v0.8h4.3v1.7h-4.3v1.9H68v-1.9h-5.5v-1.7H68V125h-4.3v-4H68v-1h-2.9V118
					H63v-1.5h2.2v-0.9h2.2v0.9h3.8v-0.9h2.2v0.9h2V118z M85.8,114.4h-2.3v-3.8h-7.9v4.3h-2.3v-4.3h-8v3.8h-2.3v-5.6h10.3v-1.1H64
					v-1.9h20.8v1.9h-9.2v1.1h10.2V114.4z M72.6,114.6c-1.9,0.3-4,0.5-6.2,0.6l-0.4-1.4c2.3,0,4.3-0.1,6.1-0.4L72.6,114.6z M68,123.5
					v-1h-2v1H68z M72.6,111.6l-0.5,1.4c-1.6-0.3-3.5-0.4-5.9-0.5l0.5-1.3C68.8,111.2,70.8,111.4,72.6,111.6z M71.2,118.8V118h-3.8
					v0.8H71.2z M72.2,123.5v-1h-2v1H72.2z M85.1,127c0,1.7-0.7,2.5-2.2,2.5c-1,0-1.7,0-2.1-0.1l-0.7-2.2l2.2,0.1
					c0.4,0,0.6-0.2,0.6-0.5v-1.9h-4.2c-0.3,2-1.1,3.6-2.2,4.9l-1.8-1.6c1.2-1.3,1.8-3.4,1.8-6.1v-5.7h8.6V127z M82.7,114.2l-0.6,1.4
					c-2-0.4-4-0.7-5.9-0.8l0.6-1.4C78.7,113.5,80.7,113.8,82.7,114.2z M82.7,112.5c-1.9,0.3-3.8,0.4-5.8,0.5l-0.5-1.4
					c1.9,0,3.8-0.2,5.7-0.5L82.7,112.5z M82.8,119.6v-1.3h-4v1.3H82.8z M82.8,123v-1.4h-4v1.4H82.8z"/>
				<path class="st4" d="M113.8,127.3l-1.2,2.4c-3.9-0.8-7.5-1.9-10.8-3.5c-3.2,1.5-6.8,2.7-10.7,3.5l-1.3-2.5
					c3.9-0.6,7-1.5,9.4-2.6c-2-1.6-4.1-4-6.2-7.1h-1.2V115h8.8v-3.7H89.9v-2.4h10.7v-3.2h2.5v3.2h10.6v2.4H103v3.7h7.5v2.4
					c-2.1,3.2-4.2,5.5-6.2,7.1C106.7,125.6,109.8,126.5,113.8,127.3z M107.3,117.4H96.1c2.1,2.8,4,4.7,5.6,5.7
					C103.6,121.8,105.5,120,107.3,117.4z"/>
				<path class="st4" d="M125.2,127.3c0,1.4-0.9,2.1-2.7,2.1c-0.4,0-0.8,0-1.5-0.1l-0.6-2.3l2.1,0c0.3,0,0.4-0.2,0.4-0.5v-6.3
					c-0.5,0.7-1.2,1.4-2,2.1l-0.7-1.3c-0.2,3.8-0.7,6.6-1.6,8.4l-1.8-1.6c0.8-2,1.1-4.2,1.1-6.7V106h7.2V127.3z M123,114v-5.8h-2.7
					v3.1l1.3-0.9C122.1,111.6,122.6,112.8,123,114z M123,116.6v-2l-1.6,1.1c-0.2-0.9-0.6-2-1-3.3v7.3C121.1,119,122,118,123,116.6z
					 M139.8,107.3c-2.6,1.1-6,2-10.3,2.6v9.3c0,4.3-0.6,7.7-1.9,10.3l-1.9-1.7c1-2.3,1.5-5.3,1.5-8.9v-11.1c4.6-0.4,8.3-1.3,11-2.5
					L139.8,107.3z M140,111.6c-1.7,1-4,1.8-7,2.4v12.1c0.7-0.3,1.5-0.7,2.5-1.3l0.5,2.2c-1.7,1-3.4,1.8-5.1,2.4l-0.7-2
					c0.4-0.2,0.7-0.5,0.7-1v-14.2c2.9-0.5,5.5-1.3,7.8-2.5L140,111.6z M141.1,128l-1.7,1.5c-3-3.5-4.7-8.3-5-14.4l2.1-0.5
					c0.2,1.8,0.4,3.1,0.5,3.7c0.9-1,1.6-2,2.2-3l1.8,1.4c-0.9,1.4-2,2.9-3.4,4.2C138.2,123.7,139.4,126.1,141.1,128z"/>
				<path class="st4" d="M168.5,127.5l-1.4,2.1c-2.9-1.7-5.2-3.4-6.7-5c-1.5-1.6-2.9-3.7-4-6.2c-1.4,4.6-5.1,8.3-10.9,11.1l-1.4-2.1
					c5.7-2.7,9.2-6.4,10.4-11.1h-9.8V114H155c0.1-1.7,0.2-3.5,0.2-5.3h-9.3v-2.4h21v2.4h-9.2c-0.1,3-0.2,4.7-0.2,5.3h10.4v2.4h-9.6
					C159.6,120.8,163,124.6,168.5,127.5z"/>
				<path class="st4" d="M177.1,124.1c-1,2.3-2.1,4.2-3.3,5.6l-2.2-1.5c1.3-1.4,2.4-3.2,3.3-5.3L177.1,124.1z M184.2,107.6
					c-0.5,3.9-1.6,7-3.4,9.4c-1.8,2.4-4.3,4.2-7.7,5.5l-1.3-1.9c3.6-1.5,6.1-3.3,7.6-5.6c-1-0.9-2.2-1.7-3.5-2.5
					c-1,1.2-1.9,2.1-2.6,2.8l-1.6-1.8c2.9-2.7,4.8-5.4,5.7-8.1l2.3,0.5c-0.1,0.5-0.4,1.1-0.7,1.7H184.2z M177.4,116.5
					c-1.5,0.8-2.9,1.4-4.3,1.9l-0.7-2.1c1.8-0.7,3.3-1.4,4.4-1.9L177.4,116.5z M181.4,109.8h-3.5c-0.1,0.3-0.3,0.5-0.5,0.8
					c0.8,0.5,1.8,1.2,3.1,2.2C181,111.6,181.2,110.6,181.4,109.8z M182.8,128.9l-2.5,0.8c-0.4-2.1-0.9-3.8-1.4-5.2l2.4-0.8
					C181.9,125.4,182.5,127.1,182.8,128.9z M195.2,113.5h-5.8c-0.5,3.7-2.8,6.7-7,9.1l-1.5-1.9c3.6-2.2,5.6-4.6,6.1-7.2H184v-2.3
					h3.3c0.1-1,0.2-2.1,0.2-3.3c0-0.7,0-1.4-0.1-2.2h2.5c0,2.3-0.1,4.2-0.2,5.5h5.5V113.5z M189.4,128.8l-2.5,0.9
					c-0.5-1.6-1.2-3.3-2.1-5.1l2.5-0.8C188.2,125.5,188.9,127.2,189.4,128.8z M195.7,120.9l-2,1.6c-1.1-1.8-2.7-3.6-4.6-5.5l1.8-1.5
					C192.9,117.3,194.5,119.1,195.7,120.9z M195.7,128.7l-2.5,1c-0.6-1.6-1.4-3.3-2.6-5.1l2.4-0.9C194,125,194.9,126.7,195.7,128.7z
					 M194.8,109.4l-2,1.2c-0.6-1.1-1.2-2.2-2.1-3.3l1.9-1.3C193.4,106.9,194.2,108.1,194.8,109.4z"/>
				<path class="st4" d="M205,120.6c-1.1,3.2-2.4,6.2-4,8.9l-2.1-1.4c1.5-2.7,2.8-5.6,3.9-8.7L205,120.6z M205.3,115.7l-1.6,1.9
					c-1.5-1.3-3.1-2.3-4.6-3.2l1.4-2C202.3,113.3,203.8,114.4,205.3,115.7z M205.4,109.3l-1.7,1.9c-1.2-1.5-2.6-2.8-4.3-3.9l1.7-1.8
					C202.7,106.6,204.2,107.9,205.4,109.3z M222.5,122.5c0,1.9-0.1,3.3-0.3,4.3c-0.2,1-0.6,1.7-1.2,2.1s-1.7,0.5-3.3,0.5
					c-0.5,0-1.1,0-1.8,0l-0.8-2.2c0.6,0,1.3,0.1,1.8,0.1c1.2,0,1.9,0,2.3-0.1c0.3-0.1,0.5-0.4,0.6-0.8c0.1-0.5,0.2-1.1,0.2-1.8h-5.8
					c-0.9,2.8-3.7,4.5-8.7,5.2l-1.2-2.2c3.8-0.3,6.2-1.3,7.2-3h-6.2v-2h6.9c0.1-0.2,0.2-0.6,0.3-1.2l2.3,0c0,0.4,0,0.8-0.1,1.1
					H222.5z M222.3,119.4c0,0.7-0.1,1.3-0.4,1.6c-0.3,0.3-0.7,0.6-1.2,0.6c-0.5,0.1-1.4,0.1-2.8,0.1l-0.7-2c0.4,0,0.9,0.1,1.4,0.1
					c0.7,0,1.1,0,1.2-0.1c0.1-0.1,0.2-0.2,0.2-0.4v-0.4h-4.6v1.9H213v-1.9h-4.7v2.8h-2.4v-11h5.4c-0.9-0.4-1.8-0.9-2.8-1.3l2.1-1.1
					c0.8,0.4,1.7,0.8,2.8,1.4c1.3-0.6,2.4-1.1,3.4-1.7h-11V106h15.3v1.9c-1.5,0.9-3.2,1.8-5.3,2.7h6.4V119.4z M213,113.9v-1.3h-4.7
					v1.3H213z M213,117.1v-1.3h-4.7v1.3H213z M220,113.9v-1.3h-4.6v1.3H220z M220,117.1v-1.3h-4.6v1.3H220z"/>
				<path class="st4" d="M235.8,121.5c-2.1,3.2-4.7,5.7-7.9,7.5l-1.6-1.8c2.9-1.6,5.1-3.5,6.8-5.7H227v-2.2h8.8V121.5z M250.6,127
					l-1.4,1.9c-4.5-2.1-7.6-4.6-9.5-7.5v5.2c0,0.8-0.2,1.5-0.5,1.9c-0.3,0.4-0.8,0.7-1.3,0.8c-0.5,0.1-1.4,0.2-2.7,0.2
					c-0.5,0-0.8,0-1.1,0l-0.7-2.4c1.1,0.1,2.1,0.1,3.1,0.1c0.2,0,0.4-0.1,0.6-0.3c0.2-0.2,0.2-0.4,0.2-0.6v-8.6h-8.7v-9.9h7.8
					c0.6-1,1-1.8,1.1-2.4l2.7,0.4c-0.2,0.7-0.6,1.4-1,2h9v9.9h-8.6c0.5,1.4,1.6,3,3.4,4.6c1.6-1.1,3-2.3,4.3-3.7l1.8,1.5
					c-0.9,1-2.3,2.3-4.2,3.7C246.5,124.9,248.4,126,250.6,127z M245.8,111.6v-1.8H231v1.8H245.8z M245.8,115.5v-1.9H231v1.9H245.8z"
					/>
			</g>
		</g>
	</g>
	<g>
		<ellipse transform="matrix(0.2314 -0.9729 0.9729 0.2314 -11.1808 65.056)" class="st5" cx="35.6" cy="39.6" rx="33" ry="33"/>
		<g>
			<g>
				<path class="st4" d="M47.7,56.9H26.4v-4.6h7.9V26.2l-8.1,2.2v-4.8L39.8,20v32.3h7.9V56.9z"/>
			</g>
		</g>
	</g>
</g>
</svg>
