<?xml version="1.0" encoding="utf-8"?>
<!-- Generator: Adobe Illustrator 22.1.0, SVG Export Plug-In . SVG Version: 6.00 Build 0)  -->
<svg version="1.1" id="圖層_1" xmlns="http://www.w3.org/2000/svg" xmlns:xlink="http://www.w3.org/1999/xlink" x="0px" y="0px"
	 viewBox="0 0 42 42" style="enable-background:new 0 0 42 42;" xml:space="preserve">
<style type="text/css">
	.st0{fill:#56889C;}
</style>
<title>工作區域 1100</title>
<path class="st0" d="M37,32.3l-5.1-5c-1-1-2.7-1-3.7,0.1l-2.5,2.5l-0.5-0.3c-2.3-1.2-4.4-2.7-6.2-4.5c-1.8-1.8-3.2-3.9-4.4-6.2
	l-0.3-0.5l1.7-1.7l0.8-0.8c1-1,1.1-2.7,0.1-3.7l-5-5.1c-1-1-2.7-1-3.7,0.1L6.8,8.7l0,0c-0.5,0.6-0.9,1.3-1.1,2.1
	c-0.3,0.7-0.4,1.4-0.5,2.1C4.4,18.5,7,23.5,13.8,30.4c9.5,9.5,17.1,8.8,17.5,8.7c0.7-0.1,1.4-0.3,2.1-0.5c0.7-0.3,1.4-0.7,2.1-1.2
	l0,0l1.5-1.4C37.9,35,38,33.4,37,32.3z"/>
</svg>
