<?xml version="1.0" encoding="utf-8"?>
<!-- Generator: Adobe Illustrator 22.1.0, SVG Export Plug-In . SVG Version: 6.00 Build 0)  -->
<svg version="1.1" id="圖層_1" xmlns="http://www.w3.org/2000/svg" xmlns:xlink="http://www.w3.org/1999/xlink" x="0px" y="0px"
	 viewBox="0 0 256 180" style="enable-background:new 0 0 256 180;" xml:space="preserve">
<style type="text/css">
	.st0{display:none;}
	.st1{display:inline;}
	.st2{fill:none;stroke:#56889C;stroke-width:0.7496;stroke-linecap:round;stroke-linejoin:round;}
	.st3{display:inline;fill:#56889C;}
	.st4{enable-background:new    ;}
	.st5{fill:#56889C;}
	.st6{fill:#FFFFFF;stroke:#56889C;stroke-width:0.855;stroke-miterlimit:10;}
	.st7{fill:#FFFFFF;}
</style>
<g class="st0">
	<g class="st1">
		<path class="st2" d="M94.2,36.2c16-21.6,41.9-35.4,70.8-34.9c47.7,0.8,85.7,40.1,84.9,87.8s-40.1,85.7-87.8,84.9
			c-26.6-0.4-50.2-12.9-65.7-32"/>
	</g>
	<path class="st3" d="M93.3,142c0-1.8,1.4-3.2,3.2-3.2s3.2,1.4,3.2,3.2s-1.4,3.2-3.2,3.2S93.3,143.8,93.3,142z"/>
</g>
<g>
	<g>
		<g class="st4">
			<path class="st5" d="M38.7,109.9H28v2.2h9.4v14.5c0,0.8-0.2,1.4-0.5,1.8s-1.3,0.7-2.7,0.7c-0.4,0-1,0-1.7,0l-0.9-2.3
				c0.6,0,1.2,0.1,1.7,0.1c0.9,0,1.4,0,1.5-0.1c0.1-0.1,0.2-0.2,0.2-0.4v-11.8H30l2,1c-0.2,0.7-0.6,1.4-1.2,2.3h2.7v2.3H28v1.9h6
				v2.2h-6v4.4h-2.5V124h-6v-2.2h6v-1.9h-5.4v-2.3h2.5c-0.2-0.6-0.7-1.4-1.3-2.3l2-0.9h-4.8V129h-2.5v-17h9.4v-2.2H14.9v-2.3h10.6
				v-2.4H28v2.4h10.7V109.9z M29.7,114.4h-5.9c0.6,1,1.1,2.1,1.6,3.2h2.8C28.9,116.4,29.4,115.3,29.7,114.4z"/>
			<path class="st5" d="M66,109.8H46.3v7.1c0,5.4-0.7,9.5-2.2,12.3l-2.1-1.7c1.2-3.1,1.8-6.7,1.8-10.7v-9.4h10.1
				c-0.2-0.7-0.5-1.3-0.8-1.9l2.5-0.7c0.5,0.8,0.9,1.6,1.2,2.5H66V109.8z M66,128.6H46.5v-2.4h8.8v-7.3h-7.5v-2.4h7.5v-5.7h2.5v5.7
				h7v2.4h-7v7.3H66V128.6z"/>
			<path class="st5" d="M79.1,117.2l-1.9,1.7c-0.5-1.3-1-2.2-1.5-2.9v13h-2.3v-12c-1,2.2-2,3.9-3,5.1l-1.2-2.4
				c1.5-1.9,2.8-4.3,4-7.4h-3.6v-2.3h3.8v-4.8h2.3v4.8h2.8v2.3h-2.8v0.3C77.1,114.2,78.2,115.7,79.1,117.2z M93.3,128.4H78.5v-2.2
				h6.2V122h-5.2v-2.2h5.2v-2.9h2.4v2.9h5.2v2.2h-5.2v4.2h6.2V128.4z M92.9,115.9h-14v-2.2h5.7v-3.3h-4.8v-2.2h4.8v-2.8h2.4v2.8H92
				v2.2h-4.9v3.3h5.8V115.9z"/>
			<path class="st5" d="M108.7,111.9h-4v17.2h-2.5v-17.2h-0.7c-0.9,1.5-1.9,3-3.1,4.4l-1.7-1.8c2.2-2.6,4.1-5.7,5.4-9.4l2.5,0.4
				c-0.5,1.4-1.1,2.7-1.8,4h5.9V111.9z M120.6,111.9h-3.4v14.5c0,0.7-0.2,1.3-0.5,1.7c-0.3,0.4-0.7,0.7-1.1,0.8
				c-0.4,0.1-1.1,0.2-2.2,0.2c-0.8,0-1.5,0-2.1-0.1l-0.9-2.5c1.3,0.1,2.5,0.1,3.6,0.1c0.5,0,0.7-0.2,0.7-0.7v-14h-2.3
				c-1,1.8-2.1,3.3-3.3,4.5l-1.8-1.7c2-2.2,3.8-5.4,5.5-9.7l2.4,0.5c-0.4,1.3-1,2.6-1.6,3.9h6.9V111.9z"/>
			<path class="st5" d="M148,115.1h-19.5v3.5c0,4.7-0.9,8.2-2.8,10.4l-1.7-1.8c1.4-2,2.1-4.7,2.1-8.1v-6.3H148V115.1z M146.8,110.9
				h-21V106h2.4v2.7h6.9v-3.5h2.5v3.5h6.8V106h2.4V110.9z M148.3,126.9l-1,2.3c-4.8-0.9-7.8-2.9-9.1-5.9c-1.2,2.5-4.2,4.5-9,5.8
				L128,127c2.4-0.6,4.2-1.3,5.4-2s2.1-1.6,2.6-2.5c0.5-1,0.7-2.6,0.7-4.9c0-0.5,0-1.1,0-1.8h2.4c0,2.7,0.2,4.6,0.7,5.9
				c2.2-1.6,4-3.3,5.3-5.1l1.7,1.6c-1,1.5-2.9,3.3-5.8,5.3C142.6,125.4,145,126.5,148.3,126.9z M135.3,122l-1.9,1.4
				c-0.9-1.8-2.2-3.6-3.8-5.4l1.9-1.3C133.1,118.5,134.4,120.3,135.3,122z"/>
			<path class="st5" d="M156.3,120c-0.8,3.8-1.7,7-2.8,9.5l-2.1-1.6c1.2-2.8,2.2-5.8,2.9-9.1L156.3,120z M156.8,115.3l-1.6,1.8
				c-1-1.3-2.2-2.4-3.8-3.3l1.6-1.8C154.2,112.7,155.5,113.8,156.8,115.3z M157,108.5l-1.7,1.7c-1.2-1.4-2.3-2.5-3.5-3.4l1.6-1.7
				C154.9,106.2,156.1,107.3,157,108.5z M175.2,108.5c-0.2,1.4-0.7,2.9-1.3,4.5l-2.2-0.5c0.4-1.2,0.6-1.9,0.7-2.1h-6.6v1l5.4-0.1
				l0,1.5l-5.4,0.1v0.4c0,0.3,0.2,0.5,0.6,0.5h7.8v1.6h-8.5c-1.4,0-2.2-0.6-2.2-1.7v-0.7l-2.8,0v-1.4l2.8,0v-1.1h-3.5v7.6
				c0,4.6-0.9,8.4-2.6,11.3l-2.1-1.4c1.6-2.6,2.3-6.2,2.3-10.9v-8.4h6.5v-3.3h2.3v0.8h7.7v1.6h-7.7v0.9H175.2z M162.8,124.3
				c-0.5,1.6-1.3,3.2-2.3,4.8l-1.7-1.4c0.9-1.6,1.6-3,1.9-4.3L162.8,124.3z M173.8,122.9h-12.9v-6.7h12.9V122.9z M166.1,118.8v-1h-3
				v1H166.1z M166.1,121.3v-1h-3v1H166.1z M171.7,126.1c-0.1,0.8-0.3,1.4-0.6,1.8c-0.3,0.4-0.7,0.7-1.1,0.8
				c-0.4,0.1-1.4,0.2-2.8,0.2c-1.7,0-2.7-0.1-3.1-0.4c-0.4-0.3-0.6-0.8-0.6-1.4v-3.3h2.3v2.7c0,0.3,0.2,0.5,0.5,0.5l2.4,0
				c0.3,0,0.5-0.1,0.7-0.3c0.1-0.2,0.2-0.7,0.3-1.4L171.7,126.1z M169.3,125l-1.7,1c-0.5-0.7-1-1.3-1.5-1.8l1.7-1.2
				C168.5,123.9,169,124.5,169.3,125z M171.6,118.8v-1h-3.2v1H171.6z M171.6,121.3v-1h-3.2v1H171.6z M175.5,127.9l-2,1
				c-0.6-1.4-1.4-3-2.4-4.6l2-0.9C174.1,124.8,174.9,126.3,175.5,127.9z"/>
			<path class="st5" d="M184.5,115.6l-1.7,1.9c-1.2-1.3-2.6-2.4-4-3.4l1.6-1.9C181.8,113.1,183.1,114.3,184.5,115.6z M184.3,120.5
				c-0.7,2.9-1.9,5.9-3.4,8.8l-2.2-1.3c1.3-2.3,2.4-5.2,3.5-8.6L184.3,120.5z M185,109.1l-1.8,1.8c-1.2-1.4-2.7-2.8-4.3-4l1.8-1.7
				C182.4,106.4,183.8,107.7,185,109.1z M202.6,119.6h-1.9v4.3h-6.5v2.6c0,0.6-0.1,1.1-0.4,1.5c-0.3,0.4-0.6,0.7-1.1,0.8
				c-0.5,0.1-1.3,0.2-2.6,0.2c-0.5,0-1,0-1.5-0.1l-1-2.3c0.6,0,1.8,0.1,3.6,0.1c0.1,0,0.2-0.1,0.3-0.2c0.1-0.1,0.2-0.2,0.2-0.3V124
				h-6.1v-2.2h6.1v-2.1h-7.3v-2.2h7.3v-2h-6.1v-2.2h15.1v4.2h1.9V119.6z M201.2,107c-4,1.2-9.1,1.7-15.3,1.6l-0.9-2.2
				c6.3,0.1,11.2-0.3,14.8-1.3L201.2,107z M189.6,112.1l-2.2,0.8c-0.6-1.2-1.2-2.1-1.7-2.8l2.2-0.9
				C188.7,110.2,189.2,111.1,189.6,112.1z M194.8,112l-2.2,0.8c-0.5-1.1-1-2.1-1.6-2.9l2.3-1C194,110,194.5,111,194.8,112z
				 M198.2,117.5v-2h-4v2H198.2z M198.2,121.8v-2.1h-4v2.1H198.2z M201.2,109c-0.8,1.6-1.5,2.9-2.3,3.8l-2.4-0.8
				c1-1.2,1.8-2.5,2.4-3.7L201.2,109z"/>
		</g>
	</g>
</g>
<g>
	<ellipse class="st6" cx="222" cy="47.8" rx="33" ry="33"/>
	<g>
		<g class="st4">
			<path class="st5" d="M233.4,65.1h-22.5v-4.6l10.5-10.3c2.3-2.3,4.1-4.3,5.2-5.9c1.1-1.7,1.7-3.5,1.7-5.4c0-4-2.1-6-6.4-6
				c-3.2,0-6.2,1.3-9.2,4v-5.3c2.9-2.2,6.3-3.2,10.1-3.2c3.3,0,6,0.9,7.9,2.7c2,1.8,3,4.2,3,7.3c0,2.2-0.6,4.4-1.9,6.6
				c-1.2,2.2-3.4,4.8-6.5,7.8l-8,7.7v0.1h16.1V65.1z"/>
		</g>
	</g>
</g>
<g>
	<path class="st5" d="M42.6,50.9c0,0,0.2-0.1,0.7-0.3s1.1-0.5,2-0.7c0.4-0.1,0.9-0.3,1.5-0.4c0.5-0.1,1.1-0.2,1.7-0.3
		c0.6-0.1,1.3-0.2,2-0.2s1.5-0.1,2.3-0.1c1.6,0,3.3,0.1,5.1,0.4c1.8,0.3,3.6,0.8,5.5,1.4c1.9,0.7,3.7,1.5,5.6,2.5
		c1.8,1,3.5,2.3,5.2,3.6c1.6,1.4,3.1,2.9,4.4,4.5s2.5,3.3,3.5,5s1.8,3.4,2.5,5.1s1.2,3.3,1.6,4.8c0.2,0.8,0.3,1.5,0.5,2.2
		c0.1,0.7,0.2,1.4,0.3,2c0.1,1.3,0.2,2.4,0.2,3.3c0.1,0.9,0,1.6,0,2.1s0,0.7,0,0.7s0-0.3-0.1-0.7c-0.1-0.5-0.1-1.2-0.3-2.1
		c-0.1-0.9-0.4-2-0.6-3.2c-0.2-0.6-0.3-1.2-0.5-1.9c-0.2-0.7-0.4-1.4-0.6-2.1c-0.5-1.4-1.1-3-1.9-4.5c-0.7-1.6-1.6-3.1-2.6-4.7
		s-2.2-3.1-3.5-4.6s-2.7-2.9-4.2-4.2s-3.2-2.4-4.8-3.4c-1.7-1-3.4-1.9-5.2-2.5c-1.8-0.7-3.5-1.3-5.2-1.6c-1.7-0.4-3.3-0.6-4.8-0.8
		c-0.8,0-1.5-0.1-2.2-0.1s-1.3,0-2,0c-0.6,0-1.2,0.1-1.7,0.1s-1,0.1-1.5,0.2c-0.9,0.1-1.6,0.3-2.1,0.4
		C42.9,50.8,42.6,50.9,42.6,50.9z"/>
	<path class="st5" d="M85.1,94.8c0,0,0-0.3,0-0.8s0-1.3,0.1-2.2c0.1-0.9,0.3-2.1,0.6-3.4c0.3-1.3,0.8-2.7,1.4-4.3
		c1.2-3.1,3.2-6.4,5.8-9.6c0.7-0.9,1.3-1.6,2-2.4s1.5-1.6,2.2-2.3c0.8-0.7,1.6-1.5,2.4-2.2s1.7-1.4,2.5-2.1c1.8-1.3,3.6-2.6,5.4-3.7
		c0.9-0.6,1.9-1.1,2.8-1.6s1.9-1,2.8-1.4s1.9-0.8,2.8-1.2s1.8-0.7,2.7-1c0.9-0.3,1.8-0.6,2.6-0.8c0.9-0.2,1.7-0.4,2.5-0.6
		c0.8-0.2,1.6-0.3,2.3-0.5c0.7-0.1,1.4-0.2,2.1-0.3c1.3-0.2,2.5-0.2,3.4-0.3c1.9-0.1,3-0.1,3-0.1s-1.1,0.2-2.9,0.5
		c-0.9,0.2-2,0.4-3.3,0.7s-2.7,0.7-4.2,1.1c-0.8,0.2-1.6,0.5-2.4,0.8s-1.7,0.6-2.5,0.9c-0.9,0.3-1.7,0.7-2.6,1.1
		c-0.4,0.2-0.9,0.4-1.3,0.6c-0.4,0.2-0.9,0.4-1.3,0.7c-0.9,0.4-1.8,0.9-2.7,1.4c-0.9,0.5-1.8,1-2.7,1.6c-1.8,1.1-3.5,2.3-5.2,3.6
		c-0.8,0.6-1.7,1.3-2.5,2s-1.6,1.4-2.3,2.1c-0.7,0.7-1.5,1.4-2.2,2.2c-0.7,0.8-1.4,1.5-2.1,2.2c-2.6,3-4.7,6.1-6.1,8.9
		c-1.5,2.8-2.3,5.4-2.7,7.2c-0.2,0.9-0.4,1.6-0.4,2.1C85.1,94.5,85.1,94.8,85.1,94.8z"/>
	<g>
		<g>
			<path class="st7" d="M69.8,51.1c0.6,1.2,1.2,2.5,2.1,3.6c1.2,1.5,3.4,3.6,5.3,4.1c1.3-4.7-2.2-10.3-4.9-13.8
				c-1.6-2-3.4-3.8-5.5-5.3c-1.6-1.2-4.4-2-6-3.4C64.6,40.6,67.2,45.9,69.8,51.1z"/>
			<path class="st5" d="M69.8,51.1c0.4,0.8,0.8,1.6,1.3,2.4c0.5,0.8,1.1,1.4,1.7,2.1c0.7,0.6,1.4,1.2,2.1,1.7s1.5,0.9,2.3,1.1
				l-0.6,0.3l0.2-0.8l0.1-0.9v-0.9l-0.1-0.9c-0.1-0.6-0.2-1.2-0.3-1.8c-0.2-0.6-0.3-1.2-0.6-1.7c-0.4-1.1-1-2.2-1.6-3.3
				s-1.4-2-2.1-3c-1.5-1.9-3.4-3.6-5.4-5c-0.5-0.4-1-0.7-1.5-0.9c-0.5-0.3-1.1-0.5-1.7-0.8c-1.1-0.5-2.3-1-3.4-1.8l0.8-0.8
				c2,2.2,3.7,4.6,5,7.2C67.4,45.8,68.5,48.5,69.8,51.1z M69.7,51.2c-1.3-2.6-2.8-5.1-4.4-7.5c-0.8-1.2-1.6-2.4-2.4-3.6
				c-0.4-0.6-0.9-1.1-1.3-1.7c-0.4-0.6-0.9-1.1-1.4-1.6L61,36c0.9,0.7,2,1.3,3.1,1.8c0.6,0.3,1.1,0.6,1.7,0.9
				c0.6,0.3,1.1,0.7,1.6,1.1c2,1.6,3.6,3.5,5.1,5.5c0.8,1,1.4,2,2.1,3.1s1.3,2.1,1.9,3.2c0.3,0.6,0.5,1.1,0.7,1.7
				c0.2,0.6,0.4,1.2,0.5,1.8s0.2,1.3,0.2,1.9l-0.1,1c-0.1,0.3-0.1,0.6-0.2,1l-0.1,0.5L77,59.2c-1-0.3-1.8-0.8-2.5-1.4
				c-0.7-0.6-1.4-1.3-2-2C71.3,54.5,70.5,52.8,69.7,51.2z"/>
		</g>
		<path class="st5" d="M76.9,58.9c-0.8-0.5-3.3-3-3.5-3.3c-1-1.2-2.1-2.5-3-3.9c-0.8-1.4-1.5-2.9-2.1-4.4c-0.6-1.3-1.2-2.5-2-3.7
			c-0.4-0.5-0.8-1-1.2-1.5c-0.5-0.6-0.8-1.5-1.3-2.1c1.1,1.3,2.5,2.5,3.5,3.9c0.9,1.3,1.7,2.6,2.6,3.9c1.1,1.7,1.8,3.5,3,5.1
			c1.3,1.6,2.7,3.1,4,4.7c0.3,0.4,0.6,0.9,0.4,1.3C77.1,59,77,59,76.9,58.9z"/>
		<path class="st5" d="M64.1,39.5c0,0,1,1,2.4,2.6c0.7,0.8,1.6,1.7,2.5,2.7c0.4,0.5,0.9,1,1.3,1.6c0.5,0.5,0.9,1.1,1.3,1.7
			c0.8,1.2,1.6,2.3,2.3,3.5c0.6,1.2,1.2,2.3,1.7,3.2c1,1.9,1.7,3.1,1.7,3.1l-1,0.5c0,0-0.6-1.3-1.5-3.2c-0.5-1-1-2.1-1.6-3.3
			s-1.3-2.4-2.1-3.6c-0.4-0.6-0.8-1.2-1.2-1.7c-0.4-0.5-0.9-1.1-1.3-1.6c-0.9-1-1.7-2-2.3-2.8C65,40.6,64.1,39.5,64.1,39.5z"/>
		<polygon class="st5" points="71,48.8 76.3,56.3 75.3,56.9 		"/>
		<path class="st5" d="M71,45.2c0,0,0.7,0.6,1.5,1.7c0.4,0.5,0.9,1.2,1.3,1.9c0.5,0.7,0.9,1.5,1.3,2.4c0.8,1.7,1.3,3.4,1.7,4.8
			c0.3,1.4,0.2,2.3,0.2,2.3s0-0.2-0.1-0.6c-0.1-0.4-0.2-0.9-0.4-1.6c-0.2-0.6-0.5-1.4-0.8-2.2s-0.6-1.6-1-2.4
			c-0.8-1.6-1.7-3.2-2.4-4.3C71.5,45.9,71,45.2,71,45.2z"/>
	</g>
	<g>
		<g>
			<path class="st7" d="M76.7,84.3c0.6,1.2,1.2,2.5,2.1,3.6c1.2,1.5,3.4,3.6,5.3,4.1c1.3-4.7-2.2-10.3-4.9-13.8
				c-1.6-2-3.4-3.8-5.5-5.3c-1.6-1.2-4.4-2-6-3.4C71.5,73.8,74.1,79.1,76.7,84.3z"/>
			<path class="st5" d="M76.8,84.3c0.4,0.8,0.8,1.6,1.3,2.4s1.1,1.4,1.7,2.1c0.7,0.6,1.4,1.2,2.1,1.7s1.5,0.9,2.3,1.1l-0.6,0.3
				l0.2-0.8l0.1-0.9v-0.9l-0.1-0.9c-0.1-0.6-0.2-1.2-0.3-1.8c-0.2-0.6-0.3-1.2-0.6-1.7c-0.4-1.1-1-2.2-1.6-3.3c-0.6-1.1-1.4-2-2.1-3
				c-1.5-1.9-3.4-3.6-5.4-5c-0.5-0.4-1-0.7-1.5-0.9c-0.5-0.3-1.1-0.5-1.7-0.8c-1.1-0.5-2.3-1-3.4-1.8l0.8-0.8c2,2.2,3.7,4.6,5,7.2
				C74.4,79,75.5,81.7,76.8,84.3z M76.7,84.3c-1.3-2.6-2.8-5.1-4.4-7.5c-0.8-1.2-1.6-2.4-2.4-3.6c-0.4-0.6-0.9-1.1-1.3-1.7
				s-0.9-1.1-1.4-1.6l0.8-0.8c0.9,0.7,2,1.3,3.1,1.8c0.6,0.3,1.1,0.6,1.7,0.9s1.1,0.7,1.6,1.1c2,1.6,3.6,3.5,5.1,5.5
				c0.8,1,1.4,2,2.1,3.1s1.3,2.1,1.9,3.2c0.3,0.6,0.5,1.1,0.7,1.7s0.4,1.2,0.5,1.8c0.1,0.6,0.2,1.3,0.2,1.9l-0.1,1
				c-0.1,0.3-0.1,0.6-0.2,1l-0.1,0.5L84,92.4c-1-0.3-1.8-0.8-2.5-1.4s-1.4-1.3-2-2C78.2,87.6,77.5,86,76.7,84.3z"/>
		</g>
		<path class="st5" d="M83.9,92c-0.8-0.5-3.3-3-3.5-3.3c-1-1.2-2.1-2.5-3-3.9c-0.8-1.4-1.5-2.9-2.1-4.4c-0.6-1.3-1.2-2.5-2-3.7
			c-0.4-0.5-0.8-1-1.2-1.5c-0.5-0.6-0.8-1.5-1.3-2.1c1.1,1.3,2.5,2.5,3.5,3.9c0.9,1.3,1.7,2.6,2.6,3.9c1.1,1.7,1.8,3.5,3,5.1
			c1.3,1.6,2.7,3.1,4,4.7c0.3,0.4,0.6,0.9,0.4,1.3C84.1,92.2,84,92.1,83.9,92z"/>
		<path class="st5" d="M71.1,72.7c0,0,1,1,2.4,2.6c0.7,0.8,1.6,1.7,2.5,2.7c0.4,0.5,0.9,1,1.3,1.6c0.5,0.5,0.9,1.1,1.3,1.7
			c0.8,1.2,1.6,2.3,2.3,3.5c0.6,1.2,1.2,2.3,1.7,3.2c1,1.9,1.7,3.1,1.7,3.1l-1,0.5c0,0-0.6-1.3-1.5-3.2c-0.5-1-1-2.1-1.6-3.3
			c-0.6-1.2-1.3-2.4-2.1-3.6c-0.4-0.6-0.8-1.2-1.2-1.7c-0.4-0.5-0.9-1.1-1.3-1.6c-0.9-1-1.7-2-2.3-2.8C72,73.8,71.1,72.7,71.1,72.7z
			"/>
		<polygon class="st5" points="78,81.9 83.2,89.5 82.3,90 		"/>
		<path class="st5" d="M77.9,78.4c0,0,0.7,0.6,1.5,1.7c0.4,0.5,0.9,1.2,1.3,1.9c0.5,0.7,0.9,1.5,1.3,2.4c0.8,1.7,1.3,3.4,1.7,4.8
			c0.3,1.4,0.2,2.3,0.2,2.3s0-0.2-0.1-0.6s-0.2-0.9-0.4-1.6c-0.2-0.6-0.5-1.4-0.8-2.2c-0.3-0.8-0.6-1.6-1-2.4
			c-0.8-1.6-1.7-3.2-2.4-4.3C78.4,79.1,77.9,78.4,77.9,78.4z"/>
	</g>
	<g>
		<g>
			<path class="st7" d="M75.2,29.4c-0.9,3.4-2.2,6.6-2.6,10.1c-0.7,5.3,0.7,10.8,3.8,15.1c0.3,0.4,0.7,0.9,1.3,0.8
				c0.4-0.1,0.7-0.5,0.8-0.9c3.2-6.5,3.2-15.1,2.7-22.2c-0.2-3.3-0.7-6.7-1.4-9.9c-0.3-1.6-0.7-3.1-1.2-4.6c-0.3-1-1.4-2.6-1.4-3.6
				C77.3,19.3,76.6,24.4,75.2,29.4z"/>
			<path class="st5" d="M75.3,29.4l-1.2,4.2c-0.4,1.4-0.7,2.8-0.9,4.3c-0.4,2.9-0.3,5.8,0.3,8.6c0.3,1.4,0.7,2.8,1.3,4.1
				c0.5,1.3,1.2,2.6,2,3.8c0.2,0.3,0.4,0.5,0.7,0.7c0.2,0.1,0.5,0,0.7-0.2c0.4-0.5,0.7-1.3,1-1.9c0.6-1.3,1-2.7,1.3-4.2
				c0.6-2.9,0.8-5.8,0.8-8.7s-0.2-5.8-0.4-8.8c-0.2-2.9-0.7-5.8-1.3-8.6c-0.3-1.4-0.6-2.8-1.1-4.2c-0.2-0.7-0.5-1.3-0.8-2
				c-0.3-0.7-0.6-1.4-0.7-2.3h1c0,2.6-0.3,5.1-0.8,7.7c-0.2,1.3-0.5,2.5-0.8,3.8C76,26.9,75.6,28.2,75.3,29.4z M75.2,29.4
				c0.7-2.5,1.1-5,1.4-7.5c0.1-1.3,0.2-2.5,0.2-3.8s0.1-2.5,0-3.8h1c0,0.5,0.4,1.2,0.7,1.8c0.3,0.6,0.7,1.4,0.9,2.1
				c0.5,1.4,0.8,2.9,1.1,4.3c0.6,2.9,1,5.8,1.2,8.8c0.1,1.5,0.1,2.9,0.2,4.4c0,1.5,0,3-0.1,4.4c-0.1,1.5-0.2,2.9-0.4,4.4
				c-0.2,1.5-0.4,2.9-0.8,4.4c-0.4,1.4-0.7,2.9-1.3,4.3c-0.1,0.4-0.3,0.7-0.4,1s-0.3,0.7-0.5,1c-0.1,0.2-0.3,0.3-0.6,0.4
				c-0.2,0.1-0.5,0.1-0.7,0c-0.4-0.2-0.7-0.5-1-0.8c-0.9-1.2-1.7-2.5-2.3-3.8c-0.6-1.4-1.1-2.8-1.4-4.3c-0.7-2.9-0.5-6,0.1-8.9
				c0.3-1.4,0.8-2.9,1.3-4.2C74.3,32.2,74.8,30.8,75.2,29.4z"/>
		</g>
		<path class="st5" d="M81.3,32.6c-0.3-3.5-0.8-6.9-1.5-10.4c-0.4-1.8-0.9-5.3-2.7-6.3c-0.1,0.7,0.4,1.5,0.6,2.1
			c0.4,1,0.7,2.1,0.9,3.2c0.5,2.5,0.6,5,0.7,7.5c-0.1,1,0,2,0,3c0,0.6,0.3,2.1-0.2,2.5c-0.2-1.3-0.3-2.7-0.4-4.1
			c-0.3,2.2-0.1,4.3-0.1,6.5c0.1,4-0.2,7.9-0.1,11.8c0,0.9-0.1,1.7-0.4,2.6c-0.3,0.9-0.4,1.7-0.4,2.6c0,0.3,0.1,1.6-0.1,1.7
			c0.7-0.7,1.1-1.6,1.5-2.5c1.9-4.9,2.3-10.2,2.3-15.3C81.5,35.9,81.5,34.3,81.3,32.6z"/>
		<path class="st5" d="M77.5,18.7c0,0,0.1,0.6,0.2,1.5c0.1,1,0.3,2.4,0.5,4.1c0.1,1.7,0.2,3.7,0.2,5.8s0,4.4,0,6.6
			c0,2.2-0.1,4.5-0.1,6.6s-0.1,4.1-0.1,5.8c-0.1,3.4-0.2,5.6-0.2,5.6s0-2.2-0.1-5.6c0-1.7,0-3.7,0-5.8s0-4.4,0-6.6
			c0-2.2,0-4.5,0.1-6.6c0-2.1,0-4.1-0.1-5.8C77.7,20.9,77.5,18.7,77.5,18.7z"/>
		<path class="st5" d="M77.7,27.2c0,0-0.1,1.8-0.4,4.4c-0.2,2.7-0.5,6.2-0.5,9.7c-0.1,3.6,0,7.1,0.3,9.7c0.2,1.3,0.4,2.4,0.6,3.1
			c0.2,0.7,0.3,1.1,0.3,1.1l-1,0.3c0,0-0.1-0.4-0.3-1.2c-0.2-0.8-0.4-1.9-0.5-3.2c-0.3-2.7-0.2-6.3,0-9.8c0.2-3.6,0.6-7.1,0.9-9.7
			C77.5,29,77.7,27.2,77.7,27.2z"/>
		<path class="st5" d="M75.7,35.9c0,0-0.1,1.2-0.1,3.1c-0.1,1.8,0,4.3,0.2,6.7s0.7,4.8,1.2,6.6c0.2,0.9,0.5,1.6,0.7,2.1
			s0.3,0.8,0.3,0.8l-1,0.4c0,0-0.1-0.3-0.3-0.8c-0.2-0.5-0.4-1.3-0.6-2.2c-0.4-1.8-0.7-4.3-0.8-6.8c-0.1-2.5,0-4.9,0.2-6.8
			C75.5,37.1,75.7,35.9,75.7,35.9z"/>
		<path class="st5" d="M75.9,33.6c0,0,0,0.1,0,0.2c0,0.1,0,0.3,0,0.4c0,0.2-0.1,0.3-0.1,0.4c-0.1,0.1-0.1,0.2-0.1,0.2s0-0.1,0-0.2
			c0-0.1,0-0.3,0-0.4c0-0.2,0.1-0.3,0.1-0.4C75.8,33.7,75.9,33.6,75.9,33.6z"/>
		<path class="st5" d="M74.4,36.1c0,0-0.1,0.3-0.1,0.8c-0.1,0.5-0.2,1.3-0.2,2.2c-0.1,1.9,0.1,4.3,0.6,6.7s1.2,4.8,1.9,6.5
			c0.7,1.7,1.2,2.8,1.2,2.8l-1,0.4c0,0-0.5-1.2-1.1-2.9c-0.6-1.8-1.2-4.2-1.5-6.7c-0.4-2.5-0.4-5-0.2-6.8c0.1-0.9,0.2-1.7,0.3-2.2
			C74.4,36.4,74.4,36.1,74.4,36.1z"/>
	</g>
	<g>
		<g>
			<path class="st7" d="M60.1,48.3c-0.2-0.2-0.3-0.4-0.4-0.6c-3.8-6.1-10.1-10.4-13.1-17.1c-2.7-5.9-4.4-12-7.6-17.6
				c-1.7-2.9-3.3-5.9-5-8.8c2.5,2.5,5.5,4.3,7.9,6.8c2.5,2.7,5,5.4,7.3,8.2c4.2,5.1,7.5,10.9,9.8,17.1c1.1,3,2.1,6.1,2.7,9.3
				c0.1,0.6,1.2,4.2,0.6,4.6C61.7,50.9,60.5,48.8,60.1,48.3z"/>
			<path class="st5" d="M60.1,48.3c-0.6-0.9-1.2-1.8-1.8-2.6c-0.7-0.8-1.3-1.7-2.1-2.5c-1.5-1.6-3-3.1-4.4-4.7
				c-0.7-0.8-1.5-1.6-2.2-2.4c-0.7-0.8-1.3-1.7-1.9-2.7c-0.6-0.9-1.1-1.9-1.6-2.9c-0.4-1-0.8-2-1.2-3c-0.8-2-1.5-4-2.2-6.1
				c-0.7-2-1.5-4-2.4-6c-0.5-1-1-1.9-1.5-2.9c-0.5-0.9-1-1.9-1.6-2.8C36.1,8,35,6.1,33.9,4.3L33,2.8L34.3,4c1.8,1.7,3.8,3.1,5.7,4.6
				c1,0.8,1.9,1.6,2.8,2.5l2.6,2.7c1.7,1.8,3.3,3.6,4.9,5.6c1.6,1.9,3,4,4.3,6.1s2.5,4.3,3.5,6.6s1.9,4.6,2.6,7
				c0.3,1.2,0.7,2.4,0.9,3.6c0.3,1.2,0.5,2.4,0.7,3.6c0.1,0.6,0.3,1.2,0.4,1.8c0.1,0.6,0.2,1.2,0.2,1.9c0,0.4-0.5,0.6-0.8,0.5
				s-0.6-0.3-0.8-0.6C60.8,49.4,60.4,48.8,60.1,48.3z M60.2,48.3c0.3,0.5,0.7,1,1.1,1.5c0.2,0.2,0.4,0.4,0.7,0.5s0.5-0.1,0.6-0.3
				c0-1.2-0.3-2.4-0.7-3.6c-0.3-1.2-0.6-2.4-0.9-3.6c-0.3-1.2-0.7-2.3-1.1-3.5c-0.8-2.3-1.7-4.6-2.8-6.8c-1-2.2-2.2-4.4-3.5-6.4
				c-1.3-2.1-2.7-4.1-4.2-6s-3.1-3.8-4.8-5.6l-2.5-2.7c-0.8-0.9-1.7-1.7-2.6-2.5c-1.8-1.6-3.8-3.1-5.6-4.9L34.3,4
				c1,1.9,2.1,3.8,3.1,5.7s2.2,3.7,3.1,5.7c1,1.9,1.9,3.9,2.7,5.9l2.4,6c0.4,1,0.8,2,1.3,2.9l0.7,1.4c0.3,0.5,0.5,0.9,0.8,1.4
				c0.6,0.9,1.1,1.8,1.8,2.6c0.6,0.9,1.3,1.7,2,2.5c1.4,1.7,2.8,3.3,4.2,4.9c0.7,0.8,1.4,1.7,2,2.5C59,46.5,59.6,47.4,60.2,48.3z"/>
		</g>
		<path class="st5" d="M61.7,50.2L61.7,50.2C61.4,50,61,49,60.8,48.5c-0.4-0.7-0.7-1.4-1-2.1c-0.7-1.8-1.7-3.4-2.6-5.1
			c-1.4-2.7-2.8-5.4-4-8.1c-1.2-2.8-3.3-5.1-4.5-7.9c0.7,1.6,1.4,3.1,2.2,4.6c0.7,1.4,1.6,2.7,1.9,4.2c-1.6-2.3-3.1-4.6-4.4-7
			c-1.2-2.2-2-4.6-3.8-6.4c-1.1-1.1-1.8-2.7-2.5-4c-0.7-1.2-1.4-2.8-2.2-3.9c2.2,2.8,4.4,5.7,6.6,8.6c-1.5-2.6-3.2-5.2-5-7.6
			s-4-4.5-5.7-7c1.1,1,1.8,3.2,2.5,4.6c0.8,1.6,1.6,3.2,2.3,4.9c1.5,3.2,2.8,6.4,4,9.7c1,2.7,1.9,5.4,3.5,7.8c0.9,1.3,2,2.4,3.1,3.5
			c3.2,3.4,6.5,7.1,9.1,11C60.6,49,61.1,49.7,61.7,50.2z"/>
		<path class="st5" d="M34.7,5c0,0,2.2,2.5,5.4,6.3s7.4,9,10.6,14.9c1.6,2.9,3,6,4.3,8.8c1.4,2.8,2.6,5.4,3.7,7.6
			C61,47,62.5,50,62.5,50l-1,0.5c0,0-1.4-3-3.5-7.5c-1.1-2.3-2.3-4.9-3.6-7.7s-2.6-5.9-4.1-8.8c-3.1-5.8-7.2-11.1-10.3-15
			C36.8,7.5,34.7,5,34.7,5z"/>
		<path class="st5" d="M51.4,25.8c0,0,0.2,0.3,0.6,0.9c0.4,0.6,0.9,1.4,1.5,2.4s1.3,2.2,1.9,3.5c0.7,1.3,1.3,2.7,2,4.1
			c0.6,1.4,1.2,2.9,1.7,4.2c0.5,1.4,0.9,2.7,1.3,3.8c0.4,1.1,0.6,2.1,0.8,2.7c0.2,0.7,0.3,1,0.3,1S60.9,47,60,44.8
			c-0.4-1.1-1-2.3-1.5-3.7c-0.6-1.3-1.2-2.8-1.8-4.2s-1.3-2.8-1.9-4.1c-0.6-1.3-1.2-2.6-1.7-3.6C52.1,27.2,51.4,25.8,51.4,25.8z"/>
		<path class="st5" d="M37.1,7.6c0,0,0.4,0.3,1.1,0.8c0.7,0.6,1.6,1.4,2.6,2.5s2.2,2.3,3.5,3.7c0.6,0.7,1.3,1.4,1.9,2.1
			c0.7,0.7,1.3,1.5,1.9,2.2c1.2,1.6,2.4,3.2,3.4,4.7c1,1.5,1.9,3,2.7,4.3c0.7,1.3,1.3,2.4,1.7,3.2c0.4,0.8,0.6,1.2,0.6,1.2
			s-0.3-0.4-0.7-1.2c-0.4-0.7-1.1-1.8-1.9-3C53,26.9,52,25.5,51,24c-1.1-1.5-2.2-3.1-3.5-4.6c-0.6-0.8-1.2-1.5-1.9-2.3
			c-0.6-0.7-1.3-1.5-1.9-2.2c-1.2-1.4-2.3-2.7-3.3-3.9c-1-1.1-1.8-2.1-2.4-2.7C37.5,7.9,37.1,7.6,37.1,7.6z"/>
		<path class="st5" d="M57.2,34c0,0,0.1,0.2,0.4,0.6c0.2,0.4,0.5,1,0.9,1.7c0.3,0.7,0.7,1.5,1.1,2.5c0.4,0.9,0.7,1.9,1.1,2.9
			c0.3,1,0.6,2,0.9,3c0.3,1,0.4,1.9,0.6,2.6c0.2,0.8,0.2,1.4,0.3,1.9s0.1,0.7,0.1,0.7s-0.4-1-0.9-2.5C61.2,46,60.5,44,59.9,42
			c-0.7-2-1.3-4-1.8-5.5C57.5,35.1,57.2,34,57.2,34z"/>
	</g>
	<g>
		<g>
			<path class="st7" d="M49.3,88.5c4.4-9.7,6.4-20.1,8.2-30.5c0.3-1.9,3.1-8.5-1-7.5c-3,0.7-4.7,5.1-5.6,7.6
				c-1.4,3.6-1.8,7.5-1.9,11.3C48.9,75.8,49.9,82.2,49.3,88.5z"/>
			<path class="st5" d="M49.4,88c0-0.1,0.1-0.2,0.1-0.4c0.2-0.6,0.5-1.4,0.9-2.4c0.4-1.1,0.8-2.3,1.3-3.8c0.4-1.5,1-3.1,1.4-5
				c0.5-1.8,1-3.8,1.5-6c0.5-2.1,1.1-4.4,1.5-6.7c0.2-1.2,0.5-2.3,0.7-3.6c0.2-1.2,0.4-2.4,0.8-3.7c0.3-1.2,0.7-2.4,0.8-3.7
				c0-0.6,0-1.3-0.2-1.7c-0.3-0.5-0.8-0.5-1.4-0.4c-1.2,0.2-2.1,1.1-2.8,2c-0.7,1-1.3,2.1-1.8,3.2c-1,2.3-1.7,4.6-2.1,6.9
				c-0.8,4.6-0.6,9.1-0.5,12.9c0.1,1.9,0.1,3.7,0.1,5.2c0,1.6,0,2.9-0.1,4s-0.2,2-0.2,2.6C49.4,87.7,49.4,87.9,49.4,88z M49.2,88.5
				c0,0,0-0.3,0-0.9s0-1.5,0-2.6s-0.1-2.5-0.2-4c-0.1-1.5-0.3-3.3-0.4-5.2c-0.1-1.9-0.3-4-0.3-6.2s0.1-4.6,0.6-6.9
				c0.4-2.4,1.3-4.8,2.3-7.1c0.5-1.2,1.2-2.3,2-3.3c0.4-0.5,0.9-1,1.5-1.4c0.3-0.2,0.6-0.4,0.9-0.5c0.2-0.1,0.3-0.1,0.5-0.2
				c0.1,0,0.4-0.1,0.5-0.1c0.3,0,0.7-0.1,1.1,0c0.4,0.1,0.7,0.4,0.9,0.7c0.3,0.7,0.3,1.4,0.2,2c-0.1,1.3-0.5,2.5-0.9,3.7
				s-0.5,2.4-0.7,3.6c-0.2,1.2-0.4,2.4-0.6,3.6c-0.4,2.4-0.7,4.6-1.2,6.8c-0.4,2.1-1,4.2-1.5,6s-1.1,3.5-1.6,5s-1,2.7-1.5,3.7
				S50,87,49.7,87.5L49.2,88.5L49.2,88.5z"/>
		</g>
		<path class="st5" d="M51.5,76.2c-0.2,3.4-0.3,7.2-1.5,10.5c0.4-1.2,1.2-2.3,1.5-3.5s0.6-2.3,0.9-3.5c0.6-2,1-4.1,1.3-6.1
			c0.2-1.6,0.5-3.2,0.7-4.9c0.2-1.2,0.4-2.5,0.7-3.7c1-4.5,3.5-9,3.4-13.7c0-0.2,0-0.4-0.1-0.6c-0.2-0.3-0.6-0.2-0.9-0.1
			c-0.3,0.2-0.4,0.5-0.6,0.8c-1.3,2.8-2.7,5.7-3.5,8.7c-0.8,3.1-1.3,6.3-1.5,9.5C51.8,71.8,51.6,74,51.5,76.2z"/>
		<path class="st5" d="M57.7,50.4c0,0-0.4,0.3-0.9,0.8c-0.6,0.6-1.2,1.5-1.9,2.7c-1.3,2.4-2.3,5.9-2.6,9.5c-0.2,1.8-0.3,3.6-0.4,5.3
			c-0.1,1.7-0.1,3.3-0.2,4.6c-0.1,2.7-0.2,4.5-0.2,4.5s-0.1-1.8-0.2-4.5c0-1.4,0-3,0-4.7c0.1-1.7,0.1-3.5,0.3-5.3s0.5-3.6,1-5.3
			s1.2-3.1,1.9-4.3c0.4-0.6,0.7-1.1,1.1-1.5c0.4-0.4,0.7-0.8,1-1C57.3,50.7,57.7,50.4,57.7,50.4z"/>
		<path class="st5" d="M52.5,56.9c0,0-0.2,0.5-0.4,1.3s-0.5,2-0.8,3.4c-0.5,2.8-0.7,6.7-0.6,10.5c0,1.9,0,3.8,0,5.6
			c0,1.8-0.1,3.5-0.3,4.9C50.3,84,50,85.2,49.8,86c-0.2,0.8-0.3,1.3-0.3,1.3s0.1-0.5,0.2-1.3c0.1-0.8,0.2-2,0.3-3.5
			c0.2-2.9,0.1-6.7,0.1-10.5c0-1.9,0-3.8,0.2-5.7c0.1-1.8,0.4-3.5,0.7-4.9s0.7-2.6,1-3.3C52.3,57.4,52.5,56.9,52.5,56.9z"/>
		<path class="st5" d="M52.7,58.9c0,0-0.1,0.4-0.3,1.2c-0.1,0.4-0.2,0.8-0.3,1.4c-0.1,0.5-0.2,1.1-0.3,1.8c-0.5,2.6-0.6,6.2-0.7,9.7
			c-0.1,3.5-0.2,7.1-0.5,9.7c-0.1,0.7-0.2,1.3-0.3,1.8s-0.2,1-0.3,1.4c-0.2,0.8-0.3,1.2-0.3,1.2s0.1-0.4,0.2-1.2
			c0.1-0.8,0.3-1.9,0.4-3.2c0.3-2.6,0.4-6.2,0.4-9.7c0.1-3.5,0.3-7.1,0.8-9.7c0.1-0.7,0.2-1.3,0.4-1.8c0.1-0.5,0.2-1,0.4-1.4
			C52.6,59.3,52.7,58.9,52.7,58.9z"/>
		<path class="st5" d="M57.7,50.7c0,0-0.4,0.2-0.9,0.5S55.6,52,55,52.6c-0.6,0.6-1.1,1.3-1.5,1.8c-0.3,0.5-0.5,0.9-0.5,0.9
			s0.2-0.4,0.5-1s0.8-1.3,1.4-2c0.6-0.7,1.2-1.2,1.8-1.6c0.5-0.4,0.9-0.6,0.9-0.6L57.7,50.7z"/>
	</g>
	<g>
		<g>
			<path class="st7" d="M51.8,80.8c0.6-5.3,0.5-10.8,2-16c1.2-4.3,4.5-10.2,9.1-11.5c0.5-0.1,1.2-0.2,1.5,0.2
				c0.2,0.2,0.2,0.5,0.3,0.8c0.5,5-2.3,9.6-5.6,12.9C55.3,71,53,75.7,51.8,80.8z"/>
			<path class="st5" d="M51.7,80.8c0,0,0-1,0.1-2.7c0-0.9,0.1-1.9,0.1-3.1s0.1-2.6,0.3-4.1c0.1-1.5,0.4-3.1,0.8-4.8
				c0.4-1.7,1.1-3.4,2-5.1c0.9-1.7,2-3.3,3.3-4.8c0.7-0.7,1.4-1.4,2.3-2c0.8-0.6,1.7-1,2.8-1.2c0.3,0,0.6,0,0.9,0.2s0.5,0.5,0.6,0.8
				s0.1,0.6,0.1,0.8c0,0.3,0.1,0.5,0.1,0.8c0,1.1-0.1,2.1-0.3,3.1c-0.4,2-1.3,3.8-2.3,5.4c-1,1.6-2.3,3-3.5,4.2s-2.1,2.5-3,3.7
				c-1.6,2.5-2.6,4.7-3.2,6.4c-0.3,0.8-0.5,1.5-0.7,1.9l-0.3,1L51.7,80.8z M51.7,80.8c0,0,0.1-1,0.6-2.7s1.2-4.1,2.8-6.7
				c0.8-1.3,1.7-2.7,2.9-4c0.6-0.6,1.2-1.2,1.8-1.9c0.6-0.7,1.1-1.4,1.6-2.1c1-1.5,1.9-3.2,2.3-5c0.2-0.9,0.4-1.9,0.4-2.8
				c0-0.4,0-1,0-1.4c-0.1-0.4-0.3-0.5-0.8-0.5c-0.9,0.1-1.8,0.5-2.7,1c-0.8,0.5-1.6,1.1-2.2,1.9c-1.3,1.4-2.3,3.1-3,4.8
				c-0.8,1.7-1.2,3.4-1.6,5c-0.4,1.6-0.6,3.2-0.8,4.7c-0.3,2.9-0.6,5.4-0.8,7.2C52,80,51.8,81,51.8,81L51.7,80.8z"/>
		</g>
		<path class="st5" d="M64.4,53.6c-5.8,5.9-8.5,14-10.7,22c0.9-2.4,2.2-4.6,3.7-6.6s3.2-3.8,4.5-5.8C63.6,60.3,64.5,56.9,64.4,53.6z
			"/>
		<path class="st5" d="M64.2,53.7c0,0-0.4,0.1-1,0.4c-0.6,0.3-1.3,0.9-2.1,1.8c-1.5,1.7-3,4.4-4,7.3c-0.5,1.4-1,2.9-1.3,4.3
			c-0.4,1.4-0.7,2.7-1,3.8c-0.6,2.2-1.1,3.7-1.1,3.7s0.3-1.5,0.8-3.8c0.3-1.1,0.5-2.4,0.9-3.8c0.3-1.4,0.8-2.9,1.3-4.3
			c0.5-1.5,1.2-2.9,1.9-4.1c0.7-1.3,1.6-2.3,2.4-3.2c0.8-0.8,1.7-1.4,2.3-1.7c0.3-0.1,0.6-0.2,0.7-0.3
			C64.1,53.7,64.2,53.7,64.2,53.7z"/>
		<path class="st5" d="M63.9,53.7c0,0-0.9,0.7-2,2c-0.5,0.7-1.2,1.5-1.7,2.4s-1,2-1.4,3.1s-0.8,2.2-1.1,3.2s-0.7,2-0.9,2.8
			c-0.6,1.6-1,2.7-1,2.7s0.3-1.1,0.8-2.8c0.3-0.8,0.6-1.8,0.9-2.8c0.3-1,0.6-2.1,1-3.2c0.5-1.1,1-2.2,1.5-3.1
			c0.6-0.9,1.2-1.7,1.7-2.4c0.6-0.7,1.1-1.1,1.5-1.5C63.7,53.8,63.9,53.7,63.9,53.7z"/>
		<path class="st5" d="M59.3,56.6c0,0-0.2,0.3-0.6,0.8c-0.3,0.5-0.8,1.2-1.3,2.2c-1,1.8-2.1,4.4-2.8,7.1c-0.8,2.7-1.3,5.4-1.6,7.5
			s-0.6,3.4-0.6,3.4s0.1-1.4,0.4-3.5c0.3-2.1,0.8-4.8,1.5-7.5c0.8-2.7,1.9-5.3,2.9-7.1c0.5-0.9,1-1.6,1.4-2.1
			C59.1,56.9,59.3,56.6,59.3,56.6z"/>
		<path class="st5" d="M57.2,61.4c0,0-0.4,1-1,2.6c-0.6,1.5-1.2,3.6-1.7,5.8c-0.5,2.1-0.9,4.3-1.1,5.9c-0.2,1.6-0.3,2.7-0.3,2.7
			l-0.5-0.1c0,0,0.1-1.1,0.4-2.7c0.3-1.6,0.7-3.8,1.3-5.9s1.3-4.2,1.9-5.7C56.7,62.4,57.2,61.4,57.2,61.4z"/>
	</g>
	<g>
		<g>
			<path class="st7" d="M78.4,64.2c-1.3-1.5-3.4-2-5.4-2.3c-2.7-0.4-5.6-0.5-7.9,1c3.9,1.8,8.3,2.6,12.6,2.1c0.2,0,0.5-0.1,0.6-0.2
				C78.5,64.7,78.6,64.4,78.4,64.2z"/>
			<path class="st5" d="M78.4,64.3c-0.4-0.4-0.9-0.8-1.4-1s-1.1-0.4-1.7-0.5c-1.1-0.2-2.3-0.3-3.4-0.5s-2.3-0.4-3.5-0.3
				c-0.6,0.1-1.1,0.2-1.7,0.4c-0.5,0.2-1,0.5-1.5,0.9v-0.5c1.1,0.4,2.2,0.7,3.4,1c1.1,0.3,2.3,0.5,3.4,0.7c0.6,0.1,1.2,0.2,1.7,0.2
				l1.8,0.2c0.6,0.1,1.2,0.1,1.8,0.1c0.3,0,0.6,0,0.9-0.1C78.4,64.8,78.6,64.5,78.4,64.3L78.4,64.3L78.4,64.3z M78.4,64.2
				c0.3,0.3,0.1,0.7-0.2,0.8c-0.3,0.1-0.6,0.1-0.9,0.2c-0.6,0.1-1.2,0.2-1.8,0.3c-1.2,0.2-2.4,0.1-3.7,0c-0.6-0.1-1.2-0.2-1.8-0.3
				c-0.6-0.1-1.2-0.3-1.8-0.5c-1.2-0.4-2.3-0.9-3.3-1.5l-0.5-0.3l0.4-0.2c1.1-0.6,2.3-0.9,3.4-1.1c1.2-0.2,2.4-0.3,3.6-0.2
				c0.6,0,1.2,0.1,1.8,0.2c0.6,0.1,1.2,0.3,1.7,0.6C76.7,62.6,77.7,63.3,78.4,64.2L78.4,64.2z"/>
		</g>
		<path class="st5" d="M65.3,62.8c4.4,1,9.2,0.2,13.3,2.1C74.1,66,69.2,65.2,65.3,62.8z"/>
		<path class="st5" d="M68.4,62.7c0,0,0.6-0.1,1.5-0.1s2.2,0.1,3.4,0.3c1.2,0.3,2.4,0.6,3.3,1s1.4,0.7,1.4,0.7s-2.3-0.9-4.7-1.4
			C70.9,62.8,68.4,62.7,68.4,62.7z"/>
		<path class="st5" d="M74.8,63c0,0,1,0.2,1.9,0.6c1,0.4,1.8,0.9,1.8,0.9L78.2,65c0,0-0.8-0.6-1.6-1.1C75.7,63.3,74.8,63,74.8,63z"
			/>
	</g>
	<g>
		<g>
			<path class="st7" d="M75.3,86c-1.3-1.5-3.4-2-5.4-2.3c-2.7-0.4-5.6-0.5-7.9,1c3.9,1.8,8.3,2.6,12.6,2.1c0.2,0,0.5-0.1,0.6-0.2
				C75.4,86.4,75.5,86.1,75.3,86z"/>
			<path class="st5" d="M75.2,86c-0.4-0.4-0.9-0.8-1.4-1s-1.1-0.4-1.7-0.5c-1.1-0.2-2.3-0.3-3.4-0.5s-2.3-0.4-3.5-0.3
				c-0.6,0.1-1.1,0.2-1.7,0.4c-0.5,0.2-1,0.5-1.5,0.9v-0.5c1.1,0.4,2.2,0.7,3.4,1c1.1,0.3,2.3,0.5,3.4,0.7c0.6,0.1,1.2,0.2,1.7,0.2
				l1.7,0.2c0.6,0.1,1.2,0.1,1.8,0.1c0.3,0,0.6,0,0.9-0.1C75.3,86.6,75.4,86.2,75.2,86L75.2,86L75.2,86z M75.3,85.9
				c0.3,0.3,0.1,0.7-0.2,0.8c-0.3,0.1-0.6,0.1-0.9,0.2c-0.6,0.1-1.2,0.2-1.8,0.3c-1.2,0.2-2.4,0.1-3.7,0c-0.6-0.1-1.2-0.2-1.8-0.3
				c-0.6-0.1-1.2-0.3-1.8-0.5c-1.2-0.4-2.3-0.9-3.3-1.5l-0.5-0.3l0.4-0.2c1.1-0.6,2.3-0.9,3.4-1.1c1.2-0.2,2.4-0.3,3.6-0.2
				c0.6,0,1.2,0.1,1.8,0.2c0.6,0.1,1.2,0.3,1.7,0.6C73.5,84.3,74.5,85.1,75.3,85.9L75.3,85.9z"/>
		</g>
		<path class="st5" d="M62.1,84.6c4.4,1,9.2,0.2,13.3,2.1C71,87.7,66.1,87,62.1,84.6z"/>
		<path class="st5" d="M65.3,84.5c0,0,0.6-0.1,1.5-0.1s2.2,0.1,3.4,0.3c1.2,0.3,2.4,0.6,3.3,1s1.4,0.7,1.4,0.7s-2.3-0.9-4.7-1.4
			C67.8,84.5,65.3,84.5,65.3,84.5z"/>
		<path class="st5" d="M71.6,84.7c0,0,1,0.2,1.9,0.6c1,0.4,1.8,0.9,1.8,0.9L75,86.6c0,0-0.8-0.6-1.6-1.1
			C72.6,85.1,71.6,84.7,71.6,84.7z"/>
	</g>
	<g>
		<g>
			<path class="st7" d="M33,42.6c2,0.6,11.4,4.3,9.1,7.7c-1.2,1.8-6.5,1-8.2,0.9c-3.7-0.3-7.3-1.2-10.8-2.3
				c-6.5-2.2-12.6-5.3-19-7.9C13.7,40.1,23.7,39.8,33,42.6z"/>
			<path class="st5" d="M33,42.6c1.1,0.3,2.1,0.8,3.1,1.2s2,0.9,3,1.4c1,0.6,1.9,1.2,2.7,2c0.4,0.4,0.8,1,0.9,1.6
				c0.1,0.7-0.1,1.4-0.5,1.9c-0.1,0.2-0.5,0.5-0.8,0.6c-0.3,0.2-0.6,0.2-0.9,0.3c-0.6,0.1-1.2,0.2-1.7,0.3c-1.1,0.1-2.3,0-3.4-0.1
				c-1.1-0.1-2.2-0.2-3.3-0.4c-1.1-0.2-2.2-0.4-3.3-0.7c-2.2-0.5-4.3-1.2-6.4-1.9s-4.2-1.5-6.3-2.3c-4.2-1.6-8.2-3.4-12.3-5
				l-2.1-0.8L4,40.5l3.6-0.3C8.8,40.1,10,40,11.3,40c1.2,0,2.4-0.1,3.7-0.1h1.8l1.8,0.1c1.2,0.1,2.4,0.2,3.7,0.3
				c1.2,0.2,2.4,0.4,3.6,0.6l1.8,0.4l1.8,0.4l1.8,0.5L33,42.6z M32.9,42.7l-1.8-0.5l-1.8-0.4c-1.2-0.2-2.4-0.4-3.6-0.5
				s-2.4-0.2-3.6-0.3c-1.2,0-2.4-0.1-3.6-0.1h-3.6c-1.2,0-2.4,0.1-3.6,0.1l-3.6,0.2l-3.6,0.3l0.1-1c4.1,1.7,8.1,3.7,12.1,5.5
				c2,0.9,4.1,1.8,6.2,2.5s4.2,1.3,6.4,1.7c1.1,0.2,2.2,0.3,3.3,0.4c1.1,0.1,2.2,0.1,3.3,0.2c1.1,0.1,2.2,0.1,3.3,0.1
				c1-0.1,2.2-0.2,2.8-0.8s0.4-1.7-0.2-2.5c-0.7-0.8-1.5-1.5-2.5-2.1C37.1,44.3,35,43.4,32.9,42.7z"/>
		</g>
		<path class="st5" d="M37.8,51.5c-1.7,0.1-3.3,0.1-4.9-0.5c-1.8-0.7-3.8-0.9-5.6-1.4c-3.8-1-7.6-2.2-11.3-3.6
			c-1.2-0.4-2.4-0.9-3.6-1.3c-2.5-0.8-4.6-2.3-7-3.2c1.4,0.5,2.9,0.8,4.4,1.1c2.1,0.4,3.8,1.3,5.9,1.8c2.2,0.6,4.4,1.2,6.6,1.8
			c1.9,0.5,3.8,0.7,5.7,1.3c0.9,0.3,1.9,0.6,2.8,0.8s1.9,0.2,2.7,0.4c-1.7-0.6-3.5-1.1-5.2-1.4c2.4,0.3,4.8,0.6,7.2,1.2
			c1.1,0.3,2.1,0.8,3.2,1c0.6,0.2,1.2,0.3,1.8,0.5c0.2,0.1,1.4,0.6,1.5,0.5C40.7,51.2,39.2,51.4,37.8,51.5z"/>
		<path class="st5" d="M9,41.9c0,0,2.1,0.3,5.2,1.2c1.5,0.4,3.3,0.9,5.3,1.4c1.9,0.5,4,0.9,6.1,1.3c2.1,0.4,4.2,0.7,6.2,1.2
			s3.7,1,5.3,1.6c1.5,0.6,2.7,1.1,3.6,1.5c0.8,0.4,1.3,0.7,1.3,0.7s-1.9-0.9-5-1.9c-1.5-0.5-3.3-1-5.3-1.4c-1.9-0.4-4.1-0.7-6.2-1.1
			c-2.1-0.4-4.2-0.8-6.1-1.3s-3.7-1.1-5.2-1.6s-2.8-0.9-3.7-1.1C9.5,42,9,41.9,9,41.9z"/>
		<path class="st5" d="M13.5,42.1c0,0,0.5,0,1.3,0.1c0.8,0,2,0.1,3.4,0.2c1.4,0.1,3,0.2,4.8,0.5c1.7,0.2,3.6,0.6,5.5,1
			c1.8,0.4,3.6,1,5.3,1.6s3.1,1.4,4.4,2.1c1.2,0.7,2.2,1.4,2.8,1.9c0.6,0.6,0.9,1,0.9,1s-0.3-0.4-0.9-0.9c-0.6-0.5-1.7-1.1-2.9-1.8
			c-2.5-1.3-6-2.6-9.6-3.5c-1.8-0.4-3.7-0.8-5.4-1c-1.7-0.3-3.4-0.5-4.8-0.7C15.3,42.4,13.5,42.1,13.5,42.1z"/>
		<path class="st5" d="M26.5,42.6c0,0,1.1,0.2,2.7,0.5c0.8,0.2,1.7,0.4,2.7,0.7s2,0.7,3,1.1c1,0.4,2,1,2.9,1.5s1.6,1.1,2.3,1.7
			c0.7,0.5,1.1,1.1,1.3,1.5c0.1,0.2,0.2,0.4,0.2,0.5s0.1,0.2,0.1,0.2s-0.1-0.3-0.4-0.6c-0.3-0.4-0.8-0.8-1.4-1.3
			c-0.7-0.5-1.5-1-2.3-1.5c-0.9-0.5-1.8-1-2.8-1.4s-2-0.8-3-1.2c-1-0.3-1.9-0.7-2.6-0.9C27.5,43,26.5,42.6,26.5,42.6z"/>
		<path class="st5" d="M18.6,43.4c0,0,1.5,0.1,3.8,0.4c1.1,0.2,2.5,0.3,3.9,0.6s2.9,0.6,4.4,1c1.5,0.4,2.9,0.9,4.3,1.4
			c1.3,0.5,2.6,1.1,3.6,1.6c2.1,1,3.4,1.8,3.4,1.8s-0.3-0.2-1-0.4c-0.6-0.3-1.5-0.7-2.5-1.1c-1-0.5-2.3-0.9-3.6-1.4
			s-2.8-0.9-4.3-1.3c-1.5-0.4-2.9-0.8-4.3-1.1s-2.7-0.6-3.8-0.8C20.1,43.7,18.6,43.4,18.6,43.4z"/>
		<path class="st5" d="M4.4,41c0,0,0.3,0,0.9,0.1c0.5,0,1.3,0.1,2.2,0.1c1.9,0,4.3-0.1,6.8-0.1c1.3,0,2.5,0.1,3.7,0.2
			c1.2,0.1,2.2,0.3,3.2,0.4c1.8,0.3,3,0.6,3,0.6S23,42.1,21.1,42c-0.9-0.1-2-0.2-3.2-0.2c-1.2-0.1-2.4-0.1-3.6-0.1s-2.5,0-3.6,0
			c-1.2,0-2.3,0-3.2-0.1C5.6,41.3,4.4,41,4.4,41z"/>
	</g>
	<g>
		<g>
			<path class="st7" d="M37,63.7c-6,4.1-12.1,8-18.4,11.6c-2,1.1-4,2.2-5.6,3.9c1.5-7.8,8.2-15.3,13.7-20.7c5.3-5.2,13-11,20.9-10.6
				c1.2,0.1,2.5,0.4,3.5,1.1c0.1,0,0.1,0.1,0.1,0.1c0.1,0.1,0,0.3-0.1,0.4c-0.8,1.4-1.6,3.1-2.7,4.3c-1.2,1.4-2.6,2.5-3.9,3.8
				C42.3,59.9,39.7,61.9,37,63.7z"/>
			<path class="st5" d="M37.1,63.7c-3.9,2.7-7.8,5.5-11.8,8.1c-1,0.7-2,1.3-3,1.9s-2,1.3-3.1,1.8c-2.1,1.2-4.2,2.3-5.8,3.9l-0.9,0.9
				l0.3-1.2c0.3-1.5,0.9-3,1.5-4.4c0.7-1.4,1.4-2.8,2.2-4.1c1.7-2.6,3.5-5.1,5.5-7.4c1-1.2,2-2.3,3.1-3.4c1.1-1.1,2.1-2.2,3.2-3.3
				c2.3-2.1,4.7-4.1,7.4-5.7c1.3-0.8,2.7-1.5,4.2-2.1s3-1,4.6-1.2c0.8-0.1,1.6-0.2,2.4-0.2c0.8,0,1.6,0,2.4,0.2
				c0.4,0.1,0.8,0.2,1.2,0.4c0.2,0.1,0.4,0.2,0.6,0.3l0.3,0.2l0.1,0.1h0.1c0,0-0.1-0.1,0.1,0.1l0,0l0,0l0.1,0.1l0,0l0,0
				c-0.1-0.1,0.1,0.2,0.1,0.1L52,49c0,0.1,0,0.1,0,0.2c0,0.2-0.1,0.4-0.2,0.5l-0.3,0.5l-0.6,1c-0.8,1.3-1.7,2.7-2.8,3.8
				s-2.4,2-3.5,3s-2.4,2-3.6,2.9C39.6,62,38.4,62.9,37.1,63.7z M37,63.6c1.3-0.9,2.5-1.8,3.7-2.7c1.2-1,2.3-2,3.4-3.1
				c1.1-1.1,2.2-2.2,3.2-3.3s1.8-2.3,2.5-3.7l0.5-1l0.3-0.5c0-0.1,0-0.1,0-0.1s0,0,0,0.1v0.1c0,0,0.1,0.2,0.1,0.1l0,0l0,0l-0.1-0.1
				l0,0l0,0c0.2,0.2,0,0,0.1,0.1h-0.1l-0.1-0.1l-0.2-0.1c-0.1-0.1-0.3-0.2-0.5-0.2c-0.3-0.1-0.6-0.3-1-0.3c-0.7-0.2-1.4-0.2-2.2-0.2
				c-0.7,0-1.5,0.1-2.2,0.2c-1.5,0.2-2.9,0.6-4.3,1.2c-1.4,0.5-2.8,1.2-4.1,1.9s-2.6,1.6-3.8,2.5s-2.4,1.9-3.5,2.9s-2.3,2.1-3.4,3.1
				c-1.1,1.1-2.2,2.2-3.2,3.3c-1,1.1-2,2.3-3,3.5s-1.8,2.5-2.6,3.8c-0.8,1.3-1.5,2.7-2,4.1s-1,2.9-1.2,4.4l-0.7-0.3
				c1.7-1.8,3.9-3,5.9-4.2l6.2-3.6c2.1-1.2,4.1-2.4,6.1-3.6C33.1,66.3,35,65,37,63.6z"/>
		</g>
		<path class="st5" d="M48.5,53.9c0.4-0.5,0.7-1.1,1-1.8c0.2-0.4,1.7-3.1,2-3.1c-3.5-0.7-7.7,2.4-10.5,4.2c-1.7,1-3.4,2.2-4.9,3.3
			c-1.8,1.3-3.7,2.6-5.2,4.2c1.1-1.2,2.7-2.2,4-3.1c1.4-0.9,2.8-2,4.3-2.8c0.8-0.4,1.5-0.7,2.3-1.1c2.5-1.2,4.7-3,7.4-3.4
			c-0.8,0.1-1.8,0.9-2.6,1.3c-0.8,0.4-1.5,1-2.3,1.4c-1.6,1-3.3,1.7-4.9,2.7c-4.2,2.7-8.1,6-11.4,9.8c-1.7,1.9-3.3,3.7-5.1,5.4
			c-1.8,1.7-3.7,4.3-5.9,5.4c6.2-3.5,12.2-7.3,18.2-11.2c2.1-1.4,4.1-2.8,6.1-4.3c2.4-1.9,4.6-3.9,6.7-6.1
			C48,54.5,48.2,54.2,48.5,53.9z"/>
		<path class="st5" d="M30.1,61.6c-0.7,0.8-1.5,1.5-2.5,2.2c-0.5,0.4-1,0.8-1.4,1.2c-0.8,0.9-1.3,2-2.1,2.9c-1,1-1.9,2.1-2.9,3.1
			c-2,2.1-4,4.3-6,6.4c1.8-1.2,3.4-2.5,4.8-4.1c0.7-0.8,1.3-1.7,2-2.6C24.5,67.5,27.3,64.6,30.1,61.6z"/>
		<path class="st5" d="M50.5,49.1c0,0-0.2,0-0.6,0.1c-0.4,0-0.9,0.1-1.5,0.3c-1.3,0.3-3.2,0.8-5.3,1.7s-4.5,2.2-6.8,3.9
			c-1.2,0.8-2.4,1.8-3.5,2.8c-1.2,1-2.3,2-3.4,3.1c-2.2,2.1-4.3,4.4-6.3,6.6c-1.9,2.2-3.7,4.2-5.2,6c-3,3.5-5,5.9-5,5.9
			s1.9-2.4,4.8-6.1c1.5-1.8,3.1-3.9,5.1-6.1c1.9-2.2,4-4.5,6.2-6.6c1.1-1.1,2.3-2.1,3.5-3.1s2.4-1.9,3.6-2.7c2.4-1.7,4.8-3,7-3.8
			c2.2-0.9,4.1-1.3,5.4-1.5c0.7-0.1,1.2-0.2,1.6-0.2C50.4,49.1,50.5,49.1,50.5,49.1z"/>
		<path class="st5" d="M51.6,49.6c0,0-0.5-0.4-1.6-0.4s-2.6,0-4.4,0.4c-1.8,0.3-3.8,1-5.8,2.1c-2,1-4,2.4-5.9,4
			c-1.9,1.5-3.7,3.1-5.3,4.7c-1.6,1.6-3,3.2-4.2,4.6s-2.1,2.6-2.7,3.5s-0.9,1.4-0.9,1.4s0.3-0.5,0.9-1.4s1.4-2.2,2.5-3.6
			s2.5-3.1,4.1-4.7c1.6-1.6,3.4-3.3,5.3-4.8s3.9-2.9,6-4c2.1-1,4.1-1.7,6-2c1.8-0.3,3.4-0.2,4.4-0.1c0.5,0,0.9,0.1,1.2,0.3
			C51.5,49.5,51.6,49.6,51.6,49.6z"/>
		<path class="st5" d="M30.8,56.6c0,0-0.3,0.3-0.9,0.8s-1.4,1.3-2.2,2.3c-1.8,1.9-3.8,4.8-5.8,7.7c-1,1.4-2,2.9-3,4.2
			c-1,1.3-1.9,2.6-2.6,3.7c-1.6,2.1-2.6,3.5-2.6,3.5s0.9-1.5,2.4-3.7c0.7-1.1,1.6-2.4,2.5-3.7c0.9-1.4,1.9-2.8,2.9-4.3
			c1-1.4,2-2.9,3-4.2s2-2.5,3-3.4c0.9-0.9,1.8-1.6,2.4-2.1C30.4,56.8,30.8,56.6,30.8,56.6z"/>
		<path class="st5" d="M32.2,55.2c0,0,0.2-0.2,0.5-0.4c0.3-0.3,0.8-0.7,1.4-1.1c1.2-0.9,3-1.8,4.8-2.5c1.9-0.7,3.8-1.2,5.3-1.4
			c0.7-0.1,1.4-0.2,1.8-0.2c0.4,0,0.7,0,0.7,0s-1,0.1-2.4,0.4c-1.5,0.3-3.4,0.8-5.2,1.5s-3.6,1.6-4.8,2.4
			C33,54.6,32.2,55.2,32.2,55.2z"/>
		<path class="st5" d="M22.3,64.3c0,0-2.4,3.2-4.4,6.6c-2.1,3.4-4,6.9-4,6.9s0.4-0.9,1.1-2.3c0.7-1.3,1.6-3.1,2.7-4.8
			c1.1-1.7,2.2-3.3,3.1-4.5C21.6,65,22.3,64.3,22.3,64.3z"/>
		<path class="st7" d="M21.5,73.4c0,0,1-1,2.6-2.5c0.8-0.7,1.7-1.6,2.7-2.5s2.1-1.8,3.2-2.7c1.1-0.9,2.3-1.8,3.4-2.5
			s2.2-1.3,3.2-1.9c1.9-1.1,3.1-1.9,3.1-1.9s-1.1,0.9-2.9,2.1c-0.9,0.6-2,1.3-3.1,2c-1.1,0.7-2.3,1.6-3.4,2.5s-2.2,1.8-3.3,2.7
			c-1,0.9-2,1.7-2.8,2.4C22.6,72.5,21.5,73.4,21.5,73.4z"/>
		<path class="st7" d="M42,58.1c0,0,0.6-0.5,1.4-1.3c0.9-0.8,2-1.8,3.1-2.8s2.2-2.1,3-2.9c0.8-0.8,1.4-1.3,1.4-1.3s-0.4,0.6-1.2,1.5
			c-0.7,0.9-1.8,2-2.9,3.1c-1.1,1-2.4,2-3.3,2.6C42.7,57.7,42,58.1,42,58.1z"/>
	</g>
	<g>
		<g>
			<path class="st7" d="M86.9,44.4c-3.3,8.3-5.5,17.7-2.6,26.1c1-0.9,1.3-2.3,1.5-3.6C87,59.5,87.4,52,86.9,44.4z"/>
			<path class="st5" d="M86.8,44.8L86,47.7c-0.3,1.1-0.6,2.1-0.9,3.2c-0.3,1.1-0.5,2.2-0.8,3.2c-0.2,1.1-0.4,2.2-0.6,3.3
				s-0.4,2.2-0.5,3.3l-0.1,1.7c0,0.6,0,1.1,0,1.7s0.1,1.1,0.2,1.7l0.3,1.6c0.1,0.5,0.3,1.1,0.4,1.6l0.5,1.6L84,70.5
				c0.7-0.7,1-1.8,1.1-2.8c0.2-1.1,0.3-2.2,0.4-3.3c0.3-2.2,0.5-4.4,0.6-6.6c0.1-1.1,0.2-2.2,0.2-3.3c0.1-1.1,0.1-2.2,0.2-3.3
				c0-1.1,0.1-2.2,0.1-3.3L86.8,44.8z M87,44.4c0.2,1.1,0.3,2.2,0.4,3.3s0.2,2.2,0.2,3.3c0.1,2.2,0.1,4.5-0.1,6.7
				c-0.1,2.2-0.4,4.4-0.8,6.6c-0.2,1.1-0.4,2.2-0.6,3.3c-0.2,1.1-0.7,2.3-1.6,3.1L84.1,71L84,70.7L83.6,69c-0.1-0.6-0.2-1.1-0.3-1.7
				L83,65.7c0-0.6-0.1-1.1-0.2-1.7c-0.1-1.1-0.1-2.2-0.1-3.4c0-1.1,0.1-2.3,0.2-3.4c0.1-1.1,0.3-2.2,0.6-3.3
				c0.3-1.1,0.6-2.2,0.9-3.3s0.7-2.1,1.2-3.2c0.4-1,0.9-2.1,1.4-3.1l0.1-0.2L87,44.4z"/>
		</g>
		<path class="st5" d="M86.7,45.7c-0.5,4.2-1.1,8.3-1.3,12.5c-0.1,2.1-0.2,4.1-0.4,6.2c-0.1,1.9,0,4.2-0.5,6c1.3-4,1.9-8.2,2.2-12.3
			c0.2-2.2,0.3-4.4,0.3-6.6c0-1.2,0-2.4,0-3.6c0-1.1-0.3-2.3-0.2-3.3C86.8,44.9,86.8,45.3,86.7,45.7z"/>
		<path class="st5" d="M85.8,51.4c0,0,0,0.3-0.1,0.8s-0.2,1.3-0.3,2.2c-0.1,0.9-0.2,2-0.3,3.1c-0.1,1.1-0.2,2.4-0.2,3.6
			c-0.1,1.2-0.1,2.4-0.2,3.6c-0.1,1.1-0.1,2.2-0.1,3.1c-0.1,1.8-0.2,3.1-0.2,3.1s-0.1-1.2-0.1-3.1c0-0.9,0-2,0-3.1
			c0-1.2,0-2.4,0.1-3.6c0.1-1.2,0.2-2.5,0.3-3.6c0.1-1.1,0.3-2.2,0.5-3.1C85.5,52.6,85.8,51.4,85.8,51.4z"/>
		<path class="st5" d="M84,58.8c0,0,0,2.8,0.1,5.6c0,1.4,0.1,2.8,0.2,3.9s0.1,1.8,0.1,1.8s-0.1-0.7-0.3-1.7
			c-0.1-1.1-0.2-2.5-0.3-3.9c0-1.4,0-2.8,0.1-3.9C83.9,59.5,84,58.8,84,58.8z"/>
		<path class="st5" d="M86.9,44.6c0,0-1.1,3.3-1.8,6.6C84.3,54.6,84,58,84,58s0-0.9,0.1-2.2s0.4-3,0.7-4.7c0.4-1.7,0.9-3.4,1.3-4.6
			C86.6,45.4,86.9,44.6,86.9,44.6z"/>
	</g>
	<g>
		<g>
			<path class="st7" d="M91.8,77.4c2.9-3.6,4.6-8,5.6-12.6c0.6-2.8,1.2-5.5,1.5-8.4c0.3-3,0.1-6.1,0.3-9.1c-0.1,3-0.8,5.8-2.1,8.5
				c-1.3,2.7-2.9,5.3-4,8C91.3,68.1,90.9,72.9,91.8,77.4z"/>
			<path class="st5" d="M91.9,77.2c0.7-1.1,1.3-2.1,1.9-3.2c0.6-1.2,1.1-2.4,1.5-3.6c0.5-1.2,0.8-2.5,1.2-3.7
				c0.3-1.3,0.6-2.5,0.9-3.8c0.6-2.5,1.2-5.1,1.4-7.7c0.2-2.6,0-5.2,0.1-7.9h0.6c0,2.7-0.5,5.4-1.5,7.9s-2.4,4.8-3.5,7.1
				c-0.3,0.6-0.6,1.2-0.8,1.8c-0.2,0.6-0.5,1.2-0.7,1.8c-0.4,1.2-0.7,2.5-0.9,3.8c-0.2,1.3-0.3,2.6-0.3,3.9
				C91.6,74.7,91.7,75.9,91.9,77.2z M91.8,77.4c-0.2-0.6-0.3-1.3-0.4-1.9c-0.1-0.7-0.2-1.3-0.3-2c-0.1-1.3-0.1-2.7,0-4
				s0.4-2.7,0.8-4c0.2-0.7,0.4-1.3,0.6-1.9s0.5-1.2,0.8-1.8c1.1-2.4,2.6-4.6,3.6-7c1-2.3,1.6-4.9,1.9-7.5h0.6
				c-0.2,2.6-0.2,5.2-0.3,7.9c-0.2,2.6-0.4,5.3-0.9,7.9c-0.2,1.3-0.5,2.6-0.9,3.9c-0.4,1.3-0.8,2.5-1.3,3.8
				c-0.5,1.2-1.1,2.4-1.8,3.5c-0.3,0.6-0.7,1.1-1.1,1.6C92.8,76.4,92.3,76.9,91.8,77.4L91.8,77.4L91.8,77.4z"/>
		</g>
		<path class="st5" d="M98.9,51.7c-0.3,1.8-0.5,3.6-0.9,5.4c-0.4,2.1-1,4.2-1.7,6.3c-0.6,2.1-1.3,4.3-2,6.4C94,70.9,93.7,72,93.4,73
			c-0.3,1.4-0.9,2.7-1.3,4c2.7-3.6,4.3-8,5.3-12.3c0.5-2.3,0.9-4.6,1.2-7c0.1-1.2,0.2-2.3,0.3-3.5c0.1-1.1-0.1-2.4,0.1-3.5
			C99,51.1,99,51.4,98.9,51.7z"/>
		<path class="st5" d="M98.9,52c0,0-0.2,1.7-0.8,4.1c-0.3,1.2-0.8,2.6-1.2,4c-0.2,0.7-0.5,1.5-0.7,2.3s-0.4,1.6-0.6,2.4
			c-0.4,1.6-0.8,3.2-1.2,4.7c-0.4,1.5-0.8,2.9-1.1,4.1c-0.7,2.4-1.2,4-1.2,4s0.3-1.6,0.9-4c0.3-1.2,0.6-2.6,1-4.1
			c0.2-0.8,0.4-1.5,0.6-2.3s0.4-1.6,0.6-2.4c0.2-0.8,0.5-1.6,0.7-2.4c0.2-0.8,0.5-1.6,0.7-2.3c0.5-1.5,1-2.8,1.4-4
			C98.6,53.6,98.9,52,98.9,52z"/>
		<path class="st5" d="M95.2,61.7c0,0-0.4,0.9-0.8,2.4c-0.4,1.5-0.9,3.4-1.1,5.4c-0.3,2-0.8,4-1,5.5c-0.3,1.5-0.4,2.5-0.4,2.5
			s0.1-1,0.3-2.5c0.2-1.5,0.6-3.5,0.9-5.5s0.8-4,1.3-5.5C94.8,62.6,95.2,61.7,95.2,61.7z"/>
	</g>
	<g>
		<g>
			<path class="st7" d="M104.2,62.9c1.6-2.7,3.2-5.3,4.4-8.3c0.8-2.1,1.6-4.3,2.2-6.5c0.6-1.9,0.7-4.4,1.6-6.2
				c-1.1,2.3-3,4.1-4.6,6.2c-3.6,4.7-6.1,11.3-5.4,17.2c0.2,0.2,0.5-0.1,0.6-0.4C103.4,64.2,103.8,63.5,104.2,62.9z"/>
			<path class="st5" d="M104.2,62.8c0.5-0.8,0.9-1.6,1.4-2.5c0.4-0.8,0.8-1.7,1.2-2.6c0.4-0.9,0.7-1.7,1.1-2.6
				c0.2-0.5,0.3-0.8,0.5-1.3l0.5-1.3c0.3-0.9,0.6-1.8,1-2.7l0.5-1.3l0.3-0.6c0.1-0.2,0.1-0.4,0.2-0.7c0.3-0.9,0.4-1.8,0.6-2.8
				c0.2-0.9,0.4-1.9,0.8-2.8l0.3,0.2c-0.9,2-2.4,3.8-3.7,5.5c-0.3,0.4-0.6,0.8-1,1.3c-0.3,0.5-0.6,0.9-0.9,1.3
				c-0.6,0.9-1.1,1.8-1.5,2.8c-0.9,1.9-1.7,3.9-2.2,6c-0.3,1-0.5,2.1-0.6,3.1c-0.1,1.1-0.2,2.1-0.1,3.2l-0.1-0.1
				c0.1,0.1,0.3-0.1,0.5-0.3l0.4-0.7L104.2,62.8z M104.3,62.9l-0.8,1.4l-0.4,0.7c-0.1,0.1-0.2,0.2-0.3,0.3c-0.1,0.1-0.3,0.2-0.5,0.1
				h-0.1v-0.1c-0.1-0.5-0.2-1.1-0.2-1.6c-0.1-0.6-0.1-1.1-0.1-1.7c0-0.6,0-1.1,0.1-1.7c0-0.6,0.1-1.1,0.2-1.7
				c0.4-2.2,1.2-4.3,2.2-6.3c0.5-1,1.1-1.9,1.7-2.9c0.3-0.5,0.6-0.9,1-1.3c0.3-0.4,0.7-0.9,1.1-1.3c1.4-1.6,3-3.1,4-5.1l0.3,0.2
				c-0.8,1.7-1,3.6-1.3,5.5c0,0.2-0.1,0.5-0.1,0.7l-0.2,0.7l-0.4,1.4c-0.3,0.9-0.5,1.8-0.8,2.7l-0.5,1.3c-0.2,0.4-0.4,0.9-0.6,1.3
				c-0.4,0.9-0.9,1.7-1.4,2.5s-1,1.6-1.5,2.4C105.2,61.3,104.7,62.1,104.3,62.9z"/>
		</g>
		<path class="st5" d="M102.5,65.4c0,0.1,0,0.2,0,0.4c1.8-3,3.5-6.1,5.1-9.2c0.6-1.1,1-2.3,1.5-3.5c1.3-3.1,2.2-6.6,2.7-9.9
			c-1.6,3.3-2.4,7-4.1,10.3c-0.6,1.2-1.2,2.3-1.7,3.5c-0.4,0.8-0.7,1.7-1,2.6c-0.6,1.8-1.5,3.5-2.2,5.2
			C102.7,64.9,102.6,65.2,102.5,65.4z"/>
		<path class="st5" d="M109.9,47.3c0,0-0.5,1.2-1.4,2.9c-0.4,0.9-0.9,1.9-1.4,2.9c-0.5,1.1-1,2.2-1.5,3.4s-1,2.3-1.4,3.5
			c-0.4,1.1-0.8,2.2-1.1,3.1c-0.3,0.9-0.5,1.7-0.6,2.2s-0.2,0.9-0.2,0.9s0-0.3,0.1-0.9s0.2-1.3,0.4-2.3c0.2-0.9,0.5-2,0.9-3.2
			c0.4-1.1,0.9-2.3,1.4-3.5s1.1-2.3,1.6-3.4c0.5-1.1,1.1-2,1.6-2.9C109.2,48.4,109.9,47.3,109.9,47.3z"/>
		<path class="st5" d="M111.5,43.9c0,0-0.6,1.1-1.5,2.7c-0.9,1.6-2.2,3.8-3.2,6c-1.1,2.2-2.1,4.5-2.6,6.3c-0.6,1.8-0.9,3-0.9,3
			s0.1-0.3,0.2-0.8s0.3-1.3,0.6-2.2c0.5-1.8,1.4-4.1,2.5-6.4c1.1-2.2,2.4-4.4,3.3-6S111.5,43.9,111.5,43.9z"/>
		<path class="st5" d="M106.5,51.4c0,0-1.5,3.2-2.5,6.5c-1.1,3.3-1.6,6.8-1.6,6.8s0.1-0.9,0.3-2.2c0.2-1.3,0.6-3,1.1-4.7
			s1.2-3.3,1.8-4.5C106,52.2,106.5,51.4,106.5,51.4z"/>
	</g>
	<g>
		<g>
			<path class="st7" d="M90.8,90c3.2-0.2,6.2-0.3,9.4-1c2.2-0.5,4.4-1.1,6.6-1.8c1.9-0.6,4.1-1.9,6-2.2c-2.5,0.4-5.1-0.2-7.7-0.4
				c-5.9-0.4-12.8,1.3-17.3,5.1c0,0.3,0.4,0.3,0.7,0.3C89.2,90.1,90,90,90.8,90z"/>
			<path class="st5" d="M90.8,89.9c0.9-0.1,1.9-0.1,2.8-0.2s1.9-0.3,2.8-0.4c0.9-0.2,1.8-0.4,2.8-0.6c0.5-0.1,0.9-0.2,1.3-0.3
				l1.4-0.4c0.9-0.2,1.8-0.5,2.8-0.7L106,87l0.7-0.1c0.2-0.1,0.5-0.1,0.7-0.2c0.9-0.3,1.8-0.6,2.6-1c0.9-0.3,1.8-0.7,2.7-0.9
				l0.1,0.4c-2.2,0.3-4.4,0.1-6.6,0c-0.6,0-1.1-0.1-1.6-0.1c-0.6,0-1.1,0-1.6,0c-1.1,0-2.1,0.1-3.2,0.3c-2.1,0.3-4.2,0.8-6.2,1.5
				c-1,0.4-2,0.8-3,1.2c-1,0.5-1.9,1-2.8,1.7l0.1-0.1c0,0.1,0.2,0.2,0.5,0.2h0.8H90.8z M90.8,90l-1.6,0.1l-0.8,0.1
				c-0.1,0-0.3,0-0.4,0s-0.3-0.2-0.3-0.4v-0.1h0.1c0.4-0.4,0.8-0.8,1.3-1.1c0.4-0.4,0.9-0.7,1.3-1c0.5-0.3,0.9-0.6,1.4-0.9
				s1-0.5,1.5-0.7c2.1-0.9,4.2-1.4,6.4-1.7c1.1-0.1,2.2-0.2,3.3-0.2c0.6,0,1.1,0,1.7,0.1c0.5,0,1.1,0.1,1.7,0.2
				c2.2,0.3,4.3,0.8,6.5,0.5l0.1,0.4c-1.8,0.2-3.5,1.2-5.3,2c-0.2,0.1-0.4,0.2-0.7,0.3l-0.7,0.2l-1.4,0.4c-0.9,0.3-1.8,0.6-2.7,0.8
				l-1.4,0.4c-0.4,0.1-1,0.2-1.4,0.3c-0.9,0.2-1.9,0.2-2.9,0.3c-1,0-1.9,0.1-2.8,0.1C92.7,89.9,91.7,90,90.8,90z"/>
		</g>
		<path class="st5" d="M87.7,90c-0.1,0-0.2,0.1-0.3,0.2c3.5-0.2,7-0.5,10.5-0.9c1.2-0.1,2.5-0.5,3.7-0.7c3.3-0.7,6.7-1.9,9.7-3.3
			c-3.7,0.6-7.1,1.9-10.8,2.4c-1.3,0.2-2.6,0.3-3.8,0.5c-0.9,0.2-1.8,0.4-2.7,0.6c-1.8,0.4-3.7,0.7-5.5,1.1
			C88.2,89.8,87.9,89.9,87.7,90z"/>
		<path class="st5" d="M106.8,86c0,0-1.3,0.2-3.2,0.5c-0.9,0.1-2,0.3-3.2,0.5s-2.4,0.4-3.7,0.6c-1.3,0.2-2.5,0.5-3.7,0.8
			s-2.2,0.6-3.1,0.8c-0.9,0.3-1.7,0.5-2.2,0.7s-0.8,0.3-0.8,0.3s0.3-0.1,0.8-0.4c0.5-0.2,1.2-0.6,2.1-0.9s2-0.7,3.1-1
			c1.2-0.3,2.4-0.6,3.7-0.8c1.3-0.2,2.5-0.4,3.7-0.5s2.3-0.2,3.3-0.3C105.6,86.1,106.8,86,106.8,86z"/>
		<path class="st5" d="M110.6,85.4c0,0-1.2,0.1-3.1,0.2s-4.3,0.3-6.8,0.7c-2.5,0.3-4.9,0.8-6.7,1.3c-1.8,0.5-3,0.9-3,0.9
			s0.3-0.1,0.8-0.3c0.5-0.2,1.2-0.5,2.1-0.8c1.8-0.6,4.2-1.1,6.7-1.5c2.5-0.3,5-0.5,6.8-0.6C109.3,85.4,110.6,85.4,110.6,85.4z"/>
		<path class="st5" d="M101.5,85.5c0,0-3.5,0.5-6.8,1.6c-3.4,1-6.5,2.5-6.5,2.5s0.8-0.4,1.9-1c1.2-0.6,2.8-1.2,4.5-1.7
			s3.4-0.9,4.7-1.1C100.7,85.5,101.5,85.5,101.5,85.5z"/>
	</g>
	<g>
		<g>
			<path class="st7" d="M102.4,75.1c-0.8,0.1-1.5,0.3-2.3,0.4c-1,0.1-6.6,0.1-7,1c2.2-4.8,7.2-6.8,11.6-8.9c3.9-1.9,8.1-2.6,12.4-3
				c3.9-0.4,8.1,0.7,11.9-0.2c-4.9,1.1-9.1,3.7-13.4,6.1C111.3,72.8,107.1,74.2,102.4,75.1z"/>
			<path class="st5" d="M102.4,75.1l-2.4,0.4c-0.8,0.1-1.6,0.1-2.4,0.2S96,75.8,95.2,76c-0.4,0.1-0.8,0.1-1.1,0.2
				c-0.2,0.1-0.4,0.1-0.5,0.2c-0.2,0.1-0.3,0.2-0.3,0.2l-0.6-0.3c0.4-0.8,0.7-1.6,1.2-2.2c0.5-0.7,1.1-1.3,1.7-1.9
				c1.2-1.2,2.7-2.1,4.2-2.9s3-1.5,4.5-2.2s3.1-1.3,4.8-1.7c1.6-0.4,3.3-0.7,4.9-0.9c0.8-0.1,1.7-0.2,2.5-0.2
				c0.8-0.1,1.7-0.1,2.5-0.1c1.7,0,3.3,0.3,5,0.3c1.6,0.1,3.3,0.1,4.9-0.3l0.1,0.4c-0.6,0.1-1.1,0.3-1.7,0.5s-1.1,0.4-1.7,0.6
				c-1.1,0.5-2.2,1-3.2,1.5l-3.1,1.7c-1,0.6-2.1,1.2-3.1,1.8c-1.1,0.6-2.1,1.1-3.3,1.6c-1.1,0.5-2.3,0.9-3.4,1.2
				c-1.2,0.4-2.3,0.7-3.5,0.9C104.8,74.7,103.6,74.9,102.4,75.1z M102.4,75c1.2-0.2,2.3-0.5,3.5-0.8s2.3-0.7,3.4-1.2
				c2.2-0.9,4.3-2,6.4-3.2c1-0.6,2.1-1.2,3.2-1.8c1.1-0.6,2.1-1.1,3.2-1.6c2.2-1,4.5-1.8,6.9-2.3l0.1,0.4c-1.7,0.3-3.3,0.4-5,0.3
				s-3.3-0.1-5-0.1c-0.8,0-1.6,0.1-2.4,0.2l-2.4,0.3c-1.6,0.3-3.2,0.6-4.8,1c-1.6,0.4-3.1,1-4.5,1.7c-1.5,0.7-3,1.4-4.4,2.2
				c-1.4,0.7-2.8,1.6-4,2.6s-2.2,2.3-3,3.7L93,76.1c0.2-0.3,0.5-0.4,0.7-0.5s0.4-0.1,0.6-0.2c0.4-0.1,0.8-0.1,1.2-0.1
				c0.8-0.1,1.6-0.1,2.4-0.1s1.6,0,2.4,0L102.4,75z"/>
		</g>
		<path class="st5" d="M106.9,74c-4.6,1.1-9,1.8-13.7,2c6.8-2.7,14.4-2.8,21-6c2.9-1.4,5.6-3.3,8.8-3.7c-2.8,1.5-5.6,3.1-8.4,4.6
			c-0.6,0.3-1.1,0.6-1.7,0.9c-1,0.5-2,0.8-3.1,1.2C109,73.3,108,73.7,106.9,74z"/>
		<path class="st5" d="M93.5,76.2c0,0,0.4-0.2,1.2-0.6c0.7-0.4,1.8-0.9,3.2-1.4c1.3-0.5,2.9-1.1,4.7-1.5c1.7-0.5,3.6-0.9,5.4-1.4
			s3.7-0.9,5.4-1.5c0.8-0.3,1.7-0.5,2.4-0.8c0.8-0.3,1.5-0.5,2.2-0.8c2.7-1,4.5-1.6,4.5-1.6s-0.4,0.2-1.2,0.5
			c-0.8,0.3-1.8,0.8-3.2,1.4c-0.7,0.3-1.4,0.6-2.1,0.9c-0.8,0.3-1.6,0.6-2.4,0.9c-1.7,0.6-3.5,1.1-5.4,1.6s-3.7,0.9-5.4,1.4
			c-1.7,0.5-3.3,0.9-4.7,1.4c-1.4,0.4-2.5,0.9-3.2,1.2C93.9,76,93.5,76.2,93.5,76.2z"/>
		<path class="st5" d="M93.9,76c0,0,0.4-0.4,1.2-1c0.8-0.6,1.9-1.4,3.4-2.1c1.5-0.8,3.2-1.5,5.2-2.2c2-0.6,4.1-1.2,6.2-1.7
			s4.3-0.9,6.3-1.4s3.8-1,5.4-1.4c3.2-0.8,5.3-1.4,5.3-1.4s-0.5,0.2-1.4,0.5s-2.2,0.7-3.8,1.2c-1.6,0.5-3.4,1-5.4,1.6
			c-2,0.5-4.1,1-6.3,1.5c-4.3,0.9-8.5,2.1-11.4,3.6c-1.5,0.7-2.7,1.4-3.4,1.9C94.3,75.7,93.9,76,93.9,76z"/>
		<path class="st5" d="M123.6,66.2c0,0-1,0.4-2.4,0.9c-0.7,0.3-1.6,0.6-2.5,0.9s-1.9,0.6-3,0.9c-1,0.3-2,0.5-3,0.8
			c-1,0.2-1.9,0.4-2.6,0.6c-1.5,0.3-2.6,0.4-2.6,0.4s1-0.3,2.5-0.7c1.5-0.4,3.5-1,5.5-1.5s4-1.1,5.6-1.5
			C122.6,66.4,123.6,66.2,123.6,66.2z"/>
		<path class="st5" d="M93.3,76.2c0,0,0.2-0.3,0.7-0.7c0.4-0.4,1-1,1.9-1.6c0.8-0.6,1.8-1.3,2.9-1.9s2.3-1.2,3.6-1.7
			c1.3-0.5,2.6-0.9,3.8-1.2c1.2-0.3,2.4-0.5,3.4-0.7c2-0.3,3.4-0.4,3.4-0.4s-1.3,0.3-3.3,0.7c-1,0.2-2.1,0.5-3.3,0.9
			c-1.2,0.3-2.5,0.8-3.7,1.3s-2.5,1-3.6,1.6s-2.1,1.2-3,1.7c-0.8,0.6-1.5,1.1-2,1.4C93.5,75.9,93.3,76.2,93.3,76.2z"/>
		<path class="st5" d="M113.9,67.7c0,0,0.8-0.3,2-0.6c1.2-0.3,2.8-0.8,4.4-1.1c1.6-0.4,3.2-0.7,4.4-0.9c1.2-0.2,2-0.3,2-0.3
			s-0.8,0.3-2,0.6c-1.2,0.3-2.8,0.8-4.4,1.1c-1.6,0.4-3.2,0.7-4.4,0.9S113.9,67.7,113.9,67.7z"/>
		<path class="st5" d="M126,64.9c0,0-1.2,0.2-2.9,0.5c-0.9,0.1-1.9,0.3-3,0.5s-2.2,0.3-3.4,0.5c-1.2,0.2-2.3,0.4-3.4,0.6
			s-2.1,0.4-3,0.5c-1.7,0.3-2.9,0.5-2.9,0.5s1.1-0.4,2.8-0.8c0.9-0.2,1.9-0.5,2.9-0.7c1.1-0.2,2.2-0.4,3.4-0.6
			c1.2-0.2,2.3-0.3,3.4-0.5c1.1-0.1,2.1-0.2,3-0.3C124.8,64.9,126,64.9,126,64.9z"/>
	</g>
	<g>
		<g>
			<path class="st7" d="M115.6,53.8c-0.1,0.8-0.1,1.5-0.1,2.3c0,0.4,0.1,0.9,0.4,1.2c0.3,0.4,0.8,0.4,1.3,0.4c1.1,0,2.2-0.5,3.2-0.9
				c4.1-1.8,7.3-5.3,10.2-8.7c5.8-6.9,10.9-14.4,15.3-22.3c-4.9,5.2-11.6,8.1-17.6,11.8c-4.6,2.8-7.9,5.3-10.5,10.2
				C116.6,49.7,115.8,51.7,115.6,53.8z"/>
			<path class="st5" d="M115.6,53.8c-0.1,1-0.2,2.1,0,3c0.1,0.5,0.6,0.7,1.1,0.8c0.5,0,1,0,1.5-0.2c1-0.3,1.9-0.7,2.8-1.2
				s1.7-1,2.5-1.7c1.6-1.2,3-2.7,4.4-4.2s2.7-3,4-4.6c1.3-1.5,2.6-3.1,3.9-4.7c1.3-1.6,2.4-3.3,3.6-4.9c1.1-1.7,2.2-3.4,3.2-5.2
				s2-3.5,2.9-5.3l0.6,0.4c-0.6,0.7-1.2,1.3-1.9,1.9s-1.4,1.2-2.1,1.7c-1.4,1.1-2.9,2.1-4.4,3c-1.5,0.9-3,1.8-4.6,2.7
				c-1.5,0.9-3.1,1.7-4.6,2.7c-1.5,0.9-3,1.9-4.4,2.9s-2.7,2.2-3.9,3.5c-1.2,1.3-2.1,2.8-3,4.3C116.4,50.4,115.9,52.1,115.6,53.8z
				 M115.5,53.8c0.2-1.8,0.8-3.5,1.5-5.1s1.6-3.2,2.7-4.6c1.1-1.4,2.4-2.7,3.8-3.8s2.9-2.1,4.4-3.1c1.5-0.9,3.1-1.8,4.6-2.7
				s3.1-1.7,4.6-2.6c0.8-0.4,1.5-0.9,2.2-1.4s1.5-1,2.2-1.5s1.4-1.1,2.1-1.6c0.7-0.6,1.3-1.2,1.9-1.8l2-2l-1.4,2.4
				c-1,1.8-2.1,3.5-3.2,5.2c-1.1,1.7-2.2,3.4-3.4,5.1c-1.1,1.7-2.3,3.4-3.5,5.1c-1.2,1.7-2.4,3.3-3.6,4.9c-1.2,1.6-2.6,3.2-3.9,4.7
				c-1.4,1.5-2.9,2.9-4.6,4.1c-0.9,0.6-1.8,1.1-2.7,1.5c-0.9,0.4-1.9,0.8-2.9,1c-0.5,0.1-1,0.2-1.6,0.1c-0.5,0-1.1-0.4-1.2-1
				C115.3,55.8,115.4,54.8,115.5,53.8z"/>
		</g>
		<path class="st5" d="M145.5,26.3c-1.3,1.2-2.4,2.6-3.4,4c-0.9,1.3-1.6,2.7-2.5,3.9c-2.2,2.9-4.5,5.8-6.9,8.6
			C128,48.1,123,53,118,57.9c4.1-1.5,7.7-4.2,10.7-7.3c2.1-2.1,3.6-4.5,5.4-6.8c1.2-1.5,2.3-3.1,3.3-4.7c1.4-2.1,2.9-4,4.2-6.2
			c1.4-2.3,2.8-4.6,4.2-6.9C145.8,26,145.6,26.2,145.5,26.3z"/>
		<path class="st5" d="M144.6,27.4c0,0-0.4,0.4-1.1,1.1c-0.7,0.7-1.7,1.8-2.8,3c-1.1,1.3-2.3,2.8-3.7,4.5c-1.3,1.7-2.9,3.4-4.3,5.1
			c-1.4,1.8-2.8,3.6-4,5.3s-2.5,3.3-3.6,4.6s-2,2.4-2.7,3.1c-0.7,0.7-1,1.2-1,1.2s1.4-1.8,3.5-4.5s4.6-6.5,7.4-10.1
			c1.4-1.8,3-3.4,4.3-5.1c1.4-1.6,2.7-3.1,3.8-4.4c1.2-1.3,2.2-2.2,2.9-2.9C144.2,27.8,144.6,27.4,144.6,27.4z"/>
		<path class="st5" d="M138.2,33.1c0,0-0.3,0.4-0.9,1c-0.6,0.6-1.4,1.6-2.4,2.7c-1,1.1-2.1,2.5-3.3,3.9s-2.4,3-3.6,4.6
			c-1.2,1.6-2.5,3.1-3.6,4.6c-1.2,1.5-2.3,2.8-3.2,3.9c-1.9,2.3-3.2,3.8-3.2,3.8s1.1-1.7,2.9-4.1c0.9-1.2,1.9-2.6,3-4.1
			s2.3-3.1,3.6-4.6c1.2-1.6,2.5-3.1,3.7-4.5c1.2-1.4,2.4-2.7,3.5-3.8C136.6,34.4,138.2,33.1,138.2,33.1z"/>
		<path class="st5" d="M141.3,29.7c0,0-0.2,0.2-0.6,0.5c-0.4,0.3-0.9,0.7-1.5,1.2s-1.3,1.1-2.1,1.7c-0.8,0.6-1.6,1.3-2.4,2
			c-0.8,0.7-1.6,1.4-2.4,2c-0.7,0.7-1.5,1.3-2,1.8c-0.6,0.5-1.1,1-1.4,1.3c-0.4,0.3-0.6,0.5-0.6,0.5s0.2-0.2,0.4-0.6
			c0.3-0.4,0.7-0.9,1.2-1.5s1.2-1.3,1.9-2s1.5-1.4,2.3-2.1c0.8-0.7,1.7-1.4,2.5-2c0.8-0.6,1.6-1.1,2.3-1.5s1.3-0.7,1.7-1
			C141,29.9,141.3,29.7,141.3,29.7z"/>
		<path class="st5" d="M127.1,42.5c0,0-0.6,1-1.6,2.4c-0.9,1.4-2.2,3.3-3.5,5.2s-2.5,3.8-3.5,5.2c-0.9,1.4-1.6,2.4-1.6,2.4
			s0.1-0.3,0.3-0.7c0.2-0.5,0.5-1.1,0.9-1.9c0.4-0.8,0.9-1.7,1.4-2.6c0.5-0.9,1.2-1.9,1.8-2.9c0.6-1,1.3-1.9,2-2.8
			c0.6-0.9,1.3-1.6,1.8-2.3s1.1-1.2,1.4-1.6C126.9,42.7,127.1,42.5,127.1,42.5z"/>
		<path class="st5" d="M133.1,34.9c0,0-0.4,0.3-1,0.8s-1.5,1.2-2.5,2.1c-0.5,0.4-1.1,0.9-1.6,1.5c-0.6,0.5-1.1,1.1-1.7,1.7
			c-0.6,0.6-1.2,1.3-1.7,1.9c-0.6,0.7-1.1,1.4-1.7,2.1c-0.5,0.7-1.1,1.5-1.5,2.2c-0.5,0.7-0.9,1.5-1.3,2.2c-0.4,0.8-0.8,1.5-1.1,2.2
			c-0.3,0.7-0.6,1.4-0.8,2c-0.2,0.6-0.5,1.2-0.6,1.7c-0.2,0.5-0.3,1-0.4,1.4c-0.2,0.8-0.3,1.2-0.3,1.2s0.1-0.5,0.2-1.2
			c0.1-0.4,0.1-0.9,0.3-1.4c0.1-0.5,0.3-1.2,0.5-1.8c0.2-0.7,0.4-1.4,0.7-2.1c0.3-0.7,0.6-1.5,1-2.3s0.8-1.6,1.3-2.3
			c0.5-0.8,1-1.5,1.5-2.3c0.6-0.7,1.1-1.5,1.7-2.1c0.6-0.7,1.2-1.3,1.8-1.9c0.6-0.6,1.2-1.2,1.8-1.7c0.6-0.5,1.2-1,1.7-1.4
			s1.1-0.8,1.5-1.1c0.5-0.3,0.9-0.6,1.2-0.8C132.7,35.1,133.1,34.9,133.1,34.9z"/>
		<path class="st5" d="M119.2,47.4c0,0,0,0.2-0.1,0.5s-0.2,0.7-0.4,1.2c-0.3,1-0.8,2.3-1.2,3.6c-0.4,1.3-0.7,2.7-0.8,3.7
			c-0.1,0.5-0.1,1-0.1,1.3s0,0.5,0,0.5s-0.1-0.2-0.1-0.5c-0.1-0.3-0.2-0.8-0.2-1.3c-0.1-1.1,0.1-2.5,0.5-3.9s1-2.7,1.5-3.6
			C118.8,47.9,119.2,47.4,119.2,47.4z"/>
	</g>
	<g>
		<g>
			<path class="st7" d="M163.8,52.2c-12.2,3.9-25.3,5.1-38.1,3.5c4.9-3.6,11-5.7,17.1-5.8c2.8-0.1,5.6,0.3,8.3,0.6
				C155.4,51,159.6,51.6,163.8,52.2z"/>
			<path class="st5" d="M163.8,52.2c-1.5,0.6-3,1.1-4.6,1.6c-1.6,0.4-3.1,0.9-4.7,1.2c-1.6,0.3-3.2,0.6-4.8,0.9
				c-0.8,0.1-1.6,0.2-2.4,0.3l-2.4,0.2c-1.6,0.1-3.2,0.2-4.8,0.2s-3.2,0-4.8-0.1l-4.8-0.2c-1.6-0.1-3.2-0.2-4.8-0.4l-0.7-0.1
				l0.6-0.4c1.3-1,2.7-2,4.2-2.7c0.7-0.4,1.5-0.8,2.3-1.1s1.6-0.6,2.3-0.9c1.6-0.5,3.2-0.9,4.9-1.2c0.8-0.1,1.7-0.2,2.5-0.3
				c0.8,0,1.7-0.1,2.5,0c3.3,0.1,6.6,0.7,9.9,1.2l4.9,0.8c1.6,0.3,3.2,0.6,4.9,0.9h0.2L163.8,52.2z M163.5,52.2
				c-1.5-0.1-3.1-0.2-4.6-0.4l-4.9-0.5c-1.6-0.2-3.3-0.4-4.9-0.5c-1.6-0.2-3.3-0.3-4.9-0.3c-1.6,0-3.2,0.1-4.8,0.3s-3.2,0.6-4.7,1
				c-1.5,0.5-3.1,1.1-4.5,1.8c-1.5,0.7-2.9,1.5-4.2,2.4l-0.1-0.5l2.4,0.3l2.4,0.2l2.4,0.2h2.4c0.8,0,1.6,0,2.4,0l2.4-0.1l2.4-0.2
				c0.8-0.1,1.6-0.2,2.4-0.3l2.4-0.3c0.8-0.1,1.6-0.2,2.4-0.3c1.6-0.2,3.2-0.5,4.7-0.8c0.8-0.2,1.6-0.3,2.4-0.5l2.3-0.5l2.3-0.5
				L163.5,52.2z"/>
		</g>
		<path class="st5" d="M143.5,54.5c2.6-0.2,5.1-0.3,7.7-0.4c0.9,0,1.8-0.1,2.6-0.1c1.6-0.1,3.2-0.2,4.8-0.2
			c-1.2,0.1-2.6,0.6-3.9,0.9c-1.3,0.3-2.6,0.5-3.9,0.7c-2.7,0.4-5.4,0.7-8.1,0.8c-5.3,0.3-10.6,0.5-15.9-0.5
			C132.4,55.2,137.9,54.9,143.5,54.5z"/>
		<path class="st5" d="M125.6,55.9c0,0,0.6-0.1,1.6-0.3s2.5-0.5,4.2-0.8c1.8-0.3,3.8-0.6,6-0.9c2.2-0.3,4.5-0.5,6.9-0.6
			c2.3-0.1,4.7-0.3,6.9-0.3c2.2-0.1,4.2-0.2,6-0.3s3.2-0.2,4.2-0.2c1-0.1,1.6-0.1,1.6-0.1s-0.6,0.1-1.6,0.3s-2.5,0.4-4.2,0.6
			c-1.8,0.2-3.8,0.4-6,0.6c-2.2,0.2-4.5,0.3-6.9,0.5c-4.7,0.3-9.3,0.7-12.8,1c-1.8,0.2-3.2,0.3-4.2,0.4
			C126.1,55.9,125.6,55.9,125.6,55.9z"/>
		<path class="st5" d="M126.2,55.7c0,0,0.1-0.1,0.3-0.2c0.2-0.1,0.5-0.3,1-0.5c0.9-0.4,2.1-1,3.8-1.4c1.6-0.4,3.5-0.7,5.6-0.9
			s4.2-0.3,6.4-0.3s4.4,0,6.4,0c2.1,0,4,0,5.6,0s3,0,4,0s1.5,0,1.5,0s-2.2,0.3-5.5,0.5c-1.6,0.1-3.6,0.2-5.6,0.2
			c-2.1,0-4.2,0.1-6.4,0.1s-4.4,0.1-6.4,0.2c-2,0.1-3.9,0.3-5.5,0.6s-2.9,0.7-3.8,1.1c-0.4,0.2-0.8,0.3-1,0.4
			C126.4,55.6,126.2,55.7,126.2,55.7z"/>
		<path class="st5" d="M129.6,54.1c0,0,0.5-0.2,1.4-0.5c0.4-0.2,1-0.3,1.6-0.5s1.3-0.4,2.1-0.5c0.8-0.2,1.6-0.3,2.5-0.5
			s1.9-0.3,2.9-0.4c2-0.2,4.1-0.3,6.3-0.4c4.3,0,8.5,0.3,11.7,0.6c1.6,0.1,2.9,0.3,3.8,0.4c0.9,0.1,1.5,0.2,1.5,0.2
			s-2.1-0.1-5.3-0.3c-1.6-0.1-3.4-0.2-5.4-0.3s-4.1-0.1-6.2-0.1c-2.1,0-4.2,0.1-6.2,0.3c-1,0.1-1.9,0.2-2.8,0.3
			c-0.9,0.1-1.8,0.3-2.5,0.4c-0.8,0.1-1.5,0.3-2.1,0.4c-0.6,0.1-1.2,0.3-1.6,0.4C130.1,54,129.6,54.1,129.6,54.1z"/>
	</g>
</g>
</svg>
