<svg xmlns="http://www.w3.org/2000/svg" xmlns:xlink="http://www.w3.org/1999/xlink" viewBox="0 0 251.11 131.88"><defs><style>.cls-1{fill:none;}.cls-2,.cls-3,.cls-4,.cls-7{fill:#fff;}.cls-3,.cls-4,.cls-7{stroke:#56899d;}.cls-3,.cls-4,.cls-8{stroke-linecap:round;stroke-linejoin:round;}.cls-3{stroke-width:3.11px;}.cls-4{stroke-width:3.35px;}.cls-5{clip-path:url(#clip-path);}.cls-6,.cls-8{fill:#56899d;}.cls-7{stroke-miterlimit:10;stroke-width:3.15px;}.cls-8{stroke:#fff;stroke-width:5.26px;}</style><clipPath id="clip-path"><polygon class="cls-1" points="84.51 5.76 29.92 33.37 29.92 87.87 49.97 87.87 49.97 50.87 119.06 50.87 119.06 87.87 139.11 87.87 139.11 33.37 84.51 5.76"/></clipPath></defs><title>資產 1100</title><g id="圖層_2" data-name="圖層 2"><g id="圖層_1-2" data-name="圖層 1"><rect class="cls-2" x="45.7" y="45.12" width="87.99" height="57.52"/><line class="cls-3" x1="1.56" y1="103.34" x2="249.56" y2="103.34"/><polygon class="cls-4" points="84.51 5.76 29.92 33.37 29.92 103.33 49.97 103.33 49.97 50.87 119.06 50.87 119.06 103.33 139.11 103.33 139.11 33.37 84.51 5.76"/><rect class="cls-3" x="29.92" y="87.23" width="20.05" height="16.11"/><rect class="cls-3" x="119.06" y="87.23" width="20.05" height="16.11"/><rect class="cls-3" x="49.98" y="50.97" width="69.07" height="7.45"/><g class="cls-5"><rect class="cls-6" x="34.91" width="2.99" height="98.18"/><rect class="cls-6" x="41.32" width="2.99" height="98.18"/><rect class="cls-6" x="47.74" width="2.99" height="98.18"/><rect class="cls-6" x="54.15" width="2.99" height="98.18"/><rect class="cls-6" x="60.57" width="2.99" height="98.18"/><rect class="cls-6" x="66.98" width="2.99" height="98.18"/><rect class="cls-6" x="73.4" width="2.99" height="98.18"/><rect class="cls-6" x="79.81" width="2.99" height="98.18"/><rect class="cls-6" x="86.23" width="2.99" height="98.18"/><rect class="cls-6" x="92.64" width="2.99" height="98.18"/><rect class="cls-6" x="99.06" width="2.99" height="98.18"/><rect class="cls-6" x="105.47" width="2.99" height="98.18"/><rect class="cls-6" x="111.89" width="2.99" height="98.18"/><rect class="cls-6" x="118.3" width="2.99" height="98.18"/><rect class="cls-6" x="124.72" width="2.99" height="98.18"/><rect class="cls-6" x="131.13" width="2.99" height="98.18"/></g><polygon class="cls-4" points="82.45 22.27 57.3 34.99 57.3 41.57 82.45 41.57 82.45 22.27"/><polygon class="cls-4" points="86.58 22.27 86.58 41.57 111.72 41.57 111.72 34.99 86.58 22.27"/><polygon class="cls-3" points="142.79 38.88 84.51 9.4 26.23 38.88 23.73 32.86 84.51 2.11 145.29 32.86 142.79 38.88"/><rect class="cls-7" x="59.85" y="95.75" width="19.66" height="17.53"/><rect class="cls-7" x="59.85" y="78.21" width="19.66" height="17.53"/><rect class="cls-7" x="79.51" y="95.75" width="19.66" height="17.53"/><path class="cls-8" d="M226.08,92.15a4.75,4.75,0,0,0-3.25-1.72l.47-5.9a18.4,18.4,0,0,0-3.38-12.44l-8.92-12a11.07,11.07,0,0,0-8.93-4.56h-7c-3.58,0-6.74,3.21-7,7.15l-2.19,27.7h-1.67l3.63-45.77a8,8,0,0,0-1.73-5.78,6.44,6.44,0,0,0-5-2.4h-55c-3.94,0-7.43,3.54-7.77,7.89L118.09,47a4.77,4.77,0,0,0,1,3.41,3.89,3.89,0,0,0,3,1.45h18.17a1.38,1.38,0,0,1,1.31,1.44v.47a1.39,1.39,0,0,1-1.31,1.44H106.07a4.12,4.12,0,0,0-3.95,4,4.71,4.71,0,0,0,1,3.34,3.82,3.82,0,0,0,2.92,1.42h40.21a1.38,1.38,0,0,1,1.3,1.44v.47a1.38,1.38,0,0,1-1.3,1.44H112.11a4.12,4.12,0,0,0-4,4,4.71,4.71,0,0,0,1,3.34A3.82,3.82,0,0,0,112.11,76h19.68a1.38,1.38,0,0,1,1.3,1.44V78a1.38,1.38,0,0,1-1.3,1.44H96.15a4.13,4.13,0,0,0-4,4,4.71,4.71,0,0,0,1,3.34,3.78,3.78,0,0,0,2.92,1.42h37.42a1.39,1.39,0,0,1,1.31,1.45v.47a1.55,1.55,0,0,1,0,.31h-19.3c-2.87,0-5.42,2.59-5.67,5.76l-.64,8a12.07,12.07,0,0,0,2.61,8.73,9.71,9.71,0,0,0,7.59,3.61h3.93c.19,7.17,5.26,12.74,12,12.74s12.65-5.57,14-12.74h29.92c.19,7.17,5.26,12.74,12,12.74s12.65-5.57,14-12.74h9.7c6,0,11.34-5.4,11.86-12.05l.64-8A5.91,5.91,0,0,0,226.08,92.15Z"/><path class="cls-7" d="M181,38.08h-55c-3.19,0-6,2.85-6.28,6.38l-.21,2.63a2.73,2.73,0,0,0,2.54,3.06h18.17a3,3,0,0,1,2.81,3.1v.47a3,3,0,0,1-2.81,3.1H106.07a2.57,2.57,0,0,0-2.45,2.48h0a2.63,2.63,0,0,0,2.45,3h40.21a3,3,0,0,1,2.8,3.1v.47a3,3,0,0,1-2.8,3.1H112.11a2.58,2.58,0,0,0-2.45,2.49h0a2.62,2.62,0,0,0,2.45,3h19.68a3,3,0,0,1,2.8,3.1V78a3,3,0,0,1-2.8,3.09H96.15a2.58,2.58,0,0,0-2.45,2.49h0a2.63,2.63,0,0,0,2.45,3h37.42a3,3,0,0,1,2.81,3.1v.47a3.14,3.14,0,0,1-1.53,2.74h47.61l3.83-48.34C186.57,40.93,184.21,38.08,181,38.08Z"/><path class="cls-7" d="M221,95H187l2.55-32.19c.25-3.12,2.74-5.64,5.56-5.64h7a9.6,9.6,0,0,1,7.77,4l8.92,12a16.63,16.63,0,0,1,3.05,11.25Z"/><path class="cls-6" d="M207.48,81.81h-9.83a2.18,2.18,0,0,1-2.06-2.51l.88-11.09a2.51,2.51,0,0,1,2.34-2.38h3a4.06,4.06,0,0,1,3.28,1.67l3.77,5.07a7,7,0,0,1,1.28,4.75l-.16,2A2.63,2.63,0,0,1,207.48,81.81Z"/><path class="cls-7" d="M214.86,114.85H119.43c-5.27,0-9.16-4.71-8.7-10.53l.63-8A4.48,4.48,0,0,1,115.54,92H222.36a3.69,3.69,0,0,1,3.5,4.25l-.63,8C224.77,110.14,220.12,114.85,214.86,114.85Z"/><path class="cls-6" d="M149.54,114.81c-.64,8-7,14.44-14.22,14.44s-12.56-6.46-11.92-14.44,7-14.43,14.21-14.43S150.17,106.84,149.54,114.81Z"/><path class="cls-7" d="M140.72,114.81a5,5,0,0,1-4.63,4.7,4.1,4.1,0,0,1-3.88-4.7,5,5,0,0,1,4.63-4.69A4.09,4.09,0,0,1,140.72,114.81Z"/><ellipse class="cls-6" cx="192.33" cy="114.81" rx="14.66" ry="12.87" transform="translate(15.88 252.8) rotate(-68.86)"/><path class="cls-7" d="M196.58,114.81a5,5,0,0,1-4.63,4.7,4.1,4.1,0,0,1-3.88-4.7,5,5,0,0,1,4.63-4.69A4.09,4.09,0,0,1,196.58,114.81Z"/></g></g></svg>