<svg xmlns="http://www.w3.org/2000/svg" viewBox="0 0 246.86 136.66"><defs><style>.cls-1,.cls-2{fill:#56899d;}.cls-14,.cls-2,.cls-6{stroke:#fff;}.cls-11,.cls-12,.cls-2,.cls-6,.cls-8,.cls-9{stroke-linecap:round;stroke-linejoin:round;}.cls-2{stroke-width:6px;}.cls-10,.cls-11,.cls-13,.cls-3,.cls-4,.cls-6,.cls-7,.cls-8,.cls-9{fill:#fff;}.cls-11,.cls-12,.cls-13,.cls-3,.cls-4,.cls-5,.cls-7,.cls-8,.cls-9{stroke:#56899d;}.cls-13,.cls-14,.cls-3,.cls-4,.cls-5,.cls-7{stroke-miterlimit:10;}.cls-3{stroke-width:2.61px;}.cls-4{stroke-width:2.16px;}.cls-12,.cls-14,.cls-5{fill:none;}.cls-5{stroke-width:2.59px;}.cls-6{stroke-width:4.4px;}.cls-7,.cls-8{stroke-width:2.8px;}.cls-9{stroke-width:2.88px;}.cls-11,.cls-13{stroke-width:2.64px;}.cls-12{stroke-width:1.58px;}.cls-14{stroke-width:2.2px;}</style></defs><title>資產 2102</title><g id="圖層_2" data-name="圖層 2"><g id="圖層_1-2" data-name="圖層 1"><polygon class="cls-1" points="161.94 98.07 116.63 101.03 158.61 86.35 194.01 73.98 187.07 57.62 152.74 74.91 114.95 93.95 146.24 66.5 175.65 40.7 163.08 28.13 136.82 58.07 109.02 89.75 127.12 52.21 144.62 15.91 128.14 9.25 115.4 47.87 102.83 85.93 105.44 46.09 108.1 5.36 90.33 5.36 92.99 46.09 95.67 87.15 82.04 48.15 68.63 9.77 52.27 16.71 70.39 52.68 88.59 88.83 61.6 58.07 35.34 28.13 22.78 40.7 52.18 66.5 84.39 94.76 45.1 75.82 10.55 59.16 3.9 75.64 39.41 87.36 80.57 100.94 36.49 98.07 0 95.68 0 113.45 35.52 111.13 89.53 107.61 89.53 102.69 90.97 99.11 93.7 96.39 97.24 94.88 101.09 94.88 104.67 96.33 107.39 99.05 108.9 102.6 108.9 107.61 162.9 111.13 198.43 113.45 198.43 95.68 161.94 98.07"/><path class="cls-2" d="M235.11,49.17l-8-.93a3.71,3.71,0,0,0-3.26-3.65l-2.09-.24a8.72,8.72,0,0,0-16.86-2l-2.09-.24a3.7,3.7,0,0,0-4,2.8l-8-.93a9.9,9.9,0,0,0-11,8.69l-6.83,58.61a9.89,9.89,0,0,0,8.68,11L226,127.44a9.89,9.89,0,0,0,11-8.68l6.83-58.61A9.9,9.9,0,0,0,235.11,49.17Z"/><rect class="cls-3" x="176.26" y="46.33" width="64.33" height="78.8" rx="9.89" ry="9.89" transform="translate(11.33 -23.56) rotate(6.65)"/><rect class="cls-3" x="183.93" y="53.64" width="48.98" height="64.18" transform="translate(11.33 -23.56) rotate(6.65)"/><path class="cls-4" d="M220.77,45.32a7.64,7.64,0,0,0-15.07-1.76l-3-.35a2.63,2.63,0,0,0-2.91,2.31l-.95,8.07a2.63,2.63,0,0,0,2.31,2.91l21,2.46a2.65,2.65,0,0,0,2.92-2.31l.94-8.07a2.62,2.62,0,0,0-2.31-2.91Z"/><path class="cls-1" d="M215.21,45.6a2.09,2.09,0,1,1-1.84-2.32A2.09,2.09,0,0,1,215.21,45.6Z"/><rect class="cls-1" x="189.57" y="75.06" width="40" height="1.57" transform="translate(10.19 -23.76) rotate(6.65)"/><path class="cls-5" d="M193.59,66.26l2.32,4a1.48,1.48,0,0,0,2.38.48l8-7.62"/><rect class="cls-1" x="187.74" y="90.78" width="40" height="1.57" transform="translate(12 -23.44) rotate(6.65)"/><path class="cls-5" d="M191.76,82l2.32,4a1.48,1.48,0,0,0,2.38.48l8-7.62"/><rect class="cls-1" x="185.91" y="106.51" width="40" height="1.57" transform="translate(13.81 -23.12) rotate(6.65)"/><path class="cls-5" d="M189.93,97.71l2.31,4a1.47,1.47,0,0,0,2.38.48l8-7.61"/><path class="cls-6" d="M117.35,42.51a1.29,1.29,0,0,0-.1-.59,37.09,37.09,0,0,0-6.4-20.82,12.88,12.88,0,0,0-5.29-4.75l.14-2.79,1,0,.33-7a3.83,3.83,0,0,0-3.65-4l-8.51-.4a3.83,3.83,0,0,0-4,3.64l-.33,7,1,.05-.13,2.79a12.92,12.92,0,0,0-5.71,4.23A37.2,37.2,0,0,0,77.28,40a1.42,1.42,0,0,0-.15.58l-2,42.71a1.87,1.87,0,0,0,0,.34,44.28,44.28,0,0,0,2,15.21,6.71,6.71,0,0,0,5.87,4.7.55.55,0,0,0,.18,0l22.1,1a1.08,1.08,0,0,0,.18,0,6.74,6.74,0,0,0,6.3-4.12,44.61,44.61,0,0,0,3.47-15,1.75,1.75,0,0,0,.06-.33Z"/><rect class="cls-7" x="92.7" y="9.44" width="11.44" height="14.41" transform="translate(0.9 -4.64) rotate(2.72)"/><path class="cls-7" d="M94.58,3.8h8.52a2.43,2.43,0,0,1,2.43,2.43v5.59a0,0,0,0,1,0,0H92.15a0,0,0,0,1,0,0V6.23A2.43,2.43,0,0,1,94.58,3.8Z" transform="translate(0.48 -4.67) rotate(2.72)"/><path class="cls-8" d="M114.36,75.22l1.45-30.6c.55-11.47-3.11-17.89-6.15-22.78a11.68,11.68,0,0,0-9.38-5.46l-3.68-.17a11.7,11.7,0,0,0-9.86,4.54c-3.49,4.58-7.73,10.63-8.28,22.1L77,73.45h0l-.47,9.93a43.2,43.2,0,0,0,2,15.06,5.38,5.38,0,0,0,4.79,3.74h0l22.1,1h0a5.38,5.38,0,0,0,5.12-3.27,43.19,43.19,0,0,0,3.38-14.81l.47-9.93Z"/><rect class="cls-9" x="77.53" y="41.53" width="37.39" height="42.75" transform="translate(3.09 -4.49) rotate(2.72)"/><ellipse class="cls-1" cx="96.24" cy="62.6" rx="11.52" ry="14.97" transform="translate(30.09 156.44) rotate(-87.86)"/><path class="cls-10" d="M101.83,62.32h0c-.82-4-5.28-8.16-5.28-8.16s-4.76,3.77-5.88,7.75h0A5.75,5.75,0,1,0,102,63.74,5.57,5.57,0,0,0,101.83,62.32Z"/><path class="cls-6" d="M76.34,65.24a1.44,1.44,0,0,0-.29-.53,37.14,37.14,0,0,0-13-17.49,13,13,0,0,0-6.57-2.71l-.81-2.68.93-.28-2-6.69a3.84,3.84,0,0,0-4.78-2.57l-8.16,2.46a3.84,3.84,0,0,0-2.56,4.78l2,6.69.94-.28.81,2.68a12.9,12.9,0,0,0-4,5.89,37.1,37.1,0,0,0-1.15,21.75,1.36,1.36,0,0,0,0,.6l12.34,40.93a1,1,0,0,0,.14.31,44.15,44.15,0,0,0,7,13.67A6.79,6.79,0,0,0,69,130.12a7.35,7.35,0,0,0,10.77-3.25,6.74,6.74,0,0,0,5.88,1,6.82,6.82,0,0,0,4.81-6.08,44.44,44.44,0,0,0-1.72-15.26,1.91,1.91,0,0,0-.06-.33Z"/><rect class="cls-7" x="44.15" y="39.96" width="11.44" height="14.41" transform="translate(-11.49 16.4) rotate(-16.78)"/><path class="cls-7" d="M43.05,34.69h8.52A2.43,2.43,0,0,1,54,37.12v5.59a0,0,0,0,1,0,0H40.62a0,0,0,0,1,0,0V37.12A2.43,2.43,0,0,1,43.05,34.69Z" transform="matrix(0.96, -0.29, 0.29, 0.96, -9.16, 15.3)"/><path class="cls-8" d="M84.44,97.07,75.59,67.74c-3.31-11-8.9-15.83-13.4-19.42a11.65,11.65,0,0,0-10.66-2L48,47.36a11.69,11.69,0,0,0-7.77,7.58c-1.77,5.48-3.75,12.6-.44,23.59l8.84,29.33h0l2.87,9.52a43.21,43.21,0,0,0,6.88,13.54A5.38,5.38,0,0,0,68,128.68l.23-1.23A6,6,0,0,0,79,124.2l.88.9a5.38,5.38,0,0,0,9.22-3.43,43,43,0,0,0-1.76-15.08l-2.86-9.52Z"/><rect class="cls-9" x="44.54" y="70.14" width="37.39" height="42.75" transform="translate(-23.72 22.15) rotate(-16.78)"/><path class="cls-11" d="M76.28,87.26a13.72,13.72,0,1,1-17.1-9.18A13.73,13.73,0,0,1,76.28,87.26Z"/><path class="cls-1" d="M59.58,90.46a2.38,2.38,0,1,1-3-1.59A2.39,2.39,0,0,1,59.58,90.46Z"/><path class="cls-1" d="M70.24,87.24a2.37,2.37,0,1,1-2.95-1.58A2.37,2.37,0,0,1,70.24,87.24Z"/><path class="cls-12" d="M61.5,94.42A2.58,2.58,0,0,0,66.28,93"/><path class="cls-6" d="M157.16,66.49a17.72,17.72,0,0,0-6.77-6.73l.62-2.24,1.49.41,2-7.15a4,4,0,0,0-2.78-4.89l-9-2.46a4.7,4.7,0,0,0-.75-.13,4,4,0,0,0-4.13,2.91l-2,7.16,1.49.41L136.74,56a17.94,17.94,0,0,0-17.67,13.17l-13,47.31a9.24,9.24,0,0,0,6.47,11.36l22,6a8.78,8.78,0,0,0,1.75.3h0a9.24,9.24,0,0,0,9.61-6.77l13-47.31A17.78,17.78,0,0,0,157.16,66.49Z"/><rect class="cls-13" x="137.04" y="50.73" width="13.82" height="11.51" transform="translate(51.38 180.35) rotate(-74.65)"/><path class="cls-13" d="M157.6,79.75A16.62,16.62,0,0,0,146,59.34l-5.21-1.43a16.61,16.61,0,0,0-20.42,11.62l-13,47.31a7.91,7.91,0,0,0,5.54,9.73l22,6a7.94,7.94,0,0,0,9.74-5.55Z"/><path class="cls-13" d="M151.57,56.31l-14.08-3.87,1.61-5.88a2.65,2.65,0,0,1,3.26-1.85l9,2.46a2.67,2.67,0,0,1,1.86,3.26Z"/><rect class="cls-1" x="121.48" y="68.41" width="27.79" height="38.63" transform="translate(14.95 195.05) rotate(-74.65)"/><circle class="cls-14" cx="135.38" cy="87.72" r="8.73" transform="translate(19.65 200.1) rotate(-77.1)"/><line class="cls-14" x1="137.69" y1="79.3" x2="133.07" y2="96.14"/><line class="cls-14" x1="127.24" y1="90.87" x2="135.66" y2="86.69"/></g></g></svg>