<svg id="圖層_1" data-name="圖層 1" xmlns="http://www.w3.org/2000/svg" viewBox="0 0 152 152"><defs><style>.cls-1{fill:#fff;}.cls-2{fill:#56889c;}</style></defs><title>工作區域 1101</title><polygon class="cls-1" points="17.15 20.77 17.15 29.93 29.52 47.73 123.54 47.73 135.91 30.12 135.91 20.77 17.15 20.77"/><path class="cls-2" d="M124.83,49.77H28.22L14.83,30.5V18.73h123.4v12Zm-94-4.07h91.43L133.6,29.54V22.81H19.46v6.54Z"/><rect class="cls-1" x="34.87" y="78.58" width="8.44" height="8.91"/><path class="cls-2" d="M45.62,89.52H32.56v-13H45.62Zm-8.43-4.07H41V80.61h-3.8Z"/><path class="cls-1" d="M53.25,95.17c0-5.92-5.45-10.71-12.18-10.71h-4c-6.72,0-12.17,4.79-12.17,10.71v31.62c0,2.82,2.6,5.11,5.8,5.11h16.7c3.21,0,5.81-2.29,5.81-5.11Z"/><path class="cls-2" d="M47.44,133.94H30.74c-4.48,0-8.12-3.21-8.12-7.15V95.17c0-7,6.5-12.75,14.49-12.75h4c8,0,14.49,5.72,14.49,12.75v31.62C55.56,130.73,51.92,133.94,47.44,133.94ZM37.11,86.49c-5.44,0-9.86,3.89-9.86,8.68v31.62a3.31,3.31,0,0,0,3.49,3.07h16.7a3.31,3.31,0,0,0,3.49-3.07V95.17c0-4.79-4.42-8.68-9.86-8.68Z"/><path class="cls-1" d="M36.68,76H41.5a2.94,2.94,0,0,1,2.94,2.94v2.7a0,0,0,0,1,0,0H33.74a0,0,0,0,1,0,0v-2.7A2.94,2.94,0,0,1,36.68,76Z"/><path class="cls-2" d="M46.76,83.66H31.42v-6a4,4,0,0,1,4.26-3.75H42.5a4,4,0,0,1,4.26,3.75ZM36.05,79.58h6.08V78H36.05Z"/><rect class="cls-1" x="24.94" y="95.17" width="28.31" height="14.79"/><path class="cls-2" d="M55.56,112H22.62V93.13H55.56Zm-28.31-4.08H50.93V97.2H27.25Z"/><rect class="cls-1" x="34.71" y="65.22" width="8.77" height="16.92"/><path class="cls-2" d="M45.79,84.17H32.39v-21h13.4ZM37,80.1h4.14V67.25H37Z"/><path class="cls-1" d="M32,56.93H46.16a0,0,0,0,1,0,0v5.29a4.48,4.48,0,0,1-4.48,4.48H36.5A4.48,4.48,0,0,1,32,62.21V56.93A0,0,0,0,1,32,56.93Z"/><path class="cls-2" d="M43.2,68.72H35c-2.91,0-5.27-2.08-5.27-4.64V54.89H48.48v9.19C48.48,66.64,46.11,68.72,43.2,68.72ZM34.34,59v5.12a.61.61,0,0,0,.64.57H43.2a.61.61,0,0,0,.65-.57V59Z"/><path class="cls-1" d="M36.5,74.18h5.19a4.48,4.48,0,0,1,4.48,4.48v5.29a0,0,0,0,1,0,0H32a0,0,0,0,1,0,0V78.66A4.48,4.48,0,0,1,36.5,74.18Z"/><path class="cls-2" d="M48.48,86H29.71V76.79c0-2.56,2.36-4.64,5.27-4.64H43.2c2.91,0,5.28,2.08,5.28,4.64ZM34.34,81.91h9.51V76.79a.62.62,0,0,0-.65-.57H35a.61.61,0,0,0-.64.57Z"/><rect class="cls-1" x="72.31" y="78.58" width="8.44" height="8.91"/><path class="cls-2" d="M83.06,89.52H70v-13H83.06Zm-8.43-4.07h3.8V80.61h-3.8Z"/><path class="cls-1" d="M90.69,95.17c0-5.92-5.45-10.71-12.18-10.71h-4c-6.72,0-12.17,4.79-12.17,10.71v31.62c0,2.82,2.6,5.11,5.8,5.11h16.7c3.21,0,5.81-2.29,5.81-5.11Z"/><path class="cls-2" d="M84.88,133.94H68.18c-4.48,0-8.12-3.21-8.12-7.15V95.17c0-7,6.5-12.75,14.49-12.75h4c8,0,14.49,5.72,14.49,12.75v31.62C93,130.73,89.36,133.94,84.88,133.94ZM74.55,86.49c-5.44,0-9.86,3.89-9.86,8.68v31.62a3.31,3.31,0,0,0,3.49,3.07h16.7a3.31,3.31,0,0,0,3.49-3.07V95.17c0-4.79-4.42-8.68-9.86-8.68Z"/><path class="cls-1" d="M74.12,76h4.82a2.94,2.94,0,0,1,2.94,2.94v2.7a0,0,0,0,1,0,0H71.18a0,0,0,0,1,0,0v-2.7A2.94,2.94,0,0,1,74.12,76Z"/><path class="cls-2" d="M84.2,83.66H68.86v-6a4,4,0,0,1,4.26-3.75h6.82a4,4,0,0,1,4.26,3.75ZM73.49,79.58h6.08V78H73.49Z"/><rect class="cls-1" x="62.38" y="95.17" width="28.31" height="14.79"/><path class="cls-2" d="M93,112H60.06V93.13H93Zm-28.31-4.08H88.37V97.2H64.69Z"/><rect class="cls-1" x="72.15" y="65.22" width="8.77" height="16.92"/><path class="cls-2" d="M83.23,84.17H69.83v-21h13.4ZM74.46,80.1H78.6V67.25H74.46Z"/><path class="cls-1" d="M69.46,56.93H83.6a0,0,0,0,1,0,0v5.29a4.48,4.48,0,0,1-4.48,4.48H73.94a4.48,4.48,0,0,1-4.48-4.48V56.93A0,0,0,0,1,69.46,56.93Z"/><path class="cls-2" d="M80.64,68.72H72.42c-2.91,0-5.27-2.08-5.27-4.64V54.89H85.92v9.19C85.92,66.64,83.55,68.72,80.64,68.72ZM71.78,59v5.12a.6.6,0,0,0,.64.57h8.22a.6.6,0,0,0,.64-.57V59Z"/><path class="cls-1" d="M73.94,74.18h5.19a4.48,4.48,0,0,1,4.48,4.48v5.29a0,0,0,0,1,0,0H69.46a0,0,0,0,1,0,0V78.66A4.48,4.48,0,0,1,73.94,74.18Z"/><path class="cls-2" d="M85.92,86H67.15V76.79c0-2.56,2.36-4.64,5.27-4.64h8.22c2.91,0,5.28,2.08,5.28,4.64ZM71.78,81.91h9.5V76.79a.61.61,0,0,0-.64-.57H72.42a.61.61,0,0,0-.64.57Z"/><rect class="cls-1" x="109.75" y="78.58" width="8.44" height="8.91"/><path class="cls-2" d="M120.5,89.52H107.44v-13H120.5Zm-8.43-4.07h3.8V80.61h-3.8Z"/><path class="cls-1" d="M128.12,95.17c0-5.92-5.45-10.71-12.17-10.71h-4c-6.73,0-12.17,4.79-12.17,10.71v31.62c0,2.82,2.59,5.11,5.8,5.11h16.7c3.2,0,5.8-2.29,5.8-5.11Z"/><path class="cls-2" d="M122.32,133.94h-16.7c-4.48,0-8.12-3.21-8.12-7.15V95.17c0-7,6.5-12.75,14.49-12.75h4c8,0,14.49,5.72,14.49,12.75v31.62C130.44,130.73,126.8,133.94,122.32,133.94ZM112,86.49c-5.44,0-9.86,3.89-9.86,8.68v31.62a3.31,3.31,0,0,0,3.49,3.07h16.7a3.31,3.31,0,0,0,3.49-3.07V95.17c0-4.79-4.42-8.68-9.86-8.68Z"/><path class="cls-1" d="M111.56,76h4.82a2.94,2.94,0,0,1,2.94,2.94v2.7a0,0,0,0,1,0,0h-10.7a0,0,0,0,1,0,0v-2.7A2.94,2.94,0,0,1,111.56,76Z"/><path class="cls-2" d="M121.64,83.66H106.3v-6a4,4,0,0,1,4.26-3.75h6.82a4,4,0,0,1,4.26,3.75Zm-10.71-4.08H117V78h-6.08Z"/><rect class="cls-1" x="99.82" y="95.17" width="28.31" height="14.79"/><path class="cls-2" d="M130.44,112H97.5V93.13h32.94Zm-28.31-4.08h23.68V97.2H102.13Z"/><rect class="cls-1" x="109.59" y="65.22" width="8.77" height="16.92"/><path class="cls-2" d="M120.67,84.17h-13.4v-21h13.4ZM111.9,80.1H116V67.25H111.9Z"/><path class="cls-1" d="M106.9,56.93H121a0,0,0,0,1,0,0v5.29a4.48,4.48,0,0,1-4.48,4.48h-5.19a4.48,4.48,0,0,1-4.48-4.48V56.93A0,0,0,0,1,106.9,56.93Z"/><path class="cls-2" d="M118.08,68.72h-8.22c-2.91,0-5.27-2.08-5.27-4.64V54.89h18.76v9.19C123.35,66.64,121,68.72,118.08,68.72ZM109.22,59v5.12a.6.6,0,0,0,.64.57h8.22a.6.6,0,0,0,.64-.57V59Z"/><path class="cls-1" d="M111.38,74.18h5.19A4.48,4.48,0,0,1,121,78.66v5.29a0,0,0,0,1,0,0H106.9a0,0,0,0,1,0,0V78.66A4.48,4.48,0,0,1,111.38,74.18Z"/><path class="cls-2" d="M123.35,86H104.59V76.79c0-2.56,2.36-4.64,5.27-4.64h8.22c2.91,0,5.27,2.08,5.27,4.64Zm-14.13-4.07h9.5V76.79a.61.61,0,0,0-.64-.57h-8.22a.61.61,0,0,0-.64.57Z"/><rect class="cls-1" x="16.7" y="44.24" width="119.67" height="12.86"/><path class="cls-2" d="M138.68,59.14H14.38V42.2h124.3ZM19,55.06h115V46.28H19Z"/></svg>