<svg id="圖層_1" data-name="圖層 1" xmlns="http://www.w3.org/2000/svg" viewBox="0 0 152 152"><defs><style>.cls-1{fill:#fff;}.cls-2{fill:#56889c;}</style></defs><title>工作區域 1100</title><path class="cls-1" d="M121.21,54.78C116,37.43,105.75,25.17,98.38,27.39l-34,6.27L84.11,98.92l33.25-8.7C124.72,88,126.45,72.13,121.21,54.78Z"/><path class="cls-2" d="M84.11,100.88a2,2,0,0,1-1.87-1.39L62.53,34.23a2,2,0,0,1,.21-1.59,1.92,1.92,0,0,1,1.31-.9l33.88-6.25a8,8,0,0,1,2.24-.31c8.2,0,17.83,12.21,22.91,29,2.61,8.63,3.63,17.21,2.87,24.16-.82,7.53-3.67,12.4-8,13.71l-.07,0-33.24,8.7A1.77,1.77,0,0,1,84.11,100.88ZM66.91,35.19,85.44,96.56l31.38-8.22c5.41-1.68,7.77-15.62,2.52-33-5-16.44-13.64-26.26-19.17-26.26a4.14,4.14,0,0,0-1.22.18l-.21.05Z"/><ellipse class="cls-1" cx="74.26" cy="66.29" rx="14.47" ry="34.09" transform="translate(-15.99 24.3) rotate(-16.8)"/><path class="cls-2" d="M82.25,101.15c-8.47,0-18.45-12.66-23.72-30.11-2.7-9-3.76-17.87-3-25.07.85-7.79,3.79-12.82,8.29-14.18a8.53,8.53,0,0,1,2.42-.35c8.48,0,18.45,12.66,23.72,30.1,2.71,9,3.77,17.87,3,25.08-.84,7.78-3.78,12.81-8.28,14.17A8.26,8.26,0,0,1,82.25,101.15Zm-16-65.81a4.63,4.63,0,0,0-1.29.19c-2.86.87-4.88,4.82-5.53,10.86-.73,6.7.28,15,2.83,23.52,5.17,17.11,14.22,27.33,20,27.33a4.31,4.31,0,0,0,1.3-.19c2.86-.86,4.87-4.82,5.53-10.85.73-6.7-.28-15.06-2.84-23.53C81.08,45.57,72,35.34,66.26,35.34Z"/><path class="cls-1" d="M82.4,63.83c4,13.25,3.59,25.09-.92,26.45S70.07,82,66.07,68.76,62.48,43.66,67,42.3,78.4,50.58,82.4,63.83Z"/><path class="cls-2" d="M80.6,92.37c-6.48,0-13-12-16.4-23.05-3.88-12.85-4.36-26.9,2.23-28.89a5,5,0,0,1,1.45-.21c6.48,0,13,11.94,16.39,23,3.88,12.85,4.37,26.9-2.22,28.89A5,5,0,0,1,80.6,92.37ZM67.88,44.13a1.08,1.08,0,0,0-.32,0c-2.51.76-3.63,10.73.38,24,3.94,13,10,20.27,12.66,20.27a1.13,1.13,0,0,0,.32,0c2.5-.75,3.63-10.72-.39-24C76.59,51.34,70.55,44.13,67.88,44.13Z"/><path class="cls-1" d="M82.4,63.83C79.71,54.92,75.72,47.67,72,44.27c-1.42,4.78-.79,13.36,2,22.64,2.69,8.91,6.68,16.16,10.39,19.56C85.84,81.69,85.21,73.11,82.4,63.83Z"/><path class="cls-2" d="M84.42,88.42a2,2,0,0,1-1.33-.51C79,84.12,74.88,76.48,72.16,67.48c-2.82-9.34-3.59-18.45-2-23.76a1.94,1.94,0,0,1,1.35-1.33,2,2,0,0,1,1.84.44c4.13,3.8,8.22,11.43,10.93,20.43,2.82,9.34,3.6,18.45,2,23.76a1.94,1.94,0,0,1-1.35,1.33A1.91,1.91,0,0,1,84.42,88.42ZM73.28,48.71c-.26,4.71.66,11.15,2.62,17.64A55.13,55.13,0,0,0,83.15,82c.27-4.71-.66-11.15-2.62-17.64A55.26,55.26,0,0,0,73.28,48.71Z"/><path class="cls-1" d="M87.72,60.87c.39,1.24,4.57,11.23,5.89,31.19,0,0,.83,18.48,12.21,24.91l37-11.22a30.82,30.82,0,0,1-12.9-13.43,19.79,19.79,0,0,1-1.81-6.22c-1-7.46-4-27.73-8.88-37.16Z"/><path class="cls-2" d="M105.82,118.93a2,2,0,0,1-1-.26C92.67,111.79,91.7,93,91.66,92.15c-.54-8.11-1.94-20-5.58-30.07-.11-.29-.18-.5-.22-.63A2,2,0,0,1,87,59l31.46-11.93a2,2,0,0,1,2.43.94c4.92,9.6,8,29.62,9.08,37.79a17.61,17.61,0,0,0,1.62,5.61,29,29,0,0,0,12,12.54,2,2,0,0,1-.27,3.63l-36.95,11.22A1.88,1.88,0,0,1,105.82,118.93ZM90.2,62c2.79,8.23,4.59,18.29,5.36,29.91,0,.21.89,16.73,10.52,22.92l32-9.73a33.47,33.47,0,0,1-10-11.93,21.32,21.32,0,0,1-2-6.84c-.79-5.88-3.59-25-7.94-34.94Z"/><path class="cls-1" d="M129.87,92.32a19.79,19.79,0,0,1-1.81-6.22c-1-7.46-3.22-28.49-8-37.92,0,0-8.09-21-21.63-20.79l-34,6.27C72,31.37,82.49,43.89,88,61.68c-.12-.4-.21-.69-.25-.81a75.93,75.93,0,0,1,2.55,8.39c-.32-1.06-1-3.26-2.16-7.15,0-.15-.09-.28-.14-.43l2.31,7.61a130.87,130.87,0,0,1,3.33,22.77,40.14,40.14,0,0,0,.5,4.24c1,5.85,3.77,16.18,11.71,20.67l37-11.22A30.82,30.82,0,0,1,129.87,92.32Z"/><path class="cls-2" d="M105.82,118.93a2,2,0,0,1-1-.26c-8.66-4.89-11.66-15.91-12.67-22a39.74,39.74,0,0,1-.53-4.47,129.5,129.5,0,0,0-3.27-22.34L88,68.45c-.59-2-1.44-4.78-1.87-6.19C80.92,45.41,71.94,35.34,66.26,35.34H66l-1.26.23a2,2,0,0,1-.92-3.79,8.6,8.6,0,0,1,1.68-.32l32.51-6a1.66,1.66,0,0,1,.32,0h.28c14.22,0,22.45,20.14,23.16,21.94,4.44,8.76,6.66,26.24,7.85,35.65.13,1.07.25,2,.36,2.81a17.61,17.61,0,0,0,1.62,5.61,29.3,29.3,0,0,0,12,12.54,2,2,0,0,1,1.11,1.91,1.94,1.94,0,0,1-1.38,1.72l-36.95,11.22A1.88,1.88,0,0,1,105.82,118.93ZM92.17,68.79v0a134.8,134.8,0,0,1,3.38,23.11s.09,1.68.48,4.06c.88,5.26,3.33,14.55,10,18.86l32-9.73a33.47,33.47,0,0,1-10-11.93,21.32,21.32,0,0,1-2-6.84c-.11-.8-.23-1.75-.37-2.83-1.08-8.55-3.33-26.33-7.49-34.45l-.09-.19c-.07-.19-7.66-19.53-19.55-19.53h-.06L73.26,34c6.22,4.38,12.38,14,16.27,26.11l.06.16h0c0,.1.09.25.17.47A79.18,79.18,0,0,1,92.17,68.79Z"/><path class="cls-2" d="M125.88,93.07a21.9,21.9,0,0,1-1.77-7.43c-1.2-20-6-32.74-6-32.74-7.18-20.16-19.29-25.11-26.85-24.77l-21,4.44c10,1.93,17.88,12.73,22.79,29.12,0,0,4.4,14.82,4.7,29.66,0,0,.17,19.17,14,23.8l26.37-8A31.06,31.06,0,0,1,125.88,93.07Z"/><path class="cls-1" d="M73.1,64.83C67.86,47.48,57.64,35.22,50.27,37.44l-34,6.27L36,109l33.24-8.7C76.61,98.05,78.34,82.18,73.1,64.83Z"/><path class="cls-2" d="M36,110.93a2,2,0,0,1-1.87-1.39L14.42,44.28a1.95,1.95,0,0,1,1.52-2.49l33.88-6.25a8,8,0,0,1,2.24-.31c8.19,0,17.83,12.21,22.91,29,2.61,8.64,3.63,17.22,2.87,24.17-.82,7.53-3.67,12.39-8,13.71l-.07,0-33.25,8.7A1.66,1.66,0,0,1,36,110.93ZM18.79,45.24l18.54,61.37,31.38-8.22c5.4-1.68,7.76-15.62,2.52-33C66.26,49,57.58,39.14,52.06,39.14a4.49,4.49,0,0,0-1.22.17,1.66,1.66,0,0,1-.21.06Z"/><ellipse class="cls-1" cx="26.15" cy="76.34" rx="14.47" ry="34.09" transform="translate(-20.95 10.82) rotate(-16.8)"/><path class="cls-2" d="M34.14,111.2c-8.48,0-18.45-12.66-23.72-30.11-2.71-9-3.77-17.87-3-25.07.84-7.79,3.79-12.82,8.29-14.18a8.48,8.48,0,0,1,2.42-.35c8.48,0,18.45,12.66,23.72,30.1,2.71,9,3.77,17.87,3,25.08-.84,7.78-3.79,12.81-8.29,14.17A8.15,8.15,0,0,1,34.14,111.2Zm-16-65.81a4.57,4.57,0,0,0-1.29.19C14,46.45,12,50.4,11.32,56.44c-.72,6.7.28,15,2.84,23.52,5.17,17.11,14.22,27.33,20,27.33a4.24,4.24,0,0,0,1.29-.19c2.87-.86,4.88-4.82,5.54-10.85.73-6.7-.28-15.06-2.84-23.53C33,55.62,23.92,45.39,18.15,45.39Z"/><ellipse class="cls-1" cx="26.13" cy="76.34" rx="8.53" ry="25.06" transform="translate(-20.95 10.81) rotate(-16.8)"/><path class="cls-2" d="M32.49,102.41c-6.49,0-13-11.94-16.4-23-3.88-12.85-4.36-26.9,2.23-28.89a5,5,0,0,1,1.44-.21c6.49,0,13.05,11.94,16.4,23,3.88,12.85,4.36,26.9-2.22,28.89A5.09,5.09,0,0,1,32.49,102.41ZM19.76,54.18a1.06,1.06,0,0,0-.31,0c-2.51.76-3.63,10.72.38,24,3.94,13.05,10,20.27,12.66,20.27a1.13,1.13,0,0,0,.32-.05c2.5-.75,3.63-10.72-.39-24C28.48,61.39,22.44,54.18,19.76,54.18Z"/><path class="cls-1" d="M34.29,73.88C31.6,65,27.61,57.72,23.91,54.32c-1.42,4.78-.79,13.36,2,22.64,2.69,8.9,6.68,16.16,10.38,19.56C37.72,91.74,37.09,83.16,34.29,73.88Z"/><path class="cls-2" d="M36.3,98.47A2,2,0,0,1,35,98c-4.13-3.8-8.21-11.43-10.93-20.43-2.82-9.34-3.59-18.45-2-23.77a2,2,0,0,1,3.2-.88c4.13,3.8,8.21,11.43,10.93,20.43,2.82,9.34,3.59,18.45,2,23.76a2,2,0,0,1-1.36,1.33A1.81,1.81,0,0,1,36.3,98.47ZM25.17,58.76c-.26,4.71.66,11.15,2.62,17.64A55.26,55.26,0,0,0,35,92.08c.26-4.71-.66-11.15-2.62-17.64A55.13,55.13,0,0,0,25.17,58.76Z"/><path class="cls-1" d="M39.61,70.92c.39,1.24,4.57,11.23,5.89,31.19,0,0,.83,18.48,12.21,24.91L94.66,115.8a30.87,30.87,0,0,1-12.91-13.43A20,20,0,0,1,80,96.14c-1-7.45-4-27.72-8.88-37.15Z"/><path class="cls-2" d="M57.71,129a1.89,1.89,0,0,1-1-.25C44.56,121.83,43.58,103,43.55,102.2c-.54-8.12-1.94-20-5.58-30.07-.11-.29-.18-.5-.22-.63a2,2,0,0,1,1.17-2.41L70.38,57.16a2,2,0,0,1,2.43.94c4.92,9.6,8,29.62,9.08,37.79a17.87,17.87,0,0,0,1.61,5.61A29.29,29.29,0,0,0,95.5,114a2,2,0,0,1-.27,3.63L58.28,128.89A1.87,1.87,0,0,1,57.71,129ZM42.08,72.07c2.8,8.23,4.6,18.28,5.37,29.91,0,.21.89,16.73,10.52,22.92l32-9.73a33.58,33.58,0,0,1-10-11.93,21.58,21.58,0,0,1-2-6.84c-.78-5.88-3.58-25-7.93-34.94Z"/><path class="cls-1" d="M81.75,102.37A20,20,0,0,1,80,96.15c-1-7.46-3.22-28.49-8-37.92,0,0-8.09-21-21.63-20.79l-34,6.27c7.59-2.29,18.09,10.23,23.57,28-.12-.4-.21-.69-.25-.81a78.52,78.52,0,0,1,2.55,8.39c-.32-1.06-1-3.26-2.16-7.15,0-.15-.09-.28-.14-.43.55,1.8,1.79,5.89,2.31,7.61a131.85,131.85,0,0,1,3.33,22.77,40.14,40.14,0,0,0,.5,4.24c1,5.85,3.77,16.18,11.71,20.67L94.66,115.8A30.87,30.87,0,0,1,81.75,102.37Z"/><path class="cls-2" d="M57.71,129a1.89,1.89,0,0,1-1-.25c-8.66-4.89-11.66-15.91-12.68-22a41.27,41.27,0,0,1-.52-4.47,129.5,129.5,0,0,0-3.27-22.34l-.4-1.33c-.6-2-1.45-4.81-1.89-6.23C32.8,55.46,23.83,45.39,18.15,45.39H17.9l-1.25.23a2,2,0,0,1-.92-3.79,8.6,8.6,0,0,1,1.68-.32l32.51-6a1.63,1.63,0,0,1,.31,0h.29c14.22,0,22.45,20.14,23.16,21.94,4.44,8.76,6.66,26.24,7.85,35.65.13,1.07.25,2,.36,2.81a17.87,17.87,0,0,0,1.61,5.61A29.29,29.29,0,0,0,95.5,114a2,2,0,0,1-.27,3.63L58.28,128.89A1.87,1.87,0,0,1,57.71,129ZM44.06,78.84v0A133.92,133.92,0,0,1,47.45,102a39.5,39.5,0,0,0,.48,4c.87,5.27,3.33,14.56,10,18.87l32-9.73a33.58,33.58,0,0,1-10-11.93,21.58,21.58,0,0,1-2-6.84c-.1-.79-.22-1.75-.36-2.83C76.57,85,74.32,67.24,70.16,59.12a1.11,1.11,0,0,1-.09-.19C70,58.74,62.4,39.4,50.52,39.4h-.06L25.15,44.06c6.22,4.39,12.38,14,16.27,26.12l.06.15h0c0,.09.09.25.16.47A74.83,74.83,0,0,1,44.06,78.84Z"/><path class="cls-2" d="M77.76,103.12A22.12,22.12,0,0,1,76,95.68C74.8,75.72,70,63,70,63,62.81,42.79,50.71,37.84,43.15,38.18l-21,4.44c10,1.93,17.88,12.73,22.79,29.12,0,0,4.4,14.82,4.7,29.66,0,0,.17,19.17,14,23.79l26.37-8A31.1,31.1,0,0,1,77.76,103.12Z"/></svg>