<svg id="圖層_1" data-name="圖層 1" xmlns="http://www.w3.org/2000/svg" viewBox="0 0 152 152"><defs><style>.cls-1{fill:#56889c;}.cls-2{fill:#fff;}</style></defs><title>工作區域 1100</title><path class="cls-1" d="M104.63,114.77a6.69,6.69,0,0,1-4.49,8.32L54.45,135.53a6.69,6.69,0,0,1-8.08-4.91L20.86,36.89a6.68,6.68,0,0,1,4.48-8.32L71,16.13A6.7,6.7,0,0,1,79.12,21Z"/><rect class="cls-2" x="36.95" y="36.93" width="51.94" height="77.71" transform="translate(-17.69 19.18) rotate(-15.22)"/><path class="cls-2" d="M57.14,30.93a.81.81,0,0,1-.57,1L46.16,34.75a.8.8,0,0,1-1-.56h0a.82.82,0,0,1,.57-1l10.41-2.83a.8.8,0,0,1,1,.56Z"/><path class="cls-1" d="M100.5,60h0v6.77h0a6.61,6.61,0,0,1,6.6,6.6,6.51,6.51,0,0,1-.36,2.12h6.94A13.25,13.25,0,0,0,100.5,60Z"/><path class="cls-1" d="M100.5,50h0V56.8h0a16.48,16.48,0,0,1,16.43,18.7h6.82c.06-.7.1-1.41.1-2.12A23.37,23.37,0,0,0,100.5,50Z"/><path class="cls-1" d="M100.5,40h0v6.77h0a26.6,26.6,0,0,1,26.57,26.57c0,.71,0,1.42-.1,2.12h6.79c.05-.7.08-1.41.08-2.12A33.38,33.38,0,0,0,100.5,40Z"/></svg>