<svg id="圖層_1" data-name="圖層 1" xmlns="http://www.w3.org/2000/svg" viewBox="0 0 152 152"><defs><style>.cls-1{fill:#fff;}.cls-2{fill:#56889c;}</style></defs><title>工作區域 1100</title><path class="cls-1" d="M58.09,53.4a18.62,18.62,0,1,0-26.1,0,27.14,27.14,0,0,0-14.1,23.81v32.32h54.3V77.21A27.12,27.12,0,0,0,58.09,53.4Z"/><path class="cls-2" d="M74.62,112H15.46V77.21A29.6,29.6,0,0,1,28.27,52.84,20.84,20.84,0,0,1,24,40.12,21.05,21.05,0,1,1,61.82,52.84a29.62,29.62,0,0,1,12.8,24.37Zm-54.3-4.86H69.76V77.21A24.74,24.74,0,0,0,56.92,55.53L54.06,54l2.33-2.29a16.19,16.19,0,1,0-22.7,0L36,54l-2.86,1.57A24.74,24.74,0,0,0,20.32,77.21Z"/><path class="cls-1" d="M120.4,53.4a18.62,18.62,0,1,0-26.1,0A27.14,27.14,0,0,0,80.2,77.21v32.32h54.3V77.21A27.12,27.12,0,0,0,120.4,53.4Z"/><path class="cls-2" d="M136.93,112H77.77V77.21A29.6,29.6,0,0,1,90.58,52.84,20.84,20.84,0,0,1,86.3,40.12a21.06,21.06,0,1,1,37.83,12.72,29.62,29.62,0,0,1,12.8,24.37Zm-54.3-4.86h49.44V77.21a24.74,24.74,0,0,0-12.84-21.68L116.37,54l2.33-2.29a16.19,16.19,0,1,0-22.7,0L98.33,54l-2.86,1.57A24.74,24.74,0,0,0,82.63,77.21Z"/><rect class="cls-1" x="32.63" y="69.08" width="85.99" height="58.02" rx="13.84" ry="13.84" transform="translate(-7.59 6.35) rotate(-4.58)"/><path class="cls-2" d="M43.88,132.14a12.11,12.11,0,0,1-12-11.08l-3.1-38.68a12,12,0,0,1,11-13l66.56-5.34a12.1,12.1,0,0,1,13,11l3.1,38.68a12.06,12.06,0,0,1-11,13L44.85,132.1C44.53,132.12,44.2,132.14,43.88,132.14ZM107.36,68.9a5.63,5.63,0,0,0-.58,0L40.22,74.26A7.18,7.18,0,0,0,33.64,82l3.1,38.68a7.18,7.18,0,0,0,7.73,6.58L111,121.92a7.19,7.19,0,0,0,6.59-7.73l-3.1-38.68A7.22,7.22,0,0,0,107.36,68.9Z"/><rect class="cls-2" x="30.47" y="81.64" width="86.82" height="8.4" transform="translate(-6.62 6.17) rotate(-4.58)"/><path class="cls-2" d="M76,93.88A12.89,12.89,0,1,0,89.88,105.7,12.88,12.88,0,0,0,76,93.88ZM82.07,113a9.27,9.27,0,0,1-2.95,1.08l0,.66a1.49,1.49,0,1,1-3,.24l0-.68a8.51,8.51,0,0,1-2.56-.52,6.11,6.11,0,0,1-2.76-2,2.17,2.17,0,0,1-.45-1.14,1.4,1.4,0,0,1,.45-1.11A2,2,0,0,1,72,109a1.33,1.33,0,0,1,1.05.36,5.73,5.73,0,0,0,4.3,1.81c2.22-.18,3.3-.72,3.22-1.61s-1.69-1.24-4.9-1.52q-5.19-.44-5.43-3.47a4.23,4.23,0,0,1,1.62-3.77A7.23,7.23,0,0,1,75,99.38l0-.66a1.49,1.49,0,1,1,3-.24l0,.65a8.46,8.46,0,0,1,3.34.69c.93.46,1.43,1,1.48,1.59a1.79,1.79,0,0,1-.37,1.25,1.6,1.6,0,0,1-1.17.6,2.71,2.71,0,0,1-1.3-.18,8.26,8.26,0,0,0-3.82-.71,3,3,0,0,0-1.64.56,1.2,1.2,0,0,0-.58,1c0,.29.45.52,1.29.67a22.55,22.55,0,0,0,2.59.29,11.3,11.3,0,0,1,2.08.28,12.08,12.08,0,0,1,2.93,1.18,3.63,3.63,0,0,1,1.44,2.79A3.85,3.85,0,0,1,82.07,113Z"/></svg>