<svg id="圖層_1" data-name="圖層 1" xmlns="http://www.w3.org/2000/svg" viewBox="0 0 152 152"><defs><style>.cls-1{fill:#fff;}.cls-2{fill:#56889c;}</style></defs><title>工作區域 1100</title><rect class="cls-1" x="35.17" y="24.84" width="83.52" height="103.06" rx="14.76" ry="14.76"/><path class="cls-2" d="M109.27,130.14H44.59a11.66,11.66,0,0,1-11.65-11.66V34.26A11.66,11.66,0,0,1,44.59,22.61h64.68a11.66,11.66,0,0,1,11.65,11.65v84.22A11.67,11.67,0,0,1,109.27,130.14ZM44.59,27.07a7.2,7.2,0,0,0-7.19,7.19v84.22a7.2,7.2,0,0,0,7.19,7.19h64.68a7.2,7.2,0,0,0,7.19-7.19V34.26a7.2,7.2,0,0,0-7.19-7.19Z"/><rect class="cls-2" x="45.65" y="41.06" width="62.56" height="4.74"/><rect class="cls-2" x="45.65" y="56.61" width="62.56" height="4.74"/><rect class="cls-2" x="45.65" y="72.16" width="62.56" height="4.74"/><path class="cls-2" d="M79.59,85.09A16.51,16.51,0,1,0,95.72,102,16.52,16.52,0,0,0,79.59,85.09Zm5.21,25.17a12,12,0,0,1-3.9,1l0,.85a1.91,1.91,0,1,1-3.82-.09l0-.87a10.69,10.69,0,0,1-3.2-1,7.88,7.88,0,0,1-3.25-3,2.71,2.71,0,0,1-.41-1.5,1.79,1.79,0,0,1,.72-1.36,2.38,2.38,0,0,1,1.5-.46,1.68,1.68,0,0,1,1.29.6A7.3,7.3,0,0,0,79,107.3q4.29.11,4.33-1.63,0-1.41-6.06-2.58c-4.37-.82-6.53-2.54-6.47-5.14a5.45,5.45,0,0,1,2.57-4.59A9.26,9.26,0,0,1,77.52,92l0-.85a1.91,1.91,0,1,1,3.82.09l0,.84a10.57,10.57,0,0,1,4.16,1.32q1.71,1,1.68,2.22a2.3,2.3,0,0,1-.63,1.54,2.09,2.09,0,0,1-1.58.61,3.65,3.65,0,0,1-1.62-.39,10.62,10.62,0,0,0-4.78-1.42,4,4,0,0,0-2.17.5,1.53,1.53,0,0,0-.88,1.26c0,.38.51.72,1.56,1a31.88,31.88,0,0,0,3.26.71,14.52,14.52,0,0,1,2.61.63,15.72,15.72,0,0,1,3.58,1.88A4.64,4.64,0,0,1,88,105.69,5,5,0,0,1,84.8,110.26Z"/></svg>