<svg id="圖層_1" data-name="圖層 1" xmlns="http://www.w3.org/2000/svg" viewBox="0 0 152 152"><defs><style>.cls-1{fill:#fff;}.cls-2{fill:#56889c;}</style></defs><title>工作區域 1102</title><path class="cls-1" d="M139,71.64l-10.47-10.2c-2.34-2.75-7.44-2.75-7.44-2.75H98.2a4.5,4.5,0,0,0-4.49,4.49V106.4a4.47,4.47,0,0,0,3.21,4.28,16.46,16.46,0,0,1,30.74.21h10.57a4.5,4.5,0,0,0,4.5-4.49v-28C142.73,74.25,139,71.64,139,71.64Z"/><path class="cls-2" d="M98.39,113.69,96.22,113a6.91,6.91,0,0,1-5-6.64V63.18a7,7,0,0,1,7-7h22.88c.63,0,6.22.1,9.23,3.53l10.28,10c.9.7,4.6,3.83,4.6,8.62v28a7,7,0,0,1-7,6.95H126l-.6-1.59a14.09,14.09,0,0,0-13.11-9.08,13.94,13.94,0,0,0-13,8.9Zm30.89-5.26h8.95a2,2,0,0,0,2-2v-28c0-2.77-2.66-4.71-2.68-4.73l-.31-.25L126.64,63c-1.29-1.53-4.53-1.89-5.57-1.89H98.2a2,2,0,0,0-2,2V106.4a2.45,2.45,0,0,0,0,.27,18.81,18.81,0,0,1,16.06-8.91A19,19,0,0,1,129.28,108.43Z"/><path class="cls-2" d="M132.49,74l-8.1-7.6C123.31,65.1,121,65.1,121,65.1H104.61A3.89,3.89,0,0,0,100.72,69v7.56a3.55,3.55,0,0,0,3,3.52L127,82.17c4.15.21,6.07.19,7.54-1.39C136.6,78.53,134.07,75.55,132.49,74Z"/><path class="cls-1" d="M84.74,27.08H13a4.65,4.65,0,0,0-4.89,4.37v75.22A4.65,4.65,0,0,0,13,111h5.81c2.37-5.52,8.35-9.45,15.37-9.45s13,3.93,15.36,9.45h35.2a4.65,4.65,0,0,0,4.89-4.37V31.45A4.65,4.65,0,0,0,84.74,27.08Z"/><path class="cls-2" d="M84.74,113.25H47.86l-.61-1.41a14,14,0,0,0-13.07-8c-5.75,0-11,3.23-13.08,8l-.6,1.41H13c-4.05,0-7.35-3-7.35-6.58V31.45c0-3.63,3.3-6.58,7.35-6.58H84.74c4.06,0,7.35,2.95,7.35,6.58v75.22C92.09,110.3,88.8,113.25,84.74,113.25Zm-33.59-4.41H84.74a2.31,2.31,0,0,0,2.43-2.17V31.45a2.31,2.31,0,0,0-2.43-2.17H13a2.3,2.3,0,0,0-2.42,2.17v75.22A2.3,2.3,0,0,0,13,108.84h4.2c3.16-5.71,9.78-9.45,17-9.45S48,103.13,51.15,108.84Z"/><path class="cls-1" d="M47,116.7a12.78,12.78,0,1,1-12.77-12.77A12.77,12.77,0,0,1,47,116.7Z"/><path class="cls-2" d="M34.18,131.94A15.24,15.24,0,1,1,49.41,116.7,15.26,15.26,0,0,1,34.18,131.94Zm0-25.55A10.31,10.31,0,1,0,44.49,116.7,10.33,10.33,0,0,0,34.18,106.39Z"/><path class="cls-2" d="M37.71,116.7a3.54,3.54,0,1,1-3.53-3.54A3.54,3.54,0,0,1,37.71,116.7Z"/><path class="cls-1" d="M125,116.7a12.78,12.78,0,1,1-12.77-12.77A12.77,12.77,0,0,1,125,116.7Z"/><path class="cls-2" d="M112.26,131.94a15.24,15.24,0,1,1,15.23-15.24A15.26,15.26,0,0,1,112.26,131.94Zm0-25.55a10.31,10.31,0,1,0,10.31,10.31A10.33,10.33,0,0,0,112.26,106.39Z"/><path class="cls-2" d="M115.79,116.7a3.54,3.54,0,1,1-3.53-3.54A3.53,3.53,0,0,1,115.79,116.7Z"/></svg>