<svg id="圖層_1" data-name="圖層 1" xmlns="http://www.w3.org/2000/svg" viewBox="0 0 152 152"><defs><style>.cls-1{fill:#56889c;}.cls-2{fill:#fff;}.cls-3{fill:#c7e4eb;}</style></defs><title>工作區域 1100</title><rect class="cls-1" x="65.24" y="104.35" width="22.82" height="21.67"/><path class="cls-1" d="M103,126H50.33a9,9,0,0,0-8.95,9h70.54A9,9,0,0,0,103,126Z"/><rect class="cls-2" x="10.36" y="22.6" width="132.57" height="93.51" rx="7.3" ry="7.3"/><path class="cls-1" d="M137.35,120.22H16a9.7,9.7,0,0,1-9.69-9.69V28.19A9.7,9.7,0,0,1,16,18.5h121.4A9.7,9.7,0,0,1,147,28.19v82.34A9.7,9.7,0,0,1,137.35,120.22ZM16,26.71a1.48,1.48,0,0,0-1.48,1.48v82.34A1.48,1.48,0,0,0,16,112h121.4a1.48,1.48,0,0,0,1.48-1.48V28.19a1.48,1.48,0,0,0-1.48-1.48Z"/><rect class="cls-3" x="35.04" y="37.8" width="74.36" height="63.11"/><rect class="cls-3" x="23.72" y="37.8" width="7.6" height="63.11"/><rect class="cls-3" x="112.72" y="37.8" width="16.87" height="18.76"/><rect class="cls-3" x="112.72" y="59.98" width="16.87" height="18.76"/><rect class="cls-3" x="112.72" y="82.15" width="16.87" height="18.76"/></svg>