<svg id="圖層_1" data-name="圖層 1" xmlns="http://www.w3.org/2000/svg" viewBox="0 0 152 152"><defs><style>.cls-1,.cls-11{fill:#fff;}.cls-10,.cls-2,.cls-3,.cls-6,.cls-7{fill:#56889c;}.cls-3{font-size:11.18px;letter-spacing:-0.05em;}.cls-10,.cls-11,.cls-3,.cls-6,.cls-7{font-family:MicrosoftJhengHeiBold, Microsoft JhengHei;font-weight:700;}.cls-4{letter-spacing:-0.13em;}.cls-5{letter-spacing:-0.05em;}.cls-6{font-size:16.54px;letter-spacing:-0.05em;}.cls-7{font-size:11.18px;letter-spacing:-0.05em;}.cls-8{letter-spacing:-0.13em;}.cls-9{letter-spacing:-0.05em;}.cls-10{font-size:16.54px;letter-spacing:-0.05em;}.cls-11{font-size:31.35px;letter-spacing:-0.1em;}</style></defs><title>工作區域 1101</title><rect class="cls-1" x="17.13" y="21.94" width="15.92" height="19.1" transform="translate(-5.27 5.05) rotate(-10.4)"/><path class="cls-2" d="M37.39,41.34,17.1,45.06,12.8,21.64l20.29-3.72ZM20.88,39.58l11-2L29.31,23.4l-11,2Z"/><path class="cls-1" d="M56.06,52.27A23,23,0,0,0,29.32,33.83L22,35.18A23,23,0,0,0,3.52,61.91l12.25,66.72a11,11,0,0,0,12.75,8.8l31-5.69A11,11,0,0,0,68.31,119Z"/><path class="cls-2" d="M59.93,134.06l-31,5.68a13.33,13.33,0,0,1-15.5-10.69L1.21,62.34A25.35,25.35,0,0,1,21.54,32.86l7.36-1.35A25.36,25.36,0,0,1,58.38,51.84l12.24,66.72A13.33,13.33,0,0,1,59.93,134.06ZM22.39,37.49a20.63,20.63,0,0,0-16.55,24L18.08,128.2a8.61,8.61,0,0,0,10,6.91l31-5.69a8.6,8.6,0,0,0,6.91-10L53.74,52.69a20.63,20.63,0,0,0-24-16.55Z"/><path class="cls-1" d="M18.81,16.51H28.1A5.45,5.45,0,0,1,33.55,22v6.64a0,0,0,0,1,0,0H13.36a0,0,0,0,1,0,0V22A5.45,5.45,0,0,1,18.81,16.51Z" transform="translate(-3.69 4.6) rotate(-10.4)"/><path class="cls-2" d="M37.22,28.58l-24.5,4.5L10.78,22.47a6,6,0,0,1,4.83-7l12.65-2.32a6,6,0,0,1,7,4.83Zm-20.72-1,15.23-2.8-1.09-6a1.32,1.32,0,0,0-1.53-1.05L16.46,20.09a1.32,1.32,0,0,0-1.05,1.53Z"/><rect class="cls-1" x="5.95" y="56.83" width="53.42" height="31.73" transform="translate(-12.59 7.09) rotate(-10.4)"/><path class="cls-2" d="M64.53,85.37,7.36,95.86.78,60,58,49.53Zm-53.39,5,47.91-8.79L54.17,55,6.26,63.8Z"/><text class="cls-3" transform="matrix(0.98, -0.18, 0.18, 0.98, 12.48, 87.35)">WH<tspan class="cls-4" x="19.27" y="0">A</tspan><tspan class="cls-5" x="25.88" y="0">TER</tspan></text><text class="cls-6" transform="matrix(0.98, -0.18, 0.18, 0.98, 17.33, 76.32)">必勝</text><rect class="cls-1" x="73.85" y="22.35" width="15.92" height="19.1" transform="translate(1.69 -4.03) rotate(2.85)"/><path class="cls-2" d="M91.51,44.31l-20.6-1L72.1,19.5l20.6,1Zm-15.66-5.5,11.2.56L87.76,25l-11.19-.55Z"/><path class="cls-1" d="M107.19,59.23a23,23,0,0,0-21.8-24.08l-7.47-.38a23,23,0,0,0-24.08,21.8l-3.38,67.74a11,11,0,0,0,10.4,11.49l31.46,1.57A11,11,0,0,0,103.81,127Z"/><path class="cls-2" d="M92.2,139.72l-31.46-1.56a13.33,13.33,0,0,1-12.63-14l3.37-67.75A25.37,25.37,0,0,1,78,32.42l7.47.38a25.35,25.35,0,0,1,24,26.55l-3.38,67.74A13.33,13.33,0,0,1,92.2,139.72ZM77.8,37.12A20.64,20.64,0,0,0,56.19,56.69l-3.38,67.74a8.6,8.6,0,0,0,8.16,9L92.44,135a8.61,8.61,0,0,0,9-8.16l3.37-67.75A20.62,20.62,0,0,0,85.27,37.5Z"/><path class="cls-1" d="M77.62,16.79H86.9a5.45,5.45,0,0,1,5.45,5.45v6.64a0,0,0,0,1,0,0H72.16a0,0,0,0,1,0,0V22.24A5.45,5.45,0,0,1,77.62,16.79Z" transform="translate(1.24 -4.07) rotate(2.85)"/><path class="cls-2" d="M94.28,31.85,69.41,30.61l.53-10.77a6,6,0,0,1,6.32-5.72l12.84.64a6,6,0,0,1,5.71,6.32ZM74.34,26.14l15.47.77.3-6.07a1.3,1.3,0,0,0-1.25-1.37L76,18.83a1.32,1.32,0,0,0-1.38,1.24Z"/><rect class="cls-1" x="53.01" y="57.88" width="53.42" height="31.73" transform="translate(3.77 -3.88) rotate(2.85)"/><path class="cls-2" d="M107.84,93.39l-58-2.9L51.6,54.1,109.65,57ZM54.72,86l48.65,2.42,1.35-27L56.07,59Z"/><text class="cls-7" transform="translate(56.73 83.33) rotate(2.85)">WH<tspan class="cls-8" x="19.27" y="0">A</tspan><tspan class="cls-9" x="25.88" y="0">TER</tspan></text><text class="cls-10" transform="translate(63.98 73.7) rotate(2.85)">必勝</text><circle class="cls-2" cx="122.51" cy="106.42" r="28.7" transform="translate(-33.6 150.71) rotate(-56.82)"/><text class="cls-11" transform="translate(102.63 123.48) rotate(-13.18)">OK</text></svg>