<svg id="圖層_1" data-name="圖層 1" xmlns="http://www.w3.org/2000/svg" viewBox="0 0 152 152"><defs><style>.cls-1{fill:#fff;}.cls-2{fill:#56889c;}</style></defs><title>工作區域 1100</title><rect class="cls-1" x="43.3" y="21.91" width="15.11" height="18.13"/><path class="cls-2" d="M60.64,42.27H41.06V19.67H60.64ZM45.53,37.8H56.17V24.14H45.53Z"/><path class="cls-1" d="M76.2,55.68a21.8,21.8,0,0,0-21.8-21.8H47.3a21.8,21.8,0,0,0-21.8,21.8v64.37a10.4,10.4,0,0,0,10.4,10.4H65.8a10.4,10.4,0,0,0,10.4-10.4Z"/><path class="cls-2" d="M65.8,132.69H35.9a12.65,12.65,0,0,1-12.63-12.64V55.68a24.06,24.06,0,0,1,24-24h7.1a24.06,24.06,0,0,1,24,24v64.37A12.65,12.65,0,0,1,65.8,132.69ZM47.3,36.11A19.58,19.58,0,0,0,27.74,55.68v64.37a8.18,8.18,0,0,0,8.16,8.17H65.8A8.18,8.18,0,0,0,74,120.05V55.68A19.58,19.58,0,0,0,54.4,36.11Z"/><path class="cls-1" d="M46.72,16.62H55a5.45,5.45,0,0,1,5.45,5.45v6a0,0,0,0,1,0,0H41.27a0,0,0,0,1,0,0v-6A5.45,5.45,0,0,1,46.72,16.62Z"/><path class="cls-2" d="M62.67,30.33H39V20.1a5.73,5.73,0,0,1,5.72-5.72H57a5.73,5.73,0,0,1,5.72,5.72ZM43.5,25.86H58.2V20.1A1.25,1.25,0,0,0,57,18.85H44.75A1.25,1.25,0,0,0,43.5,20.1Z"/><rect class="cls-1" x="25.5" y="55.68" width="50.7" height="30.12"/><path class="cls-2" d="M78.43,88H23.27V53.44H78.43ZM27.74,83.56H74V57.91H27.74Z"/><rect class="cls-1" x="95.09" y="21.91" width="15.11" height="18.13"/><path class="cls-2" d="M112.43,42.27H92.86V19.67h19.57ZM97.32,37.8H108V24.14H97.32Z"/><path class="cls-1" d="M128,55.68a21.8,21.8,0,0,0-21.79-21.8H99.09A21.8,21.8,0,0,0,77.3,55.68v64.37a10.39,10.39,0,0,0,10.4,10.4h29.89a10.39,10.39,0,0,0,10.4-10.4Z"/><path class="cls-2" d="M117.59,132.69H87.7a12.65,12.65,0,0,1-12.64-12.64V55.68a24.06,24.06,0,0,1,24-24h7.11a24.06,24.06,0,0,1,24,24v64.37A12.65,12.65,0,0,1,117.59,132.69ZM99.09,36.11A19.59,19.59,0,0,0,79.53,55.68v64.37a8.18,8.18,0,0,0,8.17,8.17h29.89a8.18,8.18,0,0,0,8.17-8.17V55.68A19.59,19.59,0,0,0,106.2,36.11Z"/><path class="cls-1" d="M98.52,16.62h8.26a5.45,5.45,0,0,1,5.45,5.45v6a0,0,0,0,1,0,0H93.06a0,0,0,0,1,0,0v-6A5.45,5.45,0,0,1,98.52,16.62Z"/><path class="cls-2" d="M114.46,30.33H90.83V20.1a5.72,5.72,0,0,1,5.71-5.72h12.21a5.72,5.72,0,0,1,5.71,5.72ZM95.3,25.86H110V20.1a1.25,1.25,0,0,0-1.24-1.25H96.54A1.25,1.25,0,0,0,95.3,20.1Z"/><rect class="cls-1" x="77.3" y="55.68" width="50.7" height="30.12"/><path class="cls-2" d="M130.23,88H75.06V53.44h55.17Zm-50.7-4.46h46.23V57.91H79.53Z"/><rect class="cls-1" x="69.19" y="29.36" width="15.11" height="18.13"/><path class="cls-2" d="M86.54,49.72H67V27.12H86.54ZM71.43,45.25H82.07V31.59H71.43Z"/><path class="cls-1" d="M102.1,63.13a21.8,21.8,0,0,0-21.8-21.8H73.2a21.8,21.8,0,0,0-21.8,21.8V127.5a10.4,10.4,0,0,0,10.4,10.4H91.7a10.4,10.4,0,0,0,10.4-10.4Z"/><path class="cls-2" d="M91.7,140.14H61.8A12.65,12.65,0,0,1,49.17,127.5V63.13a24.07,24.07,0,0,1,24-24h7.1a24.07,24.07,0,0,1,24,24V127.5A12.65,12.65,0,0,1,91.7,140.14ZM73.2,43.56A19.59,19.59,0,0,0,53.63,63.13V127.5a8.18,8.18,0,0,0,8.17,8.17H91.7a8.17,8.17,0,0,0,8.16-8.17V63.13A19.58,19.58,0,0,0,80.3,43.56Z"/><path class="cls-1" d="M72.62,24.07h8.26a5.45,5.45,0,0,1,5.45,5.45v6a0,0,0,0,1,0,0H67.17a0,0,0,0,1,0,0v-6A5.45,5.45,0,0,1,72.62,24.07Z"/><path class="cls-2" d="M88.56,37.78H64.93V27.55a5.73,5.73,0,0,1,5.72-5.72h12.2a5.72,5.72,0,0,1,5.71,5.72ZM69.4,33.32H84.1V27.55a1.25,1.25,0,0,0-1.25-1.25H70.65a1.25,1.25,0,0,0-1.25,1.25Z"/><rect class="cls-1" x="51.4" y="63.13" width="50.7" height="30.11"/><path class="cls-2" d="M104.33,95.48H49.17V60.89h55.16ZM53.63,91H99.86V65.36H53.63Z"/></svg>