<svg id="圖層_1" data-name="圖層 1" xmlns="http://www.w3.org/2000/svg" viewBox="0 0 152 152"><defs><style>.cls-1{fill:#fff;}.cls-2{fill:#56889c;}</style></defs><title>工作區域 1100</title><rect class="cls-1" x="30.13" y="26" width="83.52" height="103.06" rx="14.76" ry="14.76" transform="translate(-8.52 8.88) rotate(-6.67)"/><path class="cls-2" d="M110.26,127.18,46,134.69a11.67,11.67,0,0,1-12.93-10.23L23.31,40.82A11.66,11.66,0,0,1,33.53,27.89l64.24-7.52A11.67,11.67,0,0,1,110.7,30.6l9.78,83.64A11.67,11.67,0,0,1,110.26,127.18ZM34.05,32.32a7.2,7.2,0,0,0-6.31,8L37.53,124a7.2,7.2,0,0,0,8,6.3l64.24-7.51a7.19,7.19,0,0,0,6.3-8l-9.78-83.65a7.2,7.2,0,0,0-8-6.3Z"/><path class="cls-2" d="M109.22,115.7l-64.84,7.58L34.07,35.15l64.84-7.59ZM48.3,118.33l56-6.55L95,32.52,39,39.07Z"/><path class="cls-2" d="M48.67,46.22a3.2,3.2,0,0,1-3.54-2.79L42.81,23.56a3.18,3.18,0,1,1,6.32-.74l2.33,19.87A3.19,3.19,0,0,1,48.67,46.22Z"/><path class="cls-2" d="M61.53,44.71A3.18,3.18,0,0,1,58,41.92L55.68,22.05A3.18,3.18,0,0,1,62,21.31l2.33,19.87A3.18,3.18,0,0,1,61.53,44.71Z"/><path class="cls-2" d="M74.4,43.21a3.19,3.19,0,0,1-3.53-2.79L68.55,20.55a3.18,3.18,0,1,1,6.32-.74l2.32,19.87A3.18,3.18,0,0,1,74.4,43.21Z"/><path class="cls-2" d="M87.27,41.7a3.17,3.17,0,0,1-3.53-2.79L81.41,19a3.19,3.19,0,0,1,6.33-.74l2.32,19.87A3.17,3.17,0,0,1,87.27,41.7Z"/><path class="cls-1" d="M88.6,109.88,85.91,96.61l13.5,1.13,26.75,23.8a4.82,4.82,0,0,1,.4,6.8l-4.4,4.95a4.82,4.82,0,0,1-6.8.39Z"/><path class="cls-2" d="M118.74,137.13a7,7,0,0,1-4.87-1.78l-27.31-24.3L83.13,94.13l17.2,1.45,27.31,24.29a7.05,7.05,0,0,1,.59,10l-4.41,4.94A7,7,0,0,1,118.74,137.13ZM90.65,108.71,116.84,132a2.65,2.65,0,0,0,1.79.65,2.56,2.56,0,0,0,1.86-.87l4.4-4.94a2.62,2.62,0,0,0,.65-1.87,2.56,2.56,0,0,0-.87-1.78L98.48,99.9l-9.79-.82Z"/><rect class="cls-2" x="85.88" y="101.58" width="16.25" height="4.47" transform="translate(-46.04 105.03) rotate(-48.34)"/><rect class="cls-2" x="109.49" y="122.58" width="16.25" height="4.47" transform="translate(-53.81 129.72) rotate(-48.34)"/><rect class="cls-2" x="105.37" y="96.49" width="4.47" height="31.6" transform="translate(-47.81 118.04) rotate(-48.34)"/><rect class="cls-2" x="101.77" y="100.54" width="4.47" height="31.6" transform="translate(-52.04 116.71) rotate(-48.34)"/></svg>